<svg width="214" height="529" viewBox="0 0 214 529" fill="none" xmlns="http://www.w3.org/2000/svg">
<path d="M-460.704 -358.814C-455.887 -358.704 -451.304 -356.687 -449.134 -350.176C-448.495 -348.255 -445.03 -346.408 -442.659 -346.13C-439.34 -345.752 -438.677 -348.474 -438.991 -351.564C-438.893 -352.203 -438.627 -352.805 -438.219 -353.307C-437.811 -353.809 -437.277 -354.193 -436.671 -354.42C-435.942 -354.465 -435.212 -354.345 -434.536 -354.069C-433.86 -353.792 -433.256 -353.367 -432.768 -352.824C-430.069 -349.14 -428.199 -344.774 -425.118 -341.513C-422.941 -339.341 -419.998 -338.114 -416.923 -338.096C-412.076 -338.402 -409.082 -336.757 -407.262 -332.644C-404.061 -325.398 -399.583 -319.638 -391.991 -316.318C-390.21 -315.527 -389.126 -311.979 -388.73 -309.54C-388.294 -306.855 -389.133 -303.997 -389.237 -301.177C-389.691 -292.447 -386.545 -290.071 -378.027 -292.593C-373.651 -293.898 -369.255 -295.094 -364.864 -296.377C-356.497 -298.739 -349.326 -304.164 -344.777 -311.574C-341.704 -316.484 -336.875 -317.388 -333.512 -314.3C-325.499 -306.96 -316.14 -305.948 -305.467 -306.415C-303.578 -311.477 -299.841 -313.543 -293.222 -312.169C-289.47 -311.401 -285.174 -313.997 -281.087 -314.658C-279.244 -314.992 -276.488 -314.8 -275.479 -313.616C-268.877 -306.28 -261.852 -310.769 -254.89 -312.413C-254.708 -312.462 -254.551 -312.637 -254.367 -312.713C-245.444 -316.566 -243.214 -316.188 -238.627 -308.1C-236.124 -303.69 -233.175 -300.757 -228.154 -299.983C-227.134 -299.804 -226.182 -299.351 -225.4 -298.673C-215.672 -290.26 -204.75 -292.512 -193.946 -295.407C-185.106 -297.785 -176.013 -297.863 -168.009 -294.529C-163.028 -292.45 -159.855 -286.101 -155.796 -281.772C-152.389 -278.154 -149.304 -273.954 -145.22 -271.386C-142.465 -269.642 -138.217 -270.266 -134.64 -269.851C-132.706 -269.615 -130.55 -269.909 -128.876 -269.152C-121.587 -265.839 -114.436 -262.214 -107.103 -258.637C-100.375 -262.612 -94.2458 -259.689 -92.4866 -251.303C-92.042 -248.943 -91.772 -246.552 -91.6787 -244.152C-91.1774 -235.961 -87.4586 -230.752 -79.7974 -228.398C-78.4338 -227.975 -76.5109 -229.004 -74.913 -229.592C-69.9186 -231.533 -66.3449 -229.148 -67.6082 -224.102C-69.5583 -216.292 -68.3183 -209.017 -65.5084 -201.773C-65.2218 -201.034 -64.7319 -200.066 -64.9839 -199.484C-70.0759 -187.782 -57.0644 -185.976 -53.3922 -179.087C-51.953 -176.396 -45.7754 -176.535 -42.1334 -174.657C-37.1606 -172.079 -33.905 -167.109 -26.7306 -167.763C-21.8779 -168.248 -18.2993 -161.245 -18.1081 -155.933C-17.9248 -151.212 -16.5336 -146.549 -16.2543 -141.801C-16.0718 -138.605 -15.8169 -134.444 -17.5646 -132.265C-24.8237 -123.059 -24.5273 -111.001 -16.1733 -102.29C-13.3189 -99.3135 -10.9548 -95.851 -8.15936 -92.7966C-7.1369 -91.6609 -5.4884 -91.1007 -4.13422 -90.2489C-1.88129 -88.8223 0.923279 -87.8184 2.5083 -85.8405C5.25568 -82.4363 8.1936 -82.0266 12.11 -83.0938C20.1827 -85.4253 22.4294 -83.2611 22.8116 -74.9854C22.9292 -71.7011 25.0827 -68.5279 26.0895 -65.2336C27.0478 -62.5652 27.6561 -59.7838 27.899 -56.9589C27.9158 -54.5496 27.366 -52.1701 26.2938 -50.0125C24.2181 -45.7149 26.3467 -44.388 29.9808 -43.101C34.1083 -41.627 38.0197 -39.5365 42.0164 -37.6906C43.2936 -37.093 44.4919 -35.9956 45.8011 -35.8411C60.0844 -34.2513 58.8411 -21.2223 62.9775 -12.3034C65.6704 -6.45538 67.2028 -0.0747375 68.9745 6.2063C69.7938 9.09866 70.7906 12.2893 70.3378 15.1324C69.3239 21.5392 69.8012 26.3318 75.7014 30.8151C80.564 34.5036 83.7399 40.5326 87.8058 45.3832C91.1663 49.4211 94.7769 53.2677 98.2459 57.2144C99.2921 58.4058 100.716 59.5492 101.14 60.9692C104.045 70.6172 111.517 74.6794 120.373 77.1914C124.134 78.2582 127.946 80.4728 131.596 80.2307C136.538 79.8817 141.33 77.6137 146.218 76.2685C150.599 75.0502 154.993 73.7133 159.467 72.94C161.258 72.8708 163.006 73.4946 164.349 74.6818C170.335 79.8159 176.594 80.1157 183.622 76.9293C184.508 76.567 185.456 76.3832 186.413 76.3885C187.37 76.3938 188.317 76.5881 189.198 76.9601C195.268 80.0591 201.273 83.344 207.022 86.9989C216.441 92.9685 216.187 104.527 206.894 111.104C203.012 113.855 199.861 117.812 195.765 120.062C188.773 123.912 181.806 128.784 173.044 126.522C172.298 126.228 171.491 126.127 170.696 126.229C161.273 129.18 150.732 126.897 141.771 132.534C137.136 135.452 132.112 134.733 127.647 131.372C121.554 126.763 116.317 129.026 109.948 131.991C102.145 135.625 100.474 138.325 107.035 144.546C109.617 147.001 110.929 150.737 113.393 153.348C118.413 158.652 118.385 164.901 113.177 171.404C117.607 177.247 122.401 182.701 126.108 188.827C128.305 192.458 128.269 197.388 130.121 201.254C132.94 207.077 138.706 212.252 139.358 218.124C140.229 226.305 143.768 233.158 145.762 240.603C147.225 246.063 143.21 253.212 140.984 259.367C139.184 264.326 137.642 268.499 140.353 274.049C142.668 278.784 142.413 284.748 143.595 290.088C144.147 292.137 145.048 294.076 146.257 295.82C149.927 301.575 153.085 307.271 147.781 313.817C147.055 315.013 146.491 316.3 146.103 317.644C152.319 324.1 152.409 331.718 147.116 338.997C145.531 341.186 144.989 344.425 144.783 347.229C144.385 352.593 143.574 357.243 138.718 360.858C135.487 363.258 132.699 366.124 135.827 371.775C138.419 376.418 137.472 382.612 133.278 387.309C129.425 391.559 126.414 396.169 127.346 402.427C127.543 403.66 126.378 405.169 125.667 406.45C123.138 410.976 120.059 415.267 118.07 420.02C115.773 425.476 120.137 430.052 125.5 432.365C130.206 434.411 133.699 439.238 137.766 442.803C141.833 446.368 143.144 452.089 149.881 453.308C152.554 453.788 155.613 459.414 156.008 462.872C156.29 465.581 153.166 469.538 150.494 471.38C147.613 473.367 146.533 474.365 148.044 477.853C150.668 483.941 147.249 489.113 143.551 493.215C137.601 499.792 139.508 506.347 141.874 513.294C142.365 514.696 143.03 516.548 142.505 517.699C140.198 522.786 140.743 527.702 144.324 531.503C147.745 535.106 151.732 538.126 156.126 540.443C166.109 545.703 175.171 550.572 178.643 563.232C184.011 583.001 177.57 594.665 156.83 597.962C151.276 598.839 144.643 606.742 144.033 613.2C143.686 616.804 149.282 624.188 153.091 626.359C155.988 628.001 158.513 630.225 160.507 632.892C163.449 637.025 166.688 639.384 171.967 638.572C173.347 638.362 175.562 638.788 176.275 639.758C179.568 644.037 182.515 648.572 185.086 653.321C188.059 659.12 189.724 665.634 192.962 671.167C195.858 676.083 196.133 679.99 192.078 683.914C187.785 688.078 183.432 685.033 179.241 683.621C176.427 682.681 173.88 680.917 171.068 679.95C170.322 679.675 169.528 679.551 168.734 679.587C167.94 679.624 167.161 679.819 166.443 680.161C159.909 684.891 152.442 688.328 147.104 694.741C141.765 701.154 135.958 707.045 130.483 713.282C129.234 714.58 128.361 716.193 127.957 717.949C126.592 726.95 125.563 735.949 124.34 744.948C123.656 749.91 121.143 753.633 116.184 755.077C112.722 756.068 109.192 756.807 105.623 757.286C97.7259 758.321 93.4676 762.281 92.0759 770.19C90.4906 779.064 82.8111 784.517 73.5626 783.387C66.4521 782.526 57.7622 788.543 54.4344 794.718C50.067 802.937 45.4161 811.719 37.0809 816.346C31.8433 819.266 25.0208 819.844 18.8067 820.409C11.8563 821.039 8.12781 823.404 8.01746 830.304C7.88342 838.142 -5.52618 848.482 -14.1707 848.679C-15.5768 848.693 -16.9284 848.612 -17.8386 848.589C-20.079 853.463 -21.9005 858.047 -24.2376 862.362C-26.5747 866.676 -33.4019 869.321 -39.6227 868.009C-47.4415 866.292 -55.1887 864.014 -63.041 862.404C-66.5513 861.677 -70.2735 861.948 -73.8962 861.828C-74.6923 861.802 -75.712 862.43 -76.2574 862.115C-87.0205 856.027 -94.7224 865.83 -103.97 867.484C-105.001 867.671 -106.048 869.291 -106.574 870.469C-109.709 877.497 -114.811 879.698 -121.331 876.045C-125.096 873.871 -128.394 872.681 -132.308 875.414C-133.358 876.044 -134.602 876.271 -135.808 876.05C-144.326 874.334 -153.143 873.328 -161.169 870.274C-165.63 868.579 -168.666 863.372 -174.508 863.44C-177.787 863.476 -181.271 862.025 -184.319 862.726C-196.149 865.461 -206.539 862.022 -216.433 856.099C-219.812 854.079 -222.957 852.333 -227.113 853.863C-227.873 854.135 -228.68 854.25 -229.486 854.201C-230.291 854.152 -231.079 853.939 -231.8 853.577C-234.049 852.044 -236.605 851.019 -239.29 850.575C-241.975 850.131 -244.725 850.277 -247.348 851.005C-248.736 851.35 -252.104 848.706 -252.551 846.938C-255.177 836.443 -255.148 837.048 -264.886 834.391C-269.141 833.234 -273.174 829.368 -276.121 825.778C-279.72 821.209 -284.737 817.968 -290.381 816.566C-294.515 815.466 -298.239 812.785 -302.098 810.724C-303.885 809.871 -305.573 808.821 -307.13 807.595C-310.013 805.105 -313.44 802.805 -315.274 799.635C-318.252 794.475 -330.844 787.849 -336.734 789.427C-337.509 789.598 -338.232 789.953 -338.841 790.462C-344.097 795.664 -349.554 800.708 -354.459 806.225C-360.737 813.271 -369.524 814.225 -377.756 815.5C-379.859 815.824 -384.077 810.34 -385.228 806.836C-386.579 802.756 -388.138 801.17 -392.279 801.269C-395.871 801.363 -415.129 787.559 -416.483 784.624C-418.647 779.728 -421.099 774.964 -423.825 770.358C-429.173 761.817 -428.945 762.27 -422.244 754.224C-417.704 748.572 -413.893 742.371 -410.903 735.767C-409.82 733.456 -411.348 729.539 -412.466 726.656C-415.153 719.707 -410.349 705.839 -403.72 702.52C-402.979 702.213 -402.22 701.95 -401.448 701.734C-391.53 698.119 -386.503 688.323 -387.85 677.77C-388.629 671.586 -387.31 665.16 -387.344 658.847C-387.377 656.607 -388.061 654.425 -389.311 652.566C-391.979 648.83 -392.585 645.375 -389.823 641.488C-388.91 640.197 -387.738 638.65 -387.755 637.228C-387.834 629.225 -383.07 625.528 -376.365 622.827C-369.021 619.795 -366.498 609.225 -371.232 602.674C-372.034 601.28 -372.955 599.957 -373.985 598.722C-379.449 593.483 -380.372 587.356 -377.712 580.543C-375.729 575.437 -376.771 571.647 -381.764 568.96C-386.757 566.273 -390.213 562.376 -390.143 556.054C-390.101 550.749 -393.79 547.837 -398.034 545.498C-403.091 542.704 -404.942 539.734 -403.698 532.929C-402.183 524.555 -402.067 515.989 -403.354 507.578C-404.75 498.199 -409.429 488.841 -406.332 478.826C-405.985 477.74 -407.03 475.626 -408.054 474.881C-409.078 474.136 -411.679 473.893 -412.336 474.619C-415.77 478.145 -418.371 476.812 -422.705 475.624C-427.791 474.212 -431.014 470.953 -435.222 468.915C-444.066 464.662 -446.743 456.558 -450.099 448.662C-450.336 448.096 -450.368 447.464 -450.188 446.877C-446.845 438.375 -453.419 434.453 -458.071 429.6C-459.243 428.245 -460.345 426.829 -461.37 425.36C-465.361 420.161 -469.515 415.245 -475.984 412.546C-478.302 411.571 -479.549 407.578 -480.867 404.775C-482.576 401.146 -483.752 397.516 -488.559 396.517C-491.044 395.977 -493.407 393.941 -495.569 392.26C-504.172 385.531 -512.659 378.673 -521.203 371.866C-521.371 371.769 -521.703 371.69 -521.707 371.575C-522.276 364.618 -531.595 361.671 -529.89 353.607C-529.657 352.229 -529.927 350.814 -530.649 349.617C-537.569 338.979 -544.407 328.249 -551.738 317.863C-554.606 313.844 -558.815 310.743 -562.332 307.146C-563.268 306.2 -564.779 304.796 -564.637 303.871C-563.373 297.351 -561.772 290.9 -559.841 284.544C-558.473 280.286 -556.284 276.543 -560.188 272.332C-561.922 270.491 -562.217 267.538 -563.543 265.304C-569.142 255.9 -574.846 246.547 -580.654 237.245C-581.612 235.953 -582.797 234.847 -584.153 233.981C-587.618 231.508 -590.121 227.913 -591.237 223.805C-592.352 219.696 -592.011 215.328 -590.272 211.443C-589.504 209.775 -587.803 207.652 -586.258 207.398C-578.696 206.169 -578.867 200.701 -579.02 195.103C-579.104 191.907 -579.14 188.698 -579.171 185.506C-579.225 179.182 -577.979 172.517 -584.388 168.02C-589.74 164.259 -588.877 159.47 -585.755 154.91C-583.567 151.726 -584.17 149.015 -584.708 145.418C-586.117 135.99 -589.652 125.908 -581.45 117.54C-578.022 114.023 -579.247 110.575 -581.979 107.991C-588.484 101.844 -588.398 95.2509 -585.013 87.6678C-583.67 84.5159 -582.947 81.1344 -582.885 77.7088C-582.781 72.2728 -579.907 69.2332 -575.551 66.8956C-568.739 63.2351 -567.919 58.9815 -571.947 52.3209C-574.533 48.0311 -579.819 43.9863 -574.183 37.9545C-573.597 37.3277 -576.08 31.9643 -578.088 31.1547C-582.416 29.3974 -587.447 29.5132 -592.032 28.2505C-598.523 26.4611 -604.818 23.9454 -611.282 22.0869C-616.152 20.6128 -621.127 19.5125 -626.163 18.7955C-629.276 18.4381 -632.277 17.4206 -634.965 15.8108C-637.653 14.201 -639.966 12.036 -641.751 9.46054C-643.213 7.35663 -644.919 5.43295 -646.833 3.72958C-651.586 -0.147705 -652.664 -4.96548 -649.196 -9.95535C-646.095 -14.4301 -644.887 -18.6549 -646.255 -24.5211C-648.166 -32.715 -648.385 -41.3716 -648.841 -49.858C-648.866 -52.2484 -649.508 -54.5919 -650.704 -56.6617C-651.9 -58.7315 -653.61 -60.4576 -655.669 -61.6731C-664.5 -67.4989 -674.38 -72.4761 -681.37 -80.1338C-686.321 -85.5097 -687.253 -94.578 -689.964 -102.017C-689.99 -102.115 -689.992 -102.218 -689.971 -102.318C-689.95 -102.417 -689.906 -102.511 -689.843 -102.59C-681.182 -107.127 -683.241 -118.748 -675.35 -124.205C-671.602 -126.796 -668.499 -130.766 -669.35 -137.019C-670.08 -144.173 -669.782 -151.395 -668.464 -158.464C-667.929 -161.693 -664.436 -164.375 -662.515 -167.461C-660.593 -170.547 -657.819 -173.923 -657.122 -177.479C-655.884 -184.899 -655.105 -192.389 -654.789 -199.905C-654.662 -201.65 -655.835 -203.544 -656.643 -205.269C-657.613 -207.367 -660.068 -209.582 -659.745 -211.353C-658.489 -218.082 -656.395 -224.663 -654.544 -231.285C-654.456 -231.575 -654.301 -231.84 -654.092 -232.059C-653.883 -232.279 -653.625 -232.446 -653.339 -232.547C-644.777 -233.547 -645.966 -238.876 -647.363 -244.885C-647.994 -247.571 -646.503 -250.71 -646.967 -253.467C-647.929 -258.473 -649.205 -263.414 -650.789 -268.26C-651.91 -271.914 -651.21 -274.796 -647.693 -276.262C-644.176 -277.727 -640.427 -278.723 -636.811 -280.02C-635.722 -280.297 -634.737 -280.885 -633.975 -281.711C-628.482 -290.062 -623.38 -298.682 -617.586 -306.804C-615.004 -310.404 -611.861 -313.134 -611.439 -318.177C-611.139 -321.723 -601.979 -325.189 -597.138 -324.562C-591.082 -323.764 -590.433 -324.55 -592.523 -330.134C-593.454 -332.786 -593.553 -335.66 -592.805 -338.37C-592.058 -341.081 -590.5 -343.498 -588.341 -345.298C-586.829 -346.537 -584.963 -347.781 -584.223 -349.451C-582.047 -354.334 -579.028 -357.262 -573.255 -356.894C-572.039 -356.821 -570.719 -358.646 -569.407 -359.539C-561.811 -364.774 -560.942 -376.09 -551.319 -379.484C-550.077 -380.105 -548.765 -380.572 -547.41 -380.877C-537.176 -381.793 -527.732 -385.192 -518.166 -388.801C-509.734 -391.974 -500.614 -393.407 -491.758 -395.399C-488.04 -396.244 -484.085 -397.401 -480.464 -396.891C-474.326 -396.018 -469.696 -389.527 -469.596 -383.33C-469.574 -382.157 -469.855 -380.096 -469.462 -379.953C-458.074 -375.867 -467.333 -364.893 -460.704 -358.814Z" fill="#47F066"/>
<path d="M-592.111 493.931C-593.818 492.893 -595.464 491.756 -597.039 490.526C-606.307 482.84 -606.402 471.136 -597.212 463.478C-592.596 459.626 -587.837 455.913 -582.912 452.492C-578.762 449.616 -575.803 453.016 -572.748 455.185C-569.693 457.355 -567.206 460.119 -563.994 461.386C-553.14 465.695 -552.778 474.49 -556.246 483.452C-562.047 498.465 -576.966 502.87 -592.111 493.931Z" fill="#47F066"/>
<path d="M-469.933 -413.871C-477.081 -418.446 -483.896 -423.234 -487.005 -431.923C-488.411 -435.422 -489.995 -438.848 -491.75 -442.186C-492.271 -443.27 -493.472 -444.313 -493.406 -445.324C-493.192 -448.892 -492.583 -452.442 -492.109 -456C-488.864 -454.546 -484.765 -453.872 -482.527 -451.475C-478.108 -446.728 -473.516 -441.504 -471.206 -435.597C-468.71 -429.191 -468.731 -421.792 -467.646 -414.83L-469.933 -413.871Z" fill="#47F066"/>
<path d="M-737 196.358C-732.03 195.55 -728.619 193.953 -726.134 194.954C-724.587 195.568 -723.273 200.438 -724.083 202.543C-725.477 206.144 -729.467 207.896 -732.964 205.331C-734.799 203.978 -735.174 200.657 -737 196.358Z" fill="#47F066"/>
</svg>
