<svg width="249" height="529" viewBox="0 0 249 529" fill="none" xmlns="http://www.w3.org/2000/svg">
<path d="M229.296 -358.814C234.113 -358.704 238.696 -356.687 240.866 -350.176C241.505 -348.255 244.97 -346.408 247.341 -346.13C250.66 -345.752 251.323 -348.474 251.009 -351.564C251.107 -352.203 251.373 -352.805 251.781 -353.307C252.189 -353.809 252.723 -354.193 253.329 -354.42C254.058 -354.465 254.788 -354.345 255.464 -354.069C256.14 -353.792 256.744 -353.367 257.232 -352.824C259.931 -349.14 261.801 -344.774 264.882 -341.513C267.059 -339.341 270.002 -338.114 273.077 -338.096C277.924 -338.402 280.918 -336.757 282.738 -332.644C285.939 -325.398 290.417 -319.638 298.009 -316.318C299.79 -315.527 300.874 -311.979 301.27 -309.54C301.706 -306.855 300.867 -303.997 300.763 -301.177C300.309 -292.447 303.455 -290.071 311.973 -292.593C316.349 -293.898 320.745 -295.094 325.136 -296.377C333.503 -298.739 340.674 -304.164 345.223 -311.574C348.296 -316.484 353.125 -317.388 356.488 -314.3C364.501 -306.96 373.86 -305.948 384.533 -306.415C386.422 -311.477 390.159 -313.543 396.778 -312.169C400.53 -311.401 404.826 -313.997 408.913 -314.658C410.756 -314.992 413.512 -314.8 414.521 -313.616C421.123 -306.28 428.148 -310.769 435.11 -312.413C435.292 -312.462 435.449 -312.637 435.633 -312.713C444.556 -316.566 446.786 -316.188 451.373 -308.1C453.876 -303.69 456.825 -300.757 461.846 -299.983C462.866 -299.804 463.818 -299.351 464.6 -298.673C474.328 -290.26 485.25 -292.512 496.054 -295.407C504.894 -297.785 513.987 -297.863 521.991 -294.529C526.972 -292.45 530.145 -286.101 534.204 -281.772C537.611 -278.154 540.696 -273.954 544.78 -271.386C547.535 -269.642 551.783 -270.266 555.36 -269.851C557.294 -269.615 559.45 -269.909 561.124 -269.152C568.413 -265.839 575.564 -262.214 582.897 -258.637C589.625 -262.612 595.754 -259.689 597.513 -251.303C597.958 -248.943 598.228 -246.552 598.321 -244.152C598.823 -235.961 602.541 -230.752 610.203 -228.398C611.566 -227.975 613.489 -229.004 615.087 -229.592C620.081 -231.533 623.655 -229.148 622.392 -224.102C620.442 -216.292 621.682 -209.017 624.492 -201.773C624.778 -201.034 625.268 -200.066 625.016 -199.484C619.924 -187.782 632.936 -185.976 636.608 -179.087C638.047 -176.396 644.225 -176.535 647.867 -174.657C652.839 -172.079 656.095 -167.109 663.269 -167.763C668.122 -168.248 671.701 -161.245 671.892 -155.933C672.075 -151.212 673.466 -146.549 673.746 -141.801C673.928 -138.605 674.183 -134.444 672.435 -132.265C665.176 -123.059 665.473 -111.001 673.827 -102.29C676.681 -99.3135 679.045 -95.851 681.841 -92.7966C682.863 -91.6609 684.512 -91.1007 685.866 -90.2489C688.119 -88.8223 690.923 -87.8184 692.508 -85.8405C695.256 -82.4363 698.194 -82.0266 702.11 -83.0938C710.183 -85.4253 712.429 -83.2611 712.812 -74.9854C712.929 -71.7011 715.083 -68.5279 716.09 -65.2336C717.048 -62.5652 717.656 -59.7838 717.899 -56.9589C717.916 -54.5496 717.366 -52.1701 716.294 -50.0125C714.218 -45.7149 716.347 -44.388 719.981 -43.101C724.108 -41.627 728.02 -39.5365 732.016 -37.6906C733.294 -37.093 734.492 -35.9956 735.801 -35.8411C750.084 -34.2513 748.841 -21.2223 752.977 -12.3034C755.67 -6.45538 757.203 -0.0747375 758.974 6.2063C759.794 9.09866 760.791 12.2893 760.338 15.1324C759.324 21.5392 759.801 26.3318 765.701 30.8151C770.564 34.5036 773.74 40.5326 777.806 45.3832C781.166 49.4211 784.777 53.2677 788.246 57.2144C789.292 58.4058 790.716 59.5492 791.14 60.9692C794.045 70.6172 801.517 74.6794 810.373 77.1914C814.134 78.2582 817.946 80.4728 821.596 80.2307C826.538 79.8817 831.33 77.6137 836.218 76.2685C840.599 75.0502 844.993 73.7133 849.467 72.94C851.258 72.8708 853.006 73.4946 854.349 74.6818C860.335 79.8159 866.594 80.1157 873.622 76.9293C874.508 76.567 875.456 76.3832 876.413 76.3885C877.37 76.3938 878.317 76.5881 879.198 76.9601C885.268 80.0591 891.273 83.344 897.022 86.9989C906.441 92.9685 906.187 104.527 896.894 111.104C893.012 113.855 889.861 117.812 885.765 120.062C878.773 123.912 871.806 128.784 863.044 126.522C862.298 126.228 861.491 126.127 860.696 126.229C851.273 129.18 840.732 126.897 831.771 132.534C827.136 135.452 822.112 134.733 817.647 131.372C811.554 126.763 806.317 129.026 799.948 131.991C792.145 135.625 790.474 138.325 797.035 144.546C799.617 147.001 800.929 150.737 803.393 153.348C808.413 158.652 808.385 164.901 803.177 171.404C807.607 177.247 812.401 182.701 816.108 188.827C818.305 192.458 818.269 197.388 820.121 201.254C822.94 207.077 828.706 212.252 829.358 218.124C830.229 226.305 833.768 233.158 835.762 240.603C837.225 246.063 833.21 253.212 830.984 259.367C829.184 264.326 827.642 268.499 830.353 274.049C832.668 278.784 832.413 284.748 833.595 290.088C834.147 292.137 835.048 294.076 836.257 295.82C839.927 301.575 843.085 307.271 837.781 313.817C837.055 315.013 836.491 316.3 836.103 317.644C842.319 324.1 842.409 331.718 837.116 338.997C835.531 341.186 834.989 344.425 834.783 347.229C834.385 352.593 833.574 357.243 828.718 360.858C825.487 363.258 822.699 366.124 825.827 371.775C828.419 376.418 827.472 382.612 823.278 387.309C819.425 391.559 816.414 396.169 817.346 402.427C817.543 403.66 816.378 405.169 815.667 406.45C813.138 410.976 810.059 415.267 808.07 420.02C805.773 425.476 810.137 430.052 815.5 432.365C820.206 434.411 823.699 439.238 827.766 442.803C831.833 446.368 833.144 452.089 839.881 453.308C842.554 453.788 845.613 459.414 846.008 462.872C846.29 465.581 843.166 469.538 840.494 471.38C837.613 473.367 836.533 474.365 838.044 477.853C840.668 483.941 837.249 489.113 833.551 493.215C827.601 499.792 829.508 506.347 831.874 513.294C832.365 514.696 833.03 516.548 832.505 517.699C830.198 522.786 830.743 527.702 834.324 531.503C837.745 535.106 841.732 538.126 846.126 540.443C856.109 545.703 865.171 550.572 868.643 563.232C874.011 583.001 867.57 594.665 846.83 597.962C841.276 598.839 834.643 606.742 834.033 613.2C833.686 616.804 839.282 624.188 843.091 626.359C845.988 628.001 848.513 630.225 850.507 632.892C853.449 637.025 856.688 639.384 861.967 638.572C863.347 638.362 865.562 638.788 866.275 639.758C869.568 644.037 872.515 648.572 875.086 653.321C878.059 659.12 879.724 665.634 882.962 671.167C885.858 676.083 886.133 679.99 882.078 683.914C877.785 688.078 873.432 685.033 869.241 683.621C866.427 682.681 863.88 680.917 861.068 679.95C860.322 679.675 859.528 679.551 858.734 679.587C857.94 679.624 857.161 679.819 856.443 680.161C849.909 684.891 842.442 688.328 837.104 694.741C831.765 701.154 825.958 707.045 820.483 713.282C819.234 714.58 818.361 716.193 817.957 717.949C816.592 726.95 815.563 735.949 814.34 744.948C813.656 749.91 811.143 753.633 806.184 755.077C802.722 756.068 799.192 756.807 795.623 757.286C787.726 758.321 783.468 762.281 782.076 770.19C780.491 779.064 772.811 784.517 763.563 783.387C756.452 782.526 747.762 788.543 744.434 794.718C740.067 802.937 735.416 811.719 727.081 816.346C721.843 819.266 715.021 819.844 708.807 820.409C701.856 821.039 698.128 823.404 698.017 830.304C697.883 838.142 684.474 848.482 675.829 848.679C674.423 848.693 673.072 848.612 672.161 848.589C669.921 853.463 668.099 858.047 665.762 862.362C663.425 866.676 656.598 869.321 650.377 868.009C642.559 866.292 634.811 864.014 626.959 862.404C623.449 861.677 619.727 861.948 616.104 861.828C615.308 861.802 614.288 862.43 613.743 862.115C602.979 856.027 595.278 865.83 586.03 867.484C584.999 867.671 583.952 869.291 583.426 870.469C580.291 877.497 575.189 879.698 568.669 876.045C564.904 873.871 561.606 872.681 557.692 875.414C556.642 876.044 555.398 876.271 554.192 876.05C545.674 874.334 536.857 873.328 528.831 870.274C524.37 868.579 521.334 863.372 515.492 863.44C512.213 863.476 508.729 862.025 505.681 862.726C493.851 865.461 483.461 862.022 473.567 856.099C470.188 854.079 467.043 852.333 462.887 853.863C462.127 854.135 461.32 854.25 460.514 854.201C459.709 854.152 458.921 853.939 458.2 853.577C455.951 852.044 453.395 851.019 450.71 850.575C448.025 850.131 445.275 850.277 442.652 851.005C441.264 851.35 437.896 848.706 437.449 846.938C434.823 836.443 434.852 837.048 425.114 834.391C420.859 833.234 416.826 829.368 413.879 825.778C410.28 821.209 405.263 817.968 399.619 816.566C395.485 815.466 391.761 812.785 387.902 810.724C386.115 809.871 384.427 808.821 382.87 807.595C379.987 805.105 376.56 802.805 374.726 799.635C371.748 794.475 359.156 787.849 353.266 789.427C352.491 789.598 351.768 789.953 351.159 790.462C345.903 795.664 340.446 800.708 335.541 806.225C329.263 813.271 320.476 814.225 312.244 815.5C310.141 815.824 305.923 810.34 304.772 806.836C303.421 802.756 301.862 801.17 297.721 801.269C294.129 801.363 274.871 787.559 273.517 784.624C271.353 779.728 268.901 774.964 266.175 770.358C260.827 761.817 261.055 762.27 267.756 754.224C272.296 748.572 276.107 742.371 279.097 735.767C280.18 733.456 278.652 729.539 277.534 726.656C274.847 719.707 279.651 705.839 286.28 702.52C287.021 702.213 287.78 701.95 288.552 701.734C298.47 698.119 303.497 688.323 302.15 677.77C301.371 671.586 302.69 665.16 302.656 658.847C302.623 656.607 301.939 654.425 300.689 652.566C298.021 648.83 297.415 645.375 300.177 641.488C301.09 640.197 302.262 638.65 302.245 637.228C302.166 629.225 306.93 625.528 313.635 622.827C320.979 619.795 323.502 609.225 318.768 602.674C317.966 601.28 317.045 599.957 316.015 598.722C310.551 593.483 309.628 587.356 312.288 580.543C314.271 575.437 313.229 571.647 308.236 568.96C303.243 566.273 299.787 562.376 299.857 556.054C299.899 550.749 296.21 547.837 291.966 545.498C286.909 542.704 285.058 539.734 286.302 532.929C287.817 524.555 287.933 515.989 286.646 507.578C285.25 498.199 280.571 488.841 283.668 478.826C284.015 477.74 282.97 475.626 281.946 474.881C280.922 474.136 278.321 473.893 277.664 474.619C274.23 478.145 271.629 476.812 267.295 475.624C262.209 474.212 258.986 470.953 254.778 468.915C245.934 464.662 243.257 456.558 239.901 448.662C239.664 448.096 239.632 447.464 239.812 446.877C243.155 438.375 236.581 434.453 231.929 429.6C230.757 428.245 229.655 426.829 228.63 425.36C224.639 420.161 220.485 415.245 214.016 412.546C211.698 411.571 210.451 407.578 209.133 404.775C207.424 401.146 206.248 397.516 201.441 396.517C198.956 395.977 196.593 393.941 194.431 392.26C185.828 385.531 177.341 378.673 168.797 371.866C168.629 371.769 168.297 371.69 168.293 371.575C167.724 364.618 158.405 361.671 160.11 353.607C160.343 352.229 160.073 350.814 159.351 349.617C152.431 338.979 145.593 328.249 138.262 317.863C135.394 313.844 131.185 310.743 127.668 307.146C126.732 306.2 125.221 304.796 125.363 303.871C126.627 297.351 128.228 290.9 130.159 284.544C131.527 280.286 133.716 276.543 129.812 272.332C128.078 270.491 127.783 267.538 126.457 265.304C120.858 255.9 115.154 246.547 109.346 237.245C108.388 235.953 107.203 234.847 105.847 233.981C102.382 231.508 99.8786 227.913 98.7633 223.805C97.6479 219.696 97.989 215.328 99.7284 211.443C100.496 209.775 102.197 207.652 103.742 207.398C111.304 206.169 111.133 200.701 110.98 195.103C110.896 191.907 110.86 188.698 110.829 185.506C110.775 179.182 112.021 172.517 105.612 168.02C100.26 164.259 101.123 159.47 104.245 154.91C106.433 151.726 105.83 149.015 105.292 145.418C103.883 135.99 100.348 125.908 108.55 117.54C111.978 114.023 110.753 110.575 108.021 107.991C101.516 101.844 101.602 95.2509 104.987 87.6678C106.33 84.5159 107.053 81.1344 107.115 77.7088C107.219 72.2728 110.093 69.2332 114.449 66.8956C121.261 63.2351 122.081 58.9815 118.053 52.3209C115.467 48.0311 110.181 43.9863 115.817 37.9545C116.403 37.3277 113.92 31.9643 111.912 31.1547C107.584 29.3974 102.553 29.5132 97.9679 28.2505C91.4774 26.4611 85.1824 23.9454 78.7177 22.0869C73.8483 20.6128 68.8735 19.5125 63.8366 18.7955C60.7239 18.4381 57.7233 17.4206 55.0353 15.8108C52.3473 14.201 50.0338 12.036 48.2494 9.46054C46.7872 7.35663 45.0814 5.43295 43.1675 3.72958C38.4138 -0.147705 37.3357 -4.96548 40.8039 -9.95535C43.9048 -14.4301 45.1133 -18.6549 43.7454 -24.5211C41.8336 -32.715 41.6152 -41.3716 41.1588 -49.858C41.1336 -52.2484 40.4919 -54.5919 39.2959 -56.6617C38.0998 -58.7315 36.3899 -60.4576 34.3314 -61.6731C25.5004 -67.4989 15.6201 -72.4761 8.62998 -80.1338C3.67866 -85.5097 2.74711 -94.578 0.035729 -102.017C0.00995752 -102.115 0.00751684 -102.218 0.0285612 -102.318C0.0496055 -102.417 0.0936057 -102.511 0.157006 -102.59C8.81781 -107.127 6.75899 -118.748 14.6503 -124.205C18.3977 -126.796 21.5009 -130.766 20.65 -137.019C19.9198 -144.173 20.218 -151.395 21.5356 -158.464C22.0712 -161.693 25.5637 -164.375 27.4852 -167.461C29.4068 -170.547 32.1814 -173.923 32.8777 -177.479C34.1158 -184.899 34.8951 -192.389 35.2113 -199.905C35.3377 -201.65 34.1655 -203.544 33.3574 -205.269C32.3874 -207.367 29.9321 -209.582 30.2555 -211.353C31.5112 -218.082 33.6045 -224.663 35.4562 -231.285C35.5442 -231.575 35.699 -231.84 35.9082 -232.059C36.1174 -232.279 36.375 -232.446 36.6605 -232.547C45.2229 -233.547 44.0344 -238.876 42.6371 -244.885C42.0061 -247.571 43.4968 -250.71 43.0329 -253.467C42.0713 -258.473 40.7948 -263.414 39.211 -268.26C38.0901 -271.914 38.7895 -274.796 42.3067 -276.262C45.8238 -277.727 49.5732 -278.723 53.1887 -280.02C54.2777 -280.297 55.2628 -280.885 56.0249 -281.711C61.518 -290.062 66.6203 -298.682 72.4143 -306.804C74.9961 -310.404 78.1389 -313.134 78.5609 -318.177C78.8606 -321.723 88.0213 -325.189 92.8616 -324.562C98.9179 -323.764 99.5673 -324.55 97.4771 -330.134C96.5459 -332.786 96.4474 -335.66 97.1948 -338.37C97.9423 -341.081 99.4999 -343.498 101.659 -345.298C103.171 -346.537 105.037 -347.781 105.777 -349.451C107.953 -354.334 110.972 -357.262 116.745 -356.894C117.961 -356.821 119.281 -358.646 120.593 -359.539C128.189 -364.774 129.058 -376.09 138.681 -379.484C139.923 -380.105 141.235 -380.572 142.59 -380.877C152.824 -381.793 162.268 -385.192 171.834 -388.801C180.266 -391.974 189.386 -393.407 198.242 -395.399C201.96 -396.244 205.915 -397.401 209.536 -396.891C215.674 -396.018 220.304 -389.527 220.404 -383.33C220.426 -382.157 220.145 -380.096 220.538 -379.953C231.926 -375.867 222.667 -364.893 229.296 -358.814Z" fill="#47F066"/>
<path d="M97.8893 493.931C96.1817 492.893 94.5361 491.756 92.9607 490.526C83.6934 482.84 83.5983 471.136 92.7883 463.478C97.4036 459.626 102.163 455.913 107.088 452.492C111.238 449.616 114.197 453.016 117.252 455.185C120.307 457.355 122.794 460.119 126.006 461.386C136.86 465.695 137.222 474.49 133.754 483.452C127.953 498.465 113.034 502.87 97.8893 493.931Z" fill="#47F066"/>
<path d="M220.067 -413.871C212.919 -418.446 206.104 -423.234 202.995 -431.923C201.589 -435.422 200.005 -438.848 198.25 -442.186C197.729 -443.27 196.528 -444.313 196.594 -445.324C196.808 -448.892 197.417 -452.442 197.891 -456C201.136 -454.546 205.235 -453.872 207.473 -451.475C211.892 -446.728 216.484 -441.504 218.794 -435.597C221.29 -429.191 221.269 -421.792 222.354 -414.83L220.067 -413.871Z" fill="#47F066"/>
</svg>
