<svg width="397" height="396" viewBox="0 0 397 396" fill="none" xmlns="http://www.w3.org/2000/svg">
<path d="M198.543 105.247L235.071 68.8817C244.01 59.9828 258.363 59.9828 267.302 68.8817C276.241 77.7806 276.241 92.0702 267.302 100.969L198.543 169.422" fill="#FF14B4"/>
<path d="M198.543 105.247L162.014 68.8817C153.076 59.9828 138.722 59.9828 129.783 68.8817C120.845 77.7806 120.845 92.0702 129.783 100.969L198.543 169.422" fill="#FF14B4"/>
<path d="M291.712 197.659L328.24 234.024C337.179 242.923 337.179 257.213 328.24 266.112C319.302 275.011 304.948 275.011 296.009 266.112L227.25 197.659" fill="#FF14B4"/>
<path d="M291.712 197.659L328.24 161.293C337.179 152.394 337.179 138.105 328.24 129.206C319.302 120.307 304.948 120.307 296.009 129.206L227.25 197.659" fill="#FF14B4"/>
<path d="M104.944 197.659L68.4157 161.293C59.477 152.394 59.477 138.105 68.4157 129.206C77.3544 120.307 91.7079 120.307 100.647 129.206L169.406 197.659" fill="#FF14B4"/>
<path d="M104.944 197.659L68.4157 234.024C59.477 242.923 59.477 257.213 68.4157 266.112C77.3544 275.011 91.7079 275.011 100.647 266.112L169.406 197.659" fill="#FF14B4"/>
<path d="M164.851 33.542L198.543 66.9983L232.149 33.542L198.543 0L164.851 33.542Z" fill="#FF14B4"/>
<path d="M329.702 197.659L363.308 231.115L397 197.659L363.308 164.117L329.702 197.659Z" fill="#FF14B4"/>
<path d="M0 197.659L33.6921 231.115L67.2983 197.659L33.6921 164.117L0 197.659Z" fill="#FF14B4"/>
<path d="M198.543 331.825L235.071 295.46C244.01 286.561 258.363 286.561 267.302 295.46C276.241 304.359 276.241 318.648 267.302 327.547L198.543 396" fill="#FF14B4"/>
<path d="M198.543 331.825L162.014 295.46C153.076 286.561 138.722 286.561 129.783 295.46C120.845 304.359 120.845 318.648 129.783 327.547L198.543 396" fill="#FF14B4"/>
<path d="M198.543 294.005L232.149 260.549L198.543 227.007L164.851 260.549L198.543 294.005Z" fill="#FF14B4"/>
</svg>
