<svg width="594" height="1851" viewBox="0 0 594 1851" fill="none" xmlns="http://www.w3.org/2000/svg">
<path d="M-395.409 143.693C-390.592 143.803 -386.009 145.82 -383.838 152.331C-383.2 154.252 -379.735 156.099 -377.364 156.377C-374.044 156.755 -373.382 154.033 -373.695 150.943C-373.598 150.304 -373.332 149.702 -372.924 149.2C-372.516 148.698 -371.981 148.314 -371.375 148.087C-370.647 148.042 -369.917 148.162 -369.241 148.438C-368.565 148.715 -367.961 149.14 -367.472 149.683C-364.774 153.367 -362.904 157.733 -359.822 160.994C-357.646 163.166 -354.702 164.393 -351.628 164.411C-346.781 164.105 -343.787 165.75 -341.966 169.863C-338.766 177.109 -334.288 182.869 -326.696 186.19C-324.914 186.98 -323.831 190.529 -323.435 192.967C-322.999 195.652 -323.838 198.51 -323.942 201.33C-324.395 210.061 -321.25 212.436 -312.732 209.914C-308.356 208.609 -303.96 207.413 -299.569 206.13C-291.202 203.768 -284.031 198.343 -279.482 190.933C-276.409 186.023 -271.58 185.119 -268.217 188.207C-260.204 195.547 -250.845 196.559 -240.171 196.093C-238.283 191.03 -234.546 188.964 -227.927 190.338C-224.175 191.106 -219.879 188.51 -215.792 187.849C-213.949 187.515 -211.193 187.707 -210.184 188.891C-203.582 196.227 -196.557 191.738 -189.595 190.094C-189.413 190.045 -189.256 189.87 -189.072 189.795C-180.148 185.941 -177.919 186.319 -173.331 194.407C-170.829 198.817 -167.88 201.75 -162.858 202.524C-161.839 202.703 -160.887 203.156 -160.105 203.834C-150.376 212.247 -139.454 209.995 -128.651 207.1C-119.811 204.722 -110.718 204.644 -102.714 207.979C-97.7328 210.057 -94.5599 216.406 -90.5007 220.736C-87.0933 224.353 -84.0086 228.553 -79.925 231.121C-77.1702 232.865 -72.9223 232.241 -69.3444 232.656C-67.4106 232.892 -65.2551 232.598 -63.5805 233.355C-56.2916 236.668 -49.1409 240.293 -41.8081 243.87C-35.0801 239.895 -28.9507 242.818 -27.1914 251.204C-26.7468 253.565 -26.4767 255.955 -26.3835 258.355C-25.8822 266.546 -22.1634 271.755 -14.5022 274.109C-13.1386 274.532 -11.2157 273.503 -9.61775 272.915C-4.62333 270.974 -1.04975 273.359 -2.31304 278.405C-4.26311 286.215 -3.02312 293.49 -0.213214 300.734C0.0734354 301.473 0.563299 302.441 0.311315 303.023C-4.78062 314.725 8.23084 316.531 11.9031 323.42C13.3422 326.111 19.5198 325.972 23.1618 327.851C28.1346 330.428 31.3902 335.398 38.5646 334.744C43.4173 334.259 46.996 341.262 47.1871 346.574C47.3704 351.295 48.7616 355.958 49.0409 360.706C49.2234 363.902 49.4783 368.063 47.7306 370.242C40.4716 379.448 40.7679 391.506 49.1219 400.217C51.9763 403.194 54.3404 406.656 57.1359 409.711C58.1583 410.846 59.8068 411.406 61.161 412.258C63.4139 413.685 66.2185 414.689 67.8035 416.667C70.5509 420.071 73.4889 420.481 77.4053 419.413C85.478 417.082 87.7246 419.246 88.1069 427.522C88.2244 430.806 90.3779 433.979 91.3848 437.274C92.343 439.942 92.9513 442.723 93.1942 445.548C93.211 447.958 92.6611 450.337 91.589 452.495C89.5133 456.792 91.642 458.119 95.2761 459.406C99.4035 460.88 103.315 462.971 107.312 464.817C108.589 465.414 109.787 466.511 111.096 466.666C125.38 468.256 124.136 481.285 128.273 490.204C130.966 496.052 132.498 502.432 134.27 508.713C135.089 511.606 136.086 514.796 135.633 517.64C134.619 524.046 135.096 528.839 140.997 533.322C145.859 537.011 149.035 543.04 153.101 547.89C156.461 551.928 160.072 555.775 163.541 559.721C164.587 560.913 166.011 562.056 166.436 563.476C169.34 573.124 176.812 577.187 185.668 579.699C189.429 580.765 193.241 582.98 196.891 582.738C201.833 582.389 206.625 580.121 211.513 578.776C215.894 577.557 220.288 576.22 224.762 575.447C226.553 575.378 228.301 576.002 229.644 577.189C235.63 582.323 241.89 582.623 248.918 579.436C249.803 579.074 250.752 578.89 251.709 578.896C252.665 578.901 253.612 579.095 254.494 579.467C260.564 582.566 266.568 585.851 272.317 589.506C281.736 595.476 281.482 607.034 272.189 613.611C268.307 616.362 265.156 620.319 261.06 622.569C254.068 626.419 247.102 631.291 238.339 629.029C237.594 628.735 236.786 628.634 235.991 628.736C226.568 631.687 216.027 629.404 207.067 635.041C202.431 637.959 197.407 637.24 192.942 633.879C186.849 629.27 181.613 631.533 175.244 634.499C167.44 638.132 165.77 640.832 172.331 647.053C174.912 649.508 176.224 653.244 178.688 655.856C183.709 661.16 183.681 667.409 178.472 673.911C182.902 679.755 187.696 685.208 191.404 691.334C193.6 694.965 193.565 699.895 195.416 703.761C198.235 709.584 204.002 714.759 204.653 720.631C205.524 728.812 209.063 735.666 211.058 743.11C212.52 748.57 208.505 755.719 206.28 761.874C204.479 766.834 202.937 771.006 205.648 776.556C207.963 781.291 207.708 787.255 208.89 792.595C209.442 794.644 210.343 796.583 211.552 798.327C215.222 804.082 218.38 809.779 213.076 816.324C212.35 817.52 211.786 818.807 211.398 820.152C217.614 826.607 217.705 834.225 212.412 841.504C210.826 843.693 210.284 846.932 210.078 849.736C209.68 855.1 208.869 859.75 204.013 863.365C200.782 865.765 197.994 868.631 201.122 874.282C203.714 878.925 202.767 885.119 198.573 889.816C194.72 894.066 191.709 898.677 192.641 904.934C192.838 906.167 191.674 907.676 190.962 908.957C188.433 913.483 185.354 917.774 183.365 922.527C181.068 927.983 185.432 932.559 190.795 934.872C195.502 936.918 198.994 941.745 203.061 945.31C207.128 948.875 208.439 954.597 215.176 955.815C217.849 956.295 220.908 961.921 221.303 965.379C221.585 968.088 218.461 972.046 215.789 973.887C212.908 975.874 211.828 976.873 213.339 980.36C215.963 986.448 212.544 991.62 208.847 995.722C202.896 1002.3 204.803 1008.85 207.169 1015.8C207.66 1017.2 208.325 1019.06 207.8 1020.21C205.493 1025.29 206.039 1030.21 209.619 1034.01C213.04 1037.61 217.027 1040.63 221.421 1042.95C231.404 1048.21 240.466 1053.08 243.938 1065.74C249.306 1085.51 242.866 1097.17 222.125 1100.47C216.571 1101.35 209.938 1109.25 209.328 1115.71C208.981 1119.31 214.577 1126.7 218.386 1128.87C221.283 1130.51 223.808 1132.73 225.802 1135.4C228.744 1139.53 231.983 1141.89 237.262 1141.08C238.642 1140.87 240.858 1141.3 241.57 1142.27C244.864 1146.54 247.81 1151.08 250.381 1155.83C253.354 1161.63 255.019 1168.14 258.257 1173.67C261.153 1178.59 261.428 1182.5 257.373 1186.42C253.081 1190.59 248.727 1187.54 244.537 1186.13C241.723 1185.19 239.175 1183.42 236.363 1182.46C235.617 1182.18 234.824 1182.06 234.029 1182.09C233.235 1182.13 232.456 1182.33 231.738 1182.67C225.204 1187.4 217.738 1190.84 212.399 1197.25C207.06 1203.66 201.253 1209.55 195.779 1215.79C194.529 1217.09 193.656 1218.7 193.252 1220.46C191.887 1229.46 190.859 1238.46 189.635 1247.46C188.952 1252.42 186.439 1256.14 181.479 1257.58C178.017 1258.58 174.487 1259.31 170.918 1259.79C163.021 1260.83 158.763 1264.79 157.371 1272.7C155.786 1281.57 148.106 1287.02 138.858 1285.89C131.747 1285.03 123.057 1291.05 119.73 1297.23C115.362 1305.44 110.711 1314.23 102.376 1318.85C97.1385 1321.77 90.316 1322.35 84.1019 1322.92C77.1514 1323.55 73.423 1325.91 73.3127 1332.81C73.1786 1340.65 59.769 1350.99 51.1246 1351.19C49.7184 1351.2 48.3668 1351.12 47.4566 1351.1C45.2162 1355.97 43.3947 1360.55 41.0576 1364.87C38.7206 1369.18 31.8933 1371.83 25.6726 1370.52C17.8538 1368.8 10.1065 1366.52 2.25431 1364.91C-1.25612 1364.18 -4.97831 1364.45 -8.60105 1364.34C-9.39708 1364.31 -10.4167 1364.94 -10.9622 1364.62C-21.7253 1358.53 -29.4272 1368.34 -38.6745 1369.99C-39.7058 1370.18 -40.7526 1371.8 -41.279 1372.98C-44.4138 1380 -49.516 1382.2 -56.0359 1378.55C-59.8012 1376.38 -63.0992 1375.19 -67.0125 1377.92C-68.063 1378.55 -69.3073 1378.78 -70.5125 1378.56C-79.0313 1376.84 -87.8477 1375.83 -95.8738 1372.78C-100.335 1371.09 -103.371 1365.88 -109.213 1365.95C-112.492 1365.98 -115.975 1364.53 -119.024 1365.23C-130.853 1367.97 -141.244 1364.53 -151.138 1358.61C-154.516 1356.59 -157.662 1354.84 -161.818 1356.37C-162.578 1356.64 -163.385 1356.76 -164.191 1356.71C-164.996 1356.66 -165.784 1356.45 -166.505 1356.08C-168.754 1354.55 -171.31 1353.53 -173.995 1353.08C-176.68 1352.64 -179.43 1352.78 -182.053 1353.51C-183.441 1353.86 -186.809 1351.21 -187.256 1349.44C-189.882 1338.95 -189.853 1339.55 -199.59 1336.9C-203.846 1335.74 -207.878 1331.87 -210.826 1328.29C-214.425 1323.72 -219.442 1320.47 -225.086 1319.07C-229.22 1317.97 -232.944 1315.29 -236.802 1313.23C-238.59 1312.38 -240.278 1311.33 -241.834 1310.1C-244.718 1307.61 -248.145 1305.31 -249.978 1302.14C-252.957 1296.98 -265.549 1290.36 -271.438 1291.93C-272.214 1292.1 -272.937 1292.46 -273.546 1292.97C-278.801 1298.17 -284.259 1303.22 -289.164 1308.73C-295.441 1315.78 -304.229 1316.73 -312.461 1318.01C-314.564 1318.33 -318.781 1312.85 -319.933 1309.34C-321.283 1305.26 -322.843 1303.68 -326.984 1303.78C-330.576 1303.87 -349.834 1290.07 -351.188 1287.13C-353.352 1282.24 -355.804 1277.47 -358.53 1272.86C-363.878 1264.32 -363.65 1264.78 -356.949 1256.73C-352.408 1251.08 -348.598 1244.88 -345.607 1238.27C-344.525 1235.96 -346.053 1232.05 -347.171 1229.16C-349.858 1222.21 -345.054 1208.35 -338.425 1205.03C-337.684 1204.72 -336.925 1204.46 -336.153 1204.24C-326.234 1200.63 -321.208 1190.83 -322.555 1180.28C-323.334 1174.09 -322.015 1167.67 -322.049 1161.35C-322.082 1159.11 -322.765 1156.93 -324.016 1155.07C-326.683 1151.34 -327.29 1147.88 -324.528 1143.99C-323.615 1142.7 -322.442 1141.16 -322.46 1139.73C-322.539 1131.73 -317.775 1128.04 -311.07 1125.33C-303.725 1122.3 -301.203 1111.73 -305.937 1105.18C-306.739 1103.79 -307.659 1102.46 -308.689 1101.23C-314.154 1095.99 -315.077 1089.86 -312.417 1083.05C-310.433 1077.94 -311.475 1074.15 -316.469 1071.47C-321.462 1068.78 -324.918 1064.88 -324.848 1058.56C-324.806 1053.26 -328.495 1050.34 -332.738 1048.01C-337.796 1045.21 -339.647 1042.24 -338.403 1035.44C-336.888 1027.06 -336.772 1018.5 -338.058 1010.08C-339.454 1000.71 -344.134 991.348 -341.037 981.333C-340.69 980.247 -341.735 978.133 -342.759 977.388C-343.783 976.643 -346.384 976.4 -347.041 977.126C-350.475 980.653 -353.076 979.319 -357.41 978.131C-362.496 976.719 -365.719 973.46 -369.927 971.422C-378.771 967.169 -381.447 959.065 -384.804 951.169C-385.041 950.603 -385.072 949.971 -384.892 949.384C-381.55 940.882 -388.124 936.96 -392.776 932.107C-393.948 930.752 -395.05 929.337 -396.075 927.867C-400.066 922.668 -404.22 917.752 -410.688 915.053C-413.006 914.078 -414.253 910.086 -415.572 907.283C-417.28 903.653 -418.457 900.023 -423.264 899.024C-425.749 898.484 -428.112 896.449 -430.274 894.767C-438.877 888.038 -447.364 881.18 -455.908 874.373C-456.076 874.276 -456.407 874.197 -456.411 874.083C-456.981 867.125 -466.3 864.178 -464.595 856.115C-464.362 854.736 -464.631 853.321 -465.354 852.124C-472.274 841.487 -479.112 830.756 -486.443 820.37C-489.311 816.351 -493.52 813.25 -497.037 809.653C-497.973 808.707 -499.484 807.303 -499.341 806.378C-498.077 799.858 -496.477 793.407 -494.546 787.052C-493.178 782.793 -490.989 779.05 -494.893 774.839C-496.627 772.998 -496.922 770.045 -498.247 767.812C-503.847 758.407 -509.551 749.054 -515.359 739.753C-516.316 738.46 -517.502 737.354 -518.858 736.488C-522.323 734.015 -524.826 730.42 -525.942 726.312C-527.057 722.203 -526.716 717.836 -524.976 713.95C-524.209 712.282 -522.508 710.159 -520.963 709.905C-513.401 708.676 -513.572 703.208 -513.724 697.61C-513.809 694.414 -513.845 691.206 -513.875 688.013C-513.93 681.689 -512.683 675.025 -519.093 670.527C-524.445 666.766 -523.582 661.978 -520.46 657.417C-518.272 654.233 -518.874 651.522 -519.413 647.925C-520.822 638.497 -524.357 628.415 -516.155 620.047C-512.726 616.531 -513.952 613.082 -516.683 610.498C-523.189 604.351 -523.103 597.758 -519.717 590.175C-518.374 587.023 -517.652 583.642 -517.589 580.216C-517.486 574.78 -514.612 571.74 -510.256 569.403C-503.444 565.742 -502.624 561.489 -506.652 554.828C-509.237 550.538 -514.524 546.493 -508.888 540.462C-508.302 539.835 -510.785 534.471 -512.793 533.662C-517.12 531.905 -522.152 532.02 -526.737 530.758C-533.227 528.968 -539.522 526.452 -545.987 524.594C-550.856 523.12 -555.831 522.02 -560.868 521.303C-563.981 520.945 -566.981 519.928 -569.67 518.318C-572.358 516.708 -574.671 514.543 -576.455 511.968C-577.918 509.864 -579.623 507.94 -581.537 506.237C-586.291 502.359 -587.369 497.542 -583.901 492.552C-580.8 488.077 -579.591 483.852 -580.959 477.986C-582.871 469.792 -583.09 461.136 -583.546 452.649C-583.571 450.259 -584.213 447.915 -585.409 445.845C-586.605 443.776 -588.315 442.049 -590.373 440.834C-599.204 435.008 -609.085 430.031 -616.075 422.373C-621.026 416.997 -621.958 407.929 -624.669 400.49C-624.695 400.392 -624.697 400.289 -624.676 400.189C-624.655 400.09 -624.611 399.996 -624.548 399.917C-615.887 395.38 -617.946 383.759 -610.055 378.302C-606.307 375.711 -603.204 371.741 -604.055 365.488C-604.785 358.334 -604.487 351.113 -603.169 344.043C-602.634 340.815 -599.141 338.132 -597.22 335.046C-595.298 331.96 -592.523 328.584 -591.827 325.028C-590.589 317.608 -589.81 310.118 -589.494 302.602C-589.367 300.857 -590.539 298.963 -591.347 297.238C-592.317 295.14 -594.773 292.925 -594.449 291.154C-593.194 284.425 -591.1 277.845 -589.249 271.222C-589.161 270.932 -589.006 270.667 -588.797 270.448C-588.587 270.228 -588.33 270.061 -588.044 269.96C-579.482 268.96 -580.67 263.631 -582.068 257.622C-582.699 254.936 -581.208 251.797 -581.672 249.04C-582.633 244.034 -583.91 239.093 -585.494 234.247C-586.615 230.594 -585.915 227.711 -582.398 226.246C-578.881 224.78 -575.132 223.784 -571.516 222.487C-570.427 222.21 -569.442 221.622 -568.68 220.797C-563.187 212.445 -558.085 203.825 -552.29 195.703C-549.709 192.104 -546.566 189.373 -546.144 184.331C-545.844 180.784 -536.683 177.318 -531.843 177.945C-525.787 178.743 -525.137 177.957 -527.228 172.373C-528.159 169.721 -528.257 166.847 -527.51 164.137C-526.763 161.427 -525.205 159.01 -523.046 157.209C-521.533 155.971 -519.668 154.726 -518.928 153.056C-516.752 148.173 -513.733 145.245 -507.96 145.613C-506.744 145.686 -505.424 143.861 -504.112 142.969C-496.516 137.733 -495.647 126.418 -486.024 123.023C-484.782 122.403 -483.469 121.935 -482.115 121.63C-471.881 120.714 -462.436 117.315 -452.871 113.706C-444.438 110.533 -435.318 109.1 -426.463 107.109C-422.744 106.263 -418.79 105.106 -415.169 105.616C-409.03 106.489 -404.401 112.98 -404.301 119.177C-404.279 120.35 -404.56 122.411 -404.167 122.554C-392.779 126.64 -402.038 137.614 -395.409 143.693Z" fill="#FF14B4"/>
<path d="M-526.816 996.438C-528.523 995.4 -530.169 994.263 -531.744 993.033C-541.011 985.347 -541.106 973.643 -531.917 965.985C-527.301 962.133 -522.542 958.42 -517.616 954.999C-513.467 952.123 -510.507 955.523 -507.453 957.693C-504.398 959.862 -501.91 962.626 -498.698 963.894C-487.845 968.202 -487.483 976.998 -490.951 985.959C-496.751 1000.97 -511.671 1005.38 -526.816 996.438Z" fill="#FF14B4"/>
<path d="M-404.638 88.6357C-411.786 84.0612 -418.601 79.2734 -421.71 70.5844C-423.116 67.085 -424.7 63.6596 -426.454 60.3213C-426.975 59.2375 -428.177 58.1941 -428.111 57.1834C-427.897 53.6152 -427.288 50.0652 -426.814 46.5071C-423.569 47.9607 -419.47 48.6354 -417.232 51.0323C-412.812 55.7794 -408.221 61.0034 -405.911 66.9098C-403.415 73.3158 -403.436 80.7155 -402.35 87.6769L-404.638 88.6357Z" fill="#FF14B4"/>
<path d="M-671.705 698.865C-666.735 698.057 -663.324 696.46 -660.839 697.461C-659.292 698.075 -657.978 702.945 -658.788 705.05C-660.181 708.651 -664.172 710.403 -667.669 707.838C-669.503 706.485 -669.879 703.164 -671.705 698.865Z" fill="#FF14B4"/>
<path d="M-535.409 461.693C-530.592 461.803 -526.009 463.82 -523.838 470.331C-523.2 472.252 -519.735 474.099 -517.364 474.377C-514.044 474.755 -513.382 472.033 -513.695 468.943C-513.598 468.304 -513.332 467.702 -512.924 467.2C-512.516 466.698 -511.981 466.314 -511.375 466.087C-510.647 466.042 -509.917 466.162 -509.241 466.438C-508.565 466.715 -507.961 467.14 -507.472 467.683C-504.774 471.367 -502.904 475.733 -499.822 478.994C-497.646 481.166 -494.702 482.393 -491.628 482.411C-486.781 482.105 -483.787 483.75 -481.966 487.863C-478.766 495.109 -474.288 500.869 -466.696 504.19C-464.914 504.98 -463.831 508.529 -463.435 510.967C-462.999 513.652 -463.838 516.51 -463.942 519.33C-464.395 528.061 -461.25 530.436 -452.732 527.914C-448.356 526.609 -443.96 525.413 -439.569 524.13C-431.202 521.768 -424.031 516.343 -419.482 508.933C-416.409 504.023 -411.58 503.119 -408.217 506.207C-400.204 513.547 -390.845 514.559 -380.171 514.093C-378.283 509.03 -374.546 506.964 -367.927 508.338C-364.175 509.106 -359.879 506.51 -355.792 505.849C-353.949 505.515 -351.193 505.707 -350.184 506.891C-343.582 514.227 -336.557 509.738 -329.595 508.094C-329.413 508.045 -329.256 507.87 -329.072 507.795C-320.148 503.941 -317.919 504.319 -313.331 512.407C-310.829 516.817 -307.88 519.75 -302.858 520.524C-301.839 520.703 -300.887 521.156 -300.105 521.834C-290.376 530.247 -279.454 527.995 -268.651 525.1C-259.811 522.722 -250.718 522.644 -242.714 525.979C-237.733 528.057 -234.56 534.406 -230.501 538.736C-227.093 542.353 -224.009 546.553 -219.925 549.121C-217.17 550.865 -212.922 550.241 -209.344 550.656C-207.411 550.892 -205.255 550.598 -203.581 551.355C-196.292 554.668 -189.141 558.293 -181.808 561.87C-175.08 557.895 -168.951 560.818 -167.191 569.204C-166.747 571.565 -166.477 573.955 -166.383 576.355C-165.882 584.546 -162.163 589.755 -154.502 592.109C-153.139 592.532 -151.216 591.503 -149.618 590.915C-144.623 588.974 -141.05 591.359 -142.313 596.405C-144.263 604.215 -143.023 611.49 -140.213 618.734C-139.927 619.473 -139.437 620.441 -139.689 621.023C-144.781 632.725 -131.769 634.531 -128.097 641.42C-126.658 644.111 -120.48 643.972 -116.838 645.851C-111.865 648.428 -108.61 653.398 -101.435 652.744C-96.5827 652.259 -93.004 659.262 -92.8129 664.574C-92.6296 669.295 -91.2384 673.958 -90.9591 678.706C-90.7766 681.902 -90.5217 686.063 -92.2694 688.242C-99.5284 697.448 -99.2321 709.506 -90.8781 718.217C-88.0237 721.194 -85.6596 724.656 -82.8641 727.711C-81.8417 728.846 -80.1932 729.406 -78.839 730.258C-76.5861 731.685 -73.7815 732.689 -72.1965 734.667C-69.4491 738.071 -66.5111 738.481 -62.5947 737.413C-54.522 735.082 -52.2754 737.246 -51.8931 745.522C-51.7756 748.806 -49.6221 751.979 -48.6152 755.274C-47.657 757.942 -47.0487 760.723 -46.8058 763.548C-46.789 765.958 -47.3389 768.337 -48.411 770.495C-50.4867 774.792 -48.358 776.119 -44.7239 777.406C-40.5965 778.88 -36.6851 780.971 -32.6884 782.817C-31.4112 783.414 -30.2129 784.511 -28.9037 784.666C-14.6204 786.256 -15.8637 799.285 -11.7273 808.204C-9.03438 814.052 -7.50195 820.432 -5.7303 826.713C-4.91095 829.606 -3.91416 832.796 -4.36697 835.64C-5.38092 842.046 -4.90362 846.839 0.996589 851.322C5.85924 855.011 9.03514 861.04 13.101 865.89C16.4615 869.928 20.0721 873.775 23.5411 877.721C24.5874 878.913 26.0108 880.056 26.4356 881.476C29.34 891.124 36.8119 895.187 45.6681 897.699C49.4293 898.765 53.241 900.98 56.8909 900.738C61.8332 900.389 66.6248 898.121 71.5129 896.776C75.8942 895.557 80.2881 894.22 84.762 893.447C86.5528 893.378 88.3013 894.002 89.6438 895.189C95.6297 900.323 101.89 900.623 108.918 897.436C109.803 897.074 110.752 896.89 111.709 896.896C112.665 896.901 113.612 897.095 114.494 897.467C120.564 900.566 126.568 903.851 132.317 907.506C141.736 913.476 141.482 925.034 132.189 931.611C128.307 934.362 125.156 938.319 121.06 940.569C114.068 944.419 107.102 949.291 98.339 947.029C97.5936 946.735 96.7858 946.634 95.9909 946.736C86.5681 949.687 76.0268 947.404 67.0667 953.041C62.4314 955.959 57.4068 955.24 52.9423 951.879C46.8489 947.27 41.6127 949.533 35.2437 952.499C27.4402 956.132 25.7697 958.832 32.3306 965.053C34.9124 967.508 36.2238 971.244 38.6878 973.856C43.7085 979.16 43.6808 985.409 38.4722 991.911C42.9017 997.755 47.6964 1003.21 51.4036 1009.33C53.6001 1012.97 53.5647 1017.9 55.4162 1021.76C58.2354 1027.58 64.0017 1032.76 64.6531 1038.63C65.524 1046.81 69.0628 1053.67 71.0576 1061.11C72.5205 1066.57 68.5048 1073.72 66.2797 1079.87C64.479 1084.83 62.9372 1089.01 65.6479 1094.56C67.9628 1099.29 67.7079 1105.26 68.8904 1110.59C69.4424 1112.64 70.3427 1114.58 71.5522 1116.33C75.222 1122.08 78.3798 1127.78 73.0764 1134.32C72.3504 1135.52 71.7859 1136.81 71.3979 1138.15C77.6138 1144.61 77.7046 1152.23 72.4115 1159.5C70.826 1161.69 70.2843 1164.93 70.078 1167.74C69.6801 1173.1 68.8692 1177.75 64.0131 1181.37C60.7817 1183.76 57.9943 1186.63 61.1223 1192.28C63.7139 1196.93 62.7669 1203.12 58.573 1207.82C54.7205 1212.07 51.7091 1216.68 52.6411 1222.93C52.8384 1224.17 51.6736 1225.68 50.9619 1226.96C48.433 1231.48 45.3539 1235.77 43.3648 1240.53C41.0677 1245.98 45.4323 1250.56 50.7953 1252.87C55.5017 1254.92 58.9938 1259.75 63.0609 1263.31C67.128 1266.87 68.4394 1272.6 75.1759 1273.81C77.8491 1274.3 80.908 1279.92 81.3027 1283.38C81.5851 1286.09 78.4609 1290.05 75.7894 1291.89C72.9082 1293.87 71.8283 1294.87 73.339 1298.36C75.9633 1304.45 72.5438 1309.62 68.8466 1313.72C62.8958 1320.3 64.8028 1326.85 67.1694 1333.8C67.6604 1335.2 68.3251 1337.06 67.8002 1338.21C65.4928 1343.29 66.0387 1348.21 69.6195 1352.01C73.0403 1355.61 77.0268 1358.63 81.4214 1360.95C91.4041 1366.21 100.466 1371.08 103.938 1383.74C109.306 1403.51 102.866 1415.17 82.1253 1418.47C76.5707 1419.35 69.9379 1427.25 69.3279 1433.71C68.9814 1437.31 74.5771 1444.7 78.386 1446.87C81.2832 1448.51 83.8083 1450.73 85.8018 1453.4C88.7442 1457.53 91.983 1459.89 97.2622 1459.08C98.6422 1458.87 100.858 1459.3 101.57 1460.27C104.864 1464.54 107.81 1469.08 110.381 1473.83C113.354 1479.63 115.019 1486.14 118.257 1491.67C121.153 1496.59 121.428 1500.5 117.373 1504.42C113.081 1508.59 108.727 1505.54 104.537 1504.13C101.723 1503.19 99.1753 1501.42 96.363 1500.46C95.6172 1500.18 94.8236 1500.06 94.0293 1500.09C93.2349 1500.13 92.456 1500.33 91.7384 1500.67C85.2038 1505.4 77.7375 1508.84 72.3987 1515.25C67.0599 1521.66 61.2533 1527.55 55.7785 1533.79C54.5292 1535.09 53.656 1536.7 53.2522 1538.46C51.8871 1547.46 50.8586 1556.46 49.6347 1565.46C48.9518 1570.42 46.4386 1574.14 41.4794 1575.58C38.0172 1576.58 34.4875 1577.31 30.9182 1577.79C23.0211 1578.83 18.7628 1582.79 17.371 1590.7C15.7858 1599.57 8.10633 1605.02 -1.14217 1603.89C-8.25272 1603.03 -16.9426 1609.05 -20.2704 1615.23C-24.6379 1623.44 -29.2886 1632.23 -37.6239 1636.85C-42.8615 1639.77 -49.684 1640.35 -55.8981 1640.92C-62.8486 1641.55 -66.577 1643.91 -66.6873 1650.81C-66.8214 1658.65 -80.231 1668.99 -88.8754 1669.19C-90.2816 1669.2 -91.6332 1669.12 -92.5434 1669.1C-94.7838 1673.97 -96.6053 1678.55 -98.9424 1682.87C-101.279 1687.18 -108.107 1689.83 -114.327 1688.52C-122.146 1686.8 -129.893 1684.52 -137.746 1682.91C-141.256 1682.18 -144.978 1682.45 -148.601 1682.34C-149.397 1682.31 -150.417 1682.94 -150.962 1682.62C-161.725 1676.53 -169.427 1686.34 -178.674 1687.99C-179.706 1688.18 -180.753 1689.8 -181.279 1690.98C-184.414 1698 -189.516 1700.2 -196.036 1696.55C-199.801 1694.38 -203.099 1693.19 -207.013 1695.92C-208.063 1696.55 -209.307 1696.78 -210.512 1696.56C-219.031 1694.84 -227.848 1693.83 -235.874 1690.78C-240.335 1689.09 -243.371 1683.88 -249.213 1683.95C-252.492 1683.98 -255.975 1682.53 -259.024 1683.23C-270.853 1685.97 -281.244 1682.53 -291.138 1676.61C-294.516 1674.59 -297.662 1672.84 -301.818 1674.37C-302.578 1674.64 -303.385 1674.76 -304.191 1674.71C-304.996 1674.66 -305.784 1674.45 -306.505 1674.08C-308.754 1672.55 -311.31 1671.53 -313.995 1671.08C-316.68 1670.64 -319.43 1670.78 -322.053 1671.51C-323.441 1671.86 -326.809 1669.21 -327.256 1667.44C-329.882 1656.95 -329.853 1657.55 -339.59 1654.9C-343.846 1653.74 -347.878 1649.87 -350.826 1646.29C-354.425 1641.72 -359.442 1638.47 -365.086 1637.07C-369.22 1635.97 -372.944 1633.29 -376.802 1631.23C-378.59 1630.38 -380.278 1629.33 -381.834 1628.1C-384.718 1625.61 -388.145 1623.31 -389.978 1620.14C-392.957 1614.98 -405.549 1608.36 -411.438 1609.93C-412.214 1610.1 -412.937 1610.46 -413.546 1610.97C-418.801 1616.17 -424.259 1621.22 -429.164 1626.73C-435.441 1633.78 -444.229 1634.73 -452.461 1636.01C-454.564 1636.33 -458.781 1630.85 -459.933 1627.34C-461.283 1623.26 -462.843 1621.68 -466.984 1621.78C-470.576 1621.87 -489.834 1608.07 -491.188 1605.13C-493.352 1600.24 -495.804 1595.47 -498.53 1590.86C-503.878 1582.32 -503.65 1582.78 -496.949 1574.73C-492.408 1569.08 -488.598 1562.88 -485.607 1556.27C-484.525 1553.96 -486.053 1550.05 -487.171 1547.16C-489.858 1540.21 -485.054 1526.35 -478.425 1523.03C-477.684 1522.72 -476.925 1522.46 -476.153 1522.24C-466.234 1518.63 -461.208 1508.83 -462.555 1498.28C-463.334 1492.09 -462.015 1485.67 -462.049 1479.35C-462.082 1477.11 -462.765 1474.93 -464.016 1473.07C-466.683 1469.34 -467.29 1465.88 -464.528 1461.99C-463.615 1460.7 -462.442 1459.16 -462.46 1457.73C-462.539 1449.73 -457.775 1446.04 -451.07 1443.33C-443.725 1440.3 -441.203 1429.73 -445.937 1423.18C-446.739 1421.79 -447.659 1420.46 -448.689 1419.23C-454.154 1413.99 -455.077 1407.86 -452.417 1401.05C-450.433 1395.94 -451.475 1392.15 -456.469 1389.47C-461.462 1386.78 -464.918 1382.88 -464.848 1376.56C-464.806 1371.26 -468.495 1368.34 -472.738 1366.01C-477.796 1363.21 -479.647 1360.24 -478.403 1353.44C-476.888 1345.06 -476.772 1336.5 -478.058 1328.08C-479.454 1318.71 -484.134 1309.35 -481.037 1299.33C-480.69 1298.25 -481.735 1296.13 -482.759 1295.39C-483.783 1294.64 -486.384 1294.4 -487.041 1295.13C-490.475 1298.65 -493.076 1297.32 -497.41 1296.13C-502.496 1294.72 -505.719 1291.46 -509.927 1289.42C-518.771 1285.17 -521.447 1277.06 -524.804 1269.17C-525.041 1268.6 -525.072 1267.97 -524.892 1267.38C-521.55 1258.88 -528.124 1254.96 -532.776 1250.11C-533.948 1248.75 -535.05 1247.34 -536.075 1245.87C-540.066 1240.67 -544.22 1235.75 -550.688 1233.05C-553.006 1232.08 -554.253 1228.09 -555.572 1225.28C-557.28 1221.65 -558.457 1218.02 -563.264 1217.02C-565.749 1216.48 -568.112 1214.45 -570.274 1212.77C-578.877 1206.04 -587.364 1199.18 -595.908 1192.37C-596.076 1192.28 -596.407 1192.2 -596.411 1192.08C-596.981 1185.12 -606.3 1182.18 -604.595 1174.11C-604.362 1172.74 -604.631 1171.32 -605.354 1170.12C-612.274 1159.49 -619.112 1148.76 -626.443 1138.37C-629.311 1134.35 -633.52 1131.25 -637.037 1127.65C-637.973 1126.71 -639.484 1125.3 -639.341 1124.38C-638.077 1117.86 -636.477 1111.41 -634.546 1105.05C-633.178 1100.79 -630.989 1097.05 -634.893 1092.84C-636.627 1091 -636.922 1088.05 -638.247 1085.81C-643.847 1076.41 -649.551 1067.05 -655.359 1057.75C-656.316 1056.46 -657.502 1055.35 -658.858 1054.49C-662.323 1052.02 -664.826 1048.42 -665.942 1044.31C-667.057 1040.2 -666.716 1035.84 -664.976 1031.95C-664.209 1030.28 -662.508 1028.16 -660.963 1027.9C-653.401 1026.68 -653.572 1021.21 -653.724 1015.61C-653.809 1012.41 -653.845 1009.21 -653.875 1006.01C-653.93 999.689 -652.683 993.025 -659.093 988.527C-664.445 984.766 -663.582 979.978 -660.46 975.417C-658.272 972.233 -658.874 969.522 -659.413 965.925C-660.822 956.497 -664.357 946.415 -656.155 938.047C-652.726 934.531 -653.952 931.082 -656.683 928.498C-663.189 922.351 -663.103 915.758 -659.717 908.175C-658.374 905.023 -657.652 901.642 -657.589 898.216C-657.486 892.78 -654.612 889.74 -650.256 887.403C-643.444 883.742 -642.624 879.489 -646.652 872.828C-649.237 868.538 -654.524 864.493 -648.888 858.462C-648.302 857.835 -650.785 852.471 -652.793 851.662C-657.12 849.905 -662.152 850.02 -666.737 848.758C-673.227 846.968 -679.522 844.452 -685.987 842.594C-690.856 841.12 -695.831 840.02 -700.868 839.303C-703.981 838.945 -706.981 837.928 -709.67 836.318C-712.358 834.708 -714.671 832.543 -716.455 829.968C-717.918 827.864 -719.623 825.94 -721.537 824.237C-726.291 820.359 -727.369 815.542 -723.901 810.552C-720.8 806.077 -719.591 801.852 -720.959 795.986C-722.871 787.792 -723.09 779.136 -723.546 770.649C-723.571 768.259 -724.213 765.915 -725.409 763.845C-726.605 761.776 -728.315 760.049 -730.373 758.834C-739.204 753.008 -749.085 748.031 -756.075 740.373C-761.026 734.997 -761.958 725.929 -764.669 718.49C-764.695 718.392 -764.697 718.289 -764.676 718.189C-764.655 718.09 -764.611 717.996 -764.548 717.917C-755.887 713.38 -757.946 701.759 -750.055 696.302C-746.307 693.711 -743.204 689.741 -744.055 683.488C-744.785 676.334 -744.487 669.113 -743.169 662.043C-742.634 658.815 -739.141 656.132 -737.22 653.046C-735.298 649.96 -732.523 646.584 -731.827 643.028C-730.589 635.608 -729.81 628.118 -729.494 620.602C-729.367 618.857 -730.539 616.963 -731.347 615.238C-732.317 613.14 -734.773 610.925 -734.449 609.154C-733.194 602.425 -731.1 595.845 -729.249 589.222C-729.161 588.932 -729.006 588.667 -728.797 588.448C-728.587 588.228 -728.33 588.061 -728.044 587.96C-719.482 586.96 -720.67 581.631 -722.068 575.622C-722.699 572.936 -721.208 569.797 -721.672 567.04C-722.633 562.034 -723.91 557.093 -725.494 552.247C-726.615 548.594 -725.915 545.711 -722.398 544.246C-718.881 542.78 -715.132 541.784 -711.516 540.487C-710.427 540.21 -709.442 539.622 -708.68 538.797C-703.187 530.445 -698.085 521.825 -692.29 513.703C-689.709 510.104 -686.566 507.373 -686.144 502.331C-685.844 498.784 -676.683 495.318 -671.843 495.945C-665.787 496.743 -665.137 495.957 -667.228 490.373C-668.159 487.721 -668.257 484.847 -667.51 482.137C-666.763 479.427 -665.205 477.01 -663.046 475.209C-661.533 473.971 -659.668 472.726 -658.928 471.056C-656.752 466.173 -653.733 463.245 -647.96 463.613C-646.744 463.686 -645.424 461.861 -644.112 460.969C-636.516 455.733 -635.647 444.418 -626.024 441.023C-624.782 440.403 -623.469 439.935 -622.115 439.63C-611.881 438.714 -602.436 435.315 -592.871 431.706C-584.438 428.533 -575.318 427.1 -566.463 425.109C-562.744 424.263 -558.79 423.106 -555.169 423.616C-549.03 424.489 -544.401 430.98 -544.301 437.177C-544.279 438.35 -544.56 440.411 -544.167 440.554C-532.779 444.64 -542.038 455.614 -535.409 461.693Z" fill="#141516"/>
<path d="M-666.816 1314.44C-668.523 1313.4 -670.169 1312.26 -671.744 1311.03C-681.011 1303.35 -681.106 1291.64 -671.917 1283.99C-667.301 1280.13 -662.542 1276.42 -657.616 1273C-653.467 1270.12 -650.507 1273.52 -647.453 1275.69C-644.398 1277.86 -641.91 1280.63 -638.698 1281.89C-627.845 1286.2 -627.483 1295 -630.951 1303.96C-636.751 1318.97 -651.671 1323.38 -666.816 1314.44Z" fill="#141516"/>
<path d="M-544.638 406.636C-551.786 402.061 -558.601 397.273 -561.71 388.584C-563.116 385.085 -564.7 381.66 -566.454 378.321C-566.975 377.237 -568.177 376.194 -568.111 375.183C-567.897 371.615 -567.288 368.065 -566.814 364.507C-563.569 365.961 -559.47 366.635 -557.232 369.032C-552.812 373.779 -548.221 379.003 -545.911 384.91C-543.415 391.316 -543.436 398.715 -542.35 405.677L-544.638 406.636Z" fill="#141516"/>
<path d="M-811.705 1016.87C-806.735 1016.06 -803.324 1014.46 -800.839 1015.46C-799.292 1016.07 -797.978 1020.94 -798.788 1023.05C-800.181 1026.65 -804.172 1028.4 -807.669 1025.84C-809.503 1024.49 -809.879 1021.16 -811.705 1016.87Z" fill="#141516"/>
</svg>
