<svg width="878" height="1785" viewBox="0 0 878 1785" fill="none" xmlns="http://www.w3.org/2000/svg">
<path d="M593.591 143.693C598.408 143.803 602.991 145.82 605.161 152.331C605.8 154.252 609.265 156.099 611.636 156.377C614.955 156.755 615.618 154.033 615.304 150.943C615.402 150.304 615.668 149.702 616.076 149.2C616.484 148.698 617.018 148.314 617.624 148.087C618.353 148.042 619.083 148.162 619.759 148.438C620.435 148.715 621.039 149.14 621.527 149.683C624.226 153.367 626.096 157.733 629.177 160.994C631.354 163.166 634.297 164.393 637.372 164.411C642.219 164.105 645.213 165.75 647.033 169.863C650.234 177.109 654.712 182.869 662.304 186.19C664.085 186.98 665.169 190.529 665.565 192.967C666.001 195.652 665.162 198.51 665.058 201.33C664.604 210.061 667.75 212.436 676.268 209.914C680.644 208.609 685.04 207.413 689.431 206.13C697.798 203.768 704.969 198.343 709.518 190.933C712.591 186.023 717.42 185.119 720.783 188.207C728.796 195.547 738.155 196.559 748.828 196.093C750.717 191.03 754.454 188.964 761.073 190.338C764.825 191.106 769.121 188.51 773.208 187.849C775.051 187.515 777.807 187.707 778.816 188.891C785.418 196.227 792.443 191.738 799.405 190.094C799.587 190.045 799.744 189.87 799.928 189.795C808.851 185.941 811.081 186.319 815.668 194.407C818.171 198.817 821.12 201.75 826.141 202.524C827.161 202.703 828.113 203.156 828.895 203.834C838.623 212.247 849.545 209.995 860.349 207.1C869.189 204.722 878.282 204.644 886.286 207.979C891.267 210.057 894.44 216.406 898.499 220.736C901.906 224.353 904.991 228.553 909.075 231.121C911.83 232.865 916.077 232.241 919.655 232.656C921.589 232.892 923.745 232.598 925.419 233.355C932.708 236.668 939.859 240.293 947.192 243.87C953.92 239.895 960.049 242.818 961.808 251.204C962.253 253.565 962.523 255.955 962.616 258.355C963.118 266.546 966.836 271.755 974.498 274.109C975.861 274.532 977.784 273.503 979.382 272.915C984.376 270.974 987.95 273.359 986.687 278.405C984.737 286.215 985.977 293.49 988.787 300.734C989.073 301.473 989.563 302.441 989.311 303.023C984.219 314.725 997.231 316.531 1000.9 323.42C1002.34 326.111 1008.52 325.972 1012.16 327.851C1017.13 330.428 1020.39 335.398 1027.56 334.744C1032.42 334.259 1036 341.262 1036.19 346.574C1036.37 351.295 1037.76 355.958 1038.04 360.706C1038.22 363.902 1038.48 368.063 1036.73 370.242C1029.47 379.448 1029.77 391.506 1038.12 400.217C1040.98 403.194 1043.34 406.656 1046.14 409.711C1047.16 410.846 1048.81 411.406 1050.16 412.258C1052.41 413.685 1055.22 414.689 1056.8 416.667C1059.55 420.071 1062.49 420.481 1066.41 419.413C1074.48 417.082 1076.72 419.246 1077.11 427.522C1077.22 430.806 1079.38 433.979 1080.38 437.274C1081.34 439.942 1081.95 442.723 1082.19 445.548C1082.21 447.958 1081.66 450.337 1080.59 452.495C1078.51 456.792 1080.64 458.119 1084.28 459.406C1088.4 460.88 1092.31 462.971 1096.31 464.817C1097.59 465.414 1098.79 466.511 1100.1 466.666C1114.38 468.256 1113.14 481.285 1117.27 490.204C1119.97 496.052 1121.5 502.432 1123.27 508.713C1124.09 511.606 1125.09 514.796 1124.63 517.64C1123.62 524.046 1124.1 528.839 1130 533.322C1134.86 537.011 1138.03 543.04 1142.1 547.89C1145.46 551.928 1149.07 555.775 1152.54 559.721C1153.59 560.913 1155.01 562.056 1155.44 563.476C1158.34 573.124 1165.81 577.187 1174.67 579.699C1178.43 580.765 1182.24 582.98 1185.89 582.738C1190.83 582.389 1195.62 580.121 1200.51 578.776C1204.89 577.557 1209.29 576.22 1213.76 575.447C1215.55 575.378 1217.3 576.002 1218.64 577.189C1224.63 582.323 1230.89 582.623 1237.92 579.436C1238.8 579.074 1239.75 578.89 1240.71 578.896C1241.67 578.901 1242.61 579.095 1243.49 579.467C1249.56 582.566 1255.57 585.851 1261.32 589.506C1270.74 595.476 1270.48 607.034 1261.19 613.611C1257.31 616.362 1254.16 620.319 1250.06 622.569C1243.07 626.419 1236.1 631.291 1227.34 629.029C1226.59 628.735 1225.79 628.634 1224.99 628.736C1215.57 631.687 1205.03 629.404 1196.07 635.041C1191.43 637.959 1186.41 637.24 1181.94 633.879C1175.85 629.27 1170.61 631.533 1164.24 634.499C1156.44 638.132 1154.77 640.832 1161.33 647.053C1163.91 649.508 1165.22 653.244 1167.69 655.856C1172.71 661.16 1172.68 667.409 1167.47 673.911C1171.9 679.755 1176.7 685.208 1180.4 691.334C1182.6 694.965 1182.56 699.895 1184.42 703.761C1187.24 709.584 1193 714.759 1193.65 720.631C1194.52 728.812 1198.06 735.666 1200.06 743.11C1201.52 748.57 1197.5 755.719 1195.28 761.874C1193.48 766.834 1191.94 771.006 1194.65 776.556C1196.96 781.291 1196.71 787.255 1197.89 792.595C1198.44 794.644 1199.34 796.583 1200.55 798.327C1204.22 804.082 1207.38 809.779 1202.08 816.324C1201.35 817.52 1200.79 818.807 1200.4 820.152C1206.61 826.607 1206.7 834.225 1201.41 841.504C1199.83 843.693 1199.28 846.932 1199.08 849.736C1198.68 855.1 1197.87 859.75 1193.01 863.365C1189.78 865.765 1186.99 868.631 1190.12 874.282C1192.71 878.925 1191.77 885.119 1187.57 889.816C1183.72 894.066 1180.71 898.677 1181.64 904.934C1181.84 906.167 1180.67 907.676 1179.96 908.957C1177.43 913.483 1174.35 917.774 1172.36 922.527C1170.07 927.983 1174.43 932.559 1179.8 934.872C1184.5 936.918 1187.99 941.745 1192.06 945.31C1196.13 948.875 1197.44 954.597 1204.18 955.815C1206.85 956.295 1209.91 961.921 1210.3 965.379C1210.58 968.088 1207.46 972.046 1204.79 973.887C1201.91 975.874 1200.83 976.873 1202.34 980.36C1204.96 986.448 1201.54 991.62 1197.85 995.722C1191.9 1002.3 1193.8 1008.85 1196.17 1015.8C1196.66 1017.2 1197.32 1019.06 1196.8 1020.21C1194.49 1025.29 1195.04 1030.21 1198.62 1034.01C1202.04 1037.61 1206.03 1040.63 1210.42 1042.95C1220.4 1048.21 1229.47 1053.08 1232.94 1065.74C1238.31 1085.51 1231.87 1097.17 1211.13 1100.47C1205.57 1101.35 1198.94 1109.25 1198.33 1115.71C1197.98 1119.31 1203.58 1126.7 1207.39 1128.87C1210.28 1130.51 1212.81 1132.73 1214.8 1135.4C1217.74 1139.53 1220.98 1141.89 1226.26 1141.08C1227.64 1140.87 1229.86 1141.3 1230.57 1142.27C1233.86 1146.54 1236.81 1151.08 1239.38 1155.83C1242.35 1161.63 1244.02 1168.14 1247.26 1173.67C1250.15 1178.59 1250.43 1182.5 1246.37 1186.42C1242.08 1190.59 1237.73 1187.54 1233.54 1186.13C1230.72 1185.19 1228.18 1183.42 1225.36 1182.46C1224.62 1182.18 1223.82 1182.06 1223.03 1182.09C1222.23 1182.13 1221.46 1182.33 1220.74 1182.67C1214.2 1187.4 1206.74 1190.84 1201.4 1197.25C1196.06 1203.66 1190.25 1209.55 1184.78 1215.79C1183.53 1217.09 1182.66 1218.7 1182.25 1220.46C1180.89 1229.46 1179.86 1238.46 1178.63 1247.46C1177.95 1252.42 1175.44 1256.14 1170.48 1257.58C1167.02 1258.58 1163.49 1259.31 1159.92 1259.79C1152.02 1260.83 1147.76 1264.79 1146.37 1272.7C1144.79 1281.57 1137.11 1287.02 1127.86 1285.89C1120.75 1285.03 1112.06 1291.05 1108.73 1297.23C1104.36 1305.44 1099.71 1314.23 1091.38 1318.85C1086.14 1321.77 1079.32 1322.35 1073.1 1322.92C1066.15 1323.55 1062.42 1325.91 1062.31 1332.81C1062.18 1340.65 1048.77 1350.99 1040.12 1351.19C1038.72 1351.2 1037.37 1351.12 1036.46 1351.1C1034.22 1355.97 1032.39 1360.55 1030.06 1364.87C1027.72 1369.18 1020.89 1371.83 1014.67 1370.52C1006.85 1368.8 999.106 1366.52 991.254 1364.91C987.744 1364.18 984.021 1364.45 980.399 1364.34C979.603 1364.31 978.583 1364.94 978.038 1364.62C967.274 1358.53 959.573 1368.34 950.325 1369.99C949.294 1370.18 948.247 1371.8 947.721 1372.98C944.586 1380 939.484 1382.2 932.964 1378.55C929.199 1376.38 925.901 1375.19 921.987 1377.92C920.937 1378.55 919.693 1378.78 918.487 1378.56C909.968 1376.84 901.152 1375.83 893.126 1372.78C888.665 1371.09 885.629 1365.88 879.787 1365.95C876.507 1365.98 873.024 1364.53 869.976 1365.23C858.146 1367.97 847.756 1364.53 837.862 1358.61C834.484 1356.59 831.338 1354.84 827.182 1356.37C826.422 1356.64 825.615 1356.76 824.809 1356.71C824.004 1356.66 823.216 1356.45 822.495 1356.08C820.246 1354.55 817.69 1353.53 815.005 1353.08C812.32 1352.64 809.57 1352.78 806.947 1353.51C805.559 1353.86 802.191 1351.21 801.743 1349.44C799.118 1338.95 799.147 1339.55 789.409 1336.9C785.154 1335.74 781.121 1331.87 778.174 1328.29C774.575 1323.72 769.558 1320.47 763.914 1319.07C759.78 1317.97 756.056 1315.29 752.197 1313.23C750.409 1312.38 748.722 1311.33 747.165 1310.1C744.282 1307.61 740.855 1305.31 739.021 1302.14C736.043 1296.98 723.451 1290.36 717.561 1291.93C716.786 1292.1 716.063 1292.46 715.454 1292.97C710.198 1298.17 704.741 1303.22 699.836 1308.73C693.558 1315.78 684.771 1316.73 676.539 1318.01C674.436 1318.33 670.218 1312.85 669.067 1309.34C667.716 1305.26 666.157 1303.68 662.016 1303.78C658.424 1303.87 639.166 1290.07 637.812 1287.13C635.648 1282.24 633.196 1277.47 630.47 1272.86C625.122 1264.32 625.35 1264.78 632.051 1256.73C636.591 1251.08 640.402 1244.88 643.392 1238.27C644.475 1235.96 642.947 1232.05 641.829 1229.16C639.142 1222.21 643.946 1208.35 650.575 1205.03C651.316 1204.72 652.075 1204.46 652.847 1204.24C662.765 1200.63 667.792 1190.83 666.445 1180.28C665.666 1174.09 666.985 1167.67 666.951 1161.35C666.918 1159.11 666.234 1156.93 664.984 1155.07C662.316 1151.34 661.71 1147.88 664.472 1143.99C665.385 1142.7 666.557 1141.16 666.54 1139.73C666.461 1131.73 671.224 1128.04 677.93 1125.33C685.274 1122.3 687.797 1111.73 683.063 1105.18C682.261 1103.79 681.34 1102.46 680.31 1101.23C674.846 1095.99 673.923 1089.86 676.583 1083.05C678.566 1077.94 677.524 1074.15 672.531 1071.47C667.538 1068.78 664.082 1064.88 664.152 1058.56C664.194 1053.26 660.505 1050.34 656.261 1048.01C651.204 1045.21 649.353 1042.24 650.597 1035.44C652.112 1027.06 652.228 1018.5 650.941 1010.08C649.545 1000.71 644.866 991.348 647.963 981.333C648.31 980.247 647.265 978.133 646.241 977.388C645.217 976.643 642.616 976.4 641.959 977.126C638.525 980.653 635.924 979.319 631.59 978.131C626.504 976.719 623.281 973.46 619.073 971.422C610.229 967.169 607.552 959.065 604.196 951.169C603.959 950.603 603.927 949.971 604.107 949.384C607.45 940.882 600.876 936.96 596.224 932.107C595.051 930.752 593.95 929.337 592.925 927.867C588.934 922.668 584.78 917.752 578.311 915.053C575.993 914.078 574.746 910.086 573.428 907.283C571.719 903.653 570.543 900.023 565.736 899.024C563.251 898.484 560.888 896.449 558.726 894.767C550.123 888.038 541.636 881.18 533.092 874.373C532.924 874.276 532.592 874.197 532.588 874.083C532.019 867.125 522.7 864.178 524.405 856.115C524.638 854.736 524.368 853.321 523.646 852.124C516.726 841.487 509.888 830.756 502.557 820.37C499.689 816.351 495.48 813.25 491.963 809.653C491.027 808.707 489.516 807.303 489.658 806.378C490.922 799.858 492.523 793.407 494.454 787.052C495.822 782.793 498.01 779.05 494.107 774.839C492.373 772.998 492.078 770.045 490.752 767.812C485.153 758.407 479.449 749.054 473.641 739.753C472.683 738.46 471.498 737.354 470.142 736.488C466.677 734.015 464.174 730.42 463.058 726.312C461.943 722.203 462.284 717.836 464.023 713.95C464.791 712.282 466.492 710.159 468.037 709.905C475.599 708.676 475.428 703.208 475.275 697.61C475.191 694.414 475.155 691.206 475.124 688.013C475.07 681.689 476.316 675.025 469.907 670.527C464.555 666.766 465.418 661.978 468.54 657.417C470.728 654.233 470.125 651.522 469.587 647.925C468.178 638.497 464.643 628.415 472.845 620.047C476.273 616.531 475.048 613.082 472.316 610.498C465.811 604.351 465.897 597.758 469.282 590.175C470.625 587.023 471.348 583.642 471.41 580.216C471.514 574.78 474.388 571.74 478.744 569.403C485.556 565.742 486.376 561.489 482.348 554.828C479.762 550.538 474.476 546.493 480.112 540.462C480.698 539.835 478.215 534.471 476.207 533.662C471.879 531.905 466.848 532.02 462.263 530.758C455.772 528.968 449.477 526.452 443.013 524.594C438.143 523.12 433.168 522.02 428.132 521.303C425.019 520.945 422.018 519.928 419.33 518.318C416.642 516.708 414.329 514.543 412.544 511.968C411.082 509.864 409.376 507.94 407.462 506.237C402.709 502.359 401.631 497.542 405.099 492.552C408.2 488.077 409.408 483.852 408.04 477.986C406.129 469.792 405.91 461.136 405.454 452.649C405.429 450.259 404.787 447.915 403.591 445.845C402.395 443.776 400.685 442.049 398.626 440.834C389.795 435.008 379.915 430.031 372.925 422.373C367.974 416.997 367.042 407.929 364.331 400.49C364.305 400.392 364.302 400.289 364.324 400.189C364.345 400.09 364.389 399.996 364.452 399.917C373.113 395.38 371.054 383.759 378.945 378.302C382.693 375.711 385.796 371.741 384.945 365.488C384.215 358.334 384.513 351.113 385.831 344.043C386.366 340.815 389.859 338.132 391.78 335.046C393.702 331.96 396.476 328.584 397.173 325.028C398.411 317.608 399.19 310.118 399.506 302.602C399.633 300.857 398.46 298.963 397.652 297.238C396.682 295.14 394.227 292.925 394.55 291.154C395.806 284.425 397.9 277.845 399.751 271.222C399.839 270.932 399.994 270.667 400.203 270.448C400.412 270.228 400.67 270.061 400.955 269.96C409.518 268.96 408.329 263.631 406.932 257.622C406.301 254.936 407.792 251.797 407.328 249.04C406.366 244.034 405.09 239.093 403.506 234.247C402.385 230.594 403.084 227.711 406.602 226.246C410.119 224.78 413.868 223.784 417.484 222.487C418.573 222.21 419.558 221.622 420.32 220.797C425.813 212.445 430.915 203.825 436.709 195.703C439.291 192.104 442.434 189.373 442.856 184.331C443.156 180.784 452.316 177.318 457.157 177.945C463.213 178.743 463.862 177.957 461.772 172.373C460.841 169.721 460.742 166.847 461.49 164.137C462.237 161.427 463.795 159.01 465.954 157.209C467.466 155.971 469.332 154.726 470.072 153.056C472.248 148.173 475.267 145.245 481.04 145.613C482.256 145.686 483.576 143.861 484.888 142.969C492.484 137.733 493.353 126.418 502.976 123.023C504.218 122.403 505.53 121.935 506.885 121.63C517.119 120.714 526.563 117.315 536.129 113.706C544.561 110.533 553.681 109.1 562.537 107.109C566.255 106.263 570.21 105.106 573.831 105.616C579.969 106.489 584.599 112.98 584.699 119.177C584.721 120.35 584.44 122.411 584.833 122.554C596.221 126.64 586.962 137.614 593.591 143.693Z" fill="#819EFF"/>
<path d="M462.184 996.438C460.477 995.4 458.831 994.263 457.256 993.033C447.988 985.347 447.893 973.643 457.083 965.985C461.699 962.133 466.457 958.42 471.383 954.999C475.533 952.123 478.492 955.523 481.547 957.693C484.602 959.862 487.089 962.626 490.301 963.894C501.155 968.202 501.517 976.998 498.049 985.959C492.248 1000.97 477.329 1005.38 462.184 996.438Z" fill="#819EFF"/>
<path d="M584.362 88.6357C577.214 84.0612 570.398 79.2734 567.29 70.5844C565.884 67.085 564.3 63.6596 562.545 60.3213C562.024 59.2375 560.823 58.1941 560.889 57.1834C561.103 53.6152 561.712 50.0652 562.186 46.5071C565.43 47.9607 569.53 48.6354 571.768 51.0323C576.187 55.7794 580.779 61.0034 583.088 66.9098C585.585 73.3158 585.564 80.7155 586.649 87.6769L584.362 88.6357Z" fill="#819EFF"/>
<path d="M317.295 698.865C322.265 698.057 325.676 696.46 328.161 697.461C329.708 698.075 331.022 702.945 330.212 705.05C328.818 708.651 324.828 710.403 321.33 707.838C319.496 706.485 319.121 703.164 317.295 698.865Z" fill="#819EFF"/>
<path d="M846.591 395.693C851.408 395.803 855.991 397.82 858.161 404.331C858.8 406.252 862.265 408.099 864.636 408.377C867.955 408.755 868.618 406.033 868.304 402.943C868.402 402.304 868.668 401.702 869.076 401.2C869.484 400.698 870.018 400.314 870.624 400.087C871.353 400.042 872.083 400.162 872.759 400.438C873.435 400.715 874.039 401.14 874.527 401.683C877.226 405.367 879.096 409.733 882.177 412.994C884.354 415.166 887.297 416.393 890.372 416.411C895.219 416.105 898.213 417.75 900.033 421.863C903.234 429.109 907.712 434.869 915.304 438.19C917.085 438.98 918.169 442.529 918.565 444.967C919.001 447.652 918.162 450.51 918.058 453.33C917.604 462.061 920.75 464.436 929.268 461.914C933.644 460.609 938.04 459.413 942.431 458.13C950.798 455.768 957.969 450.343 962.518 442.933C965.591 438.023 970.42 437.119 973.783 440.207C981.796 447.547 991.155 448.559 1001.83 448.093C1003.72 443.03 1007.45 440.964 1014.07 442.338C1017.82 443.106 1022.12 440.51 1026.21 439.849C1028.05 439.515 1030.81 439.707 1031.82 440.891C1038.42 448.227 1045.44 443.738 1052.41 442.094C1052.59 442.045 1052.74 441.87 1052.93 441.795C1061.85 437.941 1064.08 438.319 1068.67 446.407C1071.17 450.817 1074.12 453.75 1079.14 454.524C1080.16 454.703 1081.11 455.156 1081.9 455.834C1091.62 464.247 1102.55 461.995 1113.35 459.1C1122.19 456.722 1131.28 456.644 1139.29 459.979C1144.27 462.057 1147.44 468.406 1151.5 472.736C1154.91 476.353 1157.99 480.553 1162.07 483.121C1164.83 484.865 1169.08 484.241 1172.66 484.656C1174.59 484.892 1176.74 484.598 1178.42 485.355C1185.71 488.668 1192.86 492.293 1200.19 495.87C1206.92 491.895 1213.05 494.818 1214.81 503.204C1215.25 505.565 1215.52 507.955 1215.62 510.355C1216.12 518.546 1219.84 523.755 1227.5 526.109C1228.86 526.532 1230.78 525.503 1232.38 524.915C1237.38 522.974 1240.95 525.359 1239.69 530.405C1237.74 538.215 1238.98 545.49 1241.79 552.734C1242.07 553.473 1242.56 554.441 1242.31 555.023C1237.22 566.725 1250.23 568.531 1253.9 575.42C1255.34 578.111 1261.52 577.972 1265.16 579.851C1270.13 582.428 1273.39 587.398 1280.56 586.744C1285.42 586.259 1289 593.262 1289.19 598.574C1289.37 603.295 1290.76 607.958 1291.04 612.706C1291.22 615.902 1291.48 620.063 1289.73 622.242C1282.47 631.448 1282.77 643.506 1291.12 652.217C1293.98 655.194 1296.34 658.656 1299.14 661.711C1300.16 662.846 1301.81 663.406 1303.16 664.258C1305.41 665.685 1308.22 666.689 1309.8 668.667C1312.55 672.071 1315.49 672.481 1319.41 671.413C1327.48 669.082 1329.72 671.246 1330.11 679.522C1330.22 682.806 1332.38 685.979 1333.38 689.274C1334.34 691.942 1334.95 694.723 1335.19 697.548C1335.21 699.958 1334.66 702.337 1333.59 704.495C1331.51 708.792 1333.64 710.119 1337.28 711.406C1341.4 712.88 1345.31 714.971 1349.31 716.817C1350.59 717.414 1351.79 718.511 1353.1 718.666C1367.38 720.256 1366.14 733.285 1370.27 742.204C1372.97 748.052 1374.5 754.432 1376.27 760.713C1377.09 763.606 1378.09 766.796 1377.63 769.64C1376.62 776.046 1377.1 780.839 1383 785.322C1387.86 789.011 1391.03 795.04 1395.1 799.89C1398.46 803.928 1402.07 807.775 1405.54 811.721C1406.59 812.913 1408.01 814.056 1408.44 815.476C1411.34 825.124 1418.81 829.187 1427.67 831.699C1431.43 832.765 1435.24 834.98 1438.89 834.738C1443.83 834.389 1448.62 832.121 1453.51 830.776C1457.89 829.557 1462.29 828.22 1466.76 827.447C1468.55 827.378 1470.3 828.002 1471.64 829.189C1477.63 834.323 1483.89 834.623 1490.92 831.436C1491.8 831.074 1492.75 830.89 1493.71 830.896C1494.67 830.901 1495.61 831.095 1496.49 831.467C1502.56 834.566 1508.57 837.851 1514.32 841.506C1523.74 847.476 1523.48 859.034 1514.19 865.611C1510.31 868.362 1507.16 872.319 1503.06 874.569C1496.07 878.419 1489.1 883.291 1480.34 881.029C1479.59 880.735 1478.79 880.634 1477.99 880.736C1468.57 883.687 1458.03 881.404 1449.07 887.041C1444.43 889.959 1439.41 889.24 1434.94 885.879C1428.85 881.27 1423.61 883.533 1417.24 886.499C1409.44 890.132 1407.77 892.832 1414.33 899.053C1416.91 901.508 1418.22 905.244 1420.69 907.856C1425.71 913.16 1425.68 919.409 1420.47 925.911C1424.9 931.755 1429.7 937.208 1433.4 943.334C1435.6 946.965 1435.56 951.895 1437.42 955.761C1440.24 961.584 1446 966.759 1446.65 972.631C1447.52 980.812 1451.06 987.666 1453.06 995.11C1454.52 1000.57 1450.5 1007.72 1448.28 1013.87C1446.48 1018.83 1444.94 1023.01 1447.65 1028.56C1449.96 1033.29 1449.71 1039.26 1450.89 1044.59C1451.44 1046.64 1452.34 1048.58 1453.55 1050.33C1457.22 1056.08 1460.38 1061.78 1455.08 1068.32C1454.35 1069.52 1453.79 1070.81 1453.4 1072.15C1459.61 1078.61 1459.7 1086.23 1454.41 1093.5C1452.83 1095.69 1452.28 1098.93 1452.08 1101.74C1451.68 1107.1 1450.87 1111.75 1446.01 1115.37C1442.78 1117.76 1439.99 1120.63 1443.12 1126.28C1445.71 1130.93 1444.77 1137.12 1440.57 1141.82C1436.72 1146.07 1433.71 1150.68 1434.64 1156.93C1434.84 1158.17 1433.67 1159.68 1432.96 1160.96C1430.43 1165.48 1427.35 1169.77 1425.36 1174.53C1423.07 1179.98 1427.43 1184.56 1432.8 1186.87C1437.5 1188.92 1440.99 1193.75 1445.06 1197.31C1449.13 1200.87 1450.44 1206.6 1457.18 1207.81C1459.85 1208.3 1462.91 1213.92 1463.3 1217.38C1463.58 1220.09 1460.46 1224.05 1457.79 1225.89C1454.91 1227.87 1453.83 1228.87 1455.34 1232.36C1457.96 1238.45 1454.54 1243.62 1450.85 1247.72C1444.9 1254.3 1446.8 1260.85 1449.17 1267.8C1449.66 1269.2 1450.32 1271.06 1449.8 1272.21C1447.49 1277.29 1448.04 1282.21 1451.62 1286.01C1455.04 1289.61 1459.03 1292.63 1463.42 1294.95C1473.4 1300.21 1482.47 1305.08 1485.94 1317.74C1491.31 1337.51 1484.87 1349.17 1464.13 1352.47C1458.57 1353.35 1451.94 1361.25 1451.33 1367.71C1450.98 1371.31 1456.58 1378.7 1460.39 1380.87C1463.28 1382.51 1465.81 1384.73 1467.8 1387.4C1470.74 1391.53 1473.98 1393.89 1479.26 1393.08C1480.64 1392.87 1482.86 1393.3 1483.57 1394.27C1486.86 1398.54 1489.81 1403.08 1492.38 1407.83C1495.35 1413.63 1497.02 1420.14 1500.26 1425.67C1503.15 1430.59 1503.43 1434.5 1499.37 1438.42C1495.08 1442.59 1490.73 1439.54 1486.54 1438.13C1483.72 1437.19 1481.18 1435.42 1478.36 1434.46C1477.62 1434.18 1476.82 1434.06 1476.03 1434.09C1475.23 1434.13 1474.46 1434.33 1473.74 1434.67C1467.2 1439.4 1459.74 1442.84 1454.4 1449.25C1449.06 1455.66 1443.25 1461.55 1437.78 1467.79C1436.53 1469.09 1435.66 1470.7 1435.25 1472.46C1433.89 1481.46 1432.86 1490.46 1431.63 1499.46C1430.95 1504.42 1428.44 1508.14 1423.48 1509.58C1420.02 1510.58 1416.49 1511.31 1412.92 1511.79C1405.02 1512.83 1400.76 1516.79 1399.37 1524.7C1397.79 1533.57 1390.11 1539.02 1380.86 1537.89C1373.75 1537.03 1365.06 1543.05 1361.73 1549.23C1357.36 1557.44 1352.71 1566.23 1344.38 1570.85C1339.14 1573.77 1332.32 1574.35 1326.1 1574.92C1319.15 1575.55 1315.42 1577.91 1315.31 1584.81C1315.18 1592.65 1301.77 1602.99 1293.12 1603.19C1291.72 1603.2 1290.37 1603.12 1289.46 1603.1C1287.22 1607.97 1285.39 1612.55 1283.06 1616.87C1280.72 1621.18 1273.89 1623.83 1267.67 1622.52C1259.85 1620.8 1252.11 1618.52 1244.25 1616.91C1240.74 1616.18 1237.02 1616.45 1233.4 1616.34C1232.6 1616.31 1231.58 1616.94 1231.04 1616.62C1220.27 1610.53 1212.57 1620.34 1203.33 1621.99C1202.29 1622.18 1201.25 1623.8 1200.72 1624.98C1197.59 1632 1192.48 1634.2 1185.96 1630.55C1182.2 1628.38 1178.9 1627.19 1174.99 1629.92C1173.94 1630.55 1172.69 1630.78 1171.49 1630.56C1162.97 1628.84 1154.15 1627.83 1146.13 1624.78C1141.66 1623.09 1138.63 1617.88 1132.79 1617.95C1129.51 1617.98 1126.02 1616.53 1122.98 1617.23C1111.15 1619.97 1100.76 1616.53 1090.86 1610.61C1087.48 1608.59 1084.34 1606.84 1080.18 1608.37C1079.42 1608.64 1078.61 1608.76 1077.81 1608.71C1077 1608.66 1076.22 1608.45 1075.5 1608.08C1073.25 1606.55 1070.69 1605.53 1068 1605.08C1065.32 1604.64 1062.57 1604.78 1059.95 1605.51C1058.56 1605.86 1055.19 1603.21 1054.74 1601.44C1052.12 1590.95 1052.15 1591.55 1042.41 1588.9C1038.15 1587.74 1034.12 1583.87 1031.17 1580.29C1027.58 1575.72 1022.56 1572.47 1016.91 1571.07C1012.78 1569.97 1009.06 1567.29 1005.2 1565.23C1003.41 1564.38 1001.72 1563.33 1000.17 1562.1C997.282 1559.61 993.855 1557.31 992.021 1554.14C989.043 1548.98 976.451 1542.36 970.561 1543.93C969.786 1544.1 969.063 1544.46 968.454 1544.97C963.198 1550.17 957.741 1555.22 952.836 1560.73C946.558 1567.78 937.771 1568.73 929.539 1570.01C927.436 1570.33 923.218 1564.85 922.067 1561.34C920.716 1557.26 919.157 1555.68 915.016 1555.78C911.424 1555.87 892.166 1542.07 890.812 1539.13C888.648 1534.24 886.196 1529.47 883.47 1524.86C878.122 1516.32 878.35 1516.78 885.051 1508.73C889.591 1503.08 893.402 1496.88 896.392 1490.27C897.475 1487.96 895.947 1484.05 894.829 1481.16C892.142 1474.21 896.946 1460.35 903.575 1457.03C904.316 1456.72 905.075 1456.46 905.847 1456.24C915.765 1452.63 920.792 1442.83 919.445 1432.28C918.666 1426.09 919.985 1419.67 919.951 1413.35C919.918 1411.11 919.234 1408.93 917.984 1407.07C915.316 1403.34 914.71 1399.88 917.472 1395.99C918.385 1394.7 919.557 1393.16 919.54 1391.73C919.461 1383.73 924.224 1380.04 930.93 1377.33C938.274 1374.3 940.797 1363.73 936.063 1357.18C935.261 1355.79 934.34 1354.46 933.31 1353.23C927.846 1347.99 926.923 1341.86 929.583 1335.05C931.566 1329.94 930.524 1326.15 925.531 1323.47C920.538 1320.78 917.082 1316.88 917.152 1310.56C917.194 1305.26 913.505 1302.34 909.261 1300.01C904.204 1297.21 902.353 1294.24 903.597 1287.44C905.112 1279.06 905.228 1270.5 903.941 1262.08C902.545 1252.71 897.866 1243.35 900.963 1233.33C901.31 1232.25 900.265 1230.13 899.241 1229.39C898.217 1228.64 895.616 1228.4 894.959 1229.13C891.525 1232.65 888.924 1231.32 884.59 1230.13C879.504 1228.72 876.281 1225.46 872.073 1223.42C863.229 1219.17 860.552 1211.06 857.196 1203.17C856.959 1202.6 856.927 1201.97 857.107 1201.38C860.45 1192.88 853.876 1188.96 849.224 1184.11C848.051 1182.75 846.95 1181.34 845.925 1179.87C841.934 1174.67 837.78 1169.75 831.311 1167.05C828.993 1166.08 827.746 1162.09 826.428 1159.28C824.719 1155.65 823.543 1152.02 818.736 1151.02C816.251 1150.48 813.888 1148.45 811.726 1146.77C803.123 1140.04 794.636 1133.18 786.092 1126.37C785.924 1126.28 785.592 1126.2 785.588 1126.08C785.019 1119.12 775.7 1116.18 777.405 1108.11C777.638 1106.74 777.368 1105.32 776.646 1104.12C769.726 1093.49 762.888 1082.76 755.557 1072.37C752.689 1068.35 748.48 1065.25 744.963 1061.65C744.027 1060.71 742.516 1059.3 742.658 1058.38C743.922 1051.86 745.523 1045.41 747.454 1039.05C748.822 1034.79 751.01 1031.05 747.107 1026.84C745.373 1025 745.078 1022.05 743.752 1019.81C738.153 1010.41 732.449 1001.05 726.641 991.753C725.683 990.46 724.498 989.354 723.142 988.488C719.677 986.015 717.174 982.42 716.058 978.312C714.943 974.203 715.284 969.836 717.023 965.95C717.791 964.282 719.492 962.159 721.037 961.905C728.599 960.676 728.428 955.208 728.275 949.61C728.191 946.414 728.155 943.206 728.124 940.013C728.07 933.689 729.316 927.025 722.907 922.527C717.555 918.766 718.418 913.978 721.54 909.417C723.728 906.233 723.125 903.522 722.587 899.925C721.178 890.497 717.643 880.415 725.845 872.047C729.273 868.531 728.048 865.082 725.316 862.498C718.811 856.351 718.897 849.758 722.282 842.175C723.625 839.023 724.348 835.642 724.41 832.216C724.514 826.78 727.388 823.74 731.744 821.403C738.556 817.742 739.376 813.489 735.348 806.828C732.762 802.538 727.476 798.493 733.112 792.462C733.698 791.835 731.215 786.471 729.207 785.662C724.879 783.905 719.848 784.02 715.263 782.758C708.772 780.968 702.477 778.452 696.013 776.594C691.143 775.12 686.168 774.02 681.132 773.303C678.019 772.945 675.018 771.928 672.33 770.318C669.642 768.708 667.329 766.543 665.544 763.968C664.082 761.864 662.376 759.94 660.462 758.237C655.709 754.359 654.631 749.542 658.099 744.552C661.2 740.077 662.408 735.852 661.04 729.986C659.129 721.792 658.91 713.136 658.454 704.649C658.429 702.259 657.787 699.915 656.591 697.845C655.395 695.776 653.685 694.049 651.626 692.834C642.795 687.008 632.915 682.031 625.925 674.373C620.974 668.997 620.042 659.929 617.331 652.49C617.305 652.392 617.302 652.289 617.324 652.189C617.345 652.09 617.389 651.996 617.452 651.917C626.113 647.38 624.054 635.759 631.945 630.302C635.693 627.711 638.796 623.741 637.945 617.488C637.215 610.334 637.513 603.113 638.831 596.043C639.366 592.815 642.859 590.132 644.78 587.046C646.702 583.96 649.476 580.584 650.173 577.028C651.411 569.608 652.19 562.118 652.506 554.602C652.633 552.857 651.46 550.963 650.652 549.238C649.682 547.14 647.227 544.925 647.55 543.154C648.806 536.425 650.9 529.845 652.751 523.222C652.839 522.932 652.994 522.667 653.203 522.448C653.412 522.228 653.67 522.061 653.955 521.96C662.518 520.96 661.329 515.631 659.932 509.622C659.301 506.936 660.792 503.797 660.328 501.04C659.366 496.034 658.09 491.093 656.506 486.247C655.385 482.594 656.084 479.711 659.602 478.246C663.119 476.78 666.868 475.784 670.484 474.487C671.573 474.21 672.558 473.622 673.32 472.797C678.813 464.445 683.915 455.825 689.709 447.703C692.291 444.104 695.434 441.373 695.856 436.331C696.156 432.784 705.316 429.318 710.157 429.945C716.213 430.743 716.862 429.957 714.772 424.373C713.841 421.721 713.742 418.847 714.49 416.137C715.237 413.427 716.795 411.01 718.954 409.209C720.466 407.971 722.332 406.726 723.072 405.056C725.248 400.173 728.267 397.245 734.04 397.613C735.256 397.686 736.576 395.861 737.888 394.969C745.484 389.733 746.353 378.418 755.976 375.023C757.218 374.403 758.53 373.935 759.885 373.63C770.119 372.714 779.563 369.315 789.129 365.706C797.561 362.533 806.681 361.1 815.537 359.109C819.255 358.263 823.21 357.106 826.831 357.616C832.969 358.489 837.599 364.98 837.699 371.177C837.721 372.35 837.44 374.411 837.833 374.554C849.221 378.64 839.962 389.614 846.591 395.693Z" fill="#141516"/>
<path d="M715.184 1248.44C713.477 1247.4 711.831 1246.26 710.256 1245.03C700.988 1237.35 700.893 1225.64 710.083 1217.99C714.699 1214.13 719.457 1210.42 724.383 1207C728.533 1204.12 731.492 1207.52 734.547 1209.69C737.602 1211.86 740.089 1214.63 743.301 1215.89C754.155 1220.2 754.517 1229 751.049 1237.96C745.248 1252.97 730.329 1257.38 715.184 1248.44Z" fill="#141516"/>
<path d="M837.362 340.636C830.214 336.061 823.398 331.273 820.29 322.584C818.884 319.085 817.3 315.66 815.545 312.321C815.024 311.237 813.823 310.194 813.889 309.183C814.103 305.615 814.712 302.065 815.186 298.507C818.43 299.961 822.53 300.635 824.768 303.032C829.187 307.779 833.779 313.003 836.088 318.91C838.585 325.316 838.564 332.715 839.649 339.677L837.362 340.636Z" fill="#141516"/>
<path d="M570.295 950.865C575.265 950.057 578.676 948.46 581.161 949.461C582.708 950.075 584.022 954.945 583.212 957.05C581.818 960.651 577.828 962.403 574.33 959.838C572.496 958.485 572.121 955.164 570.295 950.865Z" fill="#141516"/>
</svg>
