<svg width="547" height="1533" viewBox="0 0 547 1533" fill="none" xmlns="http://www.w3.org/2000/svg">
<path d="M-442.409 143.693C-437.592 143.803 -433.009 145.82 -430.838 152.331C-430.2 154.252 -426.735 156.099 -424.364 156.377C-421.044 156.755 -420.382 154.033 -420.695 150.943C-420.598 150.304 -420.332 149.702 -419.924 149.2C-419.516 148.698 -418.981 148.314 -418.375 148.087C-417.647 148.042 -416.917 148.162 -416.241 148.438C-415.565 148.715 -414.961 149.14 -414.472 149.683C-411.774 153.367 -409.904 157.733 -406.822 160.994C-404.646 163.166 -401.702 164.393 -398.628 164.411C-393.781 164.105 -390.787 165.75 -388.966 169.863C-385.766 177.109 -381.288 182.869 -373.696 186.19C-371.914 186.98 -370.831 190.529 -370.435 192.967C-369.999 195.652 -370.838 198.51 -370.942 201.33C-371.395 210.061 -368.25 212.436 -359.732 209.914C-355.356 208.609 -350.96 207.413 -346.569 206.13C-338.202 203.768 -331.031 198.343 -326.482 190.933C-323.409 186.023 -318.58 185.119 -315.217 188.207C-307.204 195.547 -297.845 196.559 -287.171 196.093C-285.283 191.03 -281.546 188.964 -274.927 190.338C-271.175 191.106 -266.879 188.51 -262.792 187.849C-260.949 187.515 -258.193 187.707 -257.184 188.891C-250.582 196.227 -243.557 191.738 -236.595 190.094C-236.413 190.045 -236.256 189.87 -236.072 189.795C-227.148 185.941 -224.919 186.319 -220.331 194.407C-217.829 198.817 -214.88 201.75 -209.858 202.524C-208.839 202.703 -207.887 203.156 -207.105 203.834C-197.376 212.247 -186.454 209.995 -175.651 207.1C-166.811 204.722 -157.718 204.644 -149.714 207.979C-144.733 210.057 -141.56 216.406 -137.501 220.736C-134.093 224.353 -131.009 228.553 -126.925 231.121C-124.17 232.865 -119.922 232.241 -116.344 232.656C-114.411 232.892 -112.255 232.598 -110.581 233.355C-103.292 236.668 -96.1409 240.293 -88.8081 243.87C-82.0801 239.895 -75.9507 242.818 -74.1914 251.204C-73.7468 253.565 -73.4767 255.955 -73.3835 258.355C-72.8822 266.546 -69.1634 271.755 -61.5022 274.109C-60.1386 274.532 -58.2157 273.503 -56.6177 272.915C-51.6233 270.974 -48.0498 273.359 -49.313 278.405C-51.2631 286.215 -50.0231 293.49 -47.2132 300.734C-46.9266 301.473 -46.4367 302.441 -46.6887 303.023C-51.7806 314.725 -38.7692 316.531 -35.0969 323.42C-33.6578 326.111 -27.4802 325.972 -23.8382 327.851C-18.8654 330.428 -15.6098 335.398 -8.43538 334.744C-3.58266 334.259 -0.00401594 341.262 0.187134 346.574C0.370386 351.295 1.76161 355.958 2.04091 360.706C2.22343 363.902 2.47832 368.063 0.730571 370.242C-6.52844 379.448 -6.23206 391.506 2.12188 400.217C4.97631 403.194 7.34037 406.656 10.1359 409.711C11.1583 410.846 12.8068 411.406 14.161 412.258C16.4139 413.685 19.2185 414.689 20.8035 416.667C23.5509 420.071 26.4889 420.481 30.4053 419.413C38.478 417.082 40.7246 419.246 41.1069 427.522C41.2244 430.806 43.3779 433.979 44.3848 437.274C45.343 439.942 45.9513 442.723 46.1942 445.548C46.211 447.958 45.6611 450.337 44.589 452.495C42.5133 456.792 44.642 458.119 48.2761 459.406C52.4035 460.88 56.3149 462.971 60.3116 464.817C61.5888 465.414 62.7871 466.511 64.0963 466.666C78.3796 468.256 77.1363 481.285 81.2727 490.204C83.9656 496.052 85.4981 502.432 87.2697 508.713C88.089 511.606 89.0858 514.796 88.633 517.64C87.6191 524.046 88.0964 528.839 93.9966 533.322C98.8592 537.011 102.035 543.04 106.101 547.89C109.461 551.928 113.072 555.775 116.541 559.721C117.587 560.913 119.011 562.056 119.436 563.476C122.34 573.124 129.812 577.187 138.668 579.699C142.429 580.765 146.241 582.98 149.891 582.738C154.833 582.389 159.625 580.121 164.513 578.776C168.894 577.557 173.288 576.22 177.762 575.447C179.553 575.378 181.301 576.002 182.644 577.189C188.63 582.323 194.89 582.623 201.918 579.436C202.803 579.074 203.752 578.89 204.709 578.896C205.665 578.901 206.612 579.095 207.494 579.467C213.564 582.566 219.568 585.851 225.317 589.506C234.736 595.476 234.482 607.034 225.189 613.611C221.307 616.362 218.156 620.319 214.06 622.569C207.068 626.419 200.102 631.291 191.339 629.029C190.594 628.735 189.786 628.634 188.991 628.736C179.568 631.687 169.027 629.404 160.067 635.041C155.431 637.959 150.407 637.24 145.942 633.879C139.849 629.27 134.613 631.533 128.244 634.499C120.44 638.132 118.77 640.832 125.331 647.053C127.912 649.508 129.224 653.244 131.688 655.856C136.709 661.16 136.681 667.409 131.472 673.911C135.902 679.755 140.696 685.208 144.404 691.334C146.6 694.965 146.565 699.895 148.416 703.761C151.235 709.584 157.002 714.759 157.653 720.631C158.524 728.812 162.063 735.666 164.058 743.11C165.52 748.57 161.505 755.719 159.28 761.874C157.479 766.834 155.937 771.006 158.648 776.556C160.963 781.291 160.708 787.255 161.89 792.595C162.442 794.644 163.343 796.583 164.552 798.327C168.222 804.082 171.38 809.779 166.076 816.324C165.35 817.52 164.786 818.807 164.398 820.152C170.614 826.607 170.705 834.225 165.412 841.504C163.826 843.693 163.284 846.932 163.078 849.736C162.68 855.1 161.869 859.75 157.013 863.365C153.782 865.765 150.994 868.631 154.122 874.282C156.714 878.925 155.767 885.119 151.573 889.816C147.72 894.066 144.709 898.677 145.641 904.934C145.838 906.167 144.674 907.676 143.962 908.957C141.433 913.483 138.354 917.774 136.365 922.527C134.068 927.983 138.432 932.559 143.795 934.872C148.502 936.918 151.994 941.745 156.061 945.31C160.128 948.875 161.439 954.597 168.176 955.815C170.849 956.295 173.908 961.921 174.303 965.379C174.585 968.088 171.461 972.046 168.789 973.887C165.908 975.874 164.828 976.873 166.339 980.36C168.963 986.448 165.544 991.62 161.847 995.722C155.896 1002.3 157.803 1008.85 160.169 1015.8C160.66 1017.2 161.325 1019.06 160.8 1020.21C158.493 1025.29 159.039 1030.21 162.619 1034.01C166.04 1037.61 170.027 1040.63 174.421 1042.95C184.404 1048.21 193.466 1053.08 196.938 1065.74C202.306 1085.51 195.866 1097.17 175.125 1100.47C169.571 1101.35 162.938 1109.25 162.328 1115.71C161.981 1119.31 167.577 1126.7 171.386 1128.87C174.283 1130.51 176.808 1132.73 178.802 1135.4C181.744 1139.53 184.983 1141.89 190.262 1141.08C191.642 1140.87 193.858 1141.3 194.57 1142.27C197.864 1146.54 200.81 1151.08 203.381 1155.83C206.354 1161.63 208.019 1168.14 211.257 1173.67C214.153 1178.59 214.428 1182.5 210.373 1186.42C206.081 1190.59 201.727 1187.54 197.537 1186.13C194.723 1185.19 192.175 1183.42 189.363 1182.46C188.617 1182.18 187.824 1182.06 187.029 1182.09C186.235 1182.13 185.456 1182.33 184.738 1182.67C178.204 1187.4 170.738 1190.84 165.399 1197.25C160.06 1203.66 154.253 1209.55 148.779 1215.79C147.529 1217.09 146.656 1218.7 146.252 1220.46C144.887 1229.46 143.859 1238.46 142.635 1247.46C141.952 1252.42 139.439 1256.14 134.479 1257.58C131.017 1258.58 127.487 1259.31 123.918 1259.79C116.021 1260.83 111.763 1264.79 110.371 1272.7C108.786 1281.57 101.106 1287.02 91.8578 1285.89C84.7473 1285.03 76.0574 1291.05 72.7296 1297.23C68.3621 1305.44 63.7114 1314.23 55.3761 1318.85C50.1385 1321.77 43.316 1322.35 37.1019 1322.92C30.1514 1323.55 26.423 1325.91 26.3127 1332.81C26.1786 1340.65 12.769 1350.99 4.12461 1351.19C2.71843 1351.2 1.36683 1351.12 0.456611 1351.1C-1.78381 1355.97 -3.60528 1360.55 -5.9424 1364.87C-8.27944 1369.18 -15.1067 1371.83 -21.3274 1370.52C-29.1462 1368.8 -36.8935 1366.52 -44.7457 1364.91C-48.2561 1364.18 -51.9783 1364.45 -55.601 1364.34C-56.3971 1364.31 -57.4167 1364.94 -57.9622 1364.62C-68.7253 1358.53 -76.4272 1368.34 -85.6745 1369.99C-86.7058 1370.18 -87.7526 1371.8 -88.279 1372.98C-91.4138 1380 -96.516 1382.2 -103.036 1378.55C-106.801 1376.38 -110.099 1375.19 -114.013 1377.92C-115.063 1378.55 -116.307 1378.78 -117.512 1378.56C-126.031 1376.84 -134.848 1375.83 -142.874 1372.78C-147.335 1371.09 -150.371 1365.88 -156.213 1365.95C-159.492 1365.98 -162.975 1364.53 -166.024 1365.23C-177.853 1367.97 -188.244 1364.53 -198.138 1358.61C-201.516 1356.59 -204.662 1354.84 -208.818 1356.37C-209.578 1356.64 -210.385 1356.76 -211.191 1356.71C-211.996 1356.66 -212.784 1356.45 -213.505 1356.08C-215.754 1354.55 -218.31 1353.53 -220.995 1353.08C-223.68 1352.64 -226.43 1352.78 -229.053 1353.51C-230.441 1353.86 -233.809 1351.21 -234.256 1349.44C-236.882 1338.95 -236.853 1339.55 -246.59 1336.9C-250.846 1335.74 -254.878 1331.87 -257.826 1328.29C-261.425 1323.72 -266.442 1320.47 -272.086 1319.07C-276.22 1317.97 -279.944 1315.29 -283.802 1313.23C-285.59 1312.38 -287.278 1311.33 -288.834 1310.1C-291.718 1307.61 -295.145 1305.31 -296.978 1302.14C-299.957 1296.98 -312.549 1290.36 -318.438 1291.93C-319.214 1292.1 -319.937 1292.46 -320.546 1292.97C-325.801 1298.17 -331.259 1303.22 -336.164 1308.73C-342.441 1315.78 -351.229 1316.73 -359.461 1318.01C-361.564 1318.33 -365.781 1312.85 -366.933 1309.34C-368.283 1305.26 -369.843 1303.68 -373.984 1303.78C-377.576 1303.87 -396.834 1290.07 -398.188 1287.13C-400.352 1282.24 -402.804 1277.47 -405.53 1272.86C-410.878 1264.32 -410.65 1264.78 -403.949 1256.73C-399.408 1251.08 -395.598 1244.88 -392.607 1238.27C-391.525 1235.96 -393.053 1232.05 -394.171 1229.16C-396.858 1222.21 -392.054 1208.35 -385.425 1205.03C-384.684 1204.72 -383.925 1204.46 -383.153 1204.24C-373.234 1200.63 -368.208 1190.83 -369.555 1180.28C-370.334 1174.09 -369.015 1167.67 -369.049 1161.35C-369.082 1159.11 -369.765 1156.93 -371.016 1155.07C-373.683 1151.34 -374.29 1147.88 -371.528 1143.99C-370.615 1142.7 -369.442 1141.16 -369.46 1139.73C-369.539 1131.73 -364.775 1128.04 -358.07 1125.33C-350.725 1122.3 -348.203 1111.73 -352.937 1105.18C-353.739 1103.79 -354.659 1102.46 -355.689 1101.23C-361.154 1095.99 -362.077 1089.86 -359.417 1083.05C-357.433 1077.94 -358.475 1074.15 -363.469 1071.47C-368.462 1068.78 -371.918 1064.88 -371.848 1058.56C-371.806 1053.26 -375.495 1050.34 -379.738 1048.01C-384.796 1045.21 -386.647 1042.24 -385.403 1035.44C-383.888 1027.06 -383.772 1018.5 -385.058 1010.08C-386.454 1000.71 -391.134 991.348 -388.037 981.333C-387.69 980.247 -388.735 978.133 -389.759 977.388C-390.783 976.643 -393.384 976.4 -394.041 977.126C-397.475 980.653 -400.076 979.319 -404.41 978.131C-409.496 976.719 -412.719 973.46 -416.927 971.422C-425.771 967.169 -428.447 959.065 -431.804 951.169C-432.041 950.603 -432.072 949.971 -431.892 949.384C-428.55 940.882 -435.124 936.96 -439.776 932.107C-440.948 930.752 -442.05 929.337 -443.075 927.867C-447.066 922.668 -451.22 917.752 -457.688 915.053C-460.006 914.078 -461.253 910.086 -462.572 907.283C-464.28 903.653 -465.457 900.023 -470.264 899.024C-472.749 898.484 -475.112 896.449 -477.274 894.767C-485.877 888.038 -494.364 881.18 -502.908 874.373C-503.076 874.276 -503.407 874.197 -503.411 874.083C-503.981 867.125 -513.3 864.178 -511.595 856.115C-511.362 854.736 -511.631 853.321 -512.354 852.124C-519.274 841.487 -526.112 830.756 -533.443 820.37C-536.311 816.351 -540.52 813.25 -544.037 809.653C-544.973 808.707 -546.484 807.303 -546.341 806.378C-545.077 799.858 -543.477 793.407 -541.546 787.052C-540.178 782.793 -537.989 779.05 -541.893 774.839C-543.627 772.998 -543.922 770.045 -545.247 767.812C-550.847 758.407 -556.551 749.054 -562.359 739.753C-563.316 738.46 -564.502 737.354 -565.858 736.488C-569.323 734.015 -571.826 730.42 -572.942 726.312C-574.057 722.203 -573.716 717.836 -571.976 713.95C-571.209 712.282 -569.508 710.159 -567.963 709.905C-560.401 708.676 -560.572 703.208 -560.724 697.61C-560.809 694.414 -560.845 691.206 -560.875 688.013C-560.93 681.689 -559.683 675.025 -566.093 670.527C-571.445 666.766 -570.582 661.978 -567.46 657.417C-565.272 654.233 -565.874 651.522 -566.413 647.925C-567.822 638.497 -571.357 628.415 -563.155 620.047C-559.726 616.531 -560.952 613.082 -563.683 610.498C-570.189 604.351 -570.103 597.758 -566.717 590.175C-565.374 587.023 -564.652 583.642 -564.589 580.216C-564.486 574.78 -561.612 571.74 -557.256 569.403C-550.444 565.742 -549.624 561.489 -553.652 554.828C-556.237 550.538 -561.524 546.493 -555.888 540.462C-555.302 539.835 -557.785 534.471 -559.793 533.662C-564.12 531.905 -569.152 532.02 -573.737 530.758C-580.227 528.968 -586.522 526.452 -592.987 524.594C-597.856 523.12 -602.831 522.02 -607.868 521.303C-610.981 520.945 -613.981 519.928 -616.67 518.318C-619.358 516.708 -621.671 514.543 -623.455 511.968C-624.918 509.864 -626.623 507.94 -628.537 506.237C-633.291 502.359 -634.369 497.542 -630.901 492.552C-627.8 488.077 -626.591 483.852 -627.959 477.986C-629.871 469.792 -630.09 461.136 -630.546 452.649C-630.571 450.259 -631.213 447.915 -632.409 445.845C-633.605 443.776 -635.315 442.049 -637.373 440.834C-646.204 435.008 -656.085 430.031 -663.075 422.373C-668.026 416.997 -668.958 407.929 -671.669 400.49C-671.695 400.392 -671.697 400.289 -671.676 400.189C-671.655 400.09 -671.611 399.996 -671.548 399.917C-662.887 395.38 -664.946 383.759 -657.055 378.302C-653.307 375.711 -650.204 371.741 -651.055 365.488C-651.785 358.334 -651.487 351.113 -650.169 344.043C-649.634 340.815 -646.141 338.132 -644.22 335.046C-642.298 331.96 -639.523 328.584 -638.827 325.028C-637.589 317.608 -636.81 310.118 -636.494 302.602C-636.367 300.857 -637.539 298.963 -638.347 297.238C-639.317 295.14 -641.773 292.925 -641.449 291.154C-640.194 284.425 -638.1 277.845 -636.249 271.222C-636.161 270.932 -636.006 270.667 -635.797 270.448C-635.587 270.228 -635.33 270.061 -635.044 269.96C-626.482 268.96 -627.67 263.631 -629.068 257.622C-629.699 254.936 -628.208 251.797 -628.672 249.04C-629.633 244.034 -630.91 239.093 -632.494 234.247C-633.615 230.594 -632.915 227.711 -629.398 226.246C-625.881 224.78 -622.132 223.784 -618.516 222.487C-617.427 222.21 -616.442 221.622 -615.68 220.797C-610.187 212.445 -605.085 203.825 -599.29 195.703C-596.709 192.104 -593.566 189.373 -593.144 184.331C-592.844 180.784 -583.683 177.318 -578.843 177.945C-572.787 178.743 -572.137 177.957 -574.228 172.373C-575.159 169.721 -575.257 166.847 -574.51 164.137C-573.763 161.427 -572.205 159.01 -570.046 157.209C-568.533 155.971 -566.668 154.726 -565.928 153.056C-563.752 148.173 -560.733 145.245 -554.96 145.613C-553.744 145.686 -552.424 143.861 -551.112 142.969C-543.516 137.733 -542.647 126.418 -533.024 123.023C-531.782 122.403 -530.469 121.935 -529.115 121.63C-518.881 120.714 -509.436 117.315 -499.871 113.706C-491.438 110.533 -482.318 109.1 -473.463 107.109C-469.744 106.263 -465.79 105.106 -462.169 105.616C-456.03 106.489 -451.401 112.98 -451.301 119.177C-451.279 120.35 -451.56 122.411 -451.167 122.554C-439.779 126.64 -449.038 137.614 -442.409 143.693Z" fill="#47F066"/>
<path d="M-573.816 996.438C-575.523 995.4 -577.169 994.263 -578.744 993.033C-588.011 985.347 -588.106 973.643 -578.917 965.985C-574.301 962.133 -569.542 958.42 -564.616 954.999C-560.467 952.123 -557.507 955.523 -554.453 957.693C-551.398 959.862 -548.91 962.626 -545.698 963.894C-534.845 968.202 -534.483 976.998 -537.951 985.959C-543.751 1000.97 -558.671 1005.38 -573.816 996.438Z" fill="#47F066"/>
<path d="M-451.638 88.6357C-458.786 84.0612 -465.601 79.2734 -468.71 70.5844C-470.116 67.085 -471.7 63.6596 -473.454 60.3213C-473.975 59.2375 -475.177 58.1941 -475.111 57.1834C-474.897 53.6152 -474.288 50.0652 -473.814 46.5071C-470.569 47.9607 -466.47 48.6354 -464.232 51.0323C-459.812 55.7794 -455.221 61.0034 -452.911 66.9098C-450.415 73.3158 -450.436 80.7155 -449.35 87.6769L-451.638 88.6357Z" fill="#47F066"/>
<path d="M-718.705 698.865C-713.735 698.057 -710.324 696.46 -707.839 697.461C-706.292 698.075 -704.978 702.945 -705.788 705.05C-707.181 708.651 -711.172 710.403 -714.669 707.838C-716.503 706.485 -716.879 703.164 -718.705 698.865Z" fill="#47F066"/>
<path d="M-1001.08 291.523C-997.102 288.799 -992.204 287.76 -986.64 291.779C-985 292.965 -981.109 292.441 -979.022 291.282C-976.106 289.651 -977.158 287.054 -979.217 284.729C-979.511 284.153 -979.646 283.509 -979.608 282.863C-979.57 282.217 -979.36 281.594 -979.001 281.056C-978.436 280.594 -977.773 280.265 -977.063 280.095C-976.353 279.924 -975.614 279.917 -974.9 280.073C-970.559 281.487 -966.491 283.939 -962.085 284.788C-959.05 285.279 -955.944 284.557 -953.438 282.776C-949.681 279.697 -946.291 279.284 -942.411 281.56C-935.581 285.574 -928.583 287.634 -920.48 285.897C-918.573 285.498 -915.621 287.746 -913.875 289.494C-911.954 291.419 -910.966 294.229 -909.404 296.58C-904.674 303.932 -900.733 304.023 -895.291 297.002C-892.501 293.387 -889.63 289.849 -886.815 286.244C-881.402 279.441 -878.748 270.849 -879.382 262.177C-879.755 256.397 -876.363 252.843 -871.829 253.386C-861.039 254.665 -852.85 250.022 -844.458 243.411C-845.881 238.198 -844.053 234.339 -837.878 231.589C-834.384 230.021 -832.412 225.405 -829.48 222.482C-828.179 221.134 -825.83 219.682 -824.32 220.054C-814.676 222.153 -811.595 214.407 -806.902 209.007C-806.783 208.861 -806.758 208.628 -806.653 208.459C-801.659 200.119 -799.629 199.124 -791.182 203.012C-786.575 205.13 -782.468 205.789 -777.94 203.485C-777.008 203.035 -775.97 202.847 -774.939 202.94C-762.129 204.09 -754.578 195.883 -747.499 187.225C-741.71 180.132 -734.374 174.759 -725.93 172.792C-720.672 171.571 -714.389 174.872 -708.566 176.016C-703.687 176.963 -698.73 178.572 -693.916 178.271C-690.661 178.079 -687.577 175.092 -684.43 173.34C-682.723 172.402 -681.145 170.904 -679.343 170.541C-671.491 168.974 -663.569 167.742 -655.528 166.363C-652.388 159.207 -645.705 158.001 -639.38 163.781C-637.641 165.438 -636.026 167.221 -634.548 169.115C-629.358 175.471 -623.297 177.529 -615.704 174.966C-614.349 174.513 -613.389 172.555 -612.436 171.144C-609.515 166.652 -605.221 166.501 -603.3 171.336C-600.322 178.815 -595.067 183.996 -588.556 188.236C-587.892 188.668 -586.929 189.168 -586.794 189.788C-584.094 202.261 -572.477 196.129 -565.473 199.577C-562.733 200.921 -557.8 197.201 -553.746 196.599C-548.204 195.788 -542.659 197.921 -537.217 193.201C-533.561 189.973 -526.566 193.568 -523.309 197.77C-520.404 201.495 -516.551 204.468 -513.552 208.159C-511.537 210.647 -508.901 213.876 -509.047 216.666C-509.564 228.378 -502.282 237.993 -490.414 240.187C-486.359 240.936 -482.418 242.367 -478.365 243.214C-476.871 243.539 -475.206 243.031 -473.609 242.931C-470.947 242.774 -468.084 241.951 -465.643 242.631C-461.425 243.79 -458.8 242.407 -456.244 239.254C-451.052 232.647 -447.965 233.092 -442.822 239.587C-440.808 242.185 -437.207 243.503 -434.466 245.59C-432.13 247.196 -430.012 249.099 -428.165 251.25C-426.745 253.196 -425.802 255.449 -425.412 257.827C-424.588 262.528 -422.085 262.362 -418.383 261.285C-414.172 260.071 -409.776 259.484 -405.453 258.649C-404.068 258.388 -402.454 258.579 -401.301 257.94C-388.778 250.89 -382.179 262.193 -373.613 267.018C-368.012 270.193 -363.042 274.477 -357.936 278.542C-355.582 280.411 -352.909 282.419 -351.617 284.992C-348.698 290.785 -345.512 294.397 -338.105 294.591C-332.003 294.746 -325.905 297.785 -319.771 299.349C-314.686 300.665 -309.508 301.679 -304.387 302.857C-302.842 303.213 -301.019 303.31 -299.845 304.215C-291.853 310.351 -283.416 309.286 -274.759 306.153C-271.083 304.823 -266.696 304.395 -263.874 302.067C-260.066 298.898 -257.5 294.259 -254.318 290.312C-251.472 286.765 -248.686 283.114 -245.506 279.873C-244.093 278.772 -242.309 278.257 -240.526 278.437C-232.668 279.109 -227.412 275.697 -223.567 269.006C-223.06 268.195 -222.397 267.492 -221.617 266.938C-220.837 266.383 -219.955 265.988 -219.022 265.775C-212.285 264.747 -205.492 263.907 -198.691 263.517C-187.559 262.863 -181.016 272.394 -184.719 283.16C-186.264 287.66 -186.512 292.712 -188.523 296.931C-191.95 304.139 -194.761 312.162 -203.195 315.443C-203.972 315.639 -204.687 316.029 -205.272 316.576C-211.199 324.474 -221.089 328.777 -225.071 338.585C-227.13 343.66 -231.629 346.01 -237.216 345.889C-244.854 345.706 -247.783 350.6 -251.222 356.727C-255.435 364.234 -255.215 367.4 -246.256 368.62C-242.726 369.105 -239.48 371.372 -235.955 372.053C-228.781 373.427 -225.155 378.516 -225.586 386.836C-218.578 388.994 -211.501 390.621 -204.915 393.429C-201.011 395.094 -198.161 399.117 -194.4 401.174C-188.711 404.255 -181.008 405.089 -177.051 409.476C-171.567 415.608 -164.692 419.105 -158.725 423.984C-154.35 427.562 -153.435 435.71 -151.647 442.006C-150.213 447.084 -149.028 451.371 -143.586 454.294C-138.942 456.786 -135.666 461.777 -131.588 465.421C-129.943 466.762 -128.08 467.81 -126.08 468.52C-119.741 471.048 -113.85 473.829 -114.334 482.24C-114.224 483.635 -113.931 485.009 -113.461 486.327C-104.645 487.938 -100.123 494.069 -100.17 503.069C-100.179 505.772 -98.7267 508.718 -97.257 511.114C-94.4477 515.701 -92.3905 519.949 -94.2216 525.72C-95.4435 529.555 -96.0329 533.509 -90.1934 536.27C-85.3784 538.526 -82.5303 544.107 -83.1924 550.369C-83.8377 556.069 -83.5902 561.57 -79.1794 566.106C-78.2994 566.991 -78.3637 568.897 -78.1933 570.352C-77.6037 575.503 -77.5973 580.785 -76.4365 585.805C-75.1151 591.575 -68.9001 592.741 -63.1956 591.487C-58.1803 590.4 -52.5267 592.279 -47.1434 592.798C-41.7602 593.317 -37.3544 597.196 -31.1744 594.251C-28.7237 593.081 -22.9553 595.861 -20.6155 598.438C-18.8048 600.472 -19.0298 605.509 -20.123 608.564C-21.3019 611.859 -21.5954 613.301 -18.3326 615.25C-12.6472 618.659 -12.403 624.855 -13.0087 630.344C-13.9989 639.158 -8.62296 643.366 -2.64564 647.623C-1.42821 648.474 0.192928 649.59 0.43914 650.831C1.53631 656.308 4.85017 659.98 9.97692 660.975C14.8578 661.902 19.8573 662.026 24.7779 661.34C35.9533 659.781 46.1527 658.441 56.3648 666.692C72.2662 679.605 73.849 692.835 58.9371 707.623C54.9398 711.578 54.1706 721.867 57.4466 727.466C59.2696 730.594 68.1242 733.321 72.4841 732.859C75.7945 732.5 79.1433 732.831 82.319 733.832C87.1206 735.468 91.1275 735.493 94.9392 731.751C95.9367 730.774 97.9839 729.826 99.1288 730.198C104.301 731.749 109.342 733.71 114.201 736.063C120.001 739.035 125.157 743.35 131.017 745.951C136.238 748.251 138.743 751.262 137.742 756.815C136.689 762.702 131.377 762.773 127.15 764.073C124.317 764.954 121.219 765.009 118.372 765.867C117.605 766.078 116.889 766.441 116.265 766.935C115.642 767.428 115.123 768.041 114.741 768.738C112.198 776.394 108.144 783.544 107.555 791.867C106.965 800.191 105.692 808.364 104.889 816.624C104.633 818.407 104.866 820.227 105.564 821.888C109.712 829.992 114.132 837.898 118.393 845.918C120.736 850.345 120.87 854.835 117.687 858.903C115.456 861.729 113.021 864.39 110.404 866.863C104.597 872.315 103.453 878.016 106.941 885.249C110.836 893.379 107.787 902.29 99.6187 906.773C93.3437 910.226 89.8027 920.185 90.7075 927.142C91.9612 936.364 93.314 946.209 89.2496 954.833C86.7025 960.261 81.5015 964.714 76.7872 968.802C71.5128 973.372 69.8667 977.469 73.8067 983.135C78.2748 989.576 73.4269 1005.8 66.5247 1011.01C65.3908 1011.84 64.2463 1012.56 63.4945 1013.08C64.5217 1018.34 65.7199 1023.13 66.3419 1027.99C66.9642 1032.86 62.9663 1039 57.1502 1041.56C49.8002 1044.73 42.1812 1047.41 34.8662 1050.69C31.5924 1052.15 28.7286 1054.54 25.7177 1056.56C25.0563 1057 24.5952 1058.11 23.9685 1058.17C11.6759 1059.51 11.1483 1071.97 4.60686 1078.71C3.87923 1079.47 3.97499 1081.39 4.23576 1082.66C5.79507 1090.19 2.93813 1094.96 -4.48742 1095.8C-8.81348 1096.23 -12.1863 1097.19 -13.7671 1101.7C-14.2516 1102.82 -15.1295 1103.73 -16.2367 1104.26C-24.1542 1107.84 -31.8991 1112.17 -40.1978 1114.38C-44.8093 1115.61 -50.3137 1113.15 -55.0172 1116.62C-57.6582 1118.56 -61.3335 1119.42 -63.3983 1121.77C-71.4044 1130.9 -81.8478 1134.17 -93.3379 1135.14C-97.2604 1135.47 -100.833 1135.89 -103.314 1139.56C-103.772 1140.23 -104.36 1140.79 -105.043 1141.22C-105.725 1141.65 -106.489 1141.94 -107.286 1142.07C-110.007 1142.14 -112.68 1142.8 -115.119 1144C-117.558 1145.21 -119.705 1146.94 -121.41 1149.06C-122.335 1150.15 -126.613 1149.97 -128.009 1148.8C-136.268 1141.81 -135.892 1142.28 -145.348 1145.81C-149.478 1147.36 -155.009 1146.57 -159.499 1145.38C-165.088 1143.77 -171.053 1144.07 -176.454 1146.23C-180.452 1147.75 -185.041 1147.75 -189.376 1148.33C-191.326 1148.68 -193.309 1148.81 -195.289 1148.73C-199.083 1148.39 -203.208 1148.52 -206.548 1147.02C-211.979 1144.57 -226.071 1146.55 -229.93 1151.27C-230.46 1151.86 -230.839 1152.57 -231.037 1153.34C-232.265 1160.63 -233.75 1167.91 -234.511 1175.25C-235.492 1184.64 -242.069 1190.54 -248.007 1196.39C-249.525 1197.88 -256.151 1195.89 -259.132 1193.72C-262.611 1191.19 -264.803 1190.82 -268.106 1193.32C-270.968 1195.49 -294.662 1195.53 -297.475 1193.94C-302.091 1191.23 -306.863 1188.79 -311.766 1186.64C-321.095 1182.83 -320.645 1183.07 -319.903 1172.62C-319.518 1165.38 -320.046 1158.12 -321.474 1151.02C-321.945 1148.51 -325.473 1146.22 -328.065 1144.53C-334.303 1140.46 -338.502 1126.4 -335.058 1119.83C-334.636 1119.15 -334.173 1118.49 -333.673 1117.87C-327.732 1109.14 -329.372 1098.25 -336.628 1090.47C-340.871 1085.91 -343.553 1079.92 -347.266 1074.82C-348.602 1073.02 -350.431 1071.64 -352.531 1070.87C-356.879 1069.39 -359.388 1066.94 -359.416 1062.17C-359.429 1060.59 -359.38 1058.65 -360.225 1057.51C-364.962 1051.06 -363.254 1045.27 -359.387 1039.16C-355.196 1032.41 -359.32 1022.36 -366.989 1019.81C-368.454 1019.14 -369.974 1018.61 -371.532 1018.21C-379.026 1017.14 -383.354 1012.71 -385.172 1005.63C-386.544 1000.32 -389.603 997.854 -395.226 998.588C-400.849 999.322 -405.93 998.177 -409.565 993.003C-412.628 988.673 -417.323 988.463 -422.134 989.042C-427.871 989.728 -431.108 988.397 -434.072 982.146C-437.732 974.464 -442.64 967.442 -448.596 961.365C-455.206 954.567 -464.47 949.702 -467.804 939.764C-468.156 938.679 -470.238 937.574 -471.505 937.567C-472.772 937.56 -475.025 938.882 -475.134 939.854C-475.863 944.723 -478.752 945.159 -482.965 946.726C-487.918 948.549 -492.438 947.785 -497.043 948.588C-506.706 950.3 -513.612 945.284 -520.947 940.835C-521.471 940.514 -521.865 940.019 -522.061 939.437C-524.313 930.583 -531.939 931.239 -538.55 930.015C-540.293 929.6 -542.014 929.094 -543.704 928.5C-549.98 926.609 -556.223 925.045 -563.05 926.63C-565.501 927.193 -568.845 924.68 -571.552 923.175C-575.058 921.226 -578.133 918.966 -582.619 920.962C-584.951 921.975 -588.058 921.702 -590.795 921.599C-601.708 921.161 -612.603 920.549 -623.514 920.013C-623.706 920.032 -624.022 920.161 -624.092 920.071C-628.617 914.755 -637.903 917.805 -641.228 910.263C-641.843 909.009 -642.889 908.016 -644.174 907.467C-656.003 902.872 -667.82 898.154 -679.836 894.004C-684.511 892.416 -689.739 892.356 -694.695 891.49C-696.007 891.269 -698.053 891.012 -698.478 890.178C-701.259 884.146 -703.727 877.975 -705.871 871.688C-707.247 867.432 -707.656 863.116 -713.284 861.976C-715.766 861.495 -717.73 859.27 -720.111 858.231C-730.148 853.866 -740.24 849.604 -750.386 845.444C-751.918 844.955 -753.527 844.749 -755.133 844.837C-759.39 844.854 -763.522 843.397 -766.826 840.713C-770.131 838.029 -772.404 834.284 -773.261 830.114C-773.612 828.312 -773.471 825.595 -772.365 824.486C-766.944 819.074 -770.276 814.734 -773.668 810.279C-775.603 807.734 -777.506 805.15 -779.395 802.577C-783.132 797.474 -786.012 791.336 -793.841 791.428C-800.383 791.5 -802.478 787.109 -802.607 781.584C-802.69 777.722 -804.762 775.873 -807.299 773.267C-813.949 766.436 -822.706 760.316 -820.934 748.733C-820.204 743.876 -823.213 741.793 -826.939 741.29C-835.81 740.099 -839.59 734.696 -841.27 726.564C-842.02 723.22 -843.408 720.054 -845.358 717.236C-848.448 712.763 -847.89 708.617 -845.718 704.176C-842.326 697.226 -844.144 693.294 -851.303 690.239C-855.908 688.267 -862.561 688.07 -861.508 679.883C-861.398 679.032 -866.546 676.128 -868.649 676.643C-873.188 677.743 -877.205 680.776 -881.664 682.428C-887.978 684.765 -894.557 686.399 -900.891 688.665C-905.704 690.312 -910.386 692.324 -914.893 694.683C-917.629 696.211 -920.659 697.137 -923.781 697.4C-926.903 697.662 -930.045 697.256 -932.998 696.207C-935.413 695.353 -937.921 694.787 -940.47 694.522C-946.593 694.151 -950.282 690.869 -950.38 684.793C-950.475 679.35 -951.961 675.214 -956.497 671.251C-962.834 665.716 -968.066 658.816 -973.393 652.193C-974.809 650.267 -976.698 648.74 -978.878 647.758C-981.057 646.776 -983.454 646.373 -985.834 646.589C-996.405 647.016 -1007.33 648.745 -1017.48 646.61C-1024.64 645.138 -1030.69 638.32 -1037.23 633.864C-1037.31 633.8 -1037.37 633.717 -1037.42 633.624C-1037.46 633.531 -1037.48 633.43 -1037.47 633.328C-1033.09 624.588 -1041.55 616.356 -1038.33 607.318C-1036.8 603.026 -1036.6 597.991 -1040.94 593.412C-1045.71 588.031 -1049.68 581.995 -1052.74 575.487C-1054.19 572.553 -1052.92 568.336 -1053.17 564.708C-1053.41 561.081 -1053.13 556.72 -1054.64 553.427C-1057.97 546.68 -1061.71 540.145 -1065.84 533.859C-1066.76 532.368 -1068.81 531.516 -1070.48 530.587C-1072.49 529.45 -1075.78 529.086 -1076.55 527.459C-1079.46 521.264 -1081.6 514.699 -1083.97 508.242C-1084.06 507.955 -1084.09 507.649 -1084.05 507.349C-1084.01 507.049 -1083.9 506.763 -1083.72 506.514C-1077.36 500.702 -1081.43 497.07 -1086.08 493.008C-1088.16 491.196 -1088.78 487.777 -1090.77 485.81C-1094.47 482.308 -1098.39 479.042 -1102.51 476.033C-1105.55 473.722 -1106.67 470.973 -1104.67 467.73C-1102.67 464.486 -1100.21 461.488 -1098.03 458.324C-1097.31 457.463 -1096.85 456.411 -1096.71 455.296C-1097.13 445.308 -1098.02 435.331 -1098.06 425.355C-1098.07 420.925 -1097.11 416.873 -1099.71 412.533C-1101.54 409.479 -1096.13 401.316 -1091.83 398.999C-1086.45 396.11 -1086.38 395.093 -1091.34 391.78C-1093.64 390.171 -1095.4 387.895 -1096.38 385.259C-1097.35 382.622 -1097.5 379.75 -1096.8 377.028C-1096.29 375.139 -1095.51 373.04 -1095.88 371.252C-1096.97 366.017 -1096.23 361.878 -1091.32 358.805C-1090.29 358.154 -1090.29 355.902 -1089.74 354.411C-1086.64 345.725 -1092.54 336.032 -1086.71 327.657C-1086.06 326.428 -1085.27 325.282 -1084.35 324.244C-1076.57 317.524 -1070.89 309.25 -1065.24 300.734C-1060.24 293.234 -1053.68 286.745 -1047.65 279.958C-1045.12 277.1 -1042.59 273.851 -1039.35 272.151C-1033.86 269.275 -1026.31 271.841 -1022.61 276.813C-1021.91 277.753 -1020.93 279.59 -1020.53 279.477C-1008.9 276.144 -1010.01 290.459 -1001.08 291.523Z" fill="#121214"/>
<path d="M-609.797 1060.51C-611.789 1060.66 -613.789 1060.7 -615.786 1060.62C-627.797 1059.8 -634.709 1050.35 -631.72 1038.77C-630.223 1032.95 -628.528 1027.15 -626.527 1021.5C-624.838 1016.74 -620.45 1017.77 -616.703 1017.75C-612.957 1017.73 -609.323 1018.52 -605.976 1017.67C-594.649 1014.83 -589.219 1021.76 -586.801 1031.06C-582.744 1046.64 -592.283 1058.92 -609.797 1060.51Z" fill="#121214"/>
<path d="M-1040.72 252.217C-1049.19 252.678 -1057.52 252.771 -1065.12 247.532C-1068.3 245.512 -1071.59 243.656 -1074.96 241.971C-1076.02 241.395 -1077.6 241.25 -1078.14 240.391C-1080.05 237.369 -1081.63 234.132 -1083.32 230.967C-1079.84 230.252 -1076.12 228.406 -1072.9 229.045C-1066.54 230.318 -1059.76 231.878 -1054.44 235.324C-1048.67 239.066 -1044.37 245.085 -1039.42 250.103L-1040.72 252.217Z" fill="#121214"/>
<path d="M-901.183 903.55C-897.621 899.991 -895.784 896.703 -893.182 896.065C-891.568 895.66 -887.657 898.846 -887.085 901.028C-886.114 904.765 -888.33 908.517 -892.668 908.477C-894.946 908.45 -897.191 905.973 -901.183 903.55Z" fill="#121214"/>
</svg>
