<svg width="583" height="1855" viewBox="0 0 583 1855" fill="none" xmlns="http://www.w3.org/2000/svg">
<path d="M593.591 465.693C598.408 465.803 602.991 467.82 605.161 474.331C605.8 476.252 609.265 478.099 611.636 478.377C614.955 478.755 615.618 476.033 615.304 472.943C615.402 472.304 615.668 471.702 616.076 471.2C616.484 470.698 617.018 470.314 617.624 470.087C618.353 470.042 619.083 470.162 619.759 470.438C620.435 470.715 621.039 471.14 621.527 471.683C624.226 475.367 626.096 479.733 629.177 482.994C631.354 485.166 634.297 486.393 637.372 486.411C642.219 486.105 645.213 487.75 647.033 491.863C650.234 499.109 654.712 504.869 662.304 508.19C664.085 508.98 665.169 512.529 665.565 514.967C666.001 517.652 665.162 520.51 665.058 523.33C664.604 532.061 667.75 534.436 676.268 531.914C680.644 530.609 685.04 529.413 689.431 528.13C697.798 525.768 704.969 520.343 709.518 512.933C712.591 508.023 717.42 507.119 720.783 510.207C728.796 517.547 738.155 518.559 748.828 518.093C750.717 513.03 754.454 510.964 761.073 512.338C764.825 513.106 769.121 510.51 773.208 509.849C775.051 509.515 777.807 509.707 778.816 510.891C785.418 518.227 792.443 513.738 799.405 512.094C799.587 512.045 799.744 511.87 799.928 511.795C808.851 507.941 811.081 508.319 815.668 516.407C818.171 520.817 821.12 523.75 826.141 524.524C827.161 524.703 828.113 525.156 828.895 525.834C838.623 534.247 849.545 531.995 860.349 529.1C869.189 526.722 878.282 526.644 886.286 529.979C891.267 532.057 894.44 538.406 898.499 542.736C901.906 546.353 904.991 550.553 909.075 553.121C911.83 554.865 916.077 554.241 919.655 554.656C921.589 554.892 923.745 554.598 925.419 555.355C932.708 558.668 939.859 562.293 947.192 565.87C953.92 561.895 960.049 564.818 961.808 573.204C962.253 575.565 962.523 577.955 962.616 580.355C963.118 588.546 966.836 593.755 974.498 596.109C975.861 596.532 977.784 595.503 979.382 594.915C984.376 592.974 987.95 595.359 986.687 600.405C984.737 608.215 985.977 615.49 988.787 622.734C989.073 623.473 989.563 624.441 989.311 625.023C984.219 636.725 997.231 638.531 1000.9 645.42C1002.34 648.111 1008.52 647.972 1012.16 649.851C1017.13 652.428 1020.39 657.398 1027.56 656.744C1032.42 656.259 1036 663.262 1036.19 668.574C1036.37 673.295 1037.76 677.958 1038.04 682.706C1038.22 685.902 1038.48 690.063 1036.73 692.242C1029.47 701.448 1029.77 713.506 1038.12 722.217C1040.98 725.194 1043.34 728.656 1046.14 731.711C1047.16 732.846 1048.81 733.406 1050.16 734.258C1052.41 735.685 1055.22 736.689 1056.8 738.667C1059.55 742.071 1062.49 742.481 1066.41 741.413C1074.48 739.082 1076.72 741.246 1077.11 749.522C1077.22 752.806 1079.38 755.979 1080.38 759.274C1081.34 761.942 1081.95 764.723 1082.19 767.548C1082.21 769.958 1081.66 772.337 1080.59 774.495C1078.51 778.792 1080.64 780.119 1084.28 781.406C1088.4 782.88 1092.31 784.971 1096.31 786.817C1097.59 787.414 1098.79 788.511 1100.1 788.666C1114.38 790.256 1113.14 803.285 1117.27 812.204C1119.97 818.052 1121.5 824.432 1123.27 830.713C1124.09 833.606 1125.09 836.796 1124.63 839.64C1123.62 846.046 1124.1 850.839 1130 855.322C1134.86 859.011 1138.03 865.04 1142.1 869.89C1145.46 873.928 1149.07 877.775 1152.54 881.721C1153.59 882.913 1155.01 884.056 1155.44 885.476C1158.34 895.124 1165.81 899.187 1174.67 901.699C1178.43 902.765 1182.24 904.98 1185.89 904.738C1190.83 904.389 1195.62 902.121 1200.51 900.776C1204.89 899.557 1209.29 898.22 1213.76 897.447C1215.55 897.378 1217.3 898.002 1218.64 899.189C1224.63 904.323 1230.89 904.623 1237.92 901.436C1238.8 901.074 1239.75 900.89 1240.71 900.896C1241.67 900.901 1242.61 901.095 1243.49 901.467C1249.56 904.566 1255.57 907.851 1261.32 911.506C1270.74 917.476 1270.48 929.034 1261.19 935.611C1257.31 938.362 1254.16 942.319 1250.06 944.569C1243.07 948.419 1236.1 953.291 1227.34 951.029C1226.59 950.735 1225.79 950.634 1224.99 950.736C1215.57 953.687 1205.03 951.404 1196.07 957.041C1191.43 959.959 1186.41 959.24 1181.94 955.879C1175.85 951.27 1170.61 953.533 1164.24 956.499C1156.44 960.132 1154.77 962.832 1161.33 969.053C1163.91 971.508 1165.22 975.244 1167.69 977.856C1172.71 983.16 1172.68 989.409 1167.47 995.911C1171.9 1001.75 1176.7 1007.21 1180.4 1013.33C1182.6 1016.97 1182.56 1021.9 1184.42 1025.76C1187.24 1031.58 1193 1036.76 1193.65 1042.63C1194.52 1050.81 1198.06 1057.67 1200.06 1065.11C1201.52 1070.57 1197.5 1077.72 1195.28 1083.87C1193.48 1088.83 1191.94 1093.01 1194.65 1098.56C1196.96 1103.29 1196.71 1109.26 1197.89 1114.59C1198.44 1116.64 1199.34 1118.58 1200.55 1120.33C1204.22 1126.08 1207.38 1131.78 1202.08 1138.32C1201.35 1139.52 1200.79 1140.81 1200.4 1142.15C1206.61 1148.61 1206.7 1156.23 1201.41 1163.5C1199.83 1165.69 1199.28 1168.93 1199.08 1171.74C1198.68 1177.1 1197.87 1181.75 1193.01 1185.37C1189.78 1187.76 1186.99 1190.63 1190.12 1196.28C1192.71 1200.93 1191.77 1207.12 1187.57 1211.82C1183.72 1216.07 1180.71 1220.68 1181.64 1226.93C1181.84 1228.17 1180.67 1229.68 1179.96 1230.96C1177.43 1235.48 1174.35 1239.77 1172.36 1244.53C1170.07 1249.98 1174.43 1254.56 1179.8 1256.87C1184.5 1258.92 1187.99 1263.75 1192.06 1267.31C1196.13 1270.87 1197.44 1276.6 1204.18 1277.81C1206.85 1278.3 1209.91 1283.92 1210.3 1287.38C1210.58 1290.09 1207.46 1294.05 1204.79 1295.89C1201.91 1297.87 1200.83 1298.87 1202.34 1302.36C1204.96 1308.45 1201.54 1313.62 1197.85 1317.72C1191.9 1324.3 1193.8 1330.85 1196.17 1337.8C1196.66 1339.2 1197.32 1341.06 1196.8 1342.21C1194.49 1347.29 1195.04 1352.21 1198.62 1356.01C1202.04 1359.61 1206.03 1362.63 1210.42 1364.95C1220.4 1370.21 1229.47 1375.08 1232.94 1387.74C1238.31 1407.51 1231.87 1419.17 1211.13 1422.47C1205.57 1423.35 1198.94 1431.25 1198.33 1437.71C1197.98 1441.31 1203.58 1448.7 1207.39 1450.87C1210.28 1452.51 1212.81 1454.73 1214.8 1457.4C1217.74 1461.53 1220.98 1463.89 1226.26 1463.08C1227.64 1462.87 1229.86 1463.3 1230.57 1464.27C1233.86 1468.54 1236.81 1473.08 1239.38 1477.83C1242.35 1483.63 1244.02 1490.14 1247.26 1495.67C1250.15 1500.59 1250.43 1504.5 1246.37 1508.42C1242.08 1512.59 1237.73 1509.54 1233.54 1508.13C1230.72 1507.19 1228.18 1505.42 1225.36 1504.46C1224.62 1504.18 1223.82 1504.06 1223.03 1504.09C1222.23 1504.13 1221.46 1504.33 1220.74 1504.67C1214.2 1509.4 1206.74 1512.84 1201.4 1519.25C1196.06 1525.66 1190.25 1531.55 1184.78 1537.79C1183.53 1539.09 1182.66 1540.7 1182.25 1542.46C1180.89 1551.46 1179.86 1560.46 1178.63 1569.46C1177.95 1574.42 1175.44 1578.14 1170.48 1579.58C1167.02 1580.58 1163.49 1581.31 1159.92 1581.79C1152.02 1582.83 1147.76 1586.79 1146.37 1594.7C1144.79 1603.57 1137.11 1609.02 1127.86 1607.89C1120.75 1607.03 1112.06 1613.05 1108.73 1619.23C1104.36 1627.44 1099.71 1636.23 1091.38 1640.85C1086.14 1643.77 1079.32 1644.35 1073.1 1644.92C1066.15 1645.55 1062.42 1647.91 1062.31 1654.81C1062.18 1662.65 1048.77 1672.99 1040.12 1673.19C1038.72 1673.2 1037.37 1673.12 1036.46 1673.1C1034.22 1677.97 1032.39 1682.55 1030.06 1686.87C1027.72 1691.18 1020.89 1693.83 1014.67 1692.52C1006.85 1690.8 999.106 1688.52 991.254 1686.91C987.744 1686.18 984.021 1686.45 980.399 1686.34C979.603 1686.31 978.583 1686.94 978.038 1686.62C967.274 1680.53 959.573 1690.34 950.325 1691.99C949.294 1692.18 948.247 1693.8 947.721 1694.98C944.586 1702 939.484 1704.2 932.964 1700.55C929.199 1698.38 925.901 1697.19 921.987 1699.92C920.937 1700.55 919.693 1700.78 918.487 1700.56C909.968 1698.84 901.152 1697.83 893.126 1694.78C888.665 1693.09 885.629 1687.88 879.787 1687.95C876.507 1687.98 873.024 1686.53 869.976 1687.23C858.146 1689.97 847.756 1686.53 837.862 1680.61C834.484 1678.59 831.338 1676.84 827.182 1678.37C826.422 1678.64 825.615 1678.76 824.809 1678.71C824.004 1678.66 823.216 1678.45 822.495 1678.08C820.246 1676.55 817.69 1675.53 815.005 1675.08C812.32 1674.64 809.57 1674.78 806.947 1675.51C805.559 1675.86 802.191 1673.21 801.743 1671.44C799.118 1660.95 799.147 1661.55 789.409 1658.9C785.154 1657.74 781.121 1653.87 778.174 1650.29C774.575 1645.72 769.558 1642.47 763.914 1641.07C759.78 1639.97 756.056 1637.29 752.197 1635.23C750.409 1634.38 748.722 1633.33 747.165 1632.1C744.282 1629.61 740.855 1627.31 739.021 1624.14C736.043 1618.98 723.451 1612.36 717.561 1613.93C716.786 1614.1 716.063 1614.46 715.454 1614.97C710.198 1620.17 704.741 1625.22 699.836 1630.73C693.558 1637.78 684.771 1638.73 676.539 1640.01C674.436 1640.33 670.218 1634.85 669.067 1631.34C667.716 1627.26 666.157 1625.68 662.016 1625.78C658.424 1625.87 639.166 1612.07 637.812 1609.13C635.648 1604.24 633.196 1599.47 630.47 1594.86C625.122 1586.32 625.35 1586.78 632.051 1578.73C636.591 1573.08 640.402 1566.88 643.392 1560.27C644.475 1557.96 642.947 1554.05 641.829 1551.16C639.142 1544.21 643.946 1530.35 650.575 1527.03C651.316 1526.72 652.075 1526.46 652.847 1526.24C662.765 1522.63 667.792 1512.83 666.445 1502.28C665.666 1496.09 666.985 1489.67 666.951 1483.35C666.918 1481.11 666.234 1478.93 664.984 1477.07C662.316 1473.34 661.71 1469.88 664.472 1465.99C665.385 1464.7 666.557 1463.16 666.54 1461.73C666.461 1453.73 671.224 1450.04 677.93 1447.33C685.274 1444.3 687.797 1433.73 683.063 1427.18C682.261 1425.79 681.34 1424.46 680.31 1423.23C674.846 1417.99 673.923 1411.86 676.583 1405.05C678.566 1399.94 677.524 1396.15 672.531 1393.47C667.538 1390.78 664.082 1386.88 664.152 1380.56C664.194 1375.26 660.505 1372.34 656.261 1370.01C651.204 1367.21 649.353 1364.24 650.597 1357.44C652.112 1349.06 652.228 1340.5 650.941 1332.08C649.545 1322.71 644.866 1313.35 647.963 1303.33C648.31 1302.25 647.265 1300.13 646.241 1299.39C645.217 1298.64 642.616 1298.4 641.959 1299.13C638.525 1302.65 635.924 1301.32 631.59 1300.13C626.504 1298.72 623.281 1295.46 619.073 1293.42C610.229 1289.17 607.552 1281.06 604.196 1273.17C603.959 1272.6 603.927 1271.97 604.107 1271.38C607.45 1262.88 600.876 1258.96 596.224 1254.11C595.051 1252.75 593.95 1251.34 592.925 1249.87C588.934 1244.67 584.78 1239.75 578.311 1237.05C575.993 1236.08 574.746 1232.09 573.428 1229.28C571.719 1225.65 570.543 1222.02 565.736 1221.02C563.251 1220.48 560.888 1218.45 558.726 1216.77C550.123 1210.04 541.636 1203.18 533.092 1196.37C532.924 1196.28 532.592 1196.2 532.588 1196.08C532.019 1189.12 522.7 1186.18 524.405 1178.11C524.638 1176.74 524.368 1175.32 523.646 1174.12C516.726 1163.49 509.888 1152.76 502.557 1142.37C499.689 1138.35 495.48 1135.25 491.963 1131.65C491.027 1130.71 489.516 1129.3 489.658 1128.38C490.922 1121.86 492.523 1115.41 494.454 1109.05C495.822 1104.79 498.01 1101.05 494.107 1096.84C492.373 1095 492.078 1092.05 490.752 1089.81C485.153 1080.41 479.449 1071.05 473.641 1061.75C472.683 1060.46 471.498 1059.35 470.142 1058.49C466.677 1056.02 464.174 1052.42 463.058 1048.31C461.943 1044.2 462.284 1039.84 464.023 1035.95C464.791 1034.28 466.492 1032.16 468.037 1031.9C475.599 1030.68 475.428 1025.21 475.275 1019.61C475.191 1016.41 475.155 1013.21 475.124 1010.01C475.07 1003.69 476.316 997.025 469.907 992.527C464.555 988.766 465.418 983.978 468.54 979.417C470.728 976.233 470.125 973.522 469.587 969.925C468.178 960.497 464.643 950.415 472.845 942.047C476.273 938.531 475.048 935.082 472.316 932.498C465.811 926.351 465.897 919.758 469.282 912.175C470.625 909.023 471.348 905.642 471.41 902.216C471.514 896.78 474.388 893.74 478.744 891.403C485.556 887.742 486.376 883.489 482.348 876.828C479.762 872.538 474.476 868.493 480.112 862.462C480.698 861.835 478.215 856.471 476.207 855.662C471.879 853.905 466.848 854.02 462.263 852.758C455.772 850.968 449.477 848.452 443.013 846.594C438.143 845.12 433.168 844.02 428.132 843.303C425.019 842.945 422.018 841.928 419.33 840.318C416.642 838.708 414.329 836.543 412.544 833.968C411.082 831.864 409.376 829.94 407.462 828.237C402.709 824.359 401.631 819.542 405.099 814.552C408.2 810.077 409.408 805.852 408.04 799.986C406.129 791.792 405.91 783.136 405.454 774.649C405.429 772.259 404.787 769.915 403.591 767.845C402.395 765.776 400.685 764.049 398.626 762.834C389.795 757.008 379.915 752.031 372.925 744.373C367.974 738.997 367.042 729.929 364.331 722.49C364.305 722.392 364.302 722.289 364.324 722.189C364.345 722.09 364.389 721.996 364.452 721.917C373.113 717.38 371.054 705.759 378.945 700.302C382.693 697.711 385.796 693.741 384.945 687.488C384.215 680.334 384.513 673.113 385.831 666.043C386.366 662.815 389.859 660.132 391.78 657.046C393.702 653.96 396.476 650.584 397.173 647.028C398.411 639.608 399.19 632.118 399.506 624.602C399.633 622.857 398.46 620.963 397.652 619.238C396.682 617.14 394.227 614.925 394.55 613.154C395.806 606.425 397.9 599.845 399.751 593.222C399.839 592.932 399.994 592.667 400.203 592.448C400.412 592.228 400.67 592.061 400.955 591.96C409.518 590.96 408.329 585.631 406.932 579.622C406.301 576.936 407.792 573.797 407.328 571.04C406.366 566.034 405.09 561.093 403.506 556.247C402.385 552.594 403.084 549.711 406.602 548.246C410.119 546.78 413.868 545.784 417.484 544.487C418.573 544.21 419.558 543.622 420.32 542.797C425.813 534.445 430.915 525.825 436.709 517.703C439.291 514.104 442.434 511.373 442.856 506.331C443.156 502.784 452.316 499.318 457.157 499.945C463.213 500.743 463.862 499.957 461.772 494.373C460.841 491.721 460.742 488.847 461.49 486.137C462.237 483.427 463.795 481.01 465.954 479.209C467.466 477.971 469.332 476.726 470.072 475.056C472.248 470.173 475.267 467.245 481.04 467.613C482.256 467.686 483.576 465.861 484.888 464.969C492.484 459.733 493.353 448.418 502.976 445.023C504.218 444.403 505.53 443.935 506.885 443.63C517.119 442.714 526.563 439.315 536.129 435.706C544.561 432.533 553.681 431.1 562.537 429.109C566.255 428.263 570.21 427.106 573.831 427.616C579.969 428.489 584.599 434.98 584.699 441.177C584.721 442.35 584.44 444.411 584.833 444.554C596.221 448.64 586.962 459.614 593.591 465.693Z" fill="#47F066"/>
<path d="M462.184 1318.44C460.477 1317.4 458.831 1316.26 457.256 1315.03C447.988 1307.35 447.893 1295.64 457.083 1287.99C461.699 1284.13 466.457 1280.42 471.383 1277C475.533 1274.12 478.492 1277.52 481.547 1279.69C484.602 1281.86 487.089 1284.63 490.301 1285.89C501.155 1290.2 501.517 1299 498.049 1307.96C492.248 1322.97 477.329 1327.38 462.184 1318.44Z" fill="#47F066"/>
<path d="M584.362 410.636C577.214 406.061 570.398 401.273 567.29 392.584C565.884 389.085 564.3 385.66 562.545 382.321C562.024 381.237 560.823 380.194 560.889 379.183C561.103 375.615 561.712 372.065 562.186 368.507C565.43 369.961 569.53 370.635 571.768 373.032C576.187 377.779 580.779 383.003 583.088 388.91C585.585 395.316 585.564 402.715 586.649 409.677L584.362 410.636Z" fill="#47F066"/>
<path d="M317.295 1020.87C322.265 1020.06 325.676 1018.46 328.161 1019.46C329.708 1020.07 331.022 1024.94 330.212 1027.05C328.818 1030.65 324.828 1032.4 321.33 1029.84C319.496 1028.49 319.121 1025.16 317.295 1020.87Z" fill="#47F066"/>
<path d="M642.239 1034.98C639.701 1031.91 638.481 1027.96 641.377 1023.08C642.232 1021.64 641.511 1018.47 640.402 1016.84C638.842 1014.56 636.782 1015.62 635.021 1017.49C634.568 1017.77 634.048 1017.93 633.513 1017.95C632.979 1017.97 632.449 1017.84 631.98 1017.58C631.557 1017.15 631.238 1016.63 631.045 1016.06C630.852 1015.49 630.79 1014.88 630.866 1014.28C631.708 1010.6 633.425 1007.07 633.796 1003.38C633.975 1000.84 633.15 998.338 631.497 996.407C628.683 993.543 628.091 990.782 629.677 987.418C632.474 981.497 633.651 975.581 631.618 969.038C631.148 967.497 632.78 964.9 634.09 963.333C635.532 961.608 637.772 960.585 639.592 959.124C645.294 954.684 645.076 951.432 638.891 947.473C635.707 945.444 632.581 943.343 629.403 941.293C623.399 937.341 616.127 935.795 609.035 936.961C604.303 937.698 601.125 935.168 601.235 931.395C601.486 922.415 597.055 916.018 590.988 909.599C586.801 911.158 583.488 909.94 580.765 905.059C579.215 902.299 575.267 901.018 572.642 898.821C571.436 897.85 570.065 896.023 570.259 894.752C571.272 886.656 564.665 884.694 559.87 881.232C559.741 881.145 559.546 881.141 559.4 881.067C552.162 877.575 551.192 875.978 553.765 868.733C555.167 864.783 555.405 861.352 553.171 857.795C552.731 857.061 552.499 856.221 552.5 855.365C552.494 844.731 545.176 839.124 537.521 833.938C531.251 829.699 526.282 824.058 524.035 817.25C522.639 813.012 524.89 807.594 525.4 802.714C525.817 798.626 526.773 794.425 526.168 790.484C525.768 787.818 523.079 785.501 521.402 783.039C520.503 781.703 519.153 780.515 518.72 779.059C516.847 772.71 515.243 766.279 513.511 759.76C507.385 757.706 505.896 752.293 510.185 746.656C511.42 745.1 512.768 743.638 514.218 742.281C519.066 737.536 520.31 732.392 517.635 726.33C517.162 725.248 515.478 724.604 514.246 723.923C510.33 721.852 509.887 718.327 513.725 716.386C519.662 713.379 523.538 708.667 526.545 702.991C526.852 702.412 527.192 701.582 527.692 701.425C537.761 698.275 531.85 689.165 534.168 683.142C535.071 680.786 531.641 677.001 530.845 673.707C529.765 669.205 531.11 664.48 526.819 660.35C523.89 657.579 526.33 651.553 529.547 648.559C532.399 645.89 534.561 642.497 537.377 639.753C539.276 637.91 541.739 635.499 544.047 635.412C553.729 634.967 561.105 628.257 562.029 618.322C562.345 614.927 563.23 611.576 563.627 608.176C563.783 606.922 563.241 605.589 563.041 604.281C562.713 602.101 561.823 599.805 562.202 597.744C562.843 594.185 561.509 592.127 558.723 590.256C552.897 586.472 553.034 583.897 558 579.18C559.989 577.329 560.807 574.266 562.322 571.854C563.471 569.811 564.88 567.926 566.514 566.245C568.011 564.931 569.796 563.987 571.725 563.49C575.534 562.462 575.212 560.413 574.05 557.445C572.737 554.068 571.927 550.492 570.919 546.995C570.601 545.873 570.638 544.53 570.027 543.628C563.291 533.84 572.108 527.567 575.444 520.156C577.642 515.308 580.801 510.897 583.768 506.391C585.133 504.314 586.587 501.964 588.61 500.709C593.163 497.876 595.9 494.984 595.51 488.87C595.184 483.835 597.233 478.587 598.065 473.421C598.771 469.136 599.221 464.798 599.811 460.494C599.989 459.195 599.934 457.686 600.591 456.653C605.05 449.616 603.546 442.748 600.324 435.853C598.955 432.925 598.277 429.344 596.15 427.194C593.258 424.294 589.247 422.526 585.761 420.199C582.629 418.119 579.416 416.097 576.512 413.719C575.499 412.637 574.943 411.206 574.959 409.725C574.929 403.205 571.729 399.13 565.934 396.462C565.228 396.104 564.6 395.611 564.086 395.01C563.571 394.409 563.18 393.712 562.936 392.96C561.588 387.489 560.392 381.958 559.566 376.387C558.2 367.269 565.562 361.174 574.702 363.423C578.522 364.361 582.7 364.19 586.323 365.532C592.513 367.819 599.328 369.537 602.656 376.238C602.875 376.863 603.249 377.422 603.743 377.864C610.686 382.157 614.964 389.981 623.336 392.531C627.668 393.849 629.937 397.379 630.252 401.988C630.669 408.291 634.917 410.339 640.217 412.715C646.711 415.627 649.302 415.21 649.64 407.743C649.778 404.8 651.403 401.959 651.702 399.006C652.3 392.997 656.221 389.633 663.104 389.37C664.36 383.439 665.174 377.492 666.996 371.86C668.078 368.522 671.178 365.876 672.593 362.627C674.707 357.714 674.821 351.309 678.139 347.725C682.781 342.754 685.15 336.833 688.723 331.558C691.344 327.689 697.986 326.33 703.037 324.391C707.111 322.832 710.553 321.538 712.556 316.84C714.263 312.831 718.128 309.763 720.826 306.135C721.808 304.681 722.533 303.069 722.968 301.369C724.58 295.962 726.432 290.905 733.392 290.678C734.533 290.485 735.643 290.141 736.693 289.656C737.365 282.277 742.077 278.098 749.491 277.468C751.717 277.274 754.035 275.86 755.899 274.472C759.467 271.818 762.812 269.809 767.7 270.888C770.948 271.609 774.248 271.8 776.087 266.787C777.587 262.655 781.971 259.895 787.176 259.975C791.917 260.083 796.429 259.47 799.836 255.501C800.499 254.711 802.073 254.623 803.259 254.374C807.456 253.506 811.804 253.108 815.851 251.78C820.505 250.263 821.003 245.059 819.547 240.455C818.279 236.406 819.406 231.611 819.434 227.14C819.461 222.669 822.327 218.753 819.444 213.884C818.298 211.953 820.159 206.997 822.107 204.878C823.647 203.236 827.811 203.047 830.408 203.721C833.208 204.446 834.417 204.581 835.779 201.75C838.165 196.815 843.247 196.154 847.812 196.245C855.144 196.405 858.209 191.666 861.27 186.428C861.88 185.362 862.678 183.945 863.682 183.65C868.11 182.34 870.887 179.338 871.326 175.043C871.727 170.955 871.457 166.829 870.527 162.829C868.413 153.743 866.552 145.444 872.587 136.423C882.038 122.37 892.814 120.084 906.098 131.264C909.651 134.261 918.181 134.13 922.547 131.017C924.987 129.283 926.575 121.79 925.871 118.234C925.329 115.535 925.353 112.753 925.941 110.064C926.932 105.989 926.654 102.688 923.29 99.8275C922.412 99.0787 921.479 97.4635 921.7 96.4931C922.592 92.1191 923.833 87.8232 925.409 83.6468C927.425 78.6504 930.595 74.0849 932.302 69.0667C933.808 64.5968 936.101 62.3105 940.748 62.722C945.673 63.1514 946.126 67.5199 947.51 70.9038C948.446 73.1709 948.722 75.7179 949.639 77.9987C949.871 78.6141 950.223 79.1769 950.675 79.6538C951.128 80.1308 951.671 80.5121 952.274 80.7752C958.766 82.3001 964.954 85.1071 971.852 84.9737C978.749 84.8404 985.574 85.2818 992.434 85.3289C993.922 85.4074 995.402 85.0804 996.718 84.3828C1003.08 80.3653 1009.26 76.1383 1015.55 72.0338C1019.02 69.7759 1022.71 69.3319 1026.3 71.6501C1028.79 73.2777 1031.16 75.0844 1033.39 77.0559C1038.31 81.4321 1043.09 81.9506 1048.79 78.5408C1055.19 74.7298 1062.76 76.5789 1067.05 82.9711C1070.36 87.8813 1078.83 90.0571 1084.49 88.7953C1091.99 87.0778 1099.99 85.2326 1107.4 87.9385C1112.05 89.6325 1116.11 93.584 1119.82 97.1619C1123.98 101.165 1127.47 102.216 1131.85 98.5512C1136.82 94.3938 1150.54 97.1801 1155.34 102.476C1156.11 103.348 1156.79 104.237 1157.27 104.818C1161.53 103.581 1165.38 102.239 1169.34 101.365C1173.3 100.491 1178.65 103.327 1181.19 107.925C1184.35 113.742 1187.12 119.816 1190.36 125.596C1191.81 128.183 1193.99 130.363 1195.88 132.692C1196.29 133.204 1197.24 133.501 1197.33 134.013C1199.35 144.035 1209.65 143.544 1215.68 148.429C1216.36 148.972 1217.94 148.75 1218.96 148.441C1225.05 146.598 1229.19 148.596 1230.43 154.647C1231.11 158.177 1232.15 160.883 1235.98 161.85C1236.94 162.165 1237.75 162.821 1238.27 163.693C1241.8 169.946 1245.95 176.002 1248.38 182.671C1249.74 186.377 1248.12 191.091 1251.33 194.707C1253.12 196.737 1254.1 199.699 1256.19 201.225C1264.3 207.139 1267.77 215.494 1269.43 224.883C1269.99 228.088 1270.6 230.999 1273.81 232.769C1274.39 233.096 1274.9 233.539 1275.3 234.069C1275.71 234.599 1276 235.206 1276.16 235.853C1276.42 238.088 1277.17 240.24 1278.34 242.159C1279.52 244.078 1281.1 245.717 1282.97 246.963C1283.94 247.644 1284.11 251.18 1283.24 252.416C1278.11 259.736 1278.47 259.391 1282.08 266.915C1283.66 270.201 1283.42 274.813 1282.77 278.599C1281.86 283.32 1282.55 288.21 1284.73 292.496C1286.28 295.675 1286.62 299.454 1287.42 302.981C1287.85 304.56 1288.11 306.183 1288.19 307.819C1288.19 310.969 1288.61 314.355 1287.62 317.217C1286.01 321.87 1288.68 333.327 1292.85 336.154C1293.38 336.546 1293.99 336.806 1294.64 336.912C1300.73 337.381 1306.84 338.063 1312.94 338.143C1320.74 338.254 1326.09 343.231 1331.35 347.686C1332.69 348.825 1331.54 354.429 1329.97 357.044C1328.15 360.096 1328.01 361.929 1330.31 364.464C1332.31 366.658 1334.11 386.165 1333 388.6C1331.11 392.602 1329.46 396.712 1328.06 400.909C1325.61 408.873 1325.77 408.485 1317.12 408.651C1311.13 408.871 1305.19 409.845 1299.45 411.549C1297.42 412.123 1295.79 415.198 1294.6 417.457C1291.71 422.897 1280.44 427.398 1274.78 425.051C1274.19 424.754 1273.61 424.422 1273.06 424.056C1265.43 419.813 1256.59 421.972 1250.72 428.524C1247.28 432.358 1242.55 435.011 1238.62 438.447C1237.24 439.68 1236.24 441.288 1235.76 443.076C1234.87 446.765 1233.04 449.014 1229.11 449.391C1227.81 449.519 1226.21 449.623 1225.33 450.404C1220.37 454.783 1215.48 453.806 1210.16 451.076C1204.3 448.127 1196.32 452.27 1194.79 458.774C1194.35 460.029 1194.02 461.321 1193.81 462.633C1193.49 468.883 1190.16 472.776 1184.46 474.799C1180.2 476.323 1178.39 479.025 1179.42 483.6C1180.44 488.175 1179.87 492.444 1175.88 495.821C1172.55 498.665 1172.72 502.547 1173.56 506.465C1174.55 511.138 1173.69 513.902 1168.77 516.807C1162.71 520.391 1157.29 524.954 1152.73 530.31C1147.63 536.257 1144.31 544.246 1136.37 547.73C1135.51 548.101 1134.75 549.898 1134.84 550.941C1134.93 551.984 1136.18 553.741 1136.99 553.759C1141.06 553.997 1141.63 556.344 1143.23 559.696C1145.1 563.64 1144.81 567.418 1145.81 571.15C1147.94 578.979 1144.32 585.038 1141.2 591.409C1140.98 591.863 1140.6 592.224 1140.14 592.43C1133.01 594.941 1134.12 601.172 1133.6 606.706C1133.39 608.172 1133.1 609.627 1132.74 611.063C1131.65 616.37 1130.82 621.627 1132.64 627.131C1133.28 629.107 1131.46 632.047 1130.42 634.388C1129.08 637.42 1127.45 640.119 1129.42 643.665C1130.43 645.51 1130.44 648.089 1130.56 650.35C1131.01 659.368 1131.31 668.384 1131.68 677.408C1131.71 677.565 1131.84 677.815 1131.77 677.879C1127.73 682.001 1130.93 689.42 1124.97 692.717C1123.98 693.318 1123.24 694.252 1122.88 695.351C1119.98 705.433 1116.97 715.513 1114.45 725.715C1113.49 729.683 1113.83 733.992 1113.48 738.136C1113.4 739.233 1113.34 740.937 1112.68 741.349C1107.92 744.087 1103.03 746.578 1098.01 748.81C1094.61 750.259 1091.08 750.916 1090.56 755.635C1090.35 757.715 1088.66 759.497 1087.99 761.535C1085.14 770.123 1082.38 778.75 1079.71 787.413C1079.42 788.711 1079.37 790.051 1079.56 791.367C1079.89 794.871 1079 798.381 1077.03 801.301C1075.07 804.221 1072.15 806.372 1068.78 807.387C1067.33 807.81 1065.08 807.896 1064.08 807.067C1059.22 803.006 1055.9 806.072 1052.48 809.196C1050.53 810.978 1048.54 812.737 1046.57 814.484C1042.64 817.94 1037.8 820.767 1038.46 827.207C1039 832.588 1035.54 834.639 1031 835.155C1027.83 835.511 1026.46 837.354 1024.51 839.637C1019.37 845.62 1014.99 853.285 1005.32 852.687C1001.26 852.447 999.772 855.079 999.635 858.184C999.313 865.577 995.145 869.09 988.574 871.078C985.877 871.944 983.372 873.322 981.198 875.137C977.744 878.014 974.289 877.862 970.47 876.404C964.496 874.127 961.394 875.917 959.41 882.038C958.128 885.976 958.461 891.469 951.641 891.21C950.932 891.183 948.924 895.637 949.504 897.331C950.747 900.986 953.542 904.068 955.234 907.618C957.628 912.643 959.462 917.939 961.798 922.985C963.512 926.826 965.516 930.531 967.794 934.067C969.255 936.206 970.242 938.632 970.691 941.184C971.139 943.735 971.038 946.352 970.394 948.861C969.87 950.914 969.591 953.021 969.562 955.139C969.71 960.208 967.282 963.489 962.287 964.021C957.812 964.505 954.517 966.035 951.591 970.065C947.504 975.694 942.211 980.514 937.154 985.392C935.674 986.701 934.556 988.37 933.91 990.238C933.263 992.106 933.11 994.109 933.464 996.053C934.601 1004.73 936.837 1013.59 935.833 1022.11C935.152 1028.11 929.988 1033.6 926.805 1039.32C926.758 1039.39 926.695 1039.45 926.621 1039.49C926.548 1039.53 926.466 1039.55 926.382 1039.55C918.859 1036.6 912.71 1044.17 905.029 1042.19C901.381 1041.25 897.221 1041.46 893.773 1045.38C889.696 1049.7 885.021 1053.42 879.89 1056.43C877.582 1057.84 874.015 1057.11 871.047 1057.58C868.078 1058.05 864.466 1058.14 861.867 1059.63C856.559 1062.87 851.456 1066.43 846.587 1070.3C845.428 1071.17 844.879 1072.93 844.238 1074.36C843.451 1076.11 843.395 1078.84 842.113 1079.6C837.228 1082.45 831.982 1084.7 826.841 1087.13C826.612 1087.23 826.363 1087.28 826.112 1087.27C825.862 1087.26 825.618 1087.18 825.4 1087.06C820.142 1082.25 817.454 1085.88 814.454 1090C813.117 1091.85 810.349 1092.62 808.876 1094.4C806.267 1097.71 803.87 1101.18 801.698 1104.79C800.021 1107.47 797.841 1108.59 795.022 1107.19C792.203 1105.78 789.551 1103.98 786.784 1102.42C786.022 1101.89 785.121 1101.59 784.193 1101.56C776 1102.65 767.852 1104.12 759.64 1104.9C755.993 1105.23 752.585 1104.74 749.205 1107.21C746.826 1108.94 739.703 1105.09 737.476 1101.72C734.697 1097.51 733.855 1097.53 731.495 1101.86C730.341 1103.87 728.598 1105.49 726.5 1106.49C724.402 1107.49 722.048 1107.82 719.754 1107.45C718.162 1107.17 716.375 1106.68 714.93 1107.12C710.701 1108.4 707.237 1108.1 704.343 1104.29C703.731 1103.49 701.876 1103.66 700.608 1103.32C693.225 1101.4 685.682 1106.98 678.353 1102.81C677.293 1102.37 676.291 1101.8 675.367 1101.12C669.257 1095.22 662.022 1091.15 654.59 1087.13C648.044 1083.57 642.213 1078.65 636.176 1074.19C633.635 1072.32 630.772 1070.48 629.132 1067.94C626.356 1063.63 627.907 1057.22 631.727 1053.81C632.448 1053.16 633.889 1052.22 633.765 1051.9C630.157 1042.57 642.026 1042.42 642.239 1034.98Z" fill="#121214"/>
<path d="M1246.35 655.675C1246.62 657.304 1246.8 658.948 1246.88 660.598C1247.09 670.55 1239.83 676.942 1230.07 675.342C1225.17 674.542 1220.27 673.577 1215.47 672.349C1211.42 671.312 1211.95 667.622 1211.65 664.539C1211.35 661.455 1211.73 658.405 1210.79 655.711C1207.61 646.596 1212.91 641.61 1220.39 638.929C1232.91 634.43 1243.74 641.372 1246.35 655.675Z" fill="#121214"/>
<path d="M612.82 1070.54C613.829 1077.49 614.524 1084.34 610.775 1090.98C609.349 1093.76 608.065 1096.6 606.928 1099.5C606.532 1100.41 606.53 1101.73 605.863 1102.24C603.516 1104.03 600.968 1105.57 598.488 1107.2C597.64 1104.39 595.844 1101.46 596.131 1098.76C596.707 1093.43 597.487 1087.74 599.929 1083.1C602.582 1078.07 607.219 1074.08 610.983 1069.63L612.82 1070.54Z" fill="#121214"/>
<path d="M1138.75 907.261C1135.56 904.592 1132.72 903.324 1132 901.229C1131.54 899.93 1133.88 896.473 1135.63 895.84C1138.63 894.763 1141.89 896.309 1142.18 899.883C1142.33 901.762 1140.45 903.794 1138.75 907.261Z" fill="#121214"/>
</svg>
