<svg width="627" height="1533" viewBox="0 0 627 1533" fill="none" xmlns="http://www.w3.org/2000/svg">
<path d="M593.591 143.693C598.408 143.803 602.991 145.82 605.161 152.331C605.8 154.252 609.265 156.099 611.636 156.377C614.955 156.755 615.618 154.033 615.304 150.943C615.402 150.304 615.668 149.702 616.076 149.2C616.484 148.698 617.018 148.314 617.624 148.087C618.353 148.042 619.083 148.162 619.759 148.438C620.435 148.715 621.039 149.14 621.527 149.683C624.226 153.367 626.096 157.733 629.177 160.994C631.354 163.166 634.297 164.393 637.372 164.411C642.219 164.105 645.213 165.75 647.033 169.863C650.234 177.109 654.712 182.869 662.304 186.19C664.085 186.98 665.169 190.529 665.565 192.967C666.001 195.652 665.162 198.51 665.058 201.33C664.604 210.061 667.75 212.436 676.268 209.914C680.644 208.609 685.04 207.413 689.431 206.13C697.798 203.768 704.969 198.343 709.518 190.933C712.591 186.023 717.42 185.119 720.783 188.207C728.796 195.547 738.155 196.559 748.828 196.093C750.717 191.03 754.454 188.964 761.073 190.338C764.825 191.106 769.121 188.51 773.208 187.849C775.051 187.515 777.807 187.707 778.816 188.891C785.418 196.227 792.443 191.738 799.405 190.094C799.587 190.045 799.744 189.87 799.928 189.795C808.851 185.941 811.081 186.319 815.668 194.407C818.171 198.817 821.12 201.75 826.141 202.524C827.161 202.703 828.113 203.156 828.895 203.834C838.623 212.247 849.545 209.995 860.349 207.1C869.189 204.722 878.282 204.644 886.286 207.979C891.267 210.057 894.44 216.406 898.499 220.736C901.906 224.353 904.991 228.553 909.075 231.121C911.83 232.865 916.077 232.241 919.655 232.656C921.589 232.892 923.745 232.598 925.419 233.355C932.708 236.668 939.859 240.293 947.192 243.87C953.92 239.895 960.049 242.818 961.808 251.204C962.253 253.565 962.523 255.955 962.616 258.355C963.118 266.546 966.836 271.755 974.498 274.109C975.861 274.532 977.784 273.503 979.382 272.915C984.376 270.974 987.95 273.359 986.687 278.405C984.737 286.215 985.977 293.49 988.787 300.734C989.073 301.473 989.563 302.441 989.311 303.023C984.219 314.725 997.231 316.531 1000.9 323.42C1002.34 326.111 1008.52 325.972 1012.16 327.851C1017.13 330.428 1020.39 335.398 1027.56 334.744C1032.42 334.259 1036 341.262 1036.19 346.574C1036.37 351.295 1037.76 355.958 1038.04 360.706C1038.22 363.902 1038.48 368.063 1036.73 370.242C1029.47 379.448 1029.77 391.506 1038.12 400.217C1040.98 403.194 1043.34 406.656 1046.14 409.711C1047.16 410.846 1048.81 411.406 1050.16 412.258C1052.41 413.685 1055.22 414.689 1056.8 416.667C1059.55 420.071 1062.49 420.481 1066.41 419.413C1074.48 417.082 1076.72 419.246 1077.11 427.522C1077.22 430.806 1079.38 433.979 1080.38 437.274C1081.34 439.942 1081.95 442.723 1082.19 445.548C1082.21 447.958 1081.66 450.337 1080.59 452.495C1078.51 456.792 1080.64 458.119 1084.28 459.406C1088.4 460.88 1092.31 462.971 1096.31 464.817C1097.59 465.414 1098.79 466.511 1100.1 466.666C1114.38 468.256 1113.14 481.285 1117.27 490.204C1119.97 496.052 1121.5 502.432 1123.27 508.713C1124.09 511.606 1125.09 514.796 1124.63 517.64C1123.62 524.046 1124.1 528.839 1130 533.322C1134.86 537.011 1138.03 543.04 1142.1 547.89C1145.46 551.928 1149.07 555.775 1152.54 559.721C1153.59 560.913 1155.01 562.056 1155.44 563.476C1158.34 573.124 1165.81 577.187 1174.67 579.699C1178.43 580.765 1182.24 582.98 1185.89 582.738C1190.83 582.389 1195.62 580.121 1200.51 578.776C1204.89 577.557 1209.29 576.22 1213.76 575.447C1215.55 575.378 1217.3 576.002 1218.64 577.189C1224.63 582.323 1230.89 582.623 1237.92 579.436C1238.8 579.074 1239.75 578.89 1240.71 578.896C1241.67 578.901 1242.61 579.095 1243.49 579.467C1249.56 582.566 1255.57 585.851 1261.32 589.506C1270.74 595.476 1270.48 607.034 1261.19 613.611C1257.31 616.362 1254.16 620.319 1250.06 622.569C1243.07 626.419 1236.1 631.291 1227.34 629.029C1226.59 628.735 1225.79 628.634 1224.99 628.736C1215.57 631.687 1205.03 629.404 1196.07 635.041C1191.43 637.959 1186.41 637.24 1181.94 633.879C1175.85 629.27 1170.61 631.533 1164.24 634.499C1156.44 638.132 1154.77 640.832 1161.33 647.053C1163.91 649.508 1165.22 653.244 1167.69 655.856C1172.71 661.16 1172.68 667.409 1167.47 673.911C1171.9 679.755 1176.7 685.208 1180.4 691.334C1182.6 694.965 1182.56 699.895 1184.42 703.761C1187.24 709.584 1193 714.759 1193.65 720.631C1194.52 728.812 1198.06 735.666 1200.06 743.11C1201.52 748.57 1197.5 755.719 1195.28 761.874C1193.48 766.834 1191.94 771.006 1194.65 776.556C1196.96 781.291 1196.71 787.255 1197.89 792.595C1198.44 794.644 1199.34 796.583 1200.55 798.327C1204.22 804.082 1207.38 809.779 1202.08 816.324C1201.35 817.52 1200.79 818.807 1200.4 820.152C1206.61 826.607 1206.7 834.225 1201.41 841.504C1199.83 843.693 1199.28 846.932 1199.08 849.736C1198.68 855.1 1197.87 859.75 1193.01 863.365C1189.78 865.765 1186.99 868.631 1190.12 874.282C1192.71 878.925 1191.77 885.119 1187.57 889.816C1183.72 894.066 1180.71 898.677 1181.64 904.934C1181.84 906.167 1180.67 907.676 1179.96 908.957C1177.43 913.483 1174.35 917.774 1172.36 922.527C1170.07 927.983 1174.43 932.559 1179.8 934.872C1184.5 936.918 1187.99 941.745 1192.06 945.31C1196.13 948.875 1197.44 954.597 1204.18 955.815C1206.85 956.295 1209.91 961.921 1210.3 965.379C1210.58 968.088 1207.46 972.046 1204.79 973.887C1201.91 975.874 1200.83 976.873 1202.34 980.36C1204.96 986.448 1201.54 991.62 1197.85 995.722C1191.9 1002.3 1193.8 1008.85 1196.17 1015.8C1196.66 1017.2 1197.32 1019.06 1196.8 1020.21C1194.49 1025.29 1195.04 1030.21 1198.62 1034.01C1202.04 1037.61 1206.03 1040.63 1210.42 1042.95C1220.4 1048.21 1229.47 1053.08 1232.94 1065.74C1238.31 1085.51 1231.87 1097.17 1211.13 1100.47C1205.57 1101.35 1198.94 1109.25 1198.33 1115.71C1197.98 1119.31 1203.58 1126.7 1207.39 1128.87C1210.28 1130.51 1212.81 1132.73 1214.8 1135.4C1217.74 1139.53 1220.98 1141.89 1226.26 1141.08C1227.64 1140.87 1229.86 1141.3 1230.57 1142.27C1233.86 1146.54 1236.81 1151.08 1239.38 1155.83C1242.35 1161.63 1244.02 1168.14 1247.26 1173.67C1250.15 1178.59 1250.43 1182.5 1246.37 1186.42C1242.08 1190.59 1237.73 1187.54 1233.54 1186.13C1230.72 1185.19 1228.18 1183.42 1225.36 1182.46C1224.62 1182.18 1223.82 1182.06 1223.03 1182.09C1222.23 1182.13 1221.46 1182.33 1220.74 1182.67C1214.2 1187.4 1206.74 1190.84 1201.4 1197.25C1196.06 1203.66 1190.25 1209.55 1184.78 1215.79C1183.53 1217.09 1182.66 1218.7 1182.25 1220.46C1180.89 1229.46 1179.86 1238.46 1178.63 1247.46C1177.95 1252.42 1175.44 1256.14 1170.48 1257.58C1167.02 1258.58 1163.49 1259.31 1159.92 1259.79C1152.02 1260.83 1147.76 1264.79 1146.37 1272.7C1144.79 1281.57 1137.11 1287.02 1127.86 1285.89C1120.75 1285.03 1112.06 1291.05 1108.73 1297.23C1104.36 1305.44 1099.71 1314.23 1091.38 1318.85C1086.14 1321.77 1079.32 1322.35 1073.1 1322.92C1066.15 1323.55 1062.42 1325.91 1062.31 1332.81C1062.18 1340.65 1048.77 1350.99 1040.12 1351.19C1038.72 1351.2 1037.37 1351.12 1036.46 1351.1C1034.22 1355.97 1032.39 1360.55 1030.06 1364.87C1027.72 1369.18 1020.89 1371.83 1014.67 1370.52C1006.85 1368.8 999.106 1366.52 991.254 1364.91C987.744 1364.18 984.021 1364.45 980.399 1364.34C979.603 1364.31 978.583 1364.94 978.038 1364.62C967.274 1358.53 959.573 1368.34 950.325 1369.99C949.294 1370.18 948.247 1371.8 947.721 1372.98C944.586 1380 939.484 1382.2 932.964 1378.55C929.199 1376.38 925.901 1375.19 921.987 1377.92C920.937 1378.55 919.693 1378.78 918.487 1378.56C909.968 1376.84 901.152 1375.83 893.126 1372.78C888.665 1371.09 885.629 1365.88 879.787 1365.95C876.507 1365.98 873.024 1364.53 869.976 1365.23C858.146 1367.97 847.756 1364.53 837.862 1358.61C834.484 1356.59 831.338 1354.84 827.182 1356.37C826.422 1356.64 825.615 1356.76 824.809 1356.71C824.004 1356.66 823.216 1356.45 822.495 1356.08C820.246 1354.55 817.69 1353.53 815.005 1353.08C812.32 1352.64 809.57 1352.78 806.947 1353.51C805.559 1353.86 802.191 1351.21 801.743 1349.44C799.118 1338.95 799.147 1339.55 789.409 1336.9C785.154 1335.74 781.121 1331.87 778.174 1328.29C774.575 1323.72 769.558 1320.47 763.914 1319.07C759.78 1317.97 756.056 1315.29 752.197 1313.23C750.409 1312.38 748.722 1311.33 747.165 1310.1C744.282 1307.61 740.855 1305.31 739.021 1302.14C736.043 1296.98 723.451 1290.36 717.561 1291.93C716.786 1292.1 716.063 1292.46 715.454 1292.97C710.198 1298.17 704.741 1303.22 699.836 1308.73C693.558 1315.78 684.771 1316.73 676.539 1318.01C674.436 1318.33 670.218 1312.85 669.067 1309.34C667.716 1305.26 666.157 1303.68 662.016 1303.78C658.424 1303.87 639.166 1290.07 637.812 1287.13C635.648 1282.24 633.196 1277.47 630.47 1272.86C625.122 1264.32 625.35 1264.78 632.051 1256.73C636.591 1251.08 640.402 1244.88 643.392 1238.27C644.475 1235.96 642.947 1232.05 641.829 1229.16C639.142 1222.21 643.946 1208.35 650.575 1205.03C651.316 1204.72 652.075 1204.46 652.847 1204.24C662.765 1200.63 667.792 1190.83 666.445 1180.28C665.666 1174.09 666.985 1167.67 666.951 1161.35C666.918 1159.11 666.234 1156.93 664.984 1155.07C662.316 1151.34 661.71 1147.88 664.472 1143.99C665.385 1142.7 666.557 1141.16 666.54 1139.73C666.461 1131.73 671.224 1128.04 677.93 1125.33C685.274 1122.3 687.797 1111.73 683.063 1105.18C682.261 1103.79 681.34 1102.46 680.31 1101.23C674.846 1095.99 673.923 1089.86 676.583 1083.05C678.566 1077.94 677.524 1074.15 672.531 1071.47C667.538 1068.78 664.082 1064.88 664.152 1058.56C664.194 1053.26 660.505 1050.34 656.261 1048.01C651.204 1045.21 649.353 1042.24 650.597 1035.44C652.112 1027.06 652.228 1018.5 650.941 1010.08C649.545 1000.71 644.866 991.348 647.963 981.333C648.31 980.247 647.265 978.133 646.241 977.388C645.217 976.643 642.616 976.4 641.959 977.126C638.525 980.653 635.924 979.319 631.59 978.131C626.504 976.719 623.281 973.46 619.073 971.422C610.229 967.169 607.552 959.065 604.196 951.169C603.959 950.603 603.927 949.971 604.107 949.384C607.45 940.882 600.876 936.96 596.224 932.107C595.051 930.752 593.95 929.337 592.925 927.867C588.934 922.668 584.78 917.752 578.311 915.053C575.993 914.078 574.746 910.086 573.428 907.283C571.719 903.653 570.543 900.023 565.736 899.024C563.251 898.484 560.888 896.449 558.726 894.767C550.123 888.038 541.636 881.18 533.092 874.373C532.924 874.276 532.592 874.197 532.588 874.083C532.019 867.125 522.7 864.178 524.405 856.115C524.638 854.736 524.368 853.321 523.646 852.124C516.726 841.487 509.888 830.756 502.557 820.37C499.689 816.351 495.48 813.25 491.963 809.653C491.027 808.707 489.516 807.303 489.658 806.378C490.922 799.858 492.523 793.407 494.454 787.052C495.822 782.793 498.01 779.05 494.107 774.839C492.373 772.998 492.078 770.045 490.752 767.812C485.153 758.407 479.449 749.054 473.641 739.753C472.683 738.46 471.498 737.354 470.142 736.488C466.677 734.015 464.174 730.42 463.058 726.312C461.943 722.203 462.284 717.836 464.023 713.95C464.791 712.282 466.492 710.159 468.037 709.905C475.599 708.676 475.428 703.208 475.275 697.61C475.191 694.414 475.155 691.206 475.124 688.013C475.07 681.689 476.316 675.025 469.907 670.527C464.555 666.766 465.418 661.978 468.54 657.417C470.728 654.233 470.125 651.522 469.587 647.925C468.178 638.497 464.643 628.415 472.845 620.047C476.273 616.531 475.048 613.082 472.316 610.498C465.811 604.351 465.897 597.758 469.282 590.175C470.625 587.023 471.348 583.642 471.41 580.216C471.514 574.78 474.388 571.74 478.744 569.403C485.556 565.742 486.376 561.489 482.348 554.828C479.762 550.538 474.476 546.493 480.112 540.462C480.698 539.835 478.215 534.471 476.207 533.662C471.879 531.905 466.848 532.02 462.263 530.758C455.772 528.968 449.477 526.452 443.013 524.594C438.143 523.12 433.168 522.02 428.132 521.303C425.019 520.945 422.018 519.928 419.33 518.318C416.642 516.708 414.329 514.543 412.544 511.968C411.082 509.864 409.376 507.94 407.462 506.237C402.709 502.359 401.631 497.542 405.099 492.552C408.2 488.077 409.408 483.852 408.04 477.986C406.129 469.792 405.91 461.136 405.454 452.649C405.429 450.259 404.787 447.915 403.591 445.845C402.395 443.776 400.685 442.049 398.626 440.834C389.795 435.008 379.915 430.031 372.925 422.373C367.974 416.997 367.042 407.929 364.331 400.49C364.305 400.392 364.302 400.289 364.324 400.189C364.345 400.09 364.389 399.996 364.452 399.917C373.113 395.38 371.054 383.759 378.945 378.302C382.693 375.711 385.796 371.741 384.945 365.488C384.215 358.334 384.513 351.113 385.831 344.043C386.366 340.815 389.859 338.132 391.78 335.046C393.702 331.96 396.476 328.584 397.173 325.028C398.411 317.608 399.19 310.118 399.506 302.602C399.633 300.857 398.46 298.963 397.652 297.238C396.682 295.14 394.227 292.925 394.55 291.154C395.806 284.425 397.9 277.845 399.751 271.222C399.839 270.932 399.994 270.667 400.203 270.448C400.412 270.228 400.67 270.061 400.955 269.96C409.518 268.96 408.329 263.631 406.932 257.622C406.301 254.936 407.792 251.797 407.328 249.04C406.366 244.034 405.09 239.093 403.506 234.247C402.385 230.594 403.084 227.711 406.602 226.246C410.119 224.78 413.868 223.784 417.484 222.487C418.573 222.21 419.558 221.622 420.32 220.797C425.813 212.445 430.915 203.825 436.709 195.703C439.291 192.104 442.434 189.373 442.856 184.331C443.156 180.784 452.316 177.318 457.157 177.945C463.213 178.743 463.862 177.957 461.772 172.373C460.841 169.721 460.742 166.847 461.49 164.137C462.237 161.427 463.795 159.01 465.954 157.209C467.466 155.971 469.332 154.726 470.072 153.056C472.248 148.173 475.267 145.245 481.04 145.613C482.256 145.686 483.576 143.861 484.888 142.969C492.484 137.733 493.353 126.418 502.976 123.023C504.218 122.403 505.53 121.935 506.885 121.63C517.119 120.714 526.563 117.315 536.129 113.706C544.561 110.533 553.681 109.1 562.537 107.109C566.255 106.263 570.21 105.106 573.831 105.616C579.969 106.489 584.599 112.98 584.699 119.177C584.721 120.35 584.44 122.411 584.833 122.554C596.221 126.64 586.962 137.614 593.591 143.693Z" fill="#47F066"/>
<path d="M462.184 996.438C460.477 995.4 458.831 994.263 457.256 993.033C447.988 985.347 447.893 973.643 457.083 965.985C461.699 962.133 466.457 958.42 471.383 954.999C475.533 952.123 478.492 955.523 481.547 957.693C484.602 959.862 487.089 962.626 490.301 963.894C501.155 968.202 501.517 976.998 498.049 985.959C492.248 1000.97 477.329 1005.38 462.184 996.438Z" fill="#47F066"/>
<path d="M584.362 88.6357C577.214 84.0612 570.398 79.2734 567.29 70.5844C565.884 67.085 564.3 63.6596 562.545 60.3213C562.024 59.2375 560.823 58.1941 560.889 57.1834C561.103 53.6152 561.712 50.0652 562.186 46.5071C565.43 47.9607 569.53 48.6354 571.768 51.0323C576.187 55.7794 580.779 61.0034 583.088 66.9098C585.585 73.3158 585.564 80.7155 586.649 87.6769L584.362 88.6357Z" fill="#47F066"/>
<path d="M317.295 698.865C322.265 698.057 325.676 696.46 328.161 697.461C329.708 698.075 331.022 702.945 330.212 705.05C328.818 708.651 324.828 710.403 321.33 707.838C319.496 706.485 319.121 703.164 317.295 698.865Z" fill="#47F066"/>
</svg>
