<svg width="52" height="48" viewBox="0 0 52 48" fill="none" xmlns="http://www.w3.org/2000/svg">
<path d="M48.5147 1L29.1538 15.3749L32.7541 6.90331L48.5147 1Z" fill="#E17726" stroke="#E17726" stroke-linecap="round" stroke-linejoin="round"/>
<path d="M3.8562 1L23.0448 15.5091L19.6169 6.90331L3.8562 1Z" fill="#E27625" stroke="#E27625" stroke-linecap="round" stroke-linejoin="round"/>
<path d="M41.544 34.3311L36.3926 42.2277L47.4231 45.2752L50.5829 34.5036L41.544 34.3311Z" fill="#E27625" stroke="#E27625" stroke-linecap="round" stroke-linejoin="round"/>
<path d="M1.80713 34.5036L4.94777 45.2752L15.9592 42.2277L10.8269 34.3311L1.80713 34.5036Z" fill="#E27625" stroke="#E27625" stroke-linecap="round" stroke-linejoin="round"/>
<path d="M15.3656 20.9907L12.3015 25.629L23.2172 26.1273L22.8533 14.3398L15.3656 20.9907Z" fill="#E27625" stroke="#E27625" stroke-linecap="round" stroke-linejoin="round"/>
<path d="M37.0054 20.991L29.4028 14.2061L29.1538 26.1277L40.0695 25.6293L37.0054 20.991Z" fill="#E27625" stroke="#E27625" stroke-linecap="round" stroke-linejoin="round"/>
<path d="M15.959 42.2275L22.5658 39.0267L16.8782 34.5801L15.959 42.2275Z" fill="#E27625" stroke="#E27625" stroke-linecap="round" stroke-linejoin="round"/>
<path d="M29.8047 39.0267L36.3924 42.2275L35.4923 34.5801L29.8047 39.0267Z" fill="#E27625" stroke="#E27625" stroke-linecap="round" stroke-linejoin="round"/>
<path d="M36.3924 42.2272L29.8047 39.0264L30.3409 43.3197L30.2834 45.1405L36.3924 42.2272Z" fill="#D5BFB2" stroke="#D5BFB2" stroke-linecap="round" stroke-linejoin="round"/>
<path d="M15.959 42.2272L22.0871 45.1405L22.0488 43.3197L22.5658 39.0264L15.959 42.2272Z" fill="#D5BFB2" stroke="#D5BFB2" stroke-linecap="round" stroke-linejoin="round"/>
<path d="M22.2021 31.7431L16.7251 30.1331L20.5934 28.3506L22.2021 31.7431Z" fill="#233447" stroke="#233447" stroke-linecap="round" stroke-linejoin="round"/>
<path d="M30.1687 31.7431L31.7773 28.3506L35.6648 30.1331L30.1687 31.7431Z" fill="#233447" stroke="#233447" stroke-linecap="round" stroke-linejoin="round"/>
<path d="M15.9592 42.2277L16.9167 34.3311L10.8269 34.5036L15.9592 42.2277Z" fill="#CC6228" stroke="#CC6228" stroke-linecap="round" stroke-linejoin="round"/>
<path d="M35.4541 34.3311L36.3925 42.2277L41.5439 34.5036L35.4541 34.3311Z" fill="#CC6228" stroke="#CC6228" stroke-linecap="round" stroke-linejoin="round"/>
<path d="M40.0695 25.6289L29.1538 26.1272L30.1688 31.7431L31.7774 28.3506L35.6649 30.1331L40.0695 25.6289Z" fill="#CC6228" stroke="#CC6228" stroke-linecap="round" stroke-linejoin="round"/>
<path d="M16.7252 30.1331L20.5936 28.3506L22.2022 31.7431L23.2172 26.1272L12.3015 25.6289L16.7252 30.1331Z" fill="#CC6228" stroke="#CC6228" stroke-linecap="round" stroke-linejoin="round"/>
<path d="M12.3015 25.6299L16.8784 34.5807L16.7252 30.134L12.3015 25.6299Z" fill="#E27525" stroke="#E27525" stroke-linecap="round" stroke-linejoin="round"/>
<path d="M35.6645 30.1331L35.4922 34.5797L40.0691 25.6289L35.6645 30.1331Z" fill="#E27525" stroke="#E27525" stroke-linecap="round" stroke-linejoin="round"/>
<path d="M23.2169 26.1279L22.2019 31.7437L23.485 38.3754L23.7722 29.6354L23.2169 26.1279Z" fill="#E27525" stroke="#E27525" stroke-linecap="round" stroke-linejoin="round"/>
<path d="M29.1536 26.1279L28.6174 29.6162L28.8855 38.3754L30.1686 31.7437L29.1536 26.1279Z" fill="#E27525" stroke="#E27525" stroke-linecap="round" stroke-linejoin="round"/>
<path d="M30.1686 31.7428L28.8855 38.3744L29.8047 39.0261L35.4923 34.5795L35.6647 30.1328L30.1686 31.7428Z" fill="#F5841F" stroke="#F5841F" stroke-linecap="round" stroke-linejoin="round"/>
<path d="M16.7251 30.1328L16.8783 34.5795L22.5659 39.0261L23.4851 38.3744L22.2021 31.7428L16.7251 30.1328Z" fill="#F5841F" stroke="#F5841F" stroke-linecap="round" stroke-linejoin="round"/>
<path d="M30.2834 45.1409L30.3408 43.32L29.8429 42.8984H22.5275L22.0488 43.32L22.0871 45.1409L15.959 42.2275L18.1038 43.9909L22.4509 47H29.9004L34.2666 43.9909L36.3923 42.2275L30.2834 45.1409Z" fill="#C0AC9D" stroke="#C0AC9D" stroke-linecap="round" stroke-linejoin="round"/>
<path d="M29.8047 39.0267L28.8855 38.375H23.4851L22.5659 39.0267L22.0488 43.32L22.5276 42.8983H29.843L30.3409 43.32L29.8047 39.0267Z" fill="#161616" stroke="#161616" stroke-linecap="round" stroke-linejoin="round"/>
<path d="M49.338 16.3141L50.9657 8.37914L48.5145 1L29.8047 14.8958L37.0052 20.9908L47.174 23.9616L49.4146 21.3358L48.4379 20.6266L49.9891 19.2083L48.8017 18.2883L50.3529 17.0999L49.338 16.3141Z" fill="#763E1A" stroke="#763E1A" stroke-linecap="round" stroke-linejoin="round"/>
<path d="M1.40479 8.37914L3.05171 16.3141L1.99844 17.0999L3.56877 18.2883L2.38145 19.2083L3.93262 20.6266L2.95596 21.3358L5.19654 23.9616L15.3653 20.9908L22.5658 14.8958L3.85602 1L1.40479 8.37914Z" fill="#763E1A" stroke="#763E1A" stroke-linecap="round" stroke-linejoin="round"/>
<path d="M47.1738 23.962L37.0051 20.9912L40.0691 25.6295L35.4922 34.5803L41.5437 34.5037H50.5826L47.1738 23.962Z" fill="#F5841F" stroke="#F5841F" stroke-linecap="round" stroke-linejoin="round"/>
<path d="M15.3655 20.9912L5.19673 23.962L1.80713 34.5037H10.8269L16.8784 34.5803L12.3015 25.6295L15.3655 20.9912Z" fill="#F5841F" stroke="#F5841F" stroke-linecap="round" stroke-linejoin="round"/>
<path d="M29.1535 26.1274L29.8046 14.8958L32.7538 6.90332H19.6167L22.5658 14.8958L23.2169 26.1274L23.4659 29.6541L23.4851 38.3749H28.8854L28.9046 29.6541L29.1535 26.1274Z" fill="#F5841F" stroke="#F5841F" stroke-linecap="round" stroke-linejoin="round"/>
</svg>
