<svg width="70" height="42" viewBox="0 0 70 42" fill="none" xmlns="http://www.w3.org/2000/svg">
<path d="M14.5761 8.20607C25.7513 -2.73536 43.8698 -2.73536 55.045 8.20607L56.3899 9.52288C56.9487 10.07 56.9487 10.9569 56.3899 11.504L51.7891 16.0086C51.5098 16.2821 51.0568 16.2821 50.7774 16.0086L48.9266 14.1965C41.1305 6.56347 28.4906 6.56347 20.6945 14.1965L18.7124 16.1371C18.4331 16.4106 17.9801 16.4106 17.7007 16.1371L13.0999 11.6325C12.5412 11.0854 12.5412 10.1985 13.0999 9.65139L14.5761 8.20607ZM64.5599 17.522L68.6546 21.5311C69.2134 22.0782 69.2134 22.9651 68.6546 23.5122L50.1912 41.5897C49.6325 42.1368 48.7265 42.1368 48.1678 41.5897C48.1678 41.5897 48.1678 41.5897 48.1678 41.5897L35.0636 28.7596C34.9239 28.6228 34.6974 28.6228 34.5577 28.7596C34.5577 28.7596 34.5577 28.7596 34.5577 28.7596L21.4538 41.5897C20.895 42.1368 19.9891 42.1368 19.4304 41.5897C19.4304 41.5897 19.4303 41.5897 19.4303 41.5897L0.966432 23.512C0.407674 22.9649 0.407674 22.0779 0.966432 21.5308L5.06116 17.5218C5.61992 16.9747 6.52585 16.9747 7.08461 17.5218L20.189 30.3521C20.3287 30.4888 20.5552 30.4888 20.6949 30.3521C20.6949 30.3521 20.6949 30.3521 20.6949 30.3521L33.7986 17.5218C34.3573 16.9747 35.2633 16.9747 35.822 17.5217C35.822 17.5217 35.8221 17.5217 35.8221 17.5217L48.9264 30.3521C49.0661 30.4888 49.2926 30.4888 49.4323 30.3521L62.5364 17.522C63.0952 16.9749 64.0011 16.9749 64.5599 17.522Z" fill="#3B99FC"/>
</svg>
