<svg width="240" height="401" viewBox="0 0 240 401" fill="none" xmlns="http://www.w3.org/2000/svg">
<path d="M0.14996 203.894C2.13804 200.376 4.07615 196.829 6.12847 193.343C35.0728 144.092 64.0242 94.8502 92.9828 45.6184C101.635 30.9089 110.294 16.2054 118.96 1.50803C119.188 1.16839 119.442 0.847975 119.72 0.549823C119.897 1.1023 120.017 1.67233 120.077 2.25047C120.091 50.9312 120.091 99.6132 120.077 148.296L119.72 148.684C117.982 149.445 116.229 150.176 114.509 150.977C107.371 154.298 100.278 157.655 93.1541 160.973C83.2245 165.605 73.29 170.218 63.3508 174.812C56.2801 178.103 49.2273 181.435 42.1566 184.723C30.9848 189.921 19.8011 195.102 8.60551 200.266C5.82863 201.55 2.96254 202.676 0.14996 203.894Z" fill="#819EFF"/>
<path d="M120.077 148.307C120.077 99.6235 120.077 50.9415 120.077 2.26069C120.016 1.68256 119.897 1.11253 119.72 0.560052C120.434 -0.756568 120.594 0.629528 120.737 0.86725C122.404 3.60655 124.013 6.37877 125.641 9.14367L213.413 158.361C222.055 173.055 230.693 187.753 239.325 202.453C239.593 202.91 239.775 203.418 240 203.916C237.858 203.063 235.678 202.31 233.575 201.355C221.802 195.909 210.04 190.436 198.29 184.938C185.188 178.803 172.085 172.689 158.981 166.593C147.762 161.356 136.548 156.114 125.338 150.867C123.628 150.069 121.847 149.404 120.102 148.705C120.077 148.559 120.077 148.431 120.077 148.307Z" fill="#819EFF"/>
<path d="M120.077 148.69C121.822 149.421 123.604 150.054 125.313 150.851C136.535 156.081 147.75 161.323 158.957 166.577C172.063 172.697 185.173 178.804 198.287 184.897C210.044 190.375 221.806 195.848 233.572 201.314C235.664 202.28 237.856 203.033 239.997 203.874C239.894 204.17 239.876 204.606 239.672 204.741C230.942 210.049 222.202 215.337 213.453 220.606C205.622 225.346 197.793 230.09 189.967 234.837C182.388 239.433 174.813 244.036 167.241 248.647C158.968 253.672 150.691 258.689 142.41 263.7C135.086 268.137 127.757 272.565 120.423 276.983C120.334 277.038 120.195 276.983 120.066 277.005V276.274C120.066 272.004 120.066 267.738 120.066 263.473C120.074 225.218 120.077 186.957 120.077 148.69Z" fill="#819EFF"/>
<path d="M120.076 276.31V277.042C117.606 275.634 115.108 274.288 112.677 272.814C91.6187 260.079 70.5684 247.332 49.5264 234.573C36.0132 226.401 22.4881 218.242 8.95112 210.099C5.99577 208.314 3.08682 206.442 0.15646 204.613C0.15646 204.372 0.156433 204.13 0.127878 203.882C2.9583 202.682 5.8387 201.555 8.61559 200.272C19.7993 195.12 30.9829 189.939 42.1666 184.728C49.2373 181.437 56.2902 178.105 63.3609 174.817C73.2906 170.185 83.225 165.572 93.1642 160.978C100.303 157.661 107.395 154.304 114.519 150.983C116.239 150.182 117.992 149.45 119.73 148.69C119.73 190.475 119.73 232.26 119.73 274.043C119.788 274.807 119.904 275.565 120.076 276.31Z" fill="#819EFF"/>
<path d="M120.402 401C120.006 400.799 119.463 400.704 119.235 400.382C115.351 394.84 111.489 389.283 107.649 383.712L23.6428 262.429C16.1426 251.599 8.64712 240.767 1.15644 229.935C0.84948 229.492 0.560374 229.038 0 228.194C0.788806 228.559 1.20643 228.691 1.57763 228.925C23.6309 242.267 45.683 255.613 67.7338 268.965L119.456 300.279C119.667 300.39 119.885 300.486 120.109 300.568C120.109 300.813 120.084 301.054 120.084 301.299C120.084 334.019 120.084 366.742 120.084 399.468C120.139 399.988 120.245 400.502 120.402 401Z" fill="#819EFF"/>
<path d="M120.402 401C120.248 400.498 120.144 399.983 120.094 399.459C120.079 366.739 120.079 334.016 120.094 301.291C120.094 301.046 120.094 300.804 120.119 300.559C144.068 286.079 168.018 271.6 191.968 257.122C207.318 247.837 222.666 238.548 238.011 229.253C238.519 228.917 239.095 228.706 239.696 228.635C239.378 229.191 239.1 229.776 238.736 230.303C220.161 257.123 201.581 283.943 182.995 310.763C170.636 328.593 158.276 346.424 145.917 364.254C137.415 376.499 128.911 388.746 120.402 401Z" fill="#819EFF"/>
<path d="M0.14996 203.894C0.14996 204.136 0.17136 204.378 0.178498 204.626C0.149944 204.359 0.14996 204.117 0.14996 203.894Z" fill="#819EFF"/>
<path d="M120.076 276.31C119.907 275.566 119.796 274.807 119.741 274.044C119.725 232.261 119.725 190.477 119.741 148.691L120.098 148.304C120.098 148.435 120.098 148.563 120.098 148.695C120.098 186.974 120.098 225.245 120.098 263.508C120.084 267.772 120.076 272.041 120.076 276.31Z" fill="#819EFF"/>
</svg>
