<svg width="1440" height="777" viewBox="0 0 1440 777" fill="none" xmlns="http://www.w3.org/2000/svg">
<g style="mix-blend-mode:overlay">
<path d="M0 6.49366C46.3872 31.739 92.7825 56.9906 139.186 82.2484C209.005 120.283 278.818 158.329 348.624 196.386C364.372 204.965 380.177 213.452 395.461 222.903C388.242 219.463 381.008 216.043 373.799 212.576C341.164 196.891 309.335 179.338 275.656 166.096C249.172 155.686 223.77 143.421 198.074 131.639C133.247 101.975 68.7836 71.5832 4.16519 41.488C2.83155 40.8669 1.39162 40.4451 0 39.9307V6.49366Z" fill="white"/>
<path d="M186.752 0.00463534C205.544 14.5632 224.277 29.2052 243.142 43.6758C307.211 92.8595 371.304 142.015 435.422 191.143C438.113 193.206 440.785 195.315 442.761 198.281C430.842 190.986 418.924 183.687 407.005 176.386C339.872 134.979 272.747 93.5825 205.631 52.1949C179.635 36.1516 153.64 20.1021 127.647 4.04637C125.825 2.92006 124.294 1.36269 122.627 0.00463534H186.752Z" fill="white"/>
<path d="M0 577.342C12.7468 574.561 25.5226 571.845 38.2357 568.902C71.3445 561.235 104.436 553.51 137.509 545.727C172.222 537.569 206.906 529.291 241.629 521.161C264.538 515.798 287.485 510.598 310.427 505.36C311.795 505.043 313.237 505.226 314.472 505.875C304.859 509.187 295.245 512.498 285.629 515.808L131.242 568.647C88.7687 583.188 46.2922 597.722 3.81245 612.248C2.60928 612.656 1.27565 612.712 0 612.939L0 577.342Z" fill="white"/>
<path d="M1440 770.506C1380.41 738.061 1320.8 705.604 1261.19 673.134C1190 634.385 1118.81 595.641 1047.64 556.902C1046.37 556.211 1045.14 555.437 1044.36 553.824C1052.51 557.56 1060.72 561.18 1068.81 565.055C1158.31 607.956 1247.8 650.883 1337.29 693.834C1370.12 709.593 1402.97 725.334 1435.83 741.055C1437.13 741.681 1438.6 741.982 1440 742.446V770.506Z" fill="white"/>
<path d="M1440 33.4602L1044.51 222.796L1044.08 222.068L1440 6.49366V33.4602Z" fill="white"/>
<path d="M1440 589.212C1430.71 586.598 1421.36 584.183 1412.15 581.333C1341.62 559.557 1271.11 537.736 1200.62 515.868C1176.94 508.541 1153.25 501.237 1129.55 493.953C1128.96 493.818 1128.41 493.57 1127.92 493.223C1127.44 492.877 1127.03 492.439 1126.73 491.937C1135.05 493.592 1143.39 495.205 1151.7 496.901C1220.71 510.989 1289.72 525.082 1358.73 539.182C1385.82 544.716 1412.91 550.241 1440 555.757V589.212Z" fill="white"/>
<path d="M0 431.659C17.7769 431.265 35.5539 430.996 53.3212 430.449C110.803 428.676 168.279 426.84 225.751 424.943C251.206 424.104 276.656 423.089 302.097 422.162C302.491 422.129 302.888 422.188 303.254 422.333C303.62 422.478 303.944 422.706 304.199 422.996C282.909 425.83 261.618 428.662 240.325 431.492C195.078 437.496 149.829 443.486 104.579 449.462C69.7355 454.028 34.8629 458.459 0 462.955V431.659Z" fill="white"/>
<path d="M1440 256.84C1381.55 266.818 1323.09 276.8 1264.64 286.787C1215.03 295.272 1165.43 303.77 1115.85 312.28C1102.04 314.643 1088.22 316.877 1074.26 318.537C1091.82 314.609 1109.38 310.682 1126.93 306.755C1167.97 297.596 1209.01 288.442 1250.04 279.292C1299.48 268.289 1348.91 257.302 1398.35 246.333C1412.21 243.264 1426.11 240.372 1440 237.396V256.84Z" fill="white"/>
<path d="M1440 539.571C1422.27 535.789 1404.51 532.155 1386.82 528.202C1329.36 515.421 1271.91 502.589 1214.47 489.703C1169.22 479.608 1123.98 469.526 1078.74 459.455C1077.16 459.171 1075.67 458.577 1074.35 457.712L1440 520.146V539.571Z" fill="white"/>
<path d="M1440 382.018C1410.01 381.944 1380.01 381.867 1350.02 381.786C1265.66 381.477 1181.3 381.161 1096.94 380.836C1091.14 380.836 1085.34 380.836 1079.5 380.159C1109.64 378.722 1139.78 377.283 1169.93 375.84C1228.14 373.034 1286.35 370.219 1344.57 367.395C1375.45 365.905 1406.34 364.433 1437.23 362.977C1438.16 362.931 1439.08 362.727 1440 362.593V382.018Z" fill="white"/>
<path d="M0 167.268C23.5753 175.435 47.1217 183.676 70.7309 191.755C126.251 210.75 181.785 229.71 237.334 248.636C239.175 249.227 240.853 250.209 242.243 251.51C233.497 249.512 224.746 247.556 216.015 245.484C151.462 230.343 86.9117 215.202 22.3625 200.061C14.9502 198.332 7.45578 196.9 0 195.329V167.268Z" fill="white"/>
<path d="M1440 217.989C1431.37 219.533 1422.71 220.914 1414.12 222.652C1358.26 233.974 1302.41 245.336 1246.56 256.738C1234.84 259.125 1223.14 261.61 1211.43 264.006C1208.53 264.595 1205.63 265.021 1202.48 264.696C1214.49 260.808 1226.44 256.784 1238.49 253.053C1302.42 233.237 1366.37 213.461 1430.32 193.725C1433.52 192.738 1436.77 191.899 1439.99 190.995L1440 217.989Z" fill="white"/>
<path d="M0 737.055C23.4304 726.242 46.8946 715.489 70.2864 704.61C134.101 674.912 197.904 645.186 261.697 615.433C263.555 614.471 265.613 613.917 267.722 613.81C265.214 615.247 262.745 616.758 260.189 618.112C174.16 663.646 88.1245 709.166 2.08259 754.673C1.408 754.964 0.71191 755.208 0 755.401V737.055Z" fill="white"/>
<path d="M1240.86 0.00463534C1231.88 6.73931 1222.98 13.5899 1213.91 20.1809C1168.94 52.8021 1123.95 85.3862 1078.93 117.933C1056.81 133.943 1034.7 149.955 1012.58 165.971C1011.53 166.835 1010.18 167.287 1008.79 167.236C1015.39 161.918 1022 156.602 1028.6 151.287C1089.54 102.153 1150.47 53.0091 1211.38 3.85633C1212.75 2.75783 1213.8 1.2978 1214.99 0.00463534H1240.86Z" fill="white"/>
<path d="M1265.62 776.981C1254.77 768.471 1243.98 759.883 1233.05 751.489C1196.25 723.178 1159.42 694.905 1122.56 666.668C1122.12 666.385 1121.77 665.996 1121.53 665.541C1121.3 665.086 1121.19 664.579 1121.22 664.072C1127.89 668.123 1134.58 672.137 1141.21 676.235C1194.25 708.939 1247.28 741.669 1300.29 774.423C1301.54 775.192 1302.68 776.124 1303.87 776.981H1265.62Z" fill="white"/>
<path d="M0 240.65L224.437 290.588L224.248 291.552L1.12102 253.605C0.74801 253.575 0.373015 253.575 0 253.605V240.65Z" fill="white"/>
<path d="M1019.25 0.00463534C1012.83 8.12982 1006.56 16.3709 999.964 24.3616C975.562 53.9052 951.106 83.4148 926.595 112.89C926.066 113.621 925.592 114.386 925.174 115.18L923.966 114.221C930.019 105.096 936.075 95.9695 942.135 86.8417C960.496 59.3406 978.858 31.824 997.219 4.29202C998.065 3.02203 998.432 1.45076 999.017 0.0185404L1019.25 0.00463534Z" fill="white"/>
<path d="M481.5 776.981L547.596 677.996L549.206 678.612C548.568 680.828 548.278 683.206 547.239 685.231C532.134 714.673 516.978 744.09 501.77 773.482C501.214 774.567 500.997 775.799 500.625 776.981H481.5Z" fill="white"/>
<path d="M1179.01 776.981C1165 764.555 1151.08 752.068 1137 739.721C1108.41 714.62 1079.78 689.568 1051.1 664.564C1049.91 663.526 1048.42 662.812 1047.07 661.945L1048.44 660.522C1054.15 664.944 1059.89 669.329 1065.55 673.801C1108.4 707.529 1151.22 741.27 1194.01 775.025C1194.69 775.632 1195.31 776.286 1195.88 776.981H1179.01Z" fill="white"/>
<path d="M255.376 0.00463502C257.469 2.03941 259.508 4.13907 261.658 6.10432C286.394 28.5841 311.141 51.0531 335.897 73.5113C337.239 74.6032 338.209 76.0564 338.68 77.6829C334.486 74.6376 330.272 71.6203 326.117 68.5472C296.126 46.4568 266.144 24.3632 236.169 2.26652C235.333 1.6547 234.719 0.760143 234.004 0L255.376 0.00463502Z" fill="white"/>
<path d="M1296 0.00463534L1191.19 64.8531L1190.35 63.7361C1200.22 56.181 1210.08 48.6259 1219.94 41.0709C1236.59 28.2875 1253.23 15.4902 1269.85 2.67904C1270.82 1.93744 1271.54 0.903828 1272.37 0.00463534H1296Z" fill="white"/>
<path d="M218.252 0.00463534C249.451 25.1789 280.649 50.3533 311.848 75.5276C314.989 78.0583 318.076 80.6261 320.574 84.0838C318.642 82.6933 316.661 81.3028 314.723 79.9123C279.043 54.1014 243.369 28.2875 207.699 2.47046C206.66 1.71959 205.732 0.829668 204.751 0.00463534H218.252Z" fill="white"/>
<path d="M0 84.1765C22.9617 95.1152 45.9234 106.046 68.8851 116.969C75.3793 120.052 81.888 123.227 87.9425 127.426L0 96.0468V84.1765Z" fill="white"/>
<path d="M355.5 0.00463534C360.951 6.31753 366.266 12.7278 371.832 18.9248C390.055 39.1767 408.324 59.3869 426.637 79.5554C427.727 80.637 428.522 81.96 428.951 83.4071C427.584 82.1881 426.149 81.0247 424.854 79.7362C398.858 53.9006 372.886 28.0527 346.938 2.19236C346.351 1.50896 345.829 0.776828 345.377 0.00463534H355.5Z" fill="white"/>
<path d="M1094.62 0.00463534C1082.41 12.3477 1070.25 24.7232 1057.98 37.0199C1042.48 52.5611 1026.91 68.0328 1010.51 82.8324C1015.27 77.5253 1020 72.2043 1024.78 66.9157C1044 45.6317 1063.23 24.3493 1082.46 3.06838C1083.28 2.14138 1083.82 1.02897 1084.5 0.00463534H1094.62Z" fill="white"/>
<path d="M973.127 0.00463534C960.267 19.1256 947.395 38.242 934.51 57.3537C927.233 68.1208 919.874 78.837 911.761 89.1082C918.335 78.1912 924.912 67.2742 931.49 56.3572C942.764 37.5792 954.017 18.795 965.246 0.00463534H973.127Z" fill="white"/>
<path d="M1440 451.084C1424.8 449.23 1409.59 447.418 1394.4 445.522C1386.4 444.597 1378.45 443.282 1370.59 441.583L1440 443.539V451.084Z" fill="white"/>
<path d="M780.75 776.981C779.528 764.156 778.335 751.331 777.069 738.511C776.426 731.948 775.662 725.398 775.846 718.719C780.101 738.14 784.362 757.561 788.627 776.981H780.75Z" fill="white"/>
<path d="M533.25 0.00463534C539.403 13.8263 545.561 27.6479 551.723 41.4695C555.912 50.8137 560.203 60.1115 563.557 69.8636C558.594 60.4174 553.554 51.0083 548.689 41.5158C541.6 27.7081 534.637 13.8448 527.626 0.00463534H533.25Z" fill="white"/>
<path d="M912.374 0.00463534C905.02 14.5122 897.719 29.043 890.297 43.5135C885.764 52.3525 881.048 61.0988 875.453 69.5021C876.725 66.7489 877.995 63.9941 879.26 61.2378C888.28 41.5143 897.287 21.7877 906.281 2.05795C906.512 1.39048 906.674 0.702687 906.764 0.00463534H912.374Z" fill="white"/>
<path d="M725.627 0.00463534C724.796 17.6177 723.968 35.2307 723.143 52.8438H722.051L718.877 0.00463534H725.627Z" fill="white"/>
<path d="M943.874 776.981L922.473 736.406L923.961 735.6L950.624 776.981H943.874Z" fill="white"/>
<path d="M990 776.981L966.077 740.138L959.486 730.019C961.172 731.475 962.153 732.059 962.777 732.893C973.752 747.577 984.704 762.279 995.634 777L990 776.981Z" fill="white"/>
<path d="M1318.5 776.981L1283.63 752.624L1284.25 751.697C1288.86 754.451 1293.5 757.148 1298.06 759.971C1307.14 765.607 1316.19 771.313 1325.25 776.991L1318.5 776.981Z" fill="white"/>
<path d="M807.752 776.981C805.046 762.925 802.343 748.865 799.644 734.803C799.373 733.412 799.16 732.022 799.557 730.464L812.26 776.981H807.752Z" fill="white"/>
<path d="M469.125 776.981C476.56 765.493 483.994 754 491.429 742.502L492.826 743.299L472.497 776.981H469.125Z" fill="white"/>
<path d="M250.873 776.981L275.139 756.833L255.376 776.981H250.873Z" fill="white"/>
<path d="M1440 596.767L1422.87 591.395L1423.16 590.547L1440 593.528V596.767Z" fill="white"/>
</g>
</svg>
