<svg width="597" height="885" viewBox="0 0 597 885" fill="none" xmlns="http://www.w3.org/2000/svg">
<path d="M100.737 78.8418C104.227 76.9318 108.337 76.4818 112.577 80.2418C113.827 81.3518 117.067 81.2418 118.877 80.4618C121.407 79.3618 120.757 77.1418 119.257 75.0618C119.062 74.5643 119.005 74.0239 119.089 73.4965C119.173 72.9691 119.397 72.4738 119.737 72.0618C120.239 71.7285 120.811 71.5131 121.408 71.4317C122.005 71.3503 122.613 71.405 123.187 71.5918C126.637 73.1118 129.777 75.4618 133.327 76.5218C135.779 77.1758 138.391 76.8381 140.597 75.5818C143.937 73.3618 146.757 73.3018 149.757 75.4918C155.037 79.3518 160.617 81.6218 167.417 80.8618C169.017 80.6918 171.257 82.7818 172.547 84.3618C173.967 86.1018 174.547 88.4918 175.637 90.5518C178.917 96.9818 182.147 97.3818 187.197 92.0618C189.787 89.3218 192.437 86.6518 195.047 83.9218C200.055 78.7783 202.943 71.938 203.137 64.7618C203.307 59.9818 206.387 57.3418 210.067 58.1618C218.827 60.1018 225.937 56.9618 233.377 52.2218C232.637 47.8218 234.457 44.8018 239.757 43.0518C242.757 42.0518 244.757 38.4218 247.407 36.2618C248.587 35.2618 250.637 34.2618 251.847 34.6918C259.597 37.2118 262.767 31.1018 267.067 27.0518C267.177 26.9418 267.217 26.7518 267.317 26.6218C272.107 20.1818 273.857 19.5318 280.477 23.4218C284.087 25.5418 287.407 26.4218 291.317 24.9018C292.12 24.609 292.987 24.5399 293.827 24.7018C304.257 26.7018 311.137 20.5818 317.667 14.0518C323.007 8.70176 329.477 4.89176 336.577 3.97176C340.997 3.40176 345.887 6.63176 350.577 8.05176C354.507 9.23176 358.447 10.9618 362.427 11.1118C365.117 11.2218 367.897 9.02176 370.627 7.84176C372.107 7.21176 373.527 6.11176 375.037 5.96176C381.617 5.32176 388.227 4.96176 394.947 4.49176C398.117 -1.12824 403.707 -1.56824 408.427 3.70176C409.719 5.20622 410.899 6.80387 411.957 8.48176C415.697 14.1318 420.507 16.3218 426.957 14.8418C428.107 14.5818 429.057 13.0518 429.957 11.9718C432.727 8.52176 436.267 8.75176 437.447 12.8818C439.277 19.2718 443.167 23.9618 448.167 27.9818C448.677 28.3918 449.427 28.8818 449.487 29.4018C450.677 39.8718 460.727 35.7918 466.197 39.2018C468.337 40.5318 472.697 37.8818 476.077 37.7218C480.697 37.5118 485.077 39.7218 489.937 36.2918C493.207 33.9418 498.657 37.4718 500.987 41.1918C503.067 44.4918 505.987 47.2518 508.147 50.5318C509.597 52.7418 511.497 55.6118 511.147 57.8918C509.757 67.4718 514.947 75.9718 524.517 78.7518C527.787 79.7018 530.907 81.2018 534.167 82.2318C535.367 82.6218 536.777 82.3418 538.097 82.3918C540.297 82.4818 542.717 82.0418 544.667 82.8018C548.037 84.1018 550.307 83.1818 552.667 80.8018C557.477 75.8018 559.977 76.4218 563.667 82.1818C565.107 84.4818 567.957 85.8618 570.037 87.8018C571.824 89.3143 573.407 91.0521 574.747 92.9718C575.754 94.6877 576.343 96.6162 576.467 98.6018C576.757 102.532 578.827 102.602 581.957 102.022C585.517 101.372 589.177 101.252 592.797 100.922C593.957 100.822 595.267 101.112 596.267 100.682C607.137 95.9218 611.627 105.752 618.267 110.422C622.607 113.492 626.337 117.422 630.197 121.182C631.977 122.912 634.007 124.782 634.857 127.002C636.777 132.002 639.097 135.232 645.167 136.002C650.167 136.632 654.927 139.632 659.837 141.422C663.907 142.922 668.077 144.182 672.187 145.572C673.427 145.992 674.917 146.222 675.807 147.062C681.867 152.762 688.887 152.582 696.257 150.722C699.387 149.932 703.027 149.942 705.537 148.262C708.927 145.972 711.417 142.372 714.357 139.392C716.987 136.712 719.577 133.942 722.457 131.542C723.709 130.753 725.217 130.477 726.667 130.772C733.067 131.972 737.667 129.602 741.377 124.422C741.861 123.797 742.463 123.274 743.149 122.883C743.836 122.492 744.593 122.24 745.377 122.142C750.997 121.852 756.647 121.722 762.267 121.962C771.467 122.342 776.057 130.712 772.127 139.252C770.487 142.822 769.867 146.952 767.867 150.252C764.457 155.892 761.487 162.252 754.287 164.252C753.632 164.349 753.013 164.611 752.487 165.012C746.967 171.012 738.487 173.732 734.407 181.462C732.297 185.462 728.407 187.022 723.827 186.462C717.567 185.682 714.757 189.462 711.427 194.212C707.347 200.032 707.267 202.652 714.527 204.392C717.387 205.082 719.867 207.212 722.707 208.062C728.487 209.782 731.047 214.262 730.007 221.062C735.587 223.412 741.267 225.332 746.447 228.182C749.517 229.872 751.527 233.412 754.447 235.412C758.867 238.412 765.127 239.732 768.017 243.662C772.017 249.152 777.377 252.592 781.877 257.092C785.177 260.392 785.257 267.162 786.207 272.482C786.967 276.772 787.587 280.392 791.817 283.242C795.427 285.672 797.707 290.042 800.757 293.372C801.998 294.609 803.442 295.624 805.027 296.372C810.027 298.972 814.637 301.742 813.547 308.612C813.521 309.767 813.649 310.92 813.927 312.042C821.037 314.092 824.247 319.502 823.467 326.892C823.237 329.112 824.187 331.652 825.197 333.742C827.127 337.742 828.467 341.402 826.487 345.992C825.167 349.042 824.357 352.242 828.927 354.992C832.697 357.242 834.577 362.062 833.517 367.152C832.517 371.782 832.267 376.322 835.517 380.412C836.167 381.212 835.957 382.772 835.977 383.982C836.037 388.262 835.607 392.602 836.147 396.822C836.757 401.672 841.767 403.142 846.557 402.582C850.767 402.102 855.257 404.112 859.637 404.982C864.017 405.852 867.317 409.402 872.637 407.492C874.747 406.732 879.257 409.492 880.967 411.802C882.287 413.622 881.687 417.742 880.537 420.162C879.297 422.772 878.937 423.932 881.457 425.802C885.847 429.072 885.537 434.182 884.587 438.642C883.047 445.802 887.117 449.702 891.677 453.692C892.607 454.492 893.847 455.542 893.947 456.582C894.397 461.172 896.817 464.462 900.947 465.702C904.88 466.866 908.978 467.379 913.077 467.222C922.387 466.862 930.877 466.602 938.587 474.222C950.587 486.142 950.797 497.142 937.327 508.062C933.717 510.982 932.237 519.372 934.467 524.242C935.707 526.962 942.757 529.932 946.377 529.912C949.126 529.89 951.85 530.438 954.377 531.522C958.187 533.262 961.477 533.612 964.917 530.852C965.817 530.132 967.577 529.522 968.487 529.922C972.609 531.622 976.588 533.648 980.387 535.982C984.907 538.902 988.787 542.872 993.387 545.492C997.487 547.812 999.297 550.492 998.017 554.972C996.667 559.722 992.297 559.342 988.717 560.062C986.317 560.552 983.767 560.342 981.357 560.812C980.71 560.922 980.091 561.162 979.538 561.516C978.985 561.869 978.509 562.331 978.137 562.872C975.417 568.952 971.497 574.492 970.327 581.282C969.157 588.072 967.437 594.682 966.097 601.402C965.739 602.846 965.781 604.36 966.217 605.782C968.957 612.782 971.937 619.642 974.777 626.582C976.337 630.412 976.077 634.112 973.127 637.192C971.06 639.33 968.841 641.315 966.487 643.132C961.267 647.132 959.857 651.722 962.127 657.952C964.657 664.952 961.417 672.022 954.337 675.032C948.897 677.352 945.167 685.242 945.337 691.032C945.607 698.712 945.907 706.912 941.857 713.662C939.317 717.912 934.677 721.142 930.467 724.112C925.757 727.432 924.067 730.662 926.837 735.642C929.977 741.302 924.657 754.232 918.557 757.942C917.557 758.532 916.557 759.032 915.897 759.392C916.307 763.802 916.897 767.832 917.007 771.882C917.117 775.932 913.327 780.642 908.337 782.272C902.037 784.272 895.557 785.842 889.277 787.932C886.467 788.862 883.917 790.592 881.277 792.002C880.697 792.312 880.227 793.182 879.707 793.182C869.497 793.272 868.037 803.462 862.107 808.462C861.447 809.022 861.367 810.612 861.477 811.672C862.137 817.992 859.397 821.672 853.227 821.752C849.637 821.752 846.787 822.262 845.117 825.832C844.626 826.716 843.83 827.392 842.877 827.732C836.077 830.022 829.357 832.942 822.357 834.072C818.467 834.702 814.147 832.232 809.997 834.692C807.667 836.072 804.577 836.472 802.687 838.232C795.357 845.072 786.507 846.902 776.987 846.752C773.737 846.702 770.767 846.752 768.427 849.562C767.996 850.07 767.466 850.486 766.869 850.783C766.273 851.08 765.622 851.254 764.957 851.292C762.716 851.124 760.465 851.447 758.361 852.238C756.258 853.029 754.352 854.269 752.777 855.872C751.927 856.692 748.427 856.192 747.377 855.112C741.167 848.692 741.437 849.112 733.377 851.232C729.857 852.162 725.377 851.062 721.787 849.712C717.327 847.93 712.402 847.684 707.787 849.012C704.377 849.932 700.607 849.552 696.997 849.672C695.366 849.799 693.726 849.746 692.107 849.512C689.017 848.922 685.617 848.692 682.997 847.182C678.737 844.722 666.997 845.182 663.437 848.742C662.953 849.184 662.583 849.736 662.357 850.352C660.747 856.242 658.927 862.102 657.697 868.072C656.117 875.702 650.227 880.012 644.867 884.322C643.497 885.422 638.217 883.242 635.947 881.212C633.297 878.852 631.527 878.362 628.607 880.142C626.077 881.692 606.607 879.772 604.427 878.232C600.858 875.624 597.138 873.23 593.287 871.062C585.937 867.162 586.287 867.392 587.757 858.872C588.67 852.956 588.835 846.949 588.247 840.992C588.067 838.892 585.357 836.722 583.367 835.122C578.577 831.262 576.287 819.362 579.657 814.252C580.06 813.726 580.494 813.225 580.957 812.752C586.557 806.072 586.107 796.992 580.787 790.002C577.677 785.902 575.967 780.762 573.337 776.262C572.388 774.674 570.998 773.395 569.337 772.582C565.887 771.012 564.027 768.792 564.397 764.872C564.517 763.572 564.717 761.982 564.117 760.972C560.757 755.282 562.637 750.672 566.317 745.972C570.317 740.772 567.757 732.172 561.667 729.442C560.518 728.776 559.313 728.21 558.067 727.752C551.997 726.262 548.807 722.262 547.897 716.292C547.207 711.822 544.897 709.542 540.217 709.682C535.537 709.822 531.457 708.462 528.897 703.912C526.737 700.102 522.897 699.542 518.897 699.622C514.127 699.712 511.577 698.352 509.657 692.972C507.283 686.359 503.829 680.185 499.437 674.702C494.567 668.572 487.357 663.812 485.437 655.372C485.237 654.452 483.617 653.372 482.577 653.262C481.537 653.152 479.577 654.052 479.407 654.842C478.407 658.782 475.997 658.902 472.407 659.842C468.187 660.932 464.537 659.932 460.687 660.212C452.607 660.822 447.347 656.132 441.687 651.872C441.283 651.565 441 651.126 440.887 650.632C439.767 643.172 433.447 643.082 428.117 641.532C426.719 641.047 425.347 640.489 424.007 639.862C419.007 637.792 414.007 635.992 408.267 636.732C406.207 636.992 403.667 634.652 401.567 633.192C398.847 631.302 396.507 629.192 392.657 630.462C390.657 631.102 388.127 630.622 385.887 630.312C376.957 629.052 368.057 627.652 359.137 626.312C358.977 626.312 358.707 626.392 358.657 626.312C355.377 621.572 347.497 623.312 345.387 616.842C344.984 615.76 344.207 614.859 343.197 614.302C333.857 609.552 324.537 604.702 315.007 600.302C311.297 598.612 307.007 598.132 303.007 597.012C301.947 596.722 300.287 596.342 300.007 595.622C298.219 590.437 296.7 585.163 295.457 579.822C294.677 576.212 294.697 572.632 290.167 571.232C288.167 570.632 286.737 568.642 284.867 567.592C276.98 563.178 269.04 558.845 261.047 554.592C259.828 554.063 258.524 553.761 257.197 553.702C253.698 553.365 250.424 551.827 247.93 549.35C245.436 546.872 243.877 543.608 243.517 540.112C243.377 538.602 243.717 536.382 244.717 535.562C249.617 531.562 247.237 527.722 244.817 523.782C243.437 521.532 242.087 519.252 240.747 516.982C238.097 512.482 236.237 507.202 229.797 506.632C224.417 506.152 223.057 502.372 223.407 497.822C223.657 494.642 222.107 492.952 220.237 490.602C215.337 484.442 208.647 478.692 211.057 469.322C212.057 465.392 209.757 463.432 206.737 462.712C199.547 461.002 196.887 456.252 196.177 449.432C195.836 446.623 194.956 443.907 193.587 441.432C191.417 437.502 192.217 434.142 194.367 430.672C197.727 425.242 196.557 421.862 190.927 418.762C187.307 416.762 181.857 416.052 183.397 409.412C183.557 408.722 179.567 405.912 177.797 406.162C173.977 406.692 170.427 408.852 166.627 409.842C161.247 411.242 155.707 412.042 150.317 413.382C146.226 414.338 142.215 415.605 138.317 417.172C135.943 418.201 133.378 418.712 130.791 418.671C128.204 418.63 125.656 418.037 123.317 416.932C121.403 416.031 119.389 415.36 117.317 414.932C112.317 414.122 109.557 411.122 109.977 406.122C110.347 401.642 109.467 398.122 106.067 394.492C101.317 389.422 97.5868 383.322 93.7568 377.442C92.7518 375.743 91.3255 374.332 89.6157 373.346C87.9059 372.359 85.9705 371.831 83.9967 371.812C75.2767 371.292 66.1567 371.812 57.9967 369.222C52.2367 367.422 47.8268 361.322 42.8168 357.122C42.7577 357.062 42.7134 356.989 42.6874 356.909C42.6613 356.83 42.6543 356.745 42.6668 356.662C46.9868 349.842 40.7168 342.382 44.1068 335.222C45.7168 331.822 46.2968 327.702 43.1068 323.582C39.6313 318.768 36.8631 313.481 34.8868 307.882C33.9368 305.352 35.3267 301.992 35.4267 298.992C35.5267 295.992 36.1168 292.432 35.1468 289.602C32.9686 283.784 30.4337 278.107 27.5567 272.602C26.9267 271.302 25.3068 270.432 24.0168 269.532C22.4568 268.432 19.7868 267.862 19.2868 266.462C17.4068 261.132 16.1868 255.562 14.7768 250.062C14.72 249.818 14.7212 249.564 14.7803 249.321C14.8393 249.078 14.9545 248.852 15.1167 248.662C20.8267 244.412 17.7767 241.092 14.2967 237.372C12.7367 235.712 12.5068 232.852 11.0368 231.072C8.28233 227.889 5.32978 224.883 2.19676 222.072C-0.113243 219.922 -0.803209 217.572 1.10679 215.072C3.01679 212.572 5.28677 210.312 7.33677 207.892C8.00083 207.244 8.46282 206.417 8.66679 205.512C9.14679 197.272 9.23677 189.002 10.0268 180.802C10.3868 177.162 11.5068 173.912 9.72679 170.132C8.47679 167.472 13.5968 161.212 17.3168 159.662C21.9768 157.732 22.1168 156.902 18.3168 153.772C16.5557 152.259 15.2989 150.245 14.7145 147.999C14.13 145.752 14.246 143.381 15.0467 141.202C15.6167 139.692 16.4368 138.032 16.2768 136.532C15.8168 132.142 16.7667 128.802 21.0467 126.682C21.9467 126.232 22.1368 124.382 22.7068 123.202C25.9768 116.322 21.9268 107.872 27.4068 101.472C28.0384 100.515 28.7838 99.6387 29.6267 98.8618C36.5667 93.9818 41.9168 87.6518 47.2668 81.1218C51.9868 75.3718 57.9167 70.5818 63.4267 65.5018C65.7367 63.3618 68.0868 60.9018 70.8868 59.7718C75.6368 57.8618 81.6268 60.5918 84.2568 64.9818C84.7568 65.8118 85.4067 67.4018 85.7467 67.3418C95.5767 65.5618 93.4867 77.2318 100.737 78.8418Z" fill="#303030"/>
<path d="M358.827 742.872C357.177 742.834 355.531 742.701 353.897 742.472C344.097 740.802 339.197 732.472 342.607 723.202C344.317 718.542 346.187 713.922 348.297 709.442C350.077 705.672 353.597 706.882 356.677 707.172C359.757 707.462 362.677 708.412 365.497 707.992C375.037 706.592 378.927 712.732 380.147 720.572C382.197 733.702 373.347 743.012 358.827 742.872Z" fill="#303030"/>
<path d="M71.4068 43.2818C64.4068 42.9618 57.5568 42.3518 51.7468 37.4218C49.2965 35.5 46.7498 33.7043 44.1168 32.0418C43.2968 31.4818 42.0068 31.2318 41.6368 30.4818C40.3168 27.8418 39.2868 25.0518 38.1568 22.3118C41.0768 22.0118 44.2868 20.8018 46.8768 21.5918C51.9968 23.1618 57.4368 25.0018 61.5268 28.2718C65.9568 31.8218 68.9968 37.1218 72.6468 41.6518L71.4068 43.2818Z" fill="#303030"/>
<path d="M132.367 589.902C135.587 587.272 137.367 584.722 139.557 584.412C140.917 584.212 143.867 587.152 144.157 588.992C144.647 592.142 142.517 595.042 138.957 594.652C137.087 594.442 135.447 592.222 132.367 589.902Z" fill="#303030"/>
</svg>
