<svg width="961" height="565" viewBox="0 0 961 565" fill="none" xmlns="http://www.w3.org/2000/svg">
<g clip-path="url(#clip0)">
<path d="M961 26.6223L912.918 304.59L876.872 512.975L715.541 524.708L651.193 529.39L618.017 531.805L161.785 565C110.607 556.435 81.2158 450.028 68.122 386.432L46.9606 266.305L0 -0.000488281L961 26.6223Z" fill="#F7E174"/>
<path opacity="0.54" d="M651.183 529.39L161.785 565C110.607 556.435 81.2159 450.028 68.1221 386.432L46.9607 266.305C140.418 268.617 460.45 294.181 651.183 529.39Z" fill="url(#paint0_linear)"/>
<path d="M912.917 304.59L907.6 335.342L876.872 512.975L715.54 524.708L661.547 528.604L651.193 529.357L618.017 531.805C618.904 530.587 620.2 529.493 621.824 528.591C623.449 527.689 625.365 526.999 627.454 526.565C633.688 525.137 635.414 521.689 636.212 518.065C637.15 513.721 639.793 511.572 648.335 510.592C658.799 509.355 668.853 507.089 678.093 503.884C688.447 500.306 697.259 494.423 710.449 493.878C711.884 493.813 713.922 492.495 714.289 491.566C714.656 490.638 713.782 488.761 712.628 488.469C706.923 487.027 707.235 484.819 706.707 481.423C706.027 477.437 708.379 474.281 708.864 470.735C709.792 463.326 718.064 459.197 725.776 454.645C726.329 454.32 727.055 454.122 727.825 454.086C739.323 454.086 740.897 448.366 744.446 443.749C745.494 442.549 746.647 441.383 747.897 440.256C752.212 435.97 756.008 431.73 756.213 426.399C756.288 424.496 760.398 422.503 763.073 420.814C766.535 418.607 770.18 416.763 769.22 413.1C768.713 411.152 769.997 408.971 770.989 406.984C774.926 399.062 779.057 391.172 783.112 383.27C783.188 383.127 783.112 382.867 783.22 382.828C791.104 380.51 790.296 373.088 800.477 372.095C802.195 371.879 803.726 371.298 804.791 370.458C814.099 362.666 823.526 354.874 832.273 346.803C835.671 343.673 837.364 339.875 839.953 336.414C840.643 335.492 841.592 334.044 842.735 333.927C850.942 333.017 859.222 332.366 867.542 331.979C873.172 331.765 878.554 332.278 881.704 328.362C883.052 326.674 886.385 325.602 888.391 324.05C896.667 317.609 904.843 311.122 912.917 304.59Z" fill="#47F066"/>
<path d="M889.631 182.554C892.867 185.833 896.275 187.833 896.265 189.826C896.265 191.125 891.141 193.359 888.316 193.372C883.451 193.372 879.568 191.053 880.971 187.878C881.704 186.209 885.436 185.06 889.631 182.554Z" fill="#47F066"/>
<g opacity="0.47">
<path opacity="0.47" d="M907.601 335.342L876.872 512.975L715.541 524.708L661.548 528.604C663.031 526.922 663.94 525.079 664.223 523.182C665.161 518.838 667.803 516.689 676.346 515.708C686.824 514.474 696.893 512.208 706.146 509.001C716.501 505.423 725.313 499.54 738.503 498.994C739.938 498.93 741.976 497.611 742.343 496.683C742.71 495.754 741.836 493.878 740.682 493.585C734.976 492.144 735.289 489.936 734.761 486.54C734.081 482.553 736.433 479.398 736.918 475.852C737.845 468.443 746.118 464.313 753.83 459.762C754.383 459.437 755.108 459.239 755.879 459.203C767.376 459.203 768.951 453.483 772.5 448.866C773.548 447.666 774.701 446.5 775.951 445.372C780.265 441.087 784.062 436.846 784.267 431.515C784.342 429.613 788.452 427.619 791.127 425.931C794.589 423.723 798.234 421.879 797.274 418.217C796.767 416.269 798.051 414.087 799.043 412.1C802.98 404.178 807.111 396.289 811.166 388.387C811.242 388.244 811.166 387.984 811.274 387.945C819.158 385.627 818.35 378.205 828.531 377.211C830.249 376.995 831.78 376.415 832.845 375.575C842.153 367.751 851.58 359.991 860.327 351.92C863.725 348.79 865.418 344.991 868.007 341.53C868.697 340.608 869.646 339.16 870.789 339.044C878.996 338.133 887.276 337.483 895.596 337.096C900.072 336.953 904.43 337.245 907.601 335.342Z" fill="#39C75A"/>
<path opacity="0.47" d="M661.785 369.919C660.706 372.556 658.549 375.172 658.549 377.802C658.549 385.166 651.474 388.263 642.155 389.107C636.234 385.12 633.678 379.172 635.565 372.114C635.997 370.624 636.569 369.15 637.28 367.699C639.89 362.952 645.164 359.816 651.582 358.673C654.526 359.744 657.438 360.855 660.286 362.004C665.538 364.134 662.917 367.166 661.785 369.919Z" fill="#39C75A"/>
</g>
</g>
<defs>
<linearGradient id="paint0_linear" x1="426.291" y1="351.342" x2="259.948" y2="627.643" gradientUnits="userSpaceOnUse">
<stop stop-color="#F7C75B"/>
<stop offset="1" stop-color="#F7E174"/>
</linearGradient>
<clipPath id="clip0">
<rect width="961" height="565" fill="white" transform="translate(0 -0.000488281)"/>
</clipPath>
</defs>
</svg>
