<svg width="483" height="1333" viewBox="0 0 483 1333" fill="none" xmlns="http://www.w3.org/2000/svg">
<path d="M-333.872 152.3C-329.894 152.391 -326.11 154.056 -324.318 159.432C-323.79 161.019 -320.93 162.543 -318.972 162.773C-316.231 163.085 -315.684 160.838 -315.943 158.286C-315.862 157.758 -315.642 157.261 -315.306 156.847C-314.969 156.432 -314.528 156.115 -314.027 155.928C-313.425 155.891 -312.823 155.99 -312.265 156.218C-311.707 156.446 -311.208 156.798 -310.804 157.246C-308.577 160.288 -307.032 163.893 -304.488 166.586C-302.691 168.379 -300.26 169.392 -297.722 169.407C-293.719 169.154 -291.247 170.512 -289.744 173.909C-287.102 179.892 -283.404 184.648 -277.135 187.389C-275.664 188.042 -274.77 190.972 -274.442 192.985C-274.083 195.202 -274.775 197.562 -274.861 199.891C-275.236 207.1 -272.639 209.061 -265.605 206.979C-261.992 205.901 -258.362 204.914 -254.737 203.854C-247.828 201.904 -241.907 197.424 -238.151 191.306C-235.613 187.252 -231.626 186.505 -228.849 189.056C-222.233 195.116 -214.505 195.951 -205.692 195.566C-204.133 191.386 -201.047 189.68 -195.582 190.815C-192.484 191.449 -188.937 189.305 -185.562 188.76C-184.04 188.484 -181.764 188.643 -180.932 189.62C-175.48 195.677 -169.68 191.971 -163.931 190.614C-163.78 190.573 -163.651 190.429 -163.499 190.366C-156.131 187.184 -154.29 187.496 -150.502 194.175C-148.436 197.816 -146.001 200.238 -141.855 200.877C-141.013 201.025 -140.227 201.399 -139.581 201.958C-131.548 208.905 -122.53 207.045 -113.61 204.655C-106.31 202.692 -98.8021 202.627 -92.1933 205.381C-88.0804 207.097 -85.4606 212.339 -82.1089 215.914C-79.2954 218.901 -76.7483 222.369 -73.3765 224.489C-71.1019 225.929 -67.5944 225.414 -64.6401 225.757C-63.0434 225.952 -61.2636 225.709 -59.8809 226.334C-53.8625 229.07 -47.9581 232.063 -41.9034 235.016C-36.3481 231.734 -31.287 234.148 -29.8344 241.072C-29.4673 243.021 -29.2443 244.995 -29.1673 246.976C-28.7534 253.739 -25.6828 258.041 -19.3569 259.984C-18.231 260.334 -16.6432 259.484 -15.3238 258.999C-11.1999 257.396 -8.2492 259.365 -9.2923 263.532C-10.9025 269.981 -9.8786 275.988 -7.55848 281.969C-7.3218 282.579 -6.91733 283.378 -7.12537 283.859C-11.3298 293.521 -0.586229 295.013 2.44593 300.701C3.63424 302.923 8.7351 302.808 11.7423 304.359C15.8483 306.487 18.5365 310.591 24.4604 310.051C28.4673 309.65 31.4222 315.433 31.58 319.819C31.7313 323.717 32.88 327.567 33.1107 331.488C33.2614 334.127 33.4718 337.562 32.0287 339.362C26.0349 346.963 26.2796 356.919 33.1775 364.112C35.5344 366.57 37.4864 369.429 39.7947 371.951C40.6389 372.889 42 373.351 43.1182 374.054C44.9785 375.232 47.2942 376.061 48.6029 377.694C50.8714 380.505 53.2973 380.844 56.5311 379.962C63.1967 378.037 65.0518 379.824 65.3674 386.657C65.4645 389.369 67.2427 391.989 68.074 394.71C68.8652 396.913 69.3675 399.21 69.5681 401.542C69.5819 403.531 69.1279 405.496 68.2426 407.278C66.5287 410.826 68.2864 411.922 71.2871 412.984C74.6951 414.202 77.9247 415.928 81.2248 417.452C82.2793 417.945 83.2688 418.851 84.3498 418.979C96.1435 420.292 95.117 431.05 98.5324 438.414C100.756 443.243 102.021 448.511 103.484 453.697C104.161 456.086 104.984 458.72 104.61 461.068C103.773 466.358 104.167 470.315 109.038 474.017C113.054 477.063 115.676 482.041 119.033 486.046C121.808 489.38 124.789 492.556 127.654 495.815C128.517 496.799 129.693 497.743 130.044 498.915C132.442 506.882 138.611 510.236 145.924 512.31C149.029 513.191 152.177 515.019 155.19 514.819C159.271 514.531 163.228 512.659 167.264 511.548C170.881 510.542 174.509 509.438 178.204 508.8C179.682 508.742 181.126 509.257 182.235 510.238C187.177 514.477 192.346 514.724 198.149 512.093C198.88 511.794 199.663 511.643 200.453 511.647C201.244 511.651 202.025 511.812 202.753 512.119C207.765 514.678 212.723 517.39 217.47 520.408C225.247 525.337 225.038 534.881 217.364 540.312C214.159 542.583 211.557 545.85 208.175 547.708C202.402 550.887 196.65 554.91 189.414 553.042C188.799 552.799 188.132 552.716 187.475 552.8C179.695 555.237 170.991 553.352 163.593 558.007C159.765 560.416 155.616 559.822 151.93 557.047C146.899 553.241 142.575 555.11 137.316 557.558C130.873 560.559 129.494 562.788 134.911 567.924C137.043 569.952 138.126 573.037 140.16 575.193C144.306 579.572 144.283 584.732 139.982 590.101C143.64 594.926 147.599 599.429 150.66 604.487C152.473 607.486 152.444 611.557 153.973 614.749C156.301 619.557 161.062 623.83 161.6 628.678C162.319 635.433 165.241 641.092 166.888 647.239C168.096 651.747 164.78 657.65 162.943 662.732C161.456 666.827 160.183 670.272 162.421 674.856C164.332 678.765 164.122 683.69 165.098 688.098C165.554 689.791 166.298 691.391 167.296 692.831C170.326 697.583 172.934 702.287 168.555 707.692C167.955 708.679 167.489 709.742 167.169 710.852C172.301 716.182 172.376 722.473 168.006 728.483C166.697 730.29 166.249 732.965 166.079 735.28C165.75 739.709 165.081 743.549 161.071 746.534C158.403 748.515 156.102 750.881 158.684 755.548C160.824 759.381 160.042 764.496 156.579 768.374C153.398 771.883 150.912 775.69 151.681 780.857C151.844 781.875 150.883 783.121 150.295 784.179C148.207 787.916 145.664 791.459 144.022 795.384C142.125 799.889 145.729 803.667 150.157 805.577C154.043 807.266 156.927 811.252 160.285 814.196C163.643 817.139 164.726 821.863 170.288 822.869C172.496 823.266 175.021 827.911 175.347 830.767C175.58 833.003 173.001 836.271 170.795 837.792C168.416 839.432 167.524 840.257 168.772 843.136C170.939 848.163 168.115 852.433 165.062 855.821C160.149 861.252 161.723 866.664 163.677 872.4C164.083 873.557 164.632 875.087 164.198 876.037C162.293 880.237 162.744 884.297 165.701 887.436C168.525 890.41 171.817 892.904 175.445 894.817C183.688 899.16 191.171 903.18 194.038 913.634C198.47 929.957 193.152 939.588 176.027 942.31C171.44 943.034 165.963 949.56 165.46 954.893C165.174 957.868 169.794 963.965 172.939 965.758C175.331 967.113 177.416 968.95 179.062 971.152C181.492 974.564 184.166 976.512 188.525 975.842C189.665 975.669 191.494 976.02 192.082 976.822C194.802 980.355 197.234 984.099 199.358 988.02C201.812 992.809 203.187 998.187 205.861 1002.76C208.252 1006.81 208.479 1010.04 205.131 1013.28C201.586 1016.72 197.992 1014.21 194.532 1013.04C192.208 1012.26 190.105 1010.81 187.783 1010.01C187.167 1009.78 186.512 1009.68 185.856 1009.71C185.2 1009.74 184.557 1009.9 183.964 1010.18C178.568 1014.09 172.404 1016.93 167.995 1022.22C163.587 1027.52 158.793 1032.38 154.272 1037.53C153.24 1038.6 152.519 1039.93 152.186 1041.38C151.059 1048.82 150.21 1056.25 149.199 1063.68C148.635 1067.77 146.56 1070.85 142.465 1072.04C139.606 1072.86 136.692 1073.47 133.745 1073.86C127.224 1074.72 123.708 1077.99 122.559 1084.52C121.25 1091.85 114.909 1096.35 107.273 1095.42C101.401 1094.7 94.2261 1099.67 91.4784 1104.77C87.8722 1111.56 84.032 1118.81 77.1496 1122.63C72.8249 1125.04 67.1916 1125.52 62.0606 1125.99C56.3216 1126.51 53.243 1128.46 53.1519 1134.16C53.0412 1140.63 41.9689 1149.16 34.8312 1149.33C33.6701 1149.34 32.5541 1149.27 31.8025 1149.25C29.9526 1153.28 28.4487 1157.06 26.5189 1160.63C24.5892 1164.19 18.9519 1166.37 13.8154 1165.29C7.35947 1163.87 0.962619 1161.99 -5.52106 1160.66C-8.41958 1160.06 -11.493 1160.28 -14.4843 1160.18C-15.1416 1160.16 -15.9835 1160.68 -16.4339 1160.42C-25.321 1155.39 -31.6804 1163.49 -39.3159 1164.85C-40.1675 1165.01 -41.0317 1166.35 -41.4665 1167.32C-44.0549 1173.12 -48.2678 1174.94 -53.6512 1171.92C-56.7603 1170.13 -59.4834 1169.15 -62.7147 1171.4C-63.582 1171.92 -64.6094 1172.11 -65.6046 1171.93C-72.6385 1170.51 -79.9182 1169.68 -86.5454 1167.16C-90.2293 1165.76 -92.7354 1161.46 -97.5595 1161.52C-100.267 1161.55 -103.143 1160.35 -105.66 1160.93C-115.428 1163.18 -124.007 1160.34 -132.177 1155.45C-134.967 1153.79 -137.564 1152.34 -140.995 1153.61C-141.623 1153.83 -142.289 1153.93 -142.955 1153.89C-143.62 1153.85 -144.27 1153.67 -144.865 1153.37C-146.722 1152.11 -148.833 1151.26 -151.05 1150.89C-153.267 1150.53 -155.538 1150.65 -157.704 1151.25C-158.85 1151.53 -161.631 1149.35 -162 1147.89C-164.168 1139.22 -164.144 1139.72 -172.184 1137.53C-175.698 1136.57 -179.028 1133.38 -181.462 1130.42C-184.433 1126.65 -188.575 1123.97 -193.236 1122.81C-196.649 1121.9 -199.724 1119.69 -202.91 1117.99C-204.387 1117.28 -205.78 1116.42 -207.065 1115.4C-209.446 1113.35 -212.276 1111.45 -213.79 1108.83C-216.249 1104.57 -226.646 1099.1 -231.509 1100.4C-232.149 1100.54 -232.746 1100.84 -233.249 1101.26C-237.589 1105.55 -242.095 1109.72 -246.145 1114.27C-251.329 1120.09 -258.584 1120.88 -265.381 1121.93C-267.118 1122.2 -270.6 1117.67 -271.551 1114.78C-272.666 1111.41 -273.954 1110.1 -277.373 1110.18C-280.339 1110.26 -296.24 1098.86 -297.358 1096.44C-299.145 1092.39 -301.17 1088.46 -303.421 1084.66C-307.836 1077.61 -307.648 1077.98 -302.115 1071.34C-298.366 1066.67 -295.22 1061.55 -292.751 1056.1C-291.856 1054.19 -293.118 1050.95 -294.042 1048.57C-296.26 1042.83 -292.293 1031.38 -286.82 1028.64C-286.208 1028.39 -285.582 1028.17 -284.944 1027.99C-276.754 1025.01 -272.604 1016.92 -273.716 1008.21C-274.36 1003.1 -273.27 997.796 -273.298 992.583C-273.326 990.734 -273.89 988.932 -274.922 987.396C-277.125 984.312 -277.626 981.459 -275.345 978.249C-274.591 977.184 -273.623 975.907 -273.638 974.732C-273.703 968.124 -269.77 965.072 -264.233 962.842C-258.168 960.338 -256.086 951.61 -259.995 946.201C-260.657 945.05 -261.417 943.958 -262.267 942.938C-266.779 938.612 -267.542 933.553 -265.345 927.928C-263.707 923.712 -264.568 920.582 -268.691 918.363C-272.814 916.145 -275.667 912.927 -275.609 907.706C-275.575 903.327 -278.62 900.922 -282.125 898.991C-286.301 896.684 -287.829 894.231 -286.802 888.612C-285.551 881.698 -285.455 874.625 -286.517 867.68C-287.67 859.936 -291.534 852.209 -288.977 843.94C-288.69 843.043 -289.553 841.298 -290.399 840.682C-291.244 840.067 -293.392 839.867 -293.934 840.466C-296.77 843.378 -298.917 842.277 -302.496 841.296C-306.696 840.13 -309.357 837.439 -312.831 835.756C-320.133 832.244 -322.344 825.553 -325.115 819.034C-325.311 818.566 -325.337 818.044 -325.188 817.56C-322.428 810.539 -327.856 807.301 -331.697 803.294C-332.666 802.175 -333.575 801.006 -334.422 799.793C-337.717 795.5 -341.147 791.441 -346.488 789.212C-348.402 788.407 -349.432 785.111 -350.52 782.796C-351.931 779.799 -352.902 776.802 -356.872 775.977C-358.924 775.531 -360.875 773.85 -362.66 772.462C-369.763 766.906 -376.771 761.243 -383.826 755.623C-383.964 755.543 -384.238 755.477 -384.241 755.383C-384.712 749.638 -392.406 747.205 -390.999 740.547C-390.806 739.409 -391.029 738.24 -391.625 737.252C-397.339 728.468 -402.985 719.608 -409.038 711.033C-411.406 707.714 -414.882 705.153 -417.786 702.183C-418.559 701.402 -419.806 700.243 -419.689 699.48C-418.645 694.095 -417.323 688.769 -415.729 683.521C-414.6 680.005 -412.792 676.915 -416.016 673.437C-417.448 671.918 -417.691 669.479 -418.785 667.635C-423.409 659.87 -428.118 652.147 -432.914 644.467C-433.705 643.399 -434.684 642.486 -435.803 641.771C-438.665 639.729 -440.732 636.761 -441.653 633.368C-442.573 629.976 -442.292 626.37 -440.856 623.162C-440.222 621.784 -438.817 620.031 -437.541 619.821C-431.298 618.807 -431.439 614.291 -431.565 609.669C-431.635 607.031 -431.664 604.381 -431.69 601.745C-431.734 596.523 -430.705 591.021 -435.997 587.307C-440.417 584.201 -439.704 580.248 -437.126 576.482C-435.32 573.853 -435.817 571.615 -436.262 568.645C-437.425 560.86 -440.344 552.535 -433.572 545.626C-430.741 542.722 -431.753 539.875 -434.008 537.741C-439.38 532.665 -439.308 527.222 -436.513 520.96C-435.404 518.358 -434.808 515.566 -434.756 512.737C-434.67 508.249 -432.298 505.739 -428.701 503.809C-423.076 500.786 -422.399 497.274 -425.725 491.774C-427.86 488.232 -432.225 484.892 -427.571 479.912C-427.087 479.394 -429.138 474.966 -430.796 474.297C-434.369 472.846 -438.523 472.942 -442.309 471.899C-447.669 470.422 -452.866 468.345 -458.204 466.81C-462.225 465.593 -466.333 464.684 -470.491 464.092C-473.062 463.797 -475.539 462.957 -477.759 461.628C-479.978 460.299 -481.889 458.511 -483.362 456.385C-484.569 454.647 -485.978 453.059 -487.558 451.652C-491.483 448.451 -492.373 444.473 -489.51 440.353C-486.949 436.658 -485.951 433.17 -487.081 428.326C-488.659 421.56 -488.84 414.412 -489.217 407.405C-489.237 405.431 -489.767 403.496 -490.755 401.787C-491.742 400.078 -493.154 398.653 -494.854 397.649C-502.146 392.839 -510.304 388.729 -516.076 382.406C-520.164 377.968 -520.933 370.48 -523.172 364.338C-523.193 364.256 -523.195 364.171 -523.178 364.089C-523.16 364.007 -523.124 363.93 -523.072 363.864C-515.921 360.118 -517.621 350.522 -511.105 346.017C-508.01 343.877 -505.448 340.599 -506.151 335.436C-506.754 329.529 -506.507 323.566 -505.419 317.729C-504.977 315.063 -502.093 312.849 -500.507 310.3C-498.92 307.752 -496.629 304.964 -496.054 302.028C-495.032 295.901 -494.389 289.717 -494.127 283.511C-494.023 282.07 -494.991 280.507 -495.658 279.082C-496.459 277.35 -498.486 275.521 -498.219 274.059C-497.183 268.503 -495.454 263.069 -493.925 257.601C-493.853 257.361 -493.725 257.142 -493.552 256.961C-493.379 256.78 -493.167 256.642 -492.931 256.558C-485.861 255.733 -486.842 251.333 -487.996 246.371C-488.517 244.153 -487.286 241.562 -487.669 239.285C-488.463 235.151 -489.517 231.072 -490.825 227.071C-491.75 224.054 -491.173 221.674 -488.269 220.464C-485.365 219.254 -482.269 218.431 -479.283 217.361C-478.384 217.131 -477.571 216.646 -476.942 215.964C-472.406 209.068 -468.193 201.951 -463.409 195.245C-461.277 192.273 -458.682 190.018 -458.334 185.854C-458.086 182.926 -450.522 180.065 -446.526 180.582C-441.525 181.241 -440.989 180.592 -442.715 175.981C-443.483 173.791 -443.565 171.418 -442.948 169.18C-442.33 166.943 -441.044 164.947 -439.261 163.46C-438.013 162.438 -436.473 161.41 -435.861 160.031C-434.065 155.999 -431.572 153.582 -426.805 153.886C-425.801 153.946 -424.711 152.439 -423.628 151.702C-417.356 147.379 -416.638 138.036 -408.692 135.233C-407.667 134.72 -406.583 134.334 -405.465 134.083C-397.015 133.327 -389.216 130.52 -381.318 127.54C-374.355 124.92 -366.825 123.737 -359.513 122.092C-356.443 121.394 -353.177 120.438 -350.188 120.86C-345.119 121.581 -341.296 126.94 -341.214 132.057C-341.196 133.026 -341.428 134.728 -341.103 134.846C-331.7 138.219 -339.345 147.281 -333.872 152.3Z" fill="#303030"/>
<path d="M-442.374 856.412C-443.784 855.555 -445.143 854.616 -446.444 853.6C-454.096 847.254 -454.174 837.59 -446.586 831.267C-442.775 828.086 -438.846 825.02 -434.778 822.196C-431.352 819.821 -428.908 822.629 -426.386 824.42C-423.864 826.211 -421.81 828.494 -419.158 829.54C-410.196 833.097 -409.897 840.36 -412.76 847.759C-417.55 860.155 -429.869 863.793 -442.374 856.412Z" fill="#303030"/>
<path d="M-341.492 106.839C-347.394 103.062 -353.022 99.1087 -355.588 91.9342C-356.749 89.0448 -358.057 86.2164 -359.506 83.46C-359.936 82.565 -360.928 81.7035 -360.874 80.869C-360.697 77.9227 -360.194 74.9915 -359.803 72.0536C-357.124 73.2538 -353.739 73.8109 -351.891 75.79C-348.242 79.7097 -344.451 84.0232 -342.544 88.9001C-340.482 94.1895 -340.499 100.299 -339.603 106.048L-341.492 106.839Z" fill="#303030"/>
<path d="M-562.009 610.706C-557.906 610.038 -555.089 608.72 -553.038 609.546C-551.76 610.053 -550.675 614.074 -551.344 615.813C-552.494 618.786 -555.789 620.232 -558.677 618.115C-560.192 616.998 -560.502 614.255 -562.009 610.706Z" fill="#303030"/>
<path d="M-194.491 1205.08C-198.31 1203.97 -201.534 1201.38 -201.873 1195.72C-201.972 1194.05 -204.341 1191.84 -206.173 1191.11C-208.739 1190.1 -209.85 1192.13 -210.26 1194.66C-210.474 1195.15 -210.815 1195.57 -211.248 1195.89C-211.68 1196.2 -212.189 1196.39 -212.72 1196.44C-213.311 1196.32 -213.868 1196.07 -214.348 1195.71C-214.828 1195.34 -215.219 1194.87 -215.492 1194.33C-216.857 1190.82 -217.416 1186.94 -219.176 1183.68C-220.448 1181.48 -222.534 1179.87 -224.982 1179.2C-228.913 1178.41 -230.95 1176.46 -231.522 1172.79C-232.527 1166.33 -234.867 1160.77 -240.213 1156.5C-241.464 1155.49 -241.57 1152.43 -241.365 1150.4C-241.139 1148.17 -239.859 1146.07 -239.173 1143.84C-236.946 1136.97 -238.947 1134.41 -246.28 1134.6C-250.049 1134.7 -253.81 1134.72 -257.586 1134.8C-264.765 1134.9 -271.644 1137.69 -276.855 1142.63C-280.355 1145.89 -284.4 1145.58 -286.422 1142.4C-291.245 1134.83 -298.493 1132.02 -307.105 1130.11C-309.693 1133.75 -313.116 1134.6 -318.101 1132.09C-320.929 1130.67 -324.91 1131.83 -328.311 1131.48C-329.853 1131.35 -332.009 1130.61 -332.561 1129.45C-336.259 1122.19 -342.821 1124.27 -348.725 1124.09C-348.881 1124.09 -349.044 1124.2 -349.206 1124.22C-357.147 1125.38 -358.844 1124.61 -360.775 1117.17C-361.828 1113.12 -363.553 1110.15 -367.393 1108.46C-368.168 1108.1 -368.83 1107.54 -369.309 1106.83C-375.27 1098.04 -384.463 1097.5 -393.697 1097.5C-401.256 1097.51 -408.525 1095.63 -414.196 1091.26C-417.725 1088.54 -418.899 1082.8 -421.211 1078.47C-423.155 1074.86 -424.718 1070.85 -427.426 1067.93C-429.251 1065.95 -432.772 1065.54 -435.537 1064.45C-437.029 1063.84 -438.811 1063.62 -439.985 1062.66C-445.09 1058.46 -450.018 1054.04 -455.103 1049.62C-461.318 1051.35 -465.582 1047.71 -465.193 1040.64C-465.043 1038.67 -464.748 1036.7 -464.309 1034.77C-462.959 1028.13 -464.811 1023.18 -470.418 1019.66C-471.416 1019.04 -473.169 1019.45 -474.569 1019.57C-478.967 1020.05 -481.308 1017.39 -479.222 1013.63C-475.998 1007.82 -475.432 1001.75 -476.125 995.376C-476.196 994.725 -476.379 993.848 -476.054 993.438C-469.492 985.193 -479.484 980.972 -480.94 974.693C-481.513 972.239 -486.47 971.03 -488.973 968.753C-492.388 965.635 -493.923 960.975 -499.785 959.964C-503.759 959.313 -505.116 952.963 -504.133 948.685C-503.271 944.881 -503.384 940.865 -502.592 937.018C-502.054 934.43 -501.369 931.057 -499.509 929.693C-491.752 923.901 -489.411 914.221 -494.213 905.488C-495.853 902.504 -496.999 899.237 -498.575 896.204C-499.148 895.08 -500.343 894.281 -501.241 893.312C-502.733 891.693 -504.756 890.293 -505.597 888.376C-507.061 885.074 -509.316 884.119 -512.668 884.134C-519.605 884.268 -520.934 882.062 -519.47 875.38C-518.862 872.735 -519.902 869.744 -520.001 866.901C-520.195 864.568 -520.086 862.22 -519.676 859.915C-519.174 857.99 -518.227 856.21 -516.911 854.718C-514.337 851.734 -515.751 850.221 -518.374 848.418C-521.351 846.36 -524.024 843.857 -526.817 841.53C-527.708 840.781 -528.43 839.65 -529.441 839.247C-540.493 834.926 -536.717 824.8 -538.11 816.803C-539.008 811.563 -538.866 806.147 -538.937 800.759C-538.973 798.277 -539.086 795.519 -538.117 793.348C-535.939 788.455 -535.296 784.531 -539.043 779.694C-542.133 775.713 -543.378 770.226 -545.584 765.488C-547.401 761.55 -549.459 757.71 -551.382 753.821C-551.962 752.647 -552.853 751.431 -552.888 750.208C-553.143 741.892 -558.234 737.055 -564.761 733.159C-567.533 731.505 -570.099 728.924 -573.062 728.337C-577.078 727.559 -581.385 728.344 -585.571 728.372C-589.326 728.407 -593.116 728.535 -596.849 728.195C-598.292 727.868 -599.554 726.997 -600.371 725.763C-604.048 720.389 -608.976 718.812 -615.262 719.851C-616.046 719.951 -616.842 719.895 -617.604 719.686C-618.366 719.478 -619.079 719.12 -619.703 718.635C-623.882 714.866 -627.969 710.963 -631.773 706.82C-638.01 700.045 -635.337 690.881 -626.519 687.622C-622.835 686.257 -619.477 683.775 -615.729 682.856C-609.33 681.279 -602.732 678.882 -596.227 682.559C-595.695 682.953 -595.073 683.206 -594.417 683.294C-586.271 682.955 -578.351 687.028 -570 684.447C-565.68 683.11 -561.826 684.758 -558.984 688.392C-555.109 693.37 -550.449 692.684 -544.735 691.68C-537.735 690.45 -535.826 688.654 -539.729 682.29C-541.264 679.78 -541.511 676.52 -542.918 673.911C-545.789 668.607 -544.431 663.629 -538.888 659.556C-541.172 653.949 -543.83 648.575 -545.478 642.897C-546.454 639.531 -545.372 635.607 -546.022 632.128C-547.026 626.881 -550.52 621.521 -549.784 616.699C-548.731 609.988 -550.088 603.766 -550.088 597.402C-550.088 592.735 -545.358 587.891 -542.268 583.458C-539.772 579.887 -537.65 576.889 -538.626 571.882C-539.46 567.611 -537.983 562.909 -537.785 558.398C-537.787 556.645 -538.091 554.907 -538.683 553.257C-540.38 547.883 -541.681 542.665 -536.052 538.578C-535.217 537.779 -534.492 536.873 -533.896 535.884C-537.473 529.406 -535.918 523.311 -530.141 518.637C-528.408 517.23 -527.284 514.762 -526.52 512.57C-525.057 508.377 -523.416 504.842 -518.771 502.996C-515.68 501.773 -512.845 500.083 -514.132 494.907C-515.207 490.65 -513.128 485.912 -508.779 483.063C-504.798 480.496 -501.411 477.462 -500.817 472.272C-500.711 471.247 -499.459 470.292 -498.618 469.423C-495.634 466.354 -492.261 463.589 -489.659 460.223C-486.661 456.362 -489.164 451.78 -492.947 448.789C-496.263 446.152 -498.017 441.555 -500.499 437.843C-502.981 434.131 -502.804 429.287 -507.916 426.876C-509.946 425.921 -511.183 420.781 -510.759 417.938C-510.405 415.718 -507.068 413.229 -504.544 412.331C-501.821 411.362 -500.746 410.796 -501.206 407.692C-501.998 402.276 -498.165 398.882 -494.34 396.4C-488.188 392.426 -488.308 386.79 -488.711 380.744C-488.803 379.521 -488.938 377.902 -488.273 377.096C-485.346 373.532 -484.73 369.494 -486.774 365.697C-488.732 362.093 -491.266 358.832 -494.276 356.045C-501.114 349.716 -507.301 343.897 -507.365 333.057C-507.421 316.143 -499.792 308.216 -482.545 310.019C-477.928 310.507 -470.949 305.621 -469.082 300.601C-468.036 297.801 -470.921 290.715 -473.494 288.17C-475.454 286.241 -476.993 283.928 -478.013 281.375C-479.477 277.45 -481.555 274.876 -485.94 274.395C-487.085 274.268 -488.761 273.455 -489.122 272.529C-490.834 268.412 -492.215 264.165 -493.251 259.829C-494.382 254.568 -494.319 249.017 -495.719 243.912C-496.978 239.372 -496.362 236.198 -492.289 233.935C-487.976 231.531 -485.155 234.889 -482.114 236.912C-480.071 238.262 -478.416 240.214 -476.379 241.586C-475.844 241.965 -475.237 242.233 -474.596 242.374C-473.955 242.515 -473.292 242.526 -472.646 242.406C-466.423 240.03 -459.734 238.885 -454.106 234.911C-448.477 230.937 -442.587 227.479 -436.888 223.675C-435.614 222.906 -434.573 221.807 -433.875 220.493C-430.863 213.605 -428.119 206.648 -425.22 199.732C-423.615 195.921 -420.815 193.488 -416.551 193.396C-413.578 193.346 -410.605 193.511 -407.656 193.891C-401.136 194.754 -396.894 192.505 -394.093 186.495C-390.933 179.756 -383.642 177.048 -376.508 179.926C-371.021 182.132 -362.804 179.191 -358.83 174.976C-353.59 169.355 -348.004 163.344 -340.367 161.435C-335.566 160.226 -330.001 161.223 -324.924 162.1C-319.246 163.083 -315.767 161.994 -314.205 156.514C-312.423 150.291 -299.518 144.91 -292.581 146.6C-291.457 146.89 -290.396 147.244 -289.675 147.456C-286.847 144.047 -284.414 140.78 -281.628 137.839C-278.842 134.897 -272.832 134.247 -268.151 136.623C-262.282 139.663 -256.589 143.135 -250.671 146.098C-248.026 147.427 -245 148.007 -242.136 148.877C-241.507 149.068 -240.559 148.785 -240.192 149.153C-232.908 156.309 -224.671 150.136 -216.942 150.793C-216.079 150.864 -214.899 149.796 -214.227 148.969C-210.224 144.033 -205.685 143.369 -201.265 147.675C-198.727 150.213 -196.351 151.868 -192.646 150.524C-191.673 150.246 -190.633 150.331 -189.718 150.765C-183.291 153.954 -176.474 156.641 -170.726 160.792C-167.529 163.097 -166.221 167.898 -161.547 169.093C-158.924 169.765 -156.456 171.667 -153.875 171.759C-143.855 172.105 -136.304 177.069 -129.678 183.907C-127.415 186.24 -125.28 188.305 -121.638 187.973C-120.974 187.918 -120.305 187.999 -119.673 188.211C-119.041 188.422 -118.459 188.76 -117.961 189.203C-116.495 190.906 -114.675 192.27 -112.629 193.198C-110.582 194.126 -108.357 194.597 -106.11 194.577C-104.929 194.598 -102.808 197.427 -102.829 198.933C-102.978 207.864 -102.872 207.376 -95.6732 211.576C-92.5266 213.407 -90.1365 217.353 -88.5526 220.846C-86.6591 225.259 -83.3503 228.916 -79.1481 231.241C-76.0863 233.001 -73.6893 235.936 -71.0518 238.404C-69.8084 239.467 -68.6867 240.664 -67.7071 241.975C-65.9394 244.577 -63.6978 247.143 -62.913 250.064C-61.6402 254.816 -53.0134 262.792 -47.9788 262.792C-47.3239 262.821 -46.6716 262.693 -46.0767 262.417C-40.7734 259.391 -35.3428 256.534 -30.2517 253.182C-23.7392 248.904 -16.5267 250.021 -9.68903 250.764C-7.94249 250.955 -5.75039 256.23 -5.58069 259.27C-5.3756 262.813 -4.47057 264.411 -1.14716 265.217C1.73784 265.91 14.1476 281.035 14.6002 283.666C15.28 288.033 16.2173 292.356 17.4074 296.613C19.8468 304.568 19.7619 304.157 12.698 309.143C7.8691 312.68 3.50497 316.811 -0.291587 321.439C-1.64922 323.051 -1.2674 326.502 -0.991615 329.041C-0.33401 335.157 -7.12925 345.191 -13.1255 346.421C-13.7821 346.508 -14.4433 346.555 -15.1054 346.563C-23.7887 347.326 -29.891 354.065 -31.0719 362.77C-31.7719 367.868 -34.1973 372.712 -35.5196 377.753C-35.9718 379.547 -35.8931 381.434 -35.2933 383.184C-33.964 386.733 -34.2185 389.618 -37.252 392.129C-38.2561 392.963 -39.5218 393.946 -39.8117 395.084C-41.4593 401.484 -46.0484 403.414 -51.9739 404.135C-58.4793 404.984 -62.7503 412.875 -60.3744 419.112C-60.033 420.395 -59.5812 421.647 -59.0238 422.852C-55.7853 428.198 -56.358 433.282 -59.9359 438.147C-62.6088 441.796 -62.5877 445.041 -59.1794 448.252C-55.7711 451.462 -53.8477 455.309 -55.2549 460.336C-56.4216 464.558 -54.1023 467.669 -51.2173 470.441C-47.7808 473.75 -46.9393 476.515 -49.3859 481.677C-52.3834 488.031 -54.3069 494.839 -55.0781 501.822C-55.9691 509.6 -54.2367 518.064 -58.847 525.39C-59.3561 526.182 -58.9743 528.091 -58.3167 528.904C-57.6591 529.718 -55.6367 530.467 -54.9579 530.029C-51.4648 527.95 -49.6758 529.569 -46.4726 531.443C-42.7179 533.656 -40.8441 536.944 -37.9237 539.469C-31.779 544.751 -31.3759 551.786 -30.386 558.801C-30.318 559.303 -30.4281 559.814 -30.6971 560.243C-35.1802 566.31 -30.7748 570.843 -28.102 575.708C-27.4563 577.039 -26.8805 578.403 -26.3767 579.795C-24.3049 584.794 -22.0421 589.602 -17.46 593.138C-15.8195 594.411 -15.6781 597.861 -15.2256 600.379C-14.6387 603.638 -14.4761 606.785 -10.8557 608.609C-8.9889 609.571 -7.53934 611.699 -6.17463 613.503C-0.751133 620.708 4.55219 627.991 9.91205 635.246C10.0252 635.359 10.2727 635.494 10.2514 635.586C9.21908 641.257 16.0215 645.598 12.9385 651.665C12.4583 652.714 12.3704 653.901 12.691 655.01C15.9366 664.973 19.0974 674.993 22.7248 684.843C24.1532 688.661 26.8473 692.034 28.8837 695.654C29.4282 696.609 30.3333 698.051 30.0222 698.758C27.6205 703.689 24.9653 708.492 22.0672 713.148C20.0661 716.252 17.5206 718.77 19.7338 722.963C20.7237 724.801 20.3278 727.22 20.9076 729.284C23.3636 737.982 25.9139 746.66 28.5585 755.32C29.0462 756.555 29.7555 757.691 30.6515 758.672C32.8871 761.384 34.115 764.787 34.1266 768.302C34.1382 771.817 32.9328 775.227 30.7151 777.954C29.7464 779.121 27.9362 780.45 26.6493 780.323C20.356 779.687 19.3237 784.085 18.2489 788.582C17.6337 791.149 16.9761 793.716 16.3185 796.268C15.0103 801.324 12.592 806.373 16.7427 811.33C20.2075 815.474 18.4963 819.108 15.0315 822.078C12.6061 824.15 12.5072 826.441 12.1677 829.425C11.2768 837.245 11.9414 846.042 3.61173 850.963C0.125702 853.035 0.366127 856.047 1.99248 858.692C5.86743 864.985 4.38955 870.225 0.0691237 875.549C-1.67562 877.776 -2.97452 880.319 -3.75635 883.038C-5.00085 887.351 -7.94239 889.161 -11.9163 890.095C-18.1318 891.558 -19.6945 894.776 -17.9055 900.949C-16.76 904.923 -13.4083 909.278 -19.1925 912.885C-19.7935 913.259 -18.9591 918.068 -17.5307 919.142C-14.4548 921.469 -10.4172 922.452 -7.03021 924.439C-2.23603 927.253 2.24702 930.605 7.00584 933.468C10.5745 935.685 14.3071 937.625 18.1711 939.274C20.5773 940.224 22.753 941.677 24.5529 943.535C26.3527 945.394 27.7352 947.615 28.608 950.05C29.3246 952.041 30.274 953.939 31.4364 955.707C34.3992 959.815 34.2295 963.888 30.3969 967.127C26.9675 970.033 25.1007 973.144 24.9381 978.115C24.7118 985.059 23.036 992.01 21.5864 998.876C21.0957 1000.79 21.1066 1002.79 21.6182 1004.7C22.1298 1006.61 23.1247 1008.35 24.5067 1009.76C30.305 1016.29 37.1215 1022.37 41.0601 1029.97C43.8603 1035.32 42.6653 1042.75 43.238 1049.26C43.2376 1049.35 43.2175 1049.43 43.1794 1049.51C43.1414 1049.58 43.0864 1049.65 43.0188 1049.7C35.1416 1051.46 34.3002 1061.17 26.8402 1063.84C23.2976 1065.1 19.9742 1067.61 19.3166 1072.78C18.3701 1078.64 16.589 1084.33 14.0274 1089.69C12.9102 1092.15 9.55147 1093.54 7.35944 1095.59C5.16741 1097.64 2.23287 1099.74 0.917661 1102.43C-1.65558 1108.09 -3.87772 1113.89 -5.73619 1119.82C-6.20995 1121.18 -5.67965 1122.94 -5.40387 1124.49C-5.07861 1126.37 -3.59368 1128.67 -4.23007 1130.01C-6.66958 1135.11 -9.7455 1139.91 -12.6376 1144.79C-12.7698 1145.01 -12.9499 1145.19 -13.1636 1145.32C-13.3773 1145.45 -13.6185 1145.52 -13.8679 1145.54C-20.9107 1144.51 -21.1016 1149.02 -21.2713 1154.11C-21.342 1156.38 -23.2017 1158.57 -23.4209 1160.87C-23.7239 1165.07 -23.7617 1169.28 -23.5341 1173.48C-23.4209 1176.64 -24.5947 1178.78 -27.7131 1179.2C-30.8314 1179.62 -34.0346 1179.61 -37.1954 1179.87C-38.1232 1179.86 -39.0344 1180.12 -39.8188 1180.62C-45.9847 1186.1 -51.8961 1191.89 -58.253 1197.13C-61.0814 1199.45 -64.1715 1200.95 -65.5857 1204.88C-66.5827 1207.65 -74.6296 1208.46 -78.356 1206.92C-83.0159 1204.99 -83.7018 1205.48 -83.228 1210.38C-83.0522 1212.69 -83.5878 1215.01 -84.7631 1217.01C-85.9384 1219.01 -87.6972 1220.6 -89.8041 1221.58C-91.2749 1222.24 -93.0285 1222.84 -93.976 1224.01C-96.755 1227.44 -99.7884 1229.13 -104.314 1227.6C-105.269 1227.29 -106.711 1228.46 -107.948 1228.89C-115.126 1231.44 -118.237 1240.28 -126.637 1240.93C-127.76 1241.16 -128.907 1241.26 -130.053 1241.21C-138.411 1239.75 -146.67 1240.44 -155.07 1241.28C-162.473 1242.01 -170.054 1241.2 -177.542 1240.9C-180.689 1240.78 -184.09 1240.85 -186.869 1239.67C-191.578 1237.67 -193.883 1231.5 -192.639 1226.54C-192.405 1225.6 -191.741 1224.01 -192.023 1223.81C-200.233 1218.12 -190.503 1211.35 -194.491 1205.08Z" fill="#47F066"/>
<path d="M92.5516 553.045C93.6916 554.238 94.7611 555.496 95.7548 556.814C101.504 564.924 99.0782 574.279 90.112 578.423C85.6078 580.509 81.0187 582.454 76.3588 584.129C72.4344 585.537 70.801 582.192 68.8281 579.809C66.8553 577.426 65.4623 574.69 63.1713 572.992C55.4355 567.237 57.0265 560.144 61.7076 553.738C69.5423 543.004 82.3834 542.679 92.5516 553.045Z" fill="#47F066"/>
<path d="M-198.897 1250.97C-194.173 1256.14 -189.761 1261.42 -189.138 1269.01C-188.765 1272.1 -188.234 1275.17 -187.547 1278.21C-187.364 1279.19 -186.628 1280.28 -186.897 1281.07C-187.83 1283.87 -189.075 1286.57 -190.213 1289.31C-192.49 1287.45 -195.616 1286.04 -196.888 1283.65C-199.399 1278.92 -201.944 1273.77 -202.524 1268.57C-203.146 1262.92 -201.548 1257.03 -200.926 1251.24L-198.897 1250.97Z" fill="#47F066"/>
<path d="M144.517 821.343C140.38 820.925 137.319 821.47 135.551 820.14C134.448 819.32 134.441 815.155 135.537 813.649C137.417 811.075 140.974 810.531 143.216 813.324C144.39 814.795 143.979 817.524 144.517 821.343Z" fill="#47F066"/>
</svg>
