<svg width="604" height="1266" viewBox="0 0 604 1266" fill="none" xmlns="http://www.w3.org/2000/svg">
<path d="M490.128 119.3C494.106 119.391 497.89 121.056 499.682 126.433C500.21 128.019 503.07 129.544 505.028 129.773C507.769 130.085 508.316 127.838 508.057 125.287C508.138 124.759 508.358 124.262 508.694 123.847C509.031 123.433 509.472 123.115 509.973 122.929C510.575 122.891 511.177 122.99 511.735 123.218C512.293 123.447 512.792 123.798 513.196 124.246C515.423 127.288 516.968 130.893 519.512 133.586C521.309 135.379 523.74 136.392 526.278 136.407C530.281 136.154 532.753 137.512 534.256 140.909C536.898 146.892 540.596 151.648 546.865 154.39C548.336 155.042 549.23 157.972 549.558 159.986C549.917 162.203 549.225 164.562 549.139 166.891C548.764 174.1 551.361 176.061 558.395 173.979C562.008 172.901 565.638 171.914 569.263 170.855C576.172 168.904 582.093 164.424 585.849 158.307C588.387 154.252 592.374 153.506 595.151 156.056C601.767 162.116 609.495 162.952 618.308 162.567C619.867 158.386 622.953 156.681 628.418 157.815C631.516 158.449 635.063 156.305 638.438 155.76C639.96 155.484 642.236 155.643 643.068 156.62C648.52 162.678 654.32 158.971 660.069 157.614C660.22 157.573 660.349 157.429 660.501 157.366C667.869 154.184 669.71 154.496 673.498 161.175C675.564 164.816 677.999 167.238 682.145 167.877C682.987 168.025 683.773 168.399 684.419 168.959C692.452 175.906 701.47 174.046 710.39 171.655C717.69 169.692 725.198 169.628 731.807 172.381C735.92 174.097 738.539 179.339 741.891 182.914C744.705 185.901 747.252 189.369 750.623 191.489C752.898 192.93 756.406 192.414 759.36 192.757C760.957 192.952 762.736 192.709 764.119 193.334C770.138 196.07 776.042 199.063 782.097 202.016C787.652 198.734 792.713 201.148 794.166 208.072C794.533 210.021 794.756 211.995 794.833 213.977C795.247 220.74 798.317 225.041 804.643 226.985C805.769 227.334 807.357 226.484 808.676 225.999C812.8 224.396 815.751 226.365 814.708 230.532C813.098 236.981 814.121 242.988 816.442 248.969C816.678 249.579 817.083 250.379 816.875 250.859C812.67 260.521 823.414 262.013 826.446 267.701C827.634 269.923 832.735 269.808 835.742 271.359C839.848 273.487 842.536 277.591 848.46 277.051C852.467 276.651 855.422 282.433 855.58 286.819C855.731 290.717 856.88 294.567 857.111 298.488C857.261 301.127 857.472 304.562 856.029 306.362C850.035 313.963 850.28 323.92 857.178 331.112C859.534 333.57 861.486 336.429 863.795 338.951C864.639 339.889 866 340.351 867.118 341.055C868.978 342.233 871.294 343.061 872.603 344.695C874.871 347.505 877.297 347.844 880.531 346.963C887.197 345.037 889.052 346.824 889.367 353.658C889.465 356.37 891.243 358.99 892.074 361.71C892.865 363.913 893.368 366.21 893.568 368.542C893.582 370.532 893.128 372.496 892.243 374.278C890.529 377.826 892.286 378.922 895.287 379.985C898.695 381.202 901.925 382.928 905.225 384.452C906.279 384.945 907.269 385.852 908.35 385.979C920.144 387.292 919.117 398.05 922.532 405.414C924.756 410.243 926.021 415.511 927.484 420.698C928.161 423.086 928.984 425.72 928.61 428.068C927.773 433.358 928.167 437.315 933.038 441.017C937.054 444.063 939.676 449.041 943.033 453.046C945.808 456.38 948.789 459.556 951.654 462.815C952.517 463.799 953.693 464.743 954.044 465.915C956.442 473.882 962.611 477.236 969.924 479.31C973.029 480.191 976.177 482.02 979.19 481.82C983.271 481.531 987.228 479.659 991.264 478.548C994.881 477.542 998.509 476.438 1002.2 475.8C1003.68 475.743 1005.13 476.258 1006.23 477.238C1011.18 481.477 1016.35 481.725 1022.15 479.094C1022.88 478.795 1023.66 478.643 1024.45 478.647C1025.24 478.652 1026.03 478.812 1026.75 479.119C1031.77 481.678 1036.72 484.39 1041.47 487.408C1049.25 492.337 1049.04 501.881 1041.36 507.312C1038.16 509.584 1035.56 512.85 1032.17 514.708C1026.4 517.887 1020.65 521.91 1013.41 520.042C1012.8 519.799 1012.13 519.716 1011.48 519.801C1003.69 522.237 994.991 520.352 987.593 525.007C983.765 527.416 979.616 526.822 975.93 524.047C970.899 520.241 966.575 522.11 961.316 524.559C954.873 527.559 953.494 529.788 958.911 534.925C961.043 536.952 962.126 540.037 964.16 542.193C968.306 546.573 968.283 551.732 963.982 557.101C967.64 561.927 971.599 566.429 974.66 571.487C976.473 574.486 976.444 578.557 977.973 581.749C980.301 586.557 985.062 590.83 985.6 595.678C986.319 602.433 989.241 608.092 990.888 614.239C992.096 618.747 988.78 624.65 986.943 629.732C985.456 633.828 984.183 637.273 986.421 641.856C988.332 645.765 988.122 650.69 989.098 655.099C989.554 656.791 990.298 658.392 991.296 659.832C994.326 664.583 996.934 669.287 992.555 674.692C991.955 675.679 991.489 676.742 991.169 677.852C996.301 683.183 996.376 689.473 992.006 695.483C990.697 697.29 990.249 699.965 990.079 702.28C989.75 706.709 989.081 710.549 985.071 713.534C982.403 715.515 980.102 717.882 982.684 722.548C984.824 726.382 984.042 731.496 980.579 735.374C977.398 738.884 974.912 742.69 975.681 747.857C975.844 748.875 974.883 750.121 974.295 751.179C972.207 754.916 969.664 758.459 968.022 762.384C966.125 766.889 969.729 770.667 974.157 772.577C978.043 774.267 980.927 778.252 984.285 781.196C987.643 784.139 988.726 788.864 994.288 789.869C996.496 790.266 999.021 794.911 999.347 797.767C999.58 800.003 997.001 803.271 994.795 804.792C992.416 806.432 991.524 807.257 992.772 810.136C994.939 815.163 992.115 819.434 989.062 822.821C984.149 828.252 985.723 833.664 987.677 839.4C988.083 840.558 988.632 842.087 988.198 843.038C986.293 847.238 986.744 851.297 989.701 854.436C992.525 857.411 995.817 859.904 999.445 861.817C1007.69 866.16 1015.17 870.18 1018.04 880.634C1022.47 896.957 1017.15 906.589 1000.03 909.311C995.44 910.034 989.963 916.56 989.46 921.893C989.174 924.868 993.794 930.966 996.939 932.758C999.331 934.114 1001.42 935.95 1003.06 938.153C1005.49 941.564 1008.17 943.513 1012.53 942.842C1013.66 942.669 1015.49 943.021 1016.08 943.822C1018.8 947.355 1021.23 951.1 1023.36 955.02C1025.81 959.809 1027.19 965.187 1029.86 969.756C1032.25 973.815 1032.48 977.041 1029.13 980.281C1025.59 983.719 1021.99 981.205 1018.53 980.039C1016.21 979.263 1014.1 977.806 1011.78 977.008C1011.17 976.781 1010.51 976.679 1009.86 976.709C1009.2 976.738 1008.56 976.9 1007.96 977.182C1002.57 981.088 996.404 983.926 991.995 989.221C987.587 994.516 982.793 999.381 978.272 1004.53C977.24 1005.6 976.519 1006.93 976.186 1008.38C975.059 1015.82 974.21 1023.25 973.199 1030.68C972.635 1034.77 970.56 1037.85 966.465 1039.04C963.606 1039.86 960.692 1040.47 957.745 1040.86C951.224 1041.72 947.708 1044.99 946.559 1051.52C945.25 1058.85 938.909 1063.35 931.273 1062.42C925.401 1061.71 918.226 1066.67 915.478 1071.77C911.872 1078.56 908.032 1085.81 901.15 1089.63C896.825 1092.04 891.192 1092.52 886.061 1092.99C880.322 1093.51 877.243 1095.46 877.152 1101.16C877.041 1107.63 865.969 1116.17 858.831 1116.33C857.67 1116.34 856.554 1116.27 855.803 1116.25C853.953 1120.28 852.449 1124.06 850.519 1127.63C848.589 1131.19 842.952 1133.37 837.815 1132.29C831.359 1130.87 824.963 1128.99 818.479 1127.66C815.58 1127.06 812.507 1127.28 809.516 1127.18C808.858 1127.16 808.016 1127.68 807.566 1127.42C798.679 1122.39 792.32 1130.49 784.684 1131.85C783.833 1132.01 782.968 1133.35 782.534 1134.32C779.945 1140.12 775.732 1141.94 770.349 1138.92C767.24 1137.13 764.517 1136.15 761.285 1138.4C760.418 1138.92 759.391 1139.11 758.395 1138.93C751.361 1137.51 744.082 1136.68 737.455 1134.16C733.771 1132.76 731.265 1128.46 726.441 1128.52C723.733 1128.55 720.857 1127.35 718.34 1127.93C708.572 1130.18 699.993 1127.34 691.823 1122.45C689.033 1120.79 686.436 1119.34 683.005 1120.61C682.377 1120.83 681.711 1120.93 681.045 1120.89C680.38 1120.85 679.73 1120.67 679.135 1120.37C677.278 1119.11 675.167 1118.26 672.95 1117.89C670.733 1117.53 668.462 1117.65 666.296 1118.25C665.15 1118.53 662.369 1116.35 662 1114.89C659.832 1106.22 659.856 1106.72 651.816 1104.53C648.302 1103.57 644.972 1100.38 642.538 1097.42C639.567 1093.65 635.425 1090.97 630.764 1089.81C627.351 1088.9 624.276 1086.69 621.09 1084.99C619.613 1084.28 618.22 1083.42 616.935 1082.41C614.554 1080.35 611.724 1078.45 610.21 1075.83C607.751 1071.57 597.354 1066.1 592.491 1067.4C591.851 1067.54 591.254 1067.84 590.751 1068.26C586.411 1072.55 581.905 1076.72 577.855 1081.27C572.671 1087.09 565.416 1087.88 558.619 1088.93C556.882 1089.2 553.4 1084.67 552.449 1081.78C551.334 1078.41 550.046 1077.1 546.627 1077.18C543.661 1077.26 527.76 1065.86 526.642 1063.44C524.855 1059.39 522.83 1055.46 520.579 1051.66C516.164 1044.61 516.352 1044.98 521.885 1038.34C525.634 1033.67 528.78 1028.55 531.249 1023.1C532.144 1021.19 530.882 1017.95 529.958 1015.57C527.74 1009.84 531.707 998.384 537.18 995.644C537.792 995.39 538.418 995.174 539.056 994.995C547.246 992.01 551.396 983.921 550.284 975.208C549.64 970.102 550.73 964.796 550.702 959.584C550.674 957.734 550.11 955.932 549.078 954.397C546.875 951.312 546.374 948.459 548.655 945.25C549.409 944.184 550.377 942.907 550.362 941.732C550.297 935.124 554.23 932.072 559.767 929.842C565.832 927.338 567.914 918.611 564.005 913.201C563.343 912.05 562.583 910.958 561.733 909.938C557.221 905.612 556.458 900.553 558.655 894.928C560.293 890.712 559.432 887.582 555.309 885.364C551.186 883.145 548.333 879.927 548.391 874.707C548.425 870.327 545.38 867.922 541.875 865.991C537.699 863.684 536.171 861.232 537.198 855.612C538.449 848.699 538.545 841.625 537.483 834.68C536.33 826.936 532.466 819.209 535.023 810.94C535.31 810.043 534.447 808.298 533.601 807.682C532.756 807.067 530.608 806.867 530.066 807.466C527.23 810.378 525.083 809.277 521.504 808.296C517.304 807.13 514.643 804.439 511.169 802.756C503.867 799.245 501.656 792.553 498.885 786.034C498.689 785.566 498.663 785.045 498.812 784.56C501.572 777.539 496.144 774.301 492.303 770.294C491.334 769.175 490.425 768.006 489.578 766.793C486.283 762.5 482.853 758.441 477.512 756.212C475.598 755.407 474.568 752.111 473.48 749.796C472.069 746.8 471.098 743.802 467.128 742.977C465.076 742.531 463.125 740.851 461.34 739.462C454.237 733.906 447.229 728.244 440.174 722.623C440.036 722.543 439.762 722.477 439.759 722.383C439.288 716.638 431.594 714.205 433.001 707.547C433.194 706.409 432.971 705.24 432.375 704.252C426.661 695.469 421.015 686.608 414.962 678.033C412.594 674.714 409.118 672.154 406.214 669.184C405.441 668.402 404.194 667.243 404.311 666.48C405.355 661.096 406.677 655.769 408.271 650.522C409.4 647.005 411.208 643.915 407.984 640.437C406.552 638.918 406.309 636.479 405.215 634.635C400.591 626.87 395.882 619.147 391.086 611.467C390.295 610.4 389.316 609.486 388.197 608.771C385.335 606.73 383.268 603.761 382.347 600.369C381.427 596.976 381.708 593.37 383.144 590.162C383.778 588.784 385.183 587.031 386.459 586.821C392.702 585.807 392.561 581.292 392.435 576.67C392.365 574.031 392.336 571.381 392.31 568.746C392.266 563.523 393.295 558.021 388.003 554.307C383.583 551.201 384.296 547.248 386.874 543.482C388.68 540.854 388.183 538.615 387.738 535.645C386.575 527.86 383.656 519.535 390.428 512.626C393.259 509.722 392.247 506.875 389.992 504.741C384.62 499.665 384.692 494.222 387.487 487.96C388.596 485.358 389.192 482.566 389.244 479.737C389.33 475.249 391.702 472.739 395.299 470.809C400.924 467.786 401.601 464.274 398.275 458.775C396.14 455.232 391.775 451.893 396.429 446.912C396.913 446.395 394.862 441.966 393.204 441.298C389.631 439.847 385.477 439.942 381.691 438.9C376.331 437.422 371.134 435.345 365.796 433.81C361.775 432.593 357.667 431.685 353.509 431.093C350.938 430.797 348.461 429.957 346.241 428.628C344.022 427.299 342.111 425.511 340.638 423.385C339.431 421.647 338.022 420.059 336.442 418.653C332.517 415.451 331.627 411.473 334.49 407.353C337.051 403.658 338.049 400.17 336.919 395.326C335.341 388.56 335.16 381.413 334.783 374.405C334.763 372.432 334.233 370.497 333.245 368.788C332.258 367.078 330.846 365.653 329.146 364.65C321.854 359.839 313.696 355.73 307.924 349.407C303.836 344.968 303.067 337.48 300.828 331.338C300.807 331.256 300.805 331.171 300.822 331.089C300.84 331.007 300.876 330.93 300.928 330.864C308.079 327.118 306.379 317.523 312.895 313.017C315.99 310.877 318.552 307.599 317.849 302.436C317.246 296.529 317.493 290.567 318.581 284.73C319.023 282.064 321.907 279.849 323.493 277.301C325.08 274.753 327.371 271.965 327.946 269.029C328.968 262.902 329.611 256.717 329.873 250.511C329.977 249.07 329.009 247.507 328.342 246.083C327.541 244.35 325.514 242.521 325.781 241.059C326.817 235.503 328.546 230.069 330.075 224.601C330.147 224.362 330.275 224.143 330.448 223.962C330.621 223.781 330.833 223.642 331.069 223.559C338.139 222.733 337.158 218.333 336.004 213.371C335.483 211.154 336.714 208.562 336.331 206.285C335.537 202.152 334.483 198.072 333.175 194.071C332.25 191.054 332.827 188.674 335.731 187.464C338.635 186.254 341.731 185.432 344.717 184.361C345.616 184.132 346.429 183.647 347.058 182.965C351.594 176.069 355.807 168.952 360.591 162.245C362.723 159.273 365.318 157.018 365.666 152.855C365.914 149.926 373.478 147.065 377.474 147.582C382.475 148.241 383.011 147.592 381.285 142.981C380.517 140.791 380.435 138.418 381.052 136.181C381.67 133.943 382.956 131.947 384.739 130.461C385.987 129.438 387.527 128.41 388.139 127.031C389.935 122.999 392.428 120.582 397.195 120.886C398.199 120.946 399.289 119.439 400.372 118.702C406.644 114.379 407.362 105.036 415.308 102.233C416.333 101.721 417.417 101.334 418.535 101.083C426.985 100.327 434.784 97.5199 442.682 94.5397C449.645 91.9201 457.175 90.7368 464.487 89.0924C467.557 88.3941 470.823 87.4387 473.812 87.8601C478.881 88.581 482.704 93.9402 482.786 99.0571C482.804 100.026 482.572 101.728 482.897 101.846C492.3 105.219 484.655 114.281 490.128 119.3Z" fill="#303030"/>
<path d="M381.626 823.412C380.216 822.555 378.857 821.616 377.556 820.601C369.904 814.254 369.826 804.59 377.414 798.267C381.225 795.087 385.154 792.021 389.222 789.196C392.648 786.821 395.092 789.629 397.614 791.42C400.136 793.211 402.19 795.494 404.842 796.54C413.804 800.098 414.103 807.36 411.24 814.76C406.45 827.156 394.131 830.793 381.626 823.412Z" fill="#303030"/>
<path d="M482.508 73.8393C476.606 70.0622 470.978 66.1089 468.412 58.9344C467.251 56.045 465.943 53.2166 464.494 50.4602C464.064 49.5652 463.072 48.7037 463.126 47.8692C463.303 44.9229 463.806 41.9917 464.197 39.0538C466.876 40.254 470.261 40.8111 472.109 42.7902C475.758 46.7099 479.549 51.0234 481.456 55.9003C483.518 61.1897 483.501 67.2996 484.397 73.0477L482.508 73.8393Z" fill="#303030"/>
<path d="M261.991 577.706C266.094 577.038 268.911 575.72 270.962 576.547C272.24 577.053 273.325 581.074 272.656 582.813C271.506 585.786 268.211 587.232 265.323 585.115C263.808 583.998 263.498 581.255 261.991 577.706Z" fill="#303030"/>
<path d="M1593.6 805.511C1591.24 808.72 1587.71 810.87 1582.28 809.261C1580.68 808.786 1577.79 810.259 1576.48 811.732C1574.65 813.801 1576.18 815.536 1578.42 816.784C1578.81 817.153 1579.09 817.618 1579.24 818.131C1579.39 818.644 1579.39 819.188 1579.26 819.705C1578.95 820.22 1578.52 820.657 1578.01 820.984C1577.51 821.311 1576.93 821.519 1576.34 821.593C1572.57 821.679 1568.73 820.881 1565.06 821.426C1562.56 821.873 1560.34 823.286 1558.88 825.359C1556.79 828.785 1554.26 830.035 1550.62 829.323C1544.2 828.065 1538.18 828.374 1532.35 831.945C1530.97 832.777 1528.05 831.833 1526.22 830.949C1524.19 829.975 1522.65 828.056 1520.79 826.652C1515.1 822.219 1512 823.225 1509.68 830.184C1508.5 833.764 1507.23 837.305 1506.02 840.884C1503.67 847.666 1503.95 855.085 1506.82 861.667C1508.69 866.069 1507.02 869.765 1503.34 870.582C1494.58 872.538 1489.47 878.396 1484.74 885.843C1487.28 889.514 1486.91 893.021 1482.85 896.852C1480.56 899.03 1480.29 903.165 1478.8 906.245C1478.16 907.651 1476.72 909.425 1475.45 909.549C1467.36 910.551 1467.08 917.429 1464.9 922.92C1464.85 923.066 1464.89 923.255 1464.85 923.415C1463.25 931.278 1461.94 932.609 1454.29 931.891C1450.12 931.502 1446.74 932.112 1443.85 935.146C1443.24 935.751 1442.49 936.182 1441.66 936.391C1431.36 939 1427.73 947.459 1424.58 956.142C1422.01 963.251 1417.76 969.444 1411.72 973.287C1407.96 975.676 1402.16 974.824 1397.31 975.525C1393.25 976.122 1388.95 976.225 1385.28 977.777C1382.8 978.817 1381.22 981.988 1379.24 984.214C1378.17 985.412 1377.35 987.01 1376.05 987.786C1370.36 991.155 1364.52 994.283 1358.64 997.557C1358.15 1003.99 1353.27 1006.76 1346.76 1003.99C1344.95 1003.17 1343.21 1002.22 1341.54 1001.15C1335.76 997.621 1330.47 997.676 1325.26 1001.75C1324.33 1002.47 1324.11 1004.26 1323.76 1005.62C1322.71 1009.92 1319.41 1011.21 1316.59 1007.97C1312.22 1002.96 1306.71 1000.36 1300.48 998.839C1299.84 998.684 1298.95 998.558 1298.68 998.112C1293.16 989.134 1285.79 997.089 1279.39 996.319C1276.89 996.022 1274.06 1000.27 1271.07 1001.85C1266.97 1004 1262.07 1003.85 1259.12 1009.02C1257.16 1012.53 1250.72 1011.64 1247.04 1009.26C1243.75 1007.16 1239.94 1005.89 1236.59 1003.84C1234.34 1002.45 1231.41 1000.66 1230.76 998.444C1227.96 989.178 1219.65 983.679 1209.81 985.217C1206.44 985.743 1202.98 985.707 1199.59 986.156C1198.34 986.311 1197.18 987.162 1195.96 987.677C1193.93 988.528 1191.93 989.952 1189.84 990.09C1186.24 990.341 1184.57 992.137 1183.44 995.292C1181.2 1001.86 1178.68 1002.36 1172.89 998.705C1170.61 997.232 1167.45 997.19 1164.74 996.315C1162.48 995.702 1160.31 994.8 1158.28 993.629C1156.64 992.501 1155.29 991.004 1154.34 989.259C1152.41 985.822 1150.51 986.636 1147.92 988.488C1144.97 990.586 1141.7 992.246 1138.57 994.079C1137.56 994.661 1136.25 994.954 1135.52 995.767C1127.7 1004.69 1119.46 997.686 1111.47 996.27C1106.24 995.329 1101.19 993.351 1096.1 991.581C1093.76 990.769 1091.13 989.936 1089.42 988.285C1085.56 984.571 1082.09 982.628 1076.26 984.504C1071.47 986.053 1065.88 985.353 1060.68 985.813C1056.36 986.179 1052.05 986.806 1047.73 987.289C1046.43 987.434 1044.99 987.857 1043.82 987.474C1035.92 984.88 1029.64 988.018 1023.75 992.827C1021.25 994.869 1017.95 996.403 1016.39 998.988C1014.29 1002.5 1013.56 1006.82 1012.16 1010.76C1010.91 1014.3 1009.74 1017.91 1008.15 1021.3C1007.35 1022.55 1006.1 1023.44 1004.66 1023.79C998.358 1025.41 995.197 1029.51 994.032 1035.77C993.858 1036.54 993.535 1037.27 993.079 1037.92C992.623 1038.56 992.044 1039.11 991.375 1039.53C986.408 1042.18 981.346 1044.69 976.154 1046.85C967.66 1050.41 959.955 1044.77 959.895 1035.37C959.867 1031.45 958.678 1027.44 959.091 1023.61C959.789 1017.05 959.783 1010.03 965.457 1005.17C966.008 1004.8 966.458 1004.3 966.765 1003.72C969.221 995.944 975.749 989.886 976.168 981.155C976.383 976.638 979.245 973.576 983.631 972.142C989.631 970.195 990.574 965.58 991.577 959.867C992.805 952.866 991.767 950.459 984.454 951.96C981.571 952.548 978.422 951.67 975.49 952.104C969.526 952.996 965.308 950.023 963.368 943.423C957.318 943.66 951.359 944.329 945.46 943.943C941.963 943.714 938.642 941.359 935.149 940.785C929.875 939.942 923.645 941.4 919.362 939.065C913.412 935.788 907.099 934.944 901.116 932.776C896.728 931.186 893.786 925.088 890.671 920.672C888.164 917.109 886.068 914.093 881.029 913.304C876.729 912.634 872.812 909.642 868.638 907.919C866.99 907.324 865.251 907.017 863.499 907.011C857.868 906.776 852.519 906.221 850.594 899.537C850.128 898.48 849.523 897.489 848.796 896.591C841.488 897.748 836.287 894.209 833.861 887.185C833.128 885.077 831.191 883.179 829.391 881.714C825.947 878.909 823.182 876.162 823.03 871.166C822.933 867.844 822.31 864.602 817.005 864.048C812.637 863.608 808.891 860.04 807.694 854.98C806.637 850.363 804.939 846.145 800.262 843.818C799.334 843.369 798.863 841.867 798.332 840.779C796.464 836.928 795.014 832.815 792.736 829.222C790.128 825.088 784.967 825.88 780.866 828.417C777.256 830.637 772.337 830.719 768.001 831.788C763.666 832.856 759.172 831.04 755.163 835.025C753.574 836.607 748.32 836.019 745.792 834.652C743.825 833.563 742.622 829.577 742.638 826.898C742.654 824.008 742.489 822.805 739.414 822.179C734.052 821.078 732.166 816.319 731.136 811.876C729.496 804.739 724.157 802.932 718.336 801.251C717.154 800.92 715.586 800.495 715.055 799.595C712.702 795.629 709.115 793.674 704.849 794.302C700.793 794.915 696.864 796.187 693.218 798.067C684.938 802.339 677.359 806.173 667.146 802.539C651.225 796.83 646.372 786.956 653.944 771.356C655.976 767.181 653.76 758.954 649.676 755.489C647.4 753.551 639.756 753.849 636.485 755.401C634.005 756.587 631.305 757.245 628.557 757.334C624.369 757.373 621.241 758.451 619.295 762.408C618.785 763.442 617.449 764.741 616.456 764.764C612.002 764.972 607.539 764.823 603.109 764.319C597.777 763.59 592.58 761.639 587.303 761.216C582.607 760.853 579.831 759.192 579.092 754.592C578.301 749.718 582.42 748.21 585.358 746.04C587.324 744.579 589.722 743.688 591.706 742.241C592.245 741.867 592.704 741.388 593.055 740.833C593.406 740.278 593.642 739.658 593.749 739.011C593.635 732.351 594.838 725.672 593.019 719.026C591.201 712.38 589.957 705.664 588.323 699.01C588.034 697.55 587.355 696.197 586.357 695.093C580.909 689.915 575.302 684.965 569.788 679.883C566.752 677.075 565.419 673.614 566.785 669.574C567.75 666.761 568.919 664.022 570.281 661.379C573.314 655.544 572.645 650.789 567.949 646.108C562.69 640.84 562.628 633.064 567.765 627.336C571.709 622.929 571.743 614.202 569.134 609.03C565.635 602.189 561.887 594.889 562.694 587.058C563.193 582.132 566.027 577.24 568.581 572.766C571.44 567.762 571.602 564.121 566.982 560.784C561.739 556.989 561.077 543.023 565.029 537.077C565.685 536.119 566.379 535.242 566.824 534.636C564.583 530.816 562.341 527.416 560.524 523.794C558.708 520.173 560.144 514.3 563.973 510.709C568.831 506.227 574.035 502.058 578.837 497.503C580.988 495.47 582.564 492.822 584.358 490.426C584.752 489.9 584.809 488.912 585.28 488.692C594.489 484.283 591.492 474.435 594.744 467.392C595.104 466.606 594.503 465.132 593.954 464.218C590.677 458.774 591.599 454.279 597.153 451.591C600.405 450.07 602.77 448.4 602.769 444.459C602.839 443.449 603.274 442.5 603.993 441.788C609.181 436.832 614.03 431.339 619.891 427.348C623.147 425.129 628.107 425.535 630.823 421.548C632.349 419.31 634.978 417.638 635.943 415.243C639.683 405.941 646.923 400.532 655.609 396.633C658.574 395.301 661.243 393.997 662.171 390.46C662.346 389.816 662.65 389.215 663.064 388.693C663.478 388.171 663.994 387.739 664.581 387.422C666.682 386.624 668.583 385.377 670.153 383.769C671.723 382.161 672.924 380.23 673.671 378.111C674.094 377.008 677.476 375.977 678.884 376.51C687.23 379.693 686.808 379.427 693.209 374.091C696.003 371.756 700.527 370.854 704.351 370.555C709.145 370.278 713.711 368.413 717.328 365.255C720.026 362.976 723.602 361.722 726.821 360.083C728.244 359.277 729.752 358.63 731.317 358.156C734.366 357.38 737.543 356.147 740.556 356.405C745.457 356.827 755.896 351.434 757.611 346.701C757.862 346.095 757.963 345.438 757.907 344.785C756.868 338.768 756.033 332.689 754.617 326.76C752.814 319.18 756.321 312.78 759.349 306.604C760.124 305.027 765.83 304.763 768.747 305.64C772.147 306.654 773.958 306.348 775.848 303.498C777.483 301.022 795.931 294.508 798.558 294.979C802.896 295.828 807.28 296.419 811.687 296.751C819.997 297.168 819.583 297.108 821.863 305.448C823.543 311.193 825.94 316.704 828.997 321.85C830.051 323.676 833.425 324.492 835.905 325.098C841.88 326.564 848.998 336.371 848.112 342.428C847.969 343.075 847.789 343.712 847.57 344.338C845.33 352.761 849.586 360.795 857.367 364.871C861.922 367.266 865.649 371.197 869.939 374.158C871.471 375.194 873.272 375.763 875.121 375.795C878.912 375.755 881.537 376.977 882.864 380.685C883.306 381.913 883.799 383.438 884.77 384.098C890.225 387.828 890.476 392.8 889.136 398.617C887.717 405.022 893.681 411.726 900.354 411.617C901.677 411.734 903.007 411.735 904.331 411.622C910.46 410.399 915.045 412.669 918.399 417.691C920.919 421.447 923.978 422.533 928.157 420.423C932.337 418.312 936.608 417.814 940.856 420.85C944.427 423.386 948.142 422.265 951.731 420.497C956.013 418.394 958.899 418.545 962.919 422.604C967.872 427.587 973.617 431.715 979.919 434.82C986.929 438.307 995.476 439.563 1000.79 446.393C1001.36 447.142 1003.29 447.433 1004.28 447.092C1005.27 446.751 1006.66 445.105 1006.48 444.317C1005.71 440.325 1007.85 439.195 1010.7 436.822C1014.06 434.046 1017.79 433.404 1021.16 431.519C1028.22 427.542 1034.97 429.56 1041.9 431.019C1042.4 431.126 1042.84 431.404 1043.15 431.803C1047.33 438.085 1053.09 435.488 1058.58 434.633C1060.05 434.479 1061.53 434.403 1063.01 434.403C1068.41 434.159 1073.7 433.67 1078.59 430.566C1080.34 429.458 1083.64 430.5 1086.16 430.933C1089.42 431.492 1092.44 432.411 1095.38 429.629C1096.92 428.201 1099.42 427.564 1101.58 426.895C1110.2 424.251 1118.86 421.747 1127.5 419.18C1127.65 419.112 1127.86 418.925 1127.94 418.976C1132.92 421.879 1139.32 416.963 1143.97 421.929C1144.79 422.738 1145.88 423.225 1147.03 423.301C1157.5 423.644 1168 424.087 1178.5 424.032C1182.57 423.991 1186.66 422.607 1190.76 421.926C1191.84 421.739 1193.51 421.38 1194.07 421.913C1197.88 425.851 1201.5 429.984 1204.89 434.295C1207.12 437.234 1208.62 440.485 1213.32 439.833C1215.38 439.529 1217.52 440.725 1219.66 440.883C1228.67 441.538 1237.7 442.097 1246.75 442.561C1248.07 442.524 1249.38 442.244 1250.61 441.736C1253.92 440.558 1257.54 440.563 1260.85 441.75C1264.16 442.936 1266.95 445.232 1268.76 448.246C1269.53 449.554 1270.16 451.709 1269.6 452.876C1266.86 458.576 1270.64 461.045 1274.5 463.587C1276.71 465.04 1278.9 466.533 1281.07 468.021C1285.38 470.974 1289.3 474.968 1295.38 472.754C1300.45 470.909 1303.29 473.756 1304.9 478.025C1306.02 481.011 1308.14 481.885 1310.83 483.221C1317.88 486.723 1326.38 489.096 1328.17 498.604C1328.93 502.587 1331.84 503.387 1334.88 502.759C1342.12 501.261 1346.54 504.435 1350.07 510.312C1351.57 512.711 1353.52 514.798 1355.81 516.46C1359.44 519.099 1360.14 522.482 1359.66 526.536C1358.92 532.878 1361.42 535.443 1367.83 535.865C1371.96 536.142 1377.19 534.475 1378.61 541.142C1378.76 541.834 1383.56 542.688 1385.06 541.712C1388.3 539.612 1390.6 536.151 1393.62 533.644C1397.9 530.096 1402.58 527.023 1406.89 523.525C1410.19 520.925 1413.29 518.077 1416.15 515.005C1417.87 513.067 1419.97 511.516 1422.33 510.457C1424.69 509.399 1427.25 508.856 1429.84 508.865C1431.96 508.869 1434.06 508.624 1436.12 508.133C1440.99 506.747 1444.77 508.295 1446.5 513.001C1448.07 517.216 1450.36 520.031 1454.98 521.878C1461.43 524.456 1467.39 528.4 1473.35 532.103C1474.98 533.215 1476.87 533.889 1478.84 534.057C1480.81 534.226 1482.78 533.884 1484.58 533.065C1492.7 529.84 1500.74 525.503 1509.22 524.39C1515.2 523.579 1521.78 527.235 1528.1 528.915C1528.18 528.944 1528.25 528.991 1528.31 529.053C1528.37 529.114 1528.41 529.188 1528.43 529.268C1527.41 537.277 1536.25 541.376 1536.22 549.297C1536.2 553.059 1537.42 557.037 1542.06 559.416C1547.24 562.303 1551.99 565.919 1556.16 570.152C1558.09 572.041 1558.25 575.673 1559.44 578.433C1560.62 581.192 1561.59 584.667 1563.67 586.819C1568.11 591.164 1572.81 595.232 1577.75 598.999C1578.87 599.909 1580.71 600.011 1582.26 600.279C1584.14 600.614 1586.8 599.999 1587.84 601.055C1591.8 605.086 1595.27 609.613 1598.88 613.997C1599.03 614.194 1599.14 614.424 1599.19 614.669C1599.24 614.914 1599.23 615.168 1599.16 615.409C1595.79 621.679 1599.96 623.393 1604.69 625.287C1606.81 626.13 1608.23 628.623 1610.31 629.612C1614.16 631.327 1618.11 632.798 1622.14 634.016C1625.14 634.984 1626.76 636.82 1626.09 639.894C1625.42 642.968 1624.32 645.977 1623.49 649.038C1623.16 649.907 1623.1 650.851 1623.3 651.757C1626.35 659.424 1629.78 666.953 1632.54 674.714C1633.75 678.164 1634.12 681.582 1637.33 684.251C1639.59 686.131 1637.61 693.971 1634.89 696.951C1631.49 700.675 1631.72 701.486 1636.49 702.71C1638.72 703.333 1640.71 704.625 1642.2 706.412C1643.68 708.199 1644.58 710.396 1644.78 712.709C1644.9 714.318 1644.86 716.169 1645.64 717.46C1647.92 721.241 1648.47 724.669 1645.5 728.403C1644.87 729.192 1645.48 730.948 1645.47 732.259C1645.42 739.876 1652.67 745.813 1650.42 753.932C1650.25 755.067 1649.95 756.176 1649.52 757.237C1645.3 764.599 1643.14 772.6 1641.06 780.782C1639.22 787.99 1635.88 794.842 1633.04 801.779C1631.86 804.696 1630.77 807.92 1628.71 810.131C1625.22 813.874 1618.64 813.94 1614.4 811.079C1613.59 810.539 1612.33 809.375 1612.05 809.573C1603.9 815.352 1600.84 803.896 1593.6 805.511Z" fill="#47F066"/>
<path d="M1078.38 313.477C1079.89 312.811 1081.44 312.235 1083.01 311.749C1092.6 309.108 1100.57 314.576 1101.41 324.417C1101.83 329.363 1102.1 334.34 1102.09 339.292C1102.07 343.461 1098.37 343.857 1095.46 344.9C1092.55 345.943 1089.5 346.32 1087.12 347.896C1079.07 353.207 1072.95 349.295 1068.52 342.711C1061.1 331.688 1065.17 319.504 1078.38 313.477Z" fill="#47F066"/>
<path d="M1635.23 825.287C1641.71 822.609 1648.17 820.258 1655.52 822.261C1658.56 822.963 1661.63 823.51 1664.71 823.9C1665.69 824.059 1666.97 823.739 1667.62 824.261C1669.94 826.093 1672.05 828.183 1674.24 830.186C1671.72 831.696 1669.33 834.152 1666.64 834.534C1661.34 835.283 1655.63 835.922 1650.54 834.694C1645.03 833.356 1640.03 829.844 1634.8 827.288L1635.23 825.287Z" fill="#47F066"/>
<path d="M1348.33 356.037C1346.53 359.784 1345.99 362.848 1344.14 364.057C1343 364.815 1339.08 363.403 1338.04 361.859C1336.26 359.214 1336.96 355.684 1340.35 354.529C1342.13 353.926 1344.55 355.242 1348.33 356.037Z" fill="#47F066"/>
</svg>
