<svg width="246" height="67" viewBox="0 0 246 67" fill="none" xmlns="http://www.w3.org/2000/svg">
<g clip-path="url(#clip0)">
<path d="M11.2771 37.0492C9.81624 30.9372 2.37348 27.8445 0.430898 22.0835C-4.52627 -1.22255 34.7615 -0.0176025 43.8753 16.8009C44.7511 17.8347 45.613 17.9517 46.2873 16.8533C51.1026 9.03168 59.2128 5.73294 68.7085 4.28002C75.4155 2.60882 81.5813 5.3278 86.3914 7.81103C95.3388 1.4196 107.63 4.78121 115.509 10.9282C122.453 -0.459414 137.505 -2.96884 148.298 5.26842C151.57 7.39541 156.203 2.04128 160.371 4.08095C167.496 5.24223 176.311 0.649481 182.709 5.35225C188.257 2.09541 195.235 -0.295263 202.246 0.0295472C206.87 0.405 211.484 3.72819 212.628 7.64862C216.721 9.26219 224.402 0.995247 229.331 6.27254C258.892 1.69551 244.283 31.2445 222.945 26.0947C229.887 31.1066 236.534 37.147 238.202 44.897C238.902 48.1818 237.611 51.533 234.803 53.8031C226.431 60.5805 212.146 64.4346 201.697 58.5181C198.996 57.7305 195.871 60.5281 193.161 57.5751C191.151 54.5104 191.361 60.0828 188.414 60.4041C188.348 65.3968 180.278 70.7823 178.469 63.303C178.106 61.8046 174.752 62.1487 173.603 60.7673C169.654 59.1957 168.654 61.7592 166.887 64.0626C164.084 66.9614 158.531 64.9008 158.517 61.2074C156.918 58.0554 149.829 60.8948 147.181 57.1647C139.081 60.3395 121.547 64.7244 117.173 54.5278C108.289 60.6311 93.2684 61.7837 85.8624 53.3316C81.9107 51.498 83.2349 57.3708 82.3486 59.2446C78.4687 67.0365 65.0861 62.6568 69.1061 54.093C63.2451 56.5378 58.901 54.2676 55.0141 50.4258C52.1273 56.3964 47.3699 62.2919 39.9814 64.0032C34.3534 65.7355 31.4579 62.009 28.2839 59.3319C13.7837 60.6957 13.0971 45.9081 11.2771 37.0492ZM120.864 24.4375L120.899 24.448C121.188 24.1371 120.899 23.8647 120.801 23.5993C119.762 20.9431 118.2 18.5542 116.271 16.298C113.332 12.8596 109.729 10.2314 105.152 8.61432C99.5655 6.64974 94.1161 6.3162 88.912 9.50318C87.0325 10.654 87.0132 10.8478 88.9295 11.9899C89.9034 12.898 91.1138 12.3392 92.1963 12.3392C96.4651 12.3269 99.5533 14.1832 101.011 17.6723C101.795 19.5409 101.732 21.3937 101.061 23.2797C106.516 23.1784 109.061 24.8898 110.422 29.5052C110.635 30.1737 110.789 30.859 110.885 31.5536C111.673 38.4742 104.435 42.1484 99.1486 39.8607C98.4848 39.5726 98.4042 39.8607 98.3113 40.3235C97.9775 41.9319 97.386 43.4761 96.5597 44.897C94.8764 47.8116 92.8917 50.4537 88.5336 50.7052C89.7265 52.558 91.3555 53.7961 93.6537 54.334C99.5988 55.731 105.348 55.5389 111.009 53.1553C116.089 51.0161 119.254 47.4379 120.976 43.0075C122.698 38.5772 122.719 33.8343 122.171 29.156C121.995 27.6524 121.845 26.1349 121.144 24.7221C121.109 24.5877 121.179 24.3659 120.864 24.4375ZM235.292 22.3734V22.3873C238.167 20.9362 240.246 18.8074 241.926 16.3679C242.641 15.3447 243.112 14.1722 243.304 12.9399C243.586 11.0748 242.737 10.0148 240.694 9.38618C236.765 8.17425 232.812 8.72259 228.858 9.16964C228.11 9.25346 227.599 9.31458 227.201 8.57241C226.609 7.46526 225.506 7.21903 224.171 7.52463C222.03 8.01185 220.037 8.80816 218.11 9.72496C214.507 11.4381 211.79 13.7414 211.547 17.6112C211.508 18.2085 211.196 18.7882 211.063 19.3855C210.538 21.7796 209.229 23.9503 208.525 26.292L208.536 26.2781C208.254 26.2222 208.271 26.4248 208.215 26.5627C207.455 27.6803 206.865 28.8835 205.954 29.9278C204.873 31.1659 204.95 31.62 206.367 32.652C207.613 33.5601 209.158 34.0002 210.571 34.6446C212.268 35.4199 213.502 36.5655 214.518 37.9538C215.534 39.3421 214.278 41.4464 212.212 41.3294C209.397 41.1705 207.022 40.1576 204.651 39.04C203.822 38.6488 203.074 38.3904 202.186 38.8409C202.349 39.3648 202.841 39.5621 203.188 39.8607C204.369 40.8753 205.434 41.9563 206.178 43.2677C208.318 47.0555 207.11 50.5009 204.726 53.7647C203.992 54.7723 204.269 55.1146 205.327 55.5651C207.474 56.4802 209.765 56.7875 212.092 57.1263C218.066 57.9838 223.493 56.9639 228.366 53.8084C229.09 53.3421 229.682 52.792 229.841 51.9329C229.972 51.2239 230.449 50.7716 231.417 50.9794C231.869 51.0966 232.347 51.0633 232.777 50.8846C233.208 50.7058 233.569 50.3913 233.803 49.9892C234.546 48.8367 235.142 47.5881 234.879 46.2504C233.744 40.5016 230.78 35.6312 225.532 31.9221C224.294 31.0489 222.961 30.2701 221.678 29.4441C220.149 28.4609 219.552 27.0342 219.436 25.4765C219.331 24.0515 219.974 23.5556 221.61 23.4246C224.611 23.1854 227.566 23.9171 230.573 23.6953C232.127 23.58 233.625 23.3792 234.977 22.658C235.145 22.6231 235.304 22.5724 235.296 22.3734H235.292ZM55.8969 12.3025L55.8724 12.3304C53.2449 13.703 51.3636 15.6484 49.8747 18.0233C53.2572 18.4879 54.4693 19.0991 54.965 20.6917C52.5548 19.7592 50.1953 19.2702 47.6379 20.2935C50.3582 20.8471 52.7369 21.8268 54.2066 23.9607C55.7235 26.1628 55.8969 28.4801 54.7916 30.8481C53.4113 33.8168 50.3126 35.3885 46.4047 35.1737C45.9826 34.8594 45.5289 34.8244 45.0227 35.0829C45.2346 35.8582 45.8617 36.2005 46.6867 36.3507C48.279 36.6144 49.873 36.8449 51.502 36.789L51.4792 36.7698C50.98 37.6325 49.8274 37.4142 49.0812 37.8717C48.0302 37.7337 47.6151 38.0463 47.8796 39.0208C48.5014 41.3171 49.6908 43.3097 51.7665 44.8586C52.6423 45.5082 53.6127 45.8592 54.7811 45.6567C56.4329 45.875 57.2176 44.794 58.1828 43.7358C58.6277 45.1223 57.8202 46.0059 57.2317 46.9175C56.9549 47.3488 56.813 47.6265 57.2772 48.0421C59.0446 49.6277 61.0362 50.941 63.408 51.7338C66.1546 52.6523 67.8799 51.3967 67.4368 48.8978C67.428 48.8524 67.5384 48.7895 67.6295 48.6987C68.1549 48.9816 68.6489 49.3518 68.8311 49.8268C69.22 50.8379 70.0205 51.2658 71.1082 51.65C71.638 51.8203 72.0971 52.1592 72.4151 52.6147C72.7331 53.0702 72.8924 53.6171 72.8686 54.1716C72.8564 55.1321 72.7425 56.0925 72.8178 57.0495C72.9457 58.7294 74.7166 59.6235 76.47 58.9582C77.8714 58.4343 78.5089 57.411 78.1621 55.6856C77.8573 54.1629 78.2322 52.7431 78.4984 51.285C78.6141 50.6528 78.9661 50.3088 79.6475 50.0626C82.79 48.91 86.1707 48.0334 87.8803 44.7067C88.1781 45.5903 88.115 46.205 88.369 46.7673C88.9926 48.1486 89.8456 48.4525 91.3643 47.7313C92.4153 47.2283 93.0844 46.4233 93.5714 45.489C96.5142 39.8625 96.6245 34.0299 95.2355 28.089C95.1093 26.643 94.6311 25.26 94.1197 23.8979C92.1928 18.7795 88.9628 14.4941 83.6868 11.5114C82.9389 11.0888 82.3941 10.895 81.6269 11.5341C81.0086 12.0475 80.1905 12.437 79.1938 12.3042C79.369 11.4311 80.3096 11.2879 80.7984 10.7658C81.3239 10.2122 81.3466 9.60971 80.7878 9.11201C80.1327 8.52875 80.0294 9.353 79.7176 9.54509C78.3618 10.3728 76.8712 10.5562 75.2001 10.5579C75.4523 9.73195 76.174 9.79656 76.6785 9.60272C77.4545 9.30411 78.5597 9.07883 78.5265 8.29824C78.4932 7.51765 77.3879 7.29762 76.5594 7.15267C73.818 6.6707 71.089 6.87676 68.3967 7.43732C64.0053 8.35412 59.7523 9.5643 56.1614 12.0947L55.8969 12.3025ZM148.431 26.0353C149.698 24.2581 150.607 22.253 151.108 20.1311C153.219 11.5463 145.476 3.69851 136.044 4.48783C135.24 4.55419 134.704 4.27304 134.429 3.62342C134.199 3.07857 133.805 2.6909 133.108 2.76249C132.024 2.87426 130.892 2.77647 129.869 3.19208C125.803 4.84757 122.512 7.35001 119.746 10.3886C118.645 11.6022 118.783 13.5039 119.788 14.7875C120.476 15.6293 121.085 16.5332 121.605 17.4872C124.42 22.9007 125.993 28.5186 125.966 34.4263C125.604 40.0389 124.108 45.3493 120.676 50.1901C119.158 52.3293 120.773 55.7275 123.549 56.4767C124.471 56.6969 125.407 56.8464 126.352 56.9238C130.125 57.3341 133.838 56.7858 137.541 56.358C140.535 56.0087 143.271 54.8177 145.296 52.9055C150.036 48.4263 152.059 43.1018 150.889 36.9933C150.167 33.2301 148.261 30.1723 144.099 28.4697C143.711 28.309 142.884 28.295 143.048 27.7537C143.213 27.2123 143.966 27.373 144.504 27.3678C144.755 27.3678 145.03 27.3241 145.249 27.4044C146.916 28.0244 147.696 27.0761 148.431 26.0353ZM179.045 18.1613C180.24 15.5733 180.436 12.8072 180.797 10.0899C181.082 7.90882 180.001 6.46638 178.234 6.42272C175.091 6.34414 171.928 6.21666 168.801 6.59735C165.999 6.93089 163.263 7.69752 160.413 7.84595C159.982 7.86865 159.582 8.04503 159.207 7.61893C158.507 6.82437 157.543 6.79468 156.487 6.9763C155.165 7.20506 153.86 7.44256 152.616 7.92803C150.975 8.56717 150.933 8.55145 151.868 9.79831C153.299 11.6839 154.127 13.9556 154.243 16.3172C154.372 18.6274 154.11 20.9428 153.467 23.1662C152.844 24.9544 151.98 26.6396 150.631 28.1064C150.534 28.2095 150.458 28.3308 150.408 28.4633C150.358 28.5958 150.334 28.7368 150.339 28.8784C150.344 29.0199 150.377 29.1591 150.435 29.2879C150.494 29.4168 150.578 29.5328 150.682 29.6292C151.679 30.6246 152.311 31.8103 152.784 33.0677C153.902 36.0468 154.089 39.0941 154.089 42.22C154.089 46.1404 152.863 49.5963 150.207 52.6977C149.113 53.9778 149.523 55.4831 151.258 56.2025C151.814 56.4064 152.385 56.5641 152.966 56.674C154.972 57.1385 157.034 56.9919 159.074 57.0862C160.386 57.1455 161.401 57.4791 161.581 58.8237C161.66 59.4192 161.91 60.0042 162.129 60.5805C162.338 61.1288 162.625 61.6614 163.411 61.7051C163.775 61.7361 164.14 61.6628 164.463 61.4938C164.786 61.3249 165.054 61.0674 165.235 60.7516C165.442 60.3637 165.576 59.941 165.629 59.5048C165.837 58.3295 166.472 57.5839 167.948 57.5611C168.348 57.5704 168.748 57.5287 169.138 57.4372C170.686 57.0058 172.573 57.3568 173.802 56.2811C175.23 55.0308 176.162 53.4748 176.237 51.6238C176.342 49.1345 176.165 46.6415 175.712 44.1915C175.197 41.4219 173.1 40.2414 169.984 40.8736C169.304 41.0098 168.624 41.1635 167.962 41.3573C165.951 41.9413 163.852 42.1677 161.761 42.0261C159.402 41.8847 158.227 40.6047 158.635 38.6191C159.32 35.2889 162.513 33.5095 166.286 34.3547C167.848 34.7039 168.337 34.4228 168.363 33.045C168.398 31.2125 168.398 29.3801 168.363 27.5476C168.334 26.0126 167.47 25.4678 165.722 25.8729C164.758 26.0965 163.834 26.4527 162.863 26.6518C160.744 27.0883 159.185 26.0877 158.975 24.207C158.699 22.0031 159.624 20.6969 162.028 19.7993C165.916 18.3412 169.773 19.2056 173.589 20.0019C175.866 20.4804 177.747 19.974 179.045 18.1613ZM183.025 16.0902C182.923 16.4272 182.811 16.7608 182.72 17.0996C181.797 20.5467 178.996 22.6021 174.932 22.7296C174.17 22.7541 174.132 23.1313 174.105 23.5661C173.853 28.0086 173.081 32.4058 172.553 36.8239C172.469 37.5224 172.623 37.8717 173.45 38.1895C176.078 39.2076 178.004 40.7688 178.605 43.4075C179.152 45.8296 179.078 48.2656 179.211 50.7017C179.339 53.0644 178.316 55.0465 176.805 56.8941C175.892 58.0082 176.207 58.9198 177.665 59.5222C178.526 59.8715 179.429 59.8348 180.31 59.8715C181.536 59.9291 181.863 60.446 181.685 61.4012C181.558 62.0027 181.561 62.6244 181.695 63.2244C181.851 63.8565 182.089 64.4119 182.932 64.5358C183.886 64.6773 184.23 64.0783 184.599 63.4881C185.3 62.3617 184.862 61.1777 184.85 60.0164C184.85 59.4925 184.696 58.9687 185.365 58.6334C186.544 58.0431 186.745 57.025 186.941 55.9615C187.456 53.2618 186.51 50.6842 186.158 48.0596C185.897 46.1194 185.512 44.195 185.151 42.0838C186.039 42.5989 186.351 43.2066 186.745 43.7497C188.409 46.0339 190.115 48.2901 192.014 50.4328C193.267 51.8438 194.466 53.3194 196.129 54.4004C197.87 55.5354 198.842 55.2613 200.452 54.0511C202.062 52.8409 202.47 51.2169 203.254 49.6854C204.694 46.907 204.267 44.4238 201.876 42.2008C201.363 41.724 200.862 41.2368 200.329 40.7758C197.95 38.7221 195.33 36.8728 193.279 34.5398C192.808 34.0054 192.035 33.5199 192.403 32.6363C193.07 32.7586 193.316 33.258 193.78 33.5095C194.941 34.1207 195.948 34.4018 197.322 33.6212C201.641 31.1607 204.523 27.7799 206.346 23.6394C207.32 21.7185 207.923 19.6998 208.518 17.6706C209.508 14.2636 209.333 10.9386 207.613 7.72895C206.11 4.9244 203.656 3.39989 200.01 3.28289C194.078 3.0908 189.138 5.51116 184.084 7.67831C183.583 7.8931 183.524 8.2703 183.559 8.66846C183.729 11.1569 183.385 13.6209 183.025 16.0867V16.0902ZM16.6862 43.3481C16.7773 44.0833 16.7878 44.8324 16.97 45.5484C17.8703 49.0846 19.403 52.3101 23.148 54.3096C25.003 55.298 27.0122 55.7188 29.1685 55.1041C31.9186 54.3218 32.663 54.7409 32.8645 57.1997C33.0203 59.0909 34.2868 60.1212 36.4413 60.1858C37.8234 60.2295 38.9444 59.7056 40.0655 59.1084C44.6198 56.6775 47.5801 53.171 49.1636 48.7633C49.6891 47.3034 49.8117 45.8173 48.7922 44.4762C47.4574 42.7299 46.8339 40.7688 46.4467 38.7344C46.3732 38.3537 46.4467 37.987 45.867 37.7984C44.3658 37.3164 43.5898 36.2931 43.3568 34.9449C43.3501 34.8109 43.3091 34.6808 43.2376 34.5671C43.1662 34.4534 43.0667 34.3598 42.9487 34.2953C40.6856 33.0642 39.5067 31.1921 38.8954 29.0023C38.7833 28.6006 38.6344 28.316 38.1247 28.433C35.7442 28.9866 33.3952 29.6554 31.6436 31.2655C30.6591 32.1718 30.8273 34.0595 31.7942 35.027C32.6928 35.9176 33.7981 35.9613 35.4306 35.1929C35.8292 35.0056 36.2422 34.8503 36.6655 34.7284C37.925 34.3652 38.6939 34.793 38.8463 35.9508C39.0583 37.5871 38.1457 38.8217 36.4869 39.6966C33.7333 41.1408 29.461 40.7164 26.9929 38.9212C22.302 35.5072 19.9513 30.8726 18.9493 25.7385C18.2136 21.9682 21.477 19.85 25.7125 20.9536C26.9858 21.3005 28.2135 21.7964 29.3699 22.431C30.5137 23.0387 31.5402 23.828 32.8434 24.1965C35.0593 24.5981 37.0211 24.1004 38.4049 22.6074C39.0127 21.9599 39.3939 21.1337 39.4915 20.2523C39.589 19.3709 39.3977 18.4817 38.9462 17.7177C37.3539 14.9429 34.9804 12.8281 31.9974 11.2023C25.1046 7.4478 17.9737 5.64737 10.0545 8.86055C4.28278 11.2023 1.57648 16.9599 4.55428 21.6766C5.70214 23.4804 6.9715 25.2045 8.35361 26.8369C10.4065 29.2817 12.7327 31.62 13.9186 34.5468C15.086 37.3984 16.0118 40.3424 16.6862 43.3481ZM47.4031 21.7534C43.1852 21.818 40.2214 24.4497 40.3107 28.061C40.3913 31.489 43.5968 34.222 47.4364 34.1364C51.276 34.0508 54.2889 31.2201 54.2276 27.7624C54.1698 24.406 51.0921 21.6958 47.4031 21.7534ZM89.8211 14.5936C91.2347 16.1557 92.4751 17.8653 93.5206 19.6928C94.5452 21.464 95.3471 23.3544 95.9081 25.3211C96.106 26.0511 96.4686 25.948 96.8925 25.5219C98.7037 23.7005 99.3693 21.5945 98.9437 19.2091C98.8351 18.5944 98.4182 18.7533 97.9628 18.7655C95.7434 18.8319 94.6101 17.4523 95.5665 15.7165C95.9168 15.0651 95.6769 14.9289 95.1304 14.6949C93.447 13.9702 91.7497 14.1204 89.8211 14.5954V14.5936Z" fill="#00160A"/>
<path d="M32.8521 24.1984C31.5489 23.8317 30.5224 23.0406 29.3786 22.4329C28.2222 21.7983 26.9945 21.3024 25.7212 20.9555C21.4857 19.8519 18.2223 21.9701 18.958 25.7404C20.009 31.1015 22.4613 35.6314 27.5691 39.082C29.9742 40.7061 34.6493 40.9471 37.0789 39.3562C38.3681 38.511 39.0407 37.3864 38.855 35.9527C38.7026 34.7879 37.9337 34.3601 36.6742 34.7303C36.2509 34.8522 35.8379 35.0075 35.4393 35.1948C33.8068 35.9632 32.7015 35.9195 31.8029 35.0289C30.836 34.0684 30.6678 32.1737 31.6522 31.2674C33.4039 29.6608 35.7441 28.9972 38.1333 28.4349C38.6431 28.3179 38.792 28.6095 38.9041 29.0042C39.5154 31.194 40.6943 33.0661 42.9574 34.2972C43.0754 34.3617 43.1749 34.4553 43.2463 34.569C43.3177 34.6827 43.3588 34.8128 43.3655 34.9468C43.6002 36.295 44.3745 37.3183 45.8756 37.8003C46.4589 37.9889 46.3819 38.3556 46.4554 38.7363C46.8425 40.7707 47.4661 42.7248 48.8009 44.4781C49.8204 45.8192 49.6977 47.3053 49.1722 48.7652C47.5958 53.1781 44.632 56.6794 40.0742 59.1103C38.9531 59.7075 37.8321 60.2314 36.45 60.1877C34.2955 60.1231 33.029 59.0928 32.8731 57.2016C32.6717 54.7568 31.9273 54.3289 29.1772 55.106C27.0209 55.7207 25.0117 55.2999 23.1567 54.3115C19.4117 52.312 17.879 49.0865 16.9787 45.5503C16.8035 44.8343 16.786 44.0852 16.6949 43.35C17.4919 41.7207 16.8701 40.032 16.5373 38.5058C15.4652 33.6668 13.9396 28.9291 10.4625 24.869C9.56379 23.7833 8.75369 22.6276 8.04 21.4131C6.48103 18.8478 6.1307 16.279 7.81579 13.5739C9.35023 11.1256 11.9006 10.1145 14.7138 9.34268C15.4039 9.15233 15.3689 9.59938 15.5073 9.98532C16.0012 11.3596 17.1223 11.9674 18.8109 11.8923C20.3716 11.8224 20.997 10.9755 21.1248 9.76877C21.1861 9.18202 21.349 9.09645 22.0392 9.18202C26.5935 9.74083 30.5312 11.4173 33.7963 14.2044C35.068 15.2906 36.0892 16.5671 36.224 18.275C36.4342 20.8647 35.4533 22.8625 32.8521 24.1984ZM42.2918 50.9167H45.4447C45.8494 50.9167 45.422 49.9807 45.6199 49.6227C46.4589 48.051 46.9109 48.0335 45.6199 46.2593C44.3027 44.4484 44.0434 42.2795 43.3428 40.2975C42.8943 39.0244 43.2482 39.4889 41.7663 39.8399C40.5979 40.1158 39.7344 39.1257 38.9303 39.9936C37.5063 41.5269 35.6145 42.1066 33.3619 42.0315C32.0902 41.9896 30.8395 42.0315 29.5345 42.3494C26.6776 43.0583 25.6966 45.6883 23.0236 46.7151C20.2963 47.7629 18.5849 45.8297 19.9495 48.505C20.2105 49.0167 21.0653 48.9399 21.272 49.4655C21.6696 50.4818 21.5505 48.8543 22.6733 48.8543C29.0616 48.87 35.9088 51.121 42.2918 50.9219V50.9167ZM22.3615 40.4861C22.3124 40.0076 22.0532 39.6653 21.4366 39.6775C20.82 39.6898 20.3681 40.0268 20.3488 40.5611C20.3313 41.0414 20.736 41.4046 21.2895 41.4221C21.9341 41.443 22.2459 41.0379 22.3615 40.4861ZM31.6908 16.6544C31.6733 16.1515 31.4175 15.8197 30.8027 15.8179C30.1879 15.8162 29.8866 16.1253 29.9146 16.6422C29.9426 17.1591 30.335 17.3896 30.9095 17.3948C31.4841 17.4001 31.7048 17.1224 31.6908 16.6544ZM21.8202 16.6055C22.2792 16.5461 22.6523 16.3209 22.6435 15.783C22.6347 15.3185 22.344 15.0461 21.8132 15.0391C21.2124 15.0304 20.8866 15.329 20.8831 15.8459C20.8796 16.3104 21.1949 16.5566 21.8202 16.6055Z" fill="#47F066"/>
<path d="M95.2317 28.0853C96.6208 34.0227 96.5104 39.8588 93.5677 45.4854C93.0807 46.4197 92.4203 47.2317 91.3606 47.7276C89.8419 48.4489 88.9888 48.145 88.3653 46.7637C88.1113 46.2014 88.1743 45.5867 87.8765 44.7031C86.1687 48.0297 82.788 48.9064 79.6438 50.0589C78.9624 50.3087 78.6103 50.6527 78.4947 51.2813C78.2285 52.7395 77.8536 54.1592 78.1584 55.682C78.5087 57.4073 77.8606 58.4254 76.4663 58.9546C74.7147 59.6199 72.942 58.7258 72.8141 57.0459C72.7388 56.0924 72.8527 55.1249 72.8649 54.168C72.89 53.6117 72.7306 53.0626 72.4115 52.6056C72.0924 52.1486 71.6312 51.809 71.0993 51.6393C70.0115 51.2551 69.211 50.8273 68.8221 49.8162C68.6469 49.3412 68.1425 48.971 67.6205 48.6881C67.5294 48.7789 67.419 48.8418 67.4278 48.8872C67.8727 51.3861 66.1473 52.6417 63.399 51.7232C61.0325 50.9303 59.0409 49.6171 57.2682 48.0315C56.8041 47.6159 56.9459 47.333 57.2227 46.9069C57.8112 45.9971 58.624 45.1117 58.1738 43.7251C57.2087 44.7904 56.4222 45.8713 54.7721 45.6461C52.213 43.4178 49.8395 41.0882 49.0723 37.8611C49.8185 37.4036 50.9711 37.6218 51.4703 36.7592C51.5057 36.75 51.5398 36.7366 51.5719 36.719C51.5859 36.7085 51.5824 36.6771 51.5859 36.6561L51.4931 36.7784C49.864 36.8343 48.27 36.6038 46.6778 36.3401C46.5832 35.9471 46.4903 35.5542 46.3958 35.1631C50.3037 35.3796 53.4023 33.801 54.7826 30.8375C55.8879 28.4695 55.7145 26.1522 54.1976 23.9501C52.728 21.8161 50.344 20.8365 47.6289 20.2829C50.1863 19.2596 52.5458 19.7485 54.9561 20.6811C54.4603 19.0884 53.2482 18.4772 49.8658 18.0127C51.3634 15.6482 53.25 13.7029 55.8774 12.332C56.1612 12.9013 55.8774 13.4916 55.965 14.0678C55.8634 16.0656 57.1036 17.5133 58.4874 18.9156C60.1532 20.5902 61.7612 22.3208 62.546 24.4688C63.2344 26.3478 63.2589 28.3106 63.1976 30.2717C63.1135 32.954 64.6497 34.7579 67.2264 36.0502C69.9835 37.4332 72.406 39.1603 73.9439 41.6505C75.1438 43.5942 76.7886 45.1973 78.6208 46.6833C79.4581 47.3627 80.2972 47.3731 81.1222 46.6833C81.7703 46.1385 82.3483 45.5238 83.049 45.0366C84.8007 43.8142 86.5155 42.4172 89.0572 43.4649C89.4688 43.6396 89.707 43.3794 89.9628 43.175C91.9456 41.5824 93.2909 39.7034 93.8829 37.3547C94.4452 35.1473 94.3366 32.8719 94.9988 30.6873C95.0688 29.8142 94.8183 28.927 95.2317 28.0853Z" fill="#00BC55"/>
<path d="M234.966 22.6582C233.614 23.3794 232.116 23.5802 230.562 23.6955C227.557 23.9173 224.607 23.1856 221.599 23.4248C219.963 23.5558 219.322 24.0517 219.426 25.4767C219.541 27.0344 220.138 28.4611 221.668 29.4443C222.953 30.2703 224.295 31.0456 225.521 31.9223C230.776 35.6314 233.733 40.5018 234.868 46.2506C235.131 47.5883 234.535 48.8369 233.793 49.9894C233.558 50.3915 233.198 50.7059 232.767 50.8847C232.336 51.0635 231.858 51.0968 231.407 50.9796C230.435 50.7717 229.958 51.224 229.83 51.933C229.671 52.7922 229.079 53.3423 228.355 53.8085C223.482 56.9606 218.056 57.9804 212.081 57.1265C209.755 56.7912 207.464 56.4804 205.316 55.5653C204.265 55.1148 203.981 54.7725 204.715 53.7649C207.099 50.5011 208.308 47.0556 206.167 43.2679C205.423 41.9495 204.358 40.8755 203.177 39.8609C202.827 39.5623 202.338 39.3702 202.175 38.8411C203.051 38.3905 203.811 38.649 204.64 39.0402C207.012 40.1578 209.387 41.1706 212.202 41.3295C214.267 41.4448 215.516 39.3353 214.507 37.954C213.498 36.5726 212.258 35.4201 210.56 34.6447C209.149 34.0004 207.604 33.5603 206.356 32.6522C204.939 31.6202 204.862 31.1661 205.943 29.928C206.854 28.8802 207.444 27.6805 208.204 26.5629C208.674 26.7777 208.504 26.4459 208.525 26.2782L208.515 26.2922C209.711 25.7875 210.003 24.7206 210.553 23.8072C212.415 20.746 213.727 17.4071 216.509 14.8173C218.318 13.1374 220.077 11.3981 222.519 10.3625C223.242 10.0552 223.92 9.89628 224.537 10.5372C225.639 11.695 227.012 11.8155 228.602 11.433C230.925 10.8759 233.271 10.6873 235.69 11.0838C238.21 11.4871 239.65 13.333 238.867 15.4355C238.246 17.0669 237.411 18.6089 236.383 20.0213C235.868 20.7442 235.203 21.4445 235.28 22.391V22.377L234.966 22.6582ZM207.675 42.1852C208.512 43.8924 209.026 45.7389 209.191 47.6319C209.273 48.4631 208.238 49.345 209.227 50.0767C210.103 50.7263 211.154 50.1256 212.123 50.1134C218.501 50.0366 224.898 50.4888 231.254 49.6349C231.985 49.5371 232.396 49.3398 232.761 48.788C233.894 47.0731 233.123 45.374 232.603 43.7656C231.742 41.0999 230.303 38.6556 228.389 36.6058C225.421 33.4223 221.948 30.8431 217.136 29.9804C214.7 29.5473 212.191 29.5473 209.779 28.9728C209.594 28.9139 209.395 28.915 209.211 28.9759C209.026 29.0367 208.866 29.1542 208.753 29.3116C206.843 31.6656 206.917 31.5032 209.434 32.5876C210.017 32.8391 210.587 33.1115 211.186 33.3437C213.375 34.1907 214.906 35.6873 216.176 37.3602C216.982 38.4255 216.977 39.7177 216.301 40.8423C215.6 42.0158 214.659 42.9379 212.806 42.8401C211.172 42.751 209.546 42.7423 207.675 42.1852ZM224.178 14.9972C224.178 14.0944 223.5 13.787 222.626 13.7748C221.534 13.7486 220.256 14.9413 220.38 15.8599C220.482 16.5985 221.062 17.0246 221.888 17.0823C222.845 17.1347 224.19 15.8738 224.178 14.9972ZM232.559 15.4687C232.675 16.3104 233.146 16.8657 234.094 16.8151C235.122 16.7557 235.509 16.0293 235.511 15.2434C235.511 14.4995 234.963 13.9809 234.089 14.021C233.104 14.0769 232.635 14.6689 232.559 15.4687ZM224.372 18.6854C224.998 18.6679 225.301 18.2802 225.262 17.7546C225.252 17.6365 225.219 17.5215 225.163 17.4168C225.107 17.312 225.031 17.2197 224.938 17.1453C224.846 17.071 224.739 17.0162 224.624 16.9844C224.51 16.9525 224.39 16.9442 224.272 16.96C223.659 17.0002 223.305 17.3879 223.314 17.9397C223.323 18.4915 223.731 18.6749 224.372 18.6854Z" fill="#47F066"/>
<path d="M206.362 23.6337C204.539 27.7742 201.657 31.155 197.337 33.6155C195.964 34.3961 194.957 34.115 193.796 33.5038C193.331 33.2593 193.095 32.7599 192.419 32.6306C192.047 33.5143 192.82 33.9997 193.295 34.5341C195.346 36.8671 197.966 38.7165 200.345 40.7701C200.871 41.2311 201.379 41.7183 201.892 42.1951C204.283 44.4181 204.71 46.9101 203.27 49.6797C202.48 51.2042 202.058 52.8335 200.468 54.0454C198.877 55.2573 197.886 55.535 196.145 54.3947C194.486 53.3137 193.282 51.8381 192.03 50.4271C190.131 48.2879 188.425 46.0282 186.761 43.744C186.367 43.2009 186.06 42.5932 185.167 42.0781C185.528 44.1893 185.913 46.1138 186.174 48.0539C186.525 50.6733 187.472 53.2561 186.957 55.9559C186.754 57.0193 186.553 58.0374 185.381 58.6277C184.712 58.963 184.855 59.4886 184.866 60.0107C184.878 61.172 185.319 62.356 184.615 63.4824C184.246 64.0744 183.902 64.6733 182.948 64.5302C182.105 64.4062 181.867 63.8508 181.711 63.2187C181.577 62.6187 181.574 61.9971 181.701 61.3956C181.876 60.4403 181.545 59.9234 180.325 59.8658C179.45 59.8239 178.542 59.8658 177.68 59.5165C176.223 58.9141 175.908 58.0025 176.82 56.8884C178.332 55.0408 179.355 53.0588 179.227 50.696C179.094 48.2599 179.168 45.8239 178.621 43.4018C178.026 40.7631 176.088 39.2019 173.466 38.1838C172.639 37.8625 172.485 37.5237 172.569 36.8182C173.095 32.4001 173.869 28.003 174.121 23.5604C174.147 23.1256 174.186 22.7484 174.948 22.7239C179.012 22.5964 181.813 20.5411 182.736 17.0939C182.827 16.7551 182.939 16.4215 183.04 16.0845C184.904 14.7469 185.782 12.8871 186.402 10.9557C186.826 9.6372 187.737 8.84089 189.087 8.35543C192.083 7.27796 195.15 6.45022 198.448 6.52357C197.556 8.57546 197.775 9.73849 199.235 10.54C199.872 10.8893 200.546 11.1617 201.349 11.0849C202.599 10.9644 203.249 10.1192 204.029 9.30715C204.272 9.66689 204.467 9.91661 204.616 10.1803C206.394 13.4109 206.262 16.8686 206.043 20.3088C205.98 21.4268 206.088 22.5479 206.362 23.6337ZM183.631 42.5269C183.601 41.8703 183.494 41.1456 184.515 40.8434C185.46 40.5623 186.248 40.6688 186.938 41.3673C188.288 42.7172 189.296 44.2679 190.415 45.7523C192.307 48.2599 194.227 50.7484 196.756 52.816C197.954 53.7939 198.443 53.7171 199.671 52.8055C200.58 52.1315 200.769 51.185 201.275 50.3607C202.78 47.8967 203.113 45.5218 200.716 43.2987C200.375 42.9827 200.081 42.6264 199.721 42.3278C197.989 40.8854 196.185 39.5075 194.523 38.0075C193.316 36.9195 192.1 35.8106 191.194 34.5044C190.615 33.6714 190.639 32.7267 191.037 31.8605C191.352 31.1742 192.175 31.2895 192.878 31.2877C193.517 31.2877 193.79 31.7697 194.244 32.009C194.913 32.3582 195.47 33.0672 196.472 32.5468C198.393 31.5431 200.119 30.2068 201.569 28.6002C202.021 28.1095 201.904 27.7096 201.252 27.6659C198.956 27.5122 196.754 26.9465 194.524 26.5396C191.021 25.9004 187.42 26.7788 183.864 25.642C181.732 24.9627 179.19 24.9662 176.833 24.6728C175.957 24.5628 175.824 24.7374 175.797 25.4132C175.654 28.9233 175.049 32.3984 174.524 35.8735C174.384 36.7938 174.655 37.0715 175.454 37.4364C178.068 38.6309 179.77 40.4435 180.376 43.0246C180.807 44.8686 181.532 46.6918 181.541 48.569C181.541 49.8264 181.949 50.3241 183.915 50.1407C185.491 49.9975 184.649 49.1279 184.554 48.4957C184.254 46.5154 183.943 44.5438 183.631 42.5269ZM184.818 20.6354C184.818 21.3339 184.789 22.0324 184.818 22.7309C184.908 24.3986 185.901 25.1111 187.765 24.781C188.98 24.5645 190.154 24.1681 191.373 23.9638C194.389 23.4556 196.202 21.842 197.003 19.3396C197.367 18.201 197.178 17.0991 196.045 16.2504C193.682 14.4779 188.513 14.698 186.172 16.4827C184.594 17.6859 184.789 19.1318 184.818 20.6354ZM202.822 16.2225C202.647 15.4943 202.144 15.0228 201.209 15.0315C200.314 15.0315 199.828 15.4751 199.86 16.2539C199.895 17.0956 200.56 17.5409 201.408 17.52C202.17 17.5008 202.782 17.0589 202.822 16.2225Z" fill="#47F066"/>
<path d="M179.045 18.1615C177.747 19.9776 175.873 20.484 173.58 20.0056C169.766 19.2092 165.909 18.3448 162.019 19.803C159.622 20.7006 158.705 22.0016 158.953 24.2054C159.164 26.0792 160.723 27.0798 162.842 26.6502C163.812 26.4511 164.737 26.0949 165.701 25.8713C167.452 25.4662 168.312 26.0111 168.342 27.546C168.377 29.3773 168.377 31.2098 168.342 33.0434C168.316 34.4212 167.827 34.7024 166.265 34.3531C162.492 33.5079 159.298 35.2874 158.614 38.6175C158.205 40.6031 159.381 41.8831 161.74 42.0246C163.831 42.1661 165.93 41.9397 167.941 41.3557C168.603 41.1619 169.283 41.0065 169.962 40.872C173.079 40.2486 175.175 41.4291 175.69 44.19C176.144 46.6399 176.321 49.133 176.216 51.6222C176.141 53.4732 175.209 55.0292 173.781 56.2795C172.555 57.3553 170.665 57.0042 169.116 57.4356C168.727 57.5272 168.327 57.5688 167.927 57.5596C166.45 57.577 165.816 58.3279 165.608 59.5032C165.554 59.9394 165.421 60.3621 165.214 60.75C165.033 61.0658 164.765 61.3233 164.442 61.4923C164.119 61.6612 163.754 61.7345 163.39 61.7035C162.604 61.6599 162.317 61.1272 162.108 60.5789C161.889 60.0026 161.639 59.4176 161.56 58.8221C161.385 57.4775 160.365 57.144 159.053 57.0846C157.013 56.9903 154.951 57.137 152.945 56.6725C152.364 56.5625 151.793 56.4048 151.237 56.201C149.508 55.4815 149.099 53.9762 150.186 52.6962C152.84 49.5877 154.068 46.1318 154.068 42.2184C154.068 39.0925 153.881 36.0453 152.763 33.0661C152.292 31.8087 151.659 30.6213 150.661 29.6276C150.136 29.1037 150.071 28.6864 150.572 28.1468C151.942 26.6712 152.816 24.9703 153.446 23.1646C153.59 23.1518 153.728 23.1016 153.846 23.0188C153.964 22.936 154.058 22.8237 154.119 22.6931C155.215 19.899 156.342 17.0892 155.828 14.0629C155.578 12.5856 155.138 11.1309 154.679 9.23268C156.585 10.7275 158.384 10.4132 160.208 10.0901C161.131 9.92595 162.085 9.905 163.01 9.79149C164.005 9.66925 164.476 9.91024 164.412 10.8969C164.338 11.9796 165.093 12.7567 166.221 13.0536C167.522 13.4028 168.896 13.4814 170.038 12.5786C170.947 11.8556 171.264 11.0069 170.649 10.0028C170.418 9.62385 170.388 9.33222 171.02 9.30427C172.909 9.21172 174.797 9.12965 176.684 9.02138C177.332 8.9847 177.584 9.25363 177.594 9.78974C177.636 11.791 178.276 13.7381 178.265 15.7533C178.285 16.5601 178.199 17.4979 179.045 18.1615ZM166.815 29.9367C166.701 29.2714 167.258 28.1293 166.594 27.6176C165.965 27.1304 164.888 27.9669 163.967 28.1136C163.678 28.1877 163.386 28.246 163.091 28.2882C160.258 28.4 157.937 27.8516 157.501 24.8829C157.426 24.3678 157.436 23.9033 156.636 23.9434C155.976 23.9766 155.235 23.7409 154.958 24.6193C154.525 25.9691 153.747 27.1968 152.821 28.3389C152.485 28.7545 152.471 29.0129 152.775 29.4792C153.399 30.4117 154.094 31.3215 154.459 32.3798C156.267 37.5302 156.463 43.1069 155.019 48.3706C154.706 49.5476 154.963 49.8881 156.336 49.8672C157.175 49.8549 158.011 49.6366 158.848 49.6314C163.53 49.6052 168.214 49.6314 172.896 49.607C173.993 49.607 174.725 49.1896 174.599 48.0877C174.473 46.9858 174.438 45.9188 174.215 44.857C173.725 42.5065 172.664 41.8709 170.012 42.5869C167.237 43.367 164.358 43.7145 161.477 43.6172C160.449 43.5909 159.454 43.2487 158.628 42.6375C156.808 41.3173 156.701 39.6531 157.172 37.7793C157.783 35.3223 160.977 32.874 163.776 32.8583C166.813 32.8303 166.813 32.8303 166.815 29.9332V29.9367ZM173.392 16.5671C173.236 15.9507 173.042 15.3622 172.143 15.3255C171.168 15.2853 170.805 15.8494 170.766 16.5566C170.73 17.2167 171.22 17.6044 171.977 17.6323C172.809 17.6655 173.264 17.2883 173.392 16.5636V16.5671Z" fill="#47F066"/>
<path d="M121.153 24.7217C121.854 26.1345 122.004 27.652 122.179 29.1556C122.728 33.8339 122.717 38.5524 120.985 43.0072C119.252 47.462 116.101 51.0157 111.018 53.1549C105.357 55.5386 99.6077 55.7237 93.6626 54.3336C91.3644 53.7958 89.7354 52.5576 88.5425 50.7048C92.9006 50.4534 94.8852 47.8112 96.5685 44.8967C97.3949 43.4758 97.9863 41.9315 98.3202 40.3231C98.413 39.8656 98.4954 39.5722 99.1575 39.8603C104.442 42.148 111.68 38.4738 110.894 31.5532C110.796 30.8608 110.639 30.1779 110.426 29.5118C109.065 24.8964 106.52 23.185 101.065 23.2863C101.736 21.4003 101.799 19.5475 101.014 17.6789C99.5498 14.1864 96.4687 12.3335 92.1999 12.3458C91.1174 12.3458 89.907 12.9116 88.9331 11.9965C89.681 11.1688 90.4851 10.3707 91.6429 9.99001C96.5107 8.39216 101.212 8.62791 105.716 11.0098C106.25 11.2927 106.376 11.4429 106.017 11.9878C105.076 13.4093 105.474 15.0578 106.803 15.8296C108.278 16.7028 109.944 16.4548 111.16 15.0979C111.566 14.6421 111.769 14.4972 112.27 14.9477C113.63 16.1701 115.001 17.3629 116.017 18.8437C117.119 20.4521 118.314 22.0115 119.508 23.5674C119.829 23.9848 120.183 24.4598 120.909 24.4406L120.874 24.4301C120.962 24.5331 121.057 24.6222 121.153 24.7217ZM91.8216 51.9185C93.4191 52.9837 95.3827 53.078 97.1238 53.4657C100.144 54.1464 103.286 54.0762 106.273 53.2614C110.894 51.9901 114.957 50.139 117.499 46.2221C119.056 43.8209 119.836 41.2941 120.538 38.6624C121.668 34.4259 120.925 30.3046 120.002 26.1572C119.827 25.3888 119.496 25.3155 118.673 25.4587C116.571 25.8079 114.458 26.0507 112.344 26.3091C111.431 26.4209 111.324 26.833 111.631 27.4879C112.518 29.3586 112.903 31.4265 112.749 33.4899C112.545 36.3416 111.128 38.6572 108.587 40.4192C106.288 42.0153 103.552 42.2178 100.762 41.9908C99.9948 41.9297 99.711 42.1008 99.5358 42.7243C98.3692 46.6255 95.9905 49.7688 91.8216 51.9185ZM111.776 21.3357C112.652 21.3951 113.239 20.9707 113.199 20.3036C113.153 19.5283 112.794 18.7564 111.638 18.6743C110.692 18.6062 110.154 19.076 110.14 19.7972C110.121 20.6703 110.713 21.2466 111.776 21.3357Z" fill="#47F066"/>
<path d="M148.431 26.035C147.696 27.0828 146.916 28.024 145.233 27.4023C145.017 27.322 144.739 27.3639 144.488 27.3657C143.95 27.3657 143.196 27.219 143.033 27.7516C142.87 28.2842 143.693 28.3069 144.084 28.4676C148.244 30.1702 150.151 33.228 150.873 36.9912C152.043 43.1033 150.02 48.4242 145.28 52.9034C143.255 54.8156 140.519 56.0084 137.525 56.3559C133.822 56.7837 130.109 57.332 126.336 56.9217C125.392 56.8443 124.455 56.6948 123.533 56.4746C120.757 55.7324 119.142 52.3342 120.661 50.188C124.092 45.3472 125.588 40.0368 125.951 34.4242C127.03 32.5033 126.769 30.4077 126.921 28.3733C127.446 28.4728 127.446 28.8256 127.446 29.1871C127.446 30.7587 127.403 32.3304 127.466 33.902C127.674 39.1322 126.62 44.1109 123.754 48.7595C122.92 50.1129 123.153 50.3888 124.98 50.3888C128.308 50.3888 131.636 50.408 134.965 50.3643C138.293 50.3207 141.654 50.1897 145 50.1478C145.714 50.1478 146.077 49.8492 146.447 49.4091C148.049 47.5039 148.796 45.3193 149.358 43.0421C150.034 40.3144 149.652 37.6671 148.676 35.086C147.65 32.3671 145.537 30.523 142.371 29.5905C141.33 29.2831 141.078 28.389 141.32 27.5106C141.443 27.0684 141.717 26.6832 142.095 26.4216C142.473 26.16 142.931 26.0387 143.39 26.0787C145.329 26.2061 146.97 25.939 148.119 24.4424C148.316 24.9715 147.93 25.5652 148.431 26.035Z" fill="#47F066"/>
<path d="M126.928 28.3806C126.775 30.4185 127.036 32.507 125.957 34.4315C125.98 29.0407 124.675 23.8873 122.312 18.9226C121.622 17.4539 120.771 16.0654 119.776 14.7822C118.772 13.4969 118.637 11.6004 119.737 10.3885C122.496 7.34996 125.794 4.84752 129.86 3.19203C131.218 2.90913 133.791 2.09361 134.414 3.62337C134.689 4.27299 135.225 4.55414 136.029 4.48778C145.471 3.69846 153.213 11.5463 151.094 20.1311C150.592 22.253 149.683 24.258 148.417 26.0353C147.916 25.5655 148.301 24.9631 148.104 24.4497C148.121 24.275 148.14 24.1126 148.158 23.9432C148.811 20.9379 148.599 17.9814 147.65 15.0371C147.406 14.281 147.268 14.2181 146.538 14.6879C145.525 15.3497 144.105 15.1227 143.46 14.3386C142.735 13.4655 142.906 11.7349 143.961 11.3123C145.203 10.8146 144.676 10.4199 144.059 9.99559C141.416 8.18119 138.52 7.07404 135.078 7.88607C133.745 8.20215 132.164 8.44837 131.575 7.3028C130.626 5.47618 129.722 6.16946 128.567 6.92037C128.25 7.12468 127.856 7.23819 127.516 7.41282C124.363 8.99846 122.34 11.1935 122.335 14.5272C122.335 15.7391 123.172 16.6542 123.712 17.6705C124.915 19.9407 125.448 22.3855 126.392 24.7151C126.572 25.941 126.75 27.1628 126.928 28.3806Z" fill="#CCFFD7"/>
<path d="M32.852 24.198C35.4532 22.8621 36.4271 20.8643 36.2222 18.2746C36.0873 16.5667 35.0661 15.2901 33.7944 14.204C30.5293 11.4099 26.5934 9.74043 22.0373 9.18162C21.3472 9.09605 21.1843 9.18162 21.123 9.76837C20.9951 10.9751 20.3697 11.822 18.809 11.8919C17.1204 11.967 16.0064 11.368 15.5054 9.98491C15.367 9.60422 15.4021 9.15193 14.7137 9.34228C11.911 10.1141 9.35187 11.1252 7.81742 13.5735C6.13058 16.2786 6.48091 18.8473 8.03988 21.4127C8.75085 22.6263 9.55801 23.7814 10.4537 24.8668C13.9307 28.9269 15.4564 33.6646 16.5284 38.5036C16.8682 40.0351 17.483 41.7185 16.686 43.3478C16.0093 40.3419 15.0812 37.3979 13.9114 34.5465C12.7238 31.6197 10.3994 29.2902 8.34642 26.8366C6.96671 25.204 5.6997 23.48 4.5541 21.6763C1.57629 16.9614 4.2896 11.1986 10.0613 8.8603C17.9805 5.64712 25.1115 7.44755 32.013 11.1951C34.8576 12.7475 37.1611 14.7593 38.7498 17.3647C39.8288 19.1372 39.8989 20.9499 38.4818 22.5338C37.0945 24.0845 35.1046 24.6066 32.852 24.198Z" fill="#CCFFD7"/>
<path d="M55.9599 14.0682C55.8758 13.4919 56.1561 12.9017 55.8723 12.3324L55.8968 12.3027C56.1105 12.3516 56.1806 12.266 56.1578 12.0931C59.7487 9.56274 64.0017 8.35256 68.3931 7.43576C71.0854 6.8752 73.8145 6.66914 76.5558 7.15111C77.3843 7.29606 78.4826 7.50037 78.5229 8.29668C78.5632 9.09299 77.4509 9.30255 76.6749 9.60116C76.1704 9.795 75.4487 9.73039 75.1965 10.5564C76.8676 10.5564 78.3495 10.3713 79.714 9.54353C80.0258 9.35144 80.1291 8.52719 80.7843 9.11045C81.343 9.60815 81.3098 10.2106 80.7948 10.7642C80.3061 11.2881 79.3602 11.4383 79.1903 12.3027C80.187 12.4354 81.005 12.0495 81.6268 11.5256C82.394 10.8864 82.9388 11.0803 83.6867 11.5029C88.9627 14.4855 92.1998 18.7709 94.1196 23.8893C94.631 25.2497 95.1092 26.6328 95.2354 28.0804C94.822 28.9221 95.0725 29.8093 94.9989 30.6754C93.7727 29.6661 93.5485 28.2411 93.0721 26.9488C92.3977 25.1152 91.443 23.4021 90.4744 21.6873C90.2414 21.2751 90.0838 20.9765 89.3796 21.338C87.8294 22.1483 86.6365 21.937 85.7011 20.8647C84.6922 19.7174 84.7447 18.3815 85.8185 17.2971C86.034 17.0805 86.4876 17.0404 86.4736 16.6544C86.4298 15.7167 83.7936 14.145 82.7601 14.4943C80.9419 15.0967 79.3024 14.8662 77.9764 13.6211C77.4228 13.0972 76.9446 13.0379 76.1669 13.1566C74.1893 13.4465 72.5655 12.3987 72.3886 10.6524C72.3221 10.0115 71.9945 10.1076 71.5636 10.0535C68.3546 9.65006 65.3733 10.1757 62.4953 11.4941C60.3828 12.4633 58.1425 13.2195 55.9599 14.0682Z" fill="#CCFFD7"/>
<path d="M206.362 23.6341C206.083 22.5513 205.97 21.4326 206.027 20.3161C206.246 16.8846 206.377 13.427 204.6 10.1963C204.451 9.92916 204.249 9.67245 204.013 9.32319C203.233 10.1352 202.583 10.9804 201.333 11.1009C200.53 11.1778 199.856 10.9088 199.218 10.5561C197.759 9.74754 197.54 8.58451 198.432 6.53961C195.134 6.46626 192.066 7.294 189.071 8.37147C187.721 8.85694 186.81 9.65324 186.386 10.9717C185.766 12.9031 184.888 14.7629 183.024 16.1006C183.385 13.6365 183.725 11.1708 183.566 8.67707C183.539 8.27891 183.599 7.90171 184.091 7.68692C189.145 5.51977 194.076 3.09941 200.017 3.2915C203.662 3.4085 206.116 4.93302 207.619 7.73756C209.34 10.9472 209.515 14.2722 208.525 17.6792C207.945 19.6944 207.336 21.7131 206.362 23.6341Z" fill="#CCFFD7"/>
<path d="M179.045 18.1612C178.199 17.5011 178.285 16.5634 178.288 15.7444C178.299 13.7292 177.66 11.782 177.618 9.78078C177.607 9.24467 177.355 8.97574 176.707 9.01242C174.82 9.1137 172.932 9.20276 171.044 9.29532C170.411 9.32675 170.441 9.61838 170.672 9.99383C171.289 10.9997 170.97 11.8467 170.061 12.5696C168.919 13.4724 167.546 13.3869 166.244 13.0446C165.116 12.7477 164.361 11.9706 164.435 10.8879C164.501 9.90128 164.03 9.66553 163.033 9.78253C162.1 9.89604 161.145 9.917 160.231 10.0811C158.407 10.4042 156.608 10.7185 154.702 9.22372C155.161 11.1219 155.601 12.5766 155.851 14.054C156.365 17.0803 155.238 19.8883 154.142 22.6841C154.081 22.8147 153.987 22.9271 153.869 23.0098C153.751 23.0926 153.613 23.1429 153.469 23.1556C154.112 20.9323 154.374 18.6169 154.245 16.3067C154.128 13.9449 153.3 11.6731 151.868 9.78777C150.933 8.54092 150.975 8.56536 152.616 7.91749C153.862 7.43202 155.165 7.19452 156.487 6.96576C157.538 6.79113 158.514 6.81383 159.208 7.6084C159.582 8.03449 159.982 7.85812 160.413 7.83541C163.254 7.68349 165.987 6.92036 168.796 6.58681C171.925 6.21311 175.086 6.34059 178.229 6.41218C179.996 6.45584 181.077 7.89828 180.792 10.0794C180.436 12.8036 180.245 15.5697 179.045 18.1612Z" fill="#CCFFD7"/>
<path d="M235.287 22.3871C235.21 21.4406 235.875 20.7403 236.39 20.0173C237.418 18.605 238.253 17.0629 238.874 15.4316C239.657 13.336 238.217 11.4832 235.697 11.0798C233.278 10.6904 230.932 10.879 228.609 11.4291C227.019 11.8115 225.646 11.691 224.544 10.5332C223.929 9.88536 223.249 10.0443 222.526 10.3586C220.084 11.3942 218.322 13.1335 216.516 14.8134C213.729 17.4031 212.417 20.7508 210.56 23.8033C210.01 24.7096 209.718 25.7836 208.521 26.2883C209.222 23.9465 210.536 21.7759 211.06 19.3817C211.189 18.7845 211.505 18.2047 211.543 17.6075C211.787 13.7342 214.503 11.4343 218.106 9.72121C220.033 8.80441 222.027 8.0081 224.167 7.52088C225.502 7.21877 226.605 7.465 227.198 8.56866C227.595 9.31083 228.107 9.24971 228.855 9.16589C232.808 8.71884 236.762 8.1705 240.69 9.38243C242.733 10.0111 243.582 11.0711 243.3 12.9361C243.11 14.1682 242.639 15.3406 241.925 16.3641C240.24 18.8072 238.161 20.9359 235.287 22.3871Z" fill="#CCFFD7"/>
<path d="M47.4029 21.7533C51.0919 21.6957 54.1695 24.406 54.2343 27.7623C54.2956 31.22 51.2793 34.049 47.4432 34.1363C43.6071 34.2236 40.3981 31.4889 40.3175 28.061C40.2264 24.4479 43.1849 21.818 47.4029 21.7533ZM42.7172 27.6418C42.7488 29.1262 44.0975 30.2613 45.7879 30.2264C47.4397 30.1914 48.7937 28.9516 48.7499 27.5126C48.7044 26.0422 47.3486 24.9211 45.6407 24.9473C43.9329 24.9735 42.6857 26.1243 42.7172 27.6418Z" fill="#FEFEFD"/>
<path d="M120.903 24.4481C120.183 24.4691 119.829 23.9941 119.501 23.575C118.307 22.019 117.112 20.4596 116.01 18.86C114.994 17.3791 113.623 16.1829 112.263 14.964C111.762 14.5135 111.563 14.6584 111.153 15.1142C109.937 16.4711 108.271 16.7103 106.797 15.8459C105.467 15.0653 105.069 13.4168 106.01 12.004C106.36 11.4592 106.243 11.3055 105.709 11.0261C101.205 8.64417 96.5038 8.40668 91.636 10.0063C90.4851 10.3713 89.6846 11.1763 88.9332 11.9971C87.0169 10.855 87.0361 10.6611 88.9157 9.51034C94.1286 6.32335 99.5692 6.65689 105.155 8.62147C109.732 10.2316 113.335 12.8597 116.275 16.3052C118.202 18.5614 119.766 20.9503 120.804 23.6064C120.908 23.8649 121.192 24.1373 120.903 24.4481Z" fill="#CCFFD7"/>
<path d="M89.8208 14.5951C91.7476 14.1201 93.4467 13.9629 95.13 14.6894C95.6765 14.9234 95.9253 15.0596 95.5662 15.711C94.6098 17.4468 95.7413 18.8264 97.9624 18.76C98.4126 18.7478 98.8382 18.5854 98.9433 19.2036C99.369 21.589 98.7034 23.695 96.8922 25.5164C96.4683 25.9425 96.1057 26.0403 95.9078 25.3156C95.3462 23.3513 94.5444 21.4633 93.5203 19.6943C92.4747 17.8668 91.2344 16.1572 89.8208 14.5951Z" fill="#FEFEFD"/>
<path d="M49.0812 37.8716C49.8484 41.0987 52.2219 43.4283 54.781 45.6565C53.6127 45.8591 52.6353 45.5081 51.7664 44.8585C49.6907 43.3095 48.5014 41.317 47.8795 39.0206C47.615 38.0497 48.0249 37.7336 49.0812 37.8716Z" fill="#47F066"/>
<path d="M46.4048 35.1735C46.4994 35.5646 46.5922 35.9575 46.6868 36.3505C45.8617 36.2003 45.2347 35.858 45.0227 35.0826C45.5429 34.8277 45.9826 34.8591 46.4048 35.1735Z" fill="#CCFFD7"/>
<path d="M208.527 26.2747C208.506 26.4493 208.676 26.7741 208.207 26.5593C208.271 26.4213 208.245 26.2188 208.527 26.2747Z" fill="#99FA96"/>
<path d="M56.1577 12.0933C56.1805 12.2679 56.1104 12.3517 55.8967 12.3028L56.1577 12.0933Z" fill="#39CD3D"/>
<path d="M121.153 24.7219C121.056 24.6276 120.962 24.5333 120.867 24.4372C121.179 24.3656 121.109 24.5874 121.153 24.7219Z" fill="#99FA96"/>
<path d="M234.966 22.6582L235.296 22.3735C235.304 22.5726 235.145 22.6233 234.966 22.6582Z" fill="#99FA96"/>
<path d="M22.3613 40.4855C22.244 41.0374 21.9339 41.4425 21.2893 41.4215C20.7358 41.4041 20.3312 41.0408 20.3487 40.5606C20.368 40.0228 20.7989 39.6875 21.4365 39.677C22.0741 39.6665 22.3123 40.007 22.3613 40.4855Z" fill="#CCFFD7"/>
<path d="M31.6907 16.6543C31.7047 17.1224 31.4805 17.4 30.9095 17.3948C30.3385 17.3895 29.9443 17.1695 29.9145 16.6421C29.8848 16.1147 30.1966 15.8161 30.8026 15.8179C31.4087 15.8196 31.6732 16.1514 31.6907 16.6543Z" fill="#CCFFD7"/>
<path d="M21.82 16.6052C21.1859 16.5563 20.8793 16.3101 20.8828 15.8456C20.8828 15.3217 21.2121 15.03 21.813 15.0388C22.3385 15.0388 22.6345 15.3182 22.6432 15.7827C22.652 16.3205 22.2789 16.5458 21.82 16.6052Z" fill="#CCFFD7"/>
<path d="M55.9599 14.0676C58.1424 13.219 60.3828 12.4628 62.4953 11.4954C65.3732 10.1769 68.3545 9.65128 71.5636 10.0547C71.9945 10.1088 72.322 10.0128 72.3886 10.6536C72.5638 12.3895 74.1893 13.4477 76.1669 13.1491C76.9446 13.0304 77.4228 13.0915 77.9764 13.6136C79.3024 14.864 80.9419 15.0945 82.7601 14.4868C83.7936 14.1375 86.4298 15.7092 86.4631 16.6609C86.4771 17.0468 86.0234 17.087 85.808 17.3035C84.7342 18.388 84.6817 19.7239 85.6906 20.8712C86.633 21.9434 87.8259 22.1547 89.3691 21.3444C90.0697 20.976 90.2309 21.2746 90.4639 21.6937C91.4325 23.4086 92.3907 25.1217 93.0616 26.9553C93.538 28.2475 93.7622 29.6725 94.9884 30.6819C94.3263 32.8647 94.4349 35.1402 93.8726 37.3475C93.2753 39.6962 91.9353 41.5752 89.9524 43.1679C89.6967 43.3722 89.4584 43.6271 89.0468 43.4577C86.5051 42.41 84.7885 43.807 83.0386 45.0294C82.338 45.5166 81.7617 46.1313 81.1118 46.6762C80.2868 47.3747 79.4477 47.3624 78.6104 46.6762C76.7782 45.1901 75.1334 43.587 73.9335 41.6433C72.3956 39.1531 69.9731 37.426 67.216 36.043C64.641 34.7507 63.1048 32.9468 63.1872 30.2645C63.2485 28.3069 63.224 26.3406 62.5356 24.4616C61.7508 22.3136 60.1428 20.5831 58.477 18.9084C57.1037 17.5131 55.8635 16.0654 55.9599 14.0676ZM61.5862 15.2901C61.5126 14.8762 61.199 14.5706 60.635 14.5461C60.071 14.5217 58.7082 15.8244 58.7257 16.3448C58.7432 16.8652 59.076 17.1254 59.6734 17.1219C60.4721 17.1254 61.5774 16.1038 61.5862 15.2988V15.2901ZM81.5129 20.4364C81.3658 19.9561 81.0102 19.4794 80.1729 19.4637C79.4723 19.4515 79.164 19.8741 79.1867 20.3787C79.2183 21.0615 79.721 21.5156 80.5233 21.5103C81.1136 21.5156 81.5462 21.2135 81.5129 20.4451V20.4364Z" fill="#47F066"/>
<path d="M51.4984 36.7888L51.5912 36.6665C51.5912 36.6875 51.5912 36.7189 51.5772 36.7294C51.5451 36.7469 51.511 36.7604 51.4756 36.7695L51.4984 36.7888Z" fill="#032203"/>
<path d="M207.676 42.1852C209.546 42.7423 211.179 42.751 212.804 42.8418C214.658 42.9448 215.595 42.0176 216.299 40.8441C216.975 39.7194 216.98 38.4272 216.175 37.3619C214.905 35.6838 213.372 34.1872 211.184 33.3455C210.592 33.1167 210.023 32.8408 209.432 32.5893C206.915 31.5049 206.842 31.6673 208.751 29.3133C208.864 29.156 209.025 29.0385 209.209 28.9776C209.393 28.9167 209.592 28.9157 209.777 28.9745C212.184 29.549 214.693 29.549 217.134 29.9821C221.946 30.8395 225.42 33.4241 228.387 36.6076C230.301 38.6573 231.74 41.1016 232.601 43.7674C233.127 45.3757 233.892 47.0748 232.759 48.7897C232.395 49.3415 231.983 49.5389 231.253 49.6366C224.896 50.4906 224.7 55.6701 218.322 55.7487C217.357 55.7609 207.287 55.024 206.411 54.3743C205.421 53.6444 209.271 48.4684 209.189 47.6371C209.025 45.7425 208.512 43.8942 207.676 42.1852Z" fill="#00BC55"/>
<path d="M224.178 14.997C224.19 15.8701 222.845 17.1344 221.889 17.0716C221.062 17.0157 220.487 16.5896 220.38 15.8492C220.256 14.9306 221.535 13.7379 222.626 13.7641C223.5 13.7955 224.178 14.0941 224.178 14.997Z" fill="#CCFFD7"/>
<path d="M232.56 15.4686C232.635 14.6723 233.104 14.0716 234.089 14.028C234.965 13.9843 235.515 14.5029 235.511 15.2504C235.511 16.0327 235.122 16.7591 234.094 16.822C233.145 16.8692 232.675 16.3104 232.56 15.4686Z" fill="#CCFFD7"/>
<path d="M224.372 18.6848C223.731 18.6848 223.321 18.484 223.321 17.9391C223.321 17.3943 223.672 16.9996 224.279 16.9595C224.397 16.9437 224.517 16.9519 224.632 16.9838C224.746 17.0157 224.853 17.0704 224.946 17.1448C225.038 17.2191 225.115 17.3115 225.17 17.4162C225.226 17.5209 225.26 17.6359 225.269 17.754C225.301 18.2744 224.998 18.6621 224.372 18.6848Z" fill="#CCFFD7"/>
<path d="M183.631 42.5272C183.942 44.5441 185.831 53.3943 186.128 55.3676C186.197 55.8269 186.332 56.1395 186.036 56.5289C185.905 56.6865 185.743 56.8147 185.559 56.905C185.375 56.9953 185.174 57.0457 184.969 57.0528C183.361 57.1506 178.227 58.5476 178.912 57.2711C179.469 56.2233 180.313 54.6726 180.613 53.5515C181.509 50.1969 180.704 44.4201 180.374 43.0126C179.768 40.4299 178.066 38.6172 175.452 37.4245C174.653 37.0595 174.382 36.7819 174.522 35.8616C175.048 32.3864 175.652 28.9113 175.795 25.4013C175.822 24.7255 175.955 24.5508 176.831 24.6609C179.188 24.9542 181.735 24.9507 183.862 25.63C187.418 26.7669 191.012 25.8885 194.522 26.5276C196.752 26.9345 198.954 27.5003 201.25 27.654C201.902 27.6977 202.019 28.0976 201.567 28.5883C200.117 30.1948 198.391 31.5312 196.47 32.5349C195.465 33.0588 194.911 32.3515 194.242 31.997C193.788 31.7578 193.515 31.2758 192.876 31.2758C192.175 31.2758 191.35 31.1623 191.035 31.8486C190.637 32.7217 190.613 33.6595 191.192 34.4925C192.1 35.7987 193.315 36.9076 194.521 37.9955C196.183 39.4956 197.987 40.8734 199.719 42.3159C200.07 42.6145 200.373 42.9707 200.714 43.2868C203.111 45.5098 202.778 47.8848 201.273 50.3488C200.767 51.1783 200.572 52.1248 199.669 52.7936C198.442 53.7052 197.952 53.782 196.754 52.8041C194.225 50.7365 192.305 48.248 190.413 45.7403C189.294 44.256 188.286 42.7053 186.936 41.3554C186.246 40.6569 185.458 40.5573 184.513 40.8315C183.494 41.1458 183.601 41.8706 183.631 42.5272Z" fill="#00BC55"/>
<path d="M184.818 20.6356C184.788 19.1321 184.594 17.6861 186.177 16.476C188.514 14.6913 193.687 14.4712 196.05 16.2437C197.181 17.0924 197.372 18.1943 197.008 19.3329C196.207 21.8353 194.394 23.4489 191.378 23.9571C190.152 24.1614 188.985 24.5578 187.77 24.7743C185.906 25.1044 184.913 24.3919 184.823 22.7242C184.788 22.0292 184.818 21.3324 184.818 20.6356Z" fill="#00160A"/>
<path d="M202.822 16.2225C202.782 17.059 202.17 17.5008 201.408 17.52C200.569 17.541 199.895 17.0957 199.86 16.254C199.828 15.4751 200.314 15.0315 201.209 15.0315C202.14 15.0176 202.641 15.4943 202.822 16.2225Z" fill="#CCFFD7"/>
<path d="M166.815 29.9331C166.815 32.8302 166.815 32.8302 163.789 32.8494C160.987 32.8651 157.797 35.3134 157.186 37.7705C156.718 39.6443 156.821 41.3085 158.641 42.6287C159.468 43.2399 160.463 43.582 161.491 43.6083C164.372 43.7057 167.251 43.3581 170.025 42.578C172.676 41.8638 173.737 42.4994 174.229 44.8482C174.452 45.91 174.487 47.0014 174.613 48.0788C174.739 49.1563 174.581 54.3655 173.483 54.3655C169.805 55.8935 163.276 55.8673 158.594 55.8935C153.689 55.8935 153.164 55.4342 152.463 54.823C151.493 53.9761 154.369 49.537 154.683 48.3617C156.117 42.9884 156.291 37.6587 154.472 32.3709C154.108 31.3127 153.413 30.4029 152.789 29.4704C152.477 29.0041 152.498 28.7456 152.835 28.33C153.761 27.188 154.539 25.9603 154.972 24.6104C155.254 23.7373 155.989 23.9678 156.65 23.9346C157.45 23.8944 157.44 24.359 157.515 24.8741C157.951 27.8428 160.272 28.3911 163.105 28.2794C163.399 28.2372 163.692 28.1789 163.98 28.1048C164.893 27.9651 165.97 27.1216 166.608 27.6088C167.258 28.1257 166.701 29.2678 166.815 29.9331Z" fill="#00BC55"/>
<path d="M173.392 16.5629C173.264 17.2789 172.809 17.6648 171.977 17.6282C171.22 17.5933 170.73 17.2126 170.767 16.5525C170.805 15.8539 171.168 15.2812 172.143 15.3213C173.044 15.3667 173.238 15.9465 173.392 16.5629Z" fill="#CCFFD7"/>
<path d="M91.8213 51.9186C95.9902 49.7689 98.3689 46.6256 99.532 42.7209C99.7177 42.0975 99.9945 41.9263 100.758 41.9875C103.549 42.211 106.285 42.0084 108.583 40.4158C111.124 38.6538 112.542 36.3382 112.745 33.4865C112.899 31.4232 112.514 29.3552 111.627 27.4845C111.321 26.8331 111.428 26.4175 112.34 26.3058C114.454 26.0473 116.574 25.8063 118.669 25.4553C119.492 25.3174 119.827 25.3907 119.998 26.1538C120.921 30.3013 121.664 34.4225 120.534 38.659C119.834 41.2907 119.052 43.8176 117.495 46.2187C114.954 50.1357 110.89 51.9815 106.269 53.258C103.282 54.0734 100.14 54.1441 97.12 53.4641C95.3824 53.0869 93.4188 52.9839 91.8213 51.9186Z" fill="#00BC55"/>
<path d="M111.776 21.3359C110.713 21.2468 110.121 20.6705 110.14 19.7974C110.154 19.0762 110.692 18.6064 111.638 18.6745C112.794 18.7566 113.153 19.5285 113.198 20.3038C113.239 20.9709 112.65 21.3952 111.776 21.3359Z" fill="#CCFFD7"/>
<path d="M126.928 28.3808C126.749 27.1619 126.574 25.943 126.402 24.7241C128.998 24.2316 131.657 24.4027 134.285 24.2718C138.906 24.0413 143.542 23.7479 148.184 23.9435C148.167 24.1181 148.147 24.2805 148.13 24.4499C146.984 25.9465 145.343 26.2136 143.4 26.0862C142.942 26.0462 142.484 26.1675 142.106 26.4291C141.727 26.6907 141.453 27.076 141.33 27.5181C141.086 28.3913 141.339 29.2906 142.381 29.598C145.55 30.5305 147.662 32.3746 148.687 35.0935C149.663 37.6746 150.044 40.3219 149.368 43.0497C148.806 45.3198 148.06 47.5114 146.457 49.4166C146.087 49.8567 142.136 53.2986 141.435 53.6077C138.808 55.1357 134.971 55.857 131.626 55.9006C128.28 55.9443 124.444 55.595 123.043 53.6077C122.088 52.2544 122.941 50.1239 123.775 48.7705C126.641 44.1219 127.695 39.1432 127.487 33.913C127.424 32.3414 127.469 30.7697 127.467 29.1981C127.457 28.8331 127.452 28.4803 126.928 28.3808ZM134.985 45.1452C138.11 45.2936 140.484 44.3699 142.157 42.166C144.893 38.5634 142.966 34.9346 139.209 33.5027C136.366 32.4182 133.313 32.8723 130.725 34.6133C129.748 35.2717 129.571 36.4207 130.31 37.2799C131.176 38.2858 131.58 39.2445 130.778 40.4966C129.976 41.7487 130.414 43.027 131.479 44.0992C132.489 45.1312 133.742 45.2779 134.991 45.1487L134.985 45.1452Z" fill="#00BC55"/>
<path d="M148.172 23.9431C143.53 23.7493 138.888 24.0409 134.273 24.2714C131.654 24.4024 128.993 24.2312 126.39 24.7237C125.444 22.3889 124.912 19.9389 123.708 17.6774C123.169 16.6611 122.328 15.746 122.332 14.5341C122.332 11.2004 124.369 9.00533 127.513 7.4197C127.863 7.24507 128.252 7.13156 128.564 6.92724C129.718 6.17633 130.622 5.48306 131.572 7.30968C132.165 8.45525 133.747 8.20902 135.075 7.89294C138.517 7.08091 141.412 8.18806 144.056 10.0025C144.672 10.4268 145.199 10.8215 143.957 11.3192C142.906 11.7418 142.731 13.4654 143.456 14.3455C144.101 15.1296 145.522 15.3566 146.534 14.6947C147.265 14.218 147.41 14.2809 147.646 15.044C148.613 17.9865 148.825 20.9377 148.172 23.9431ZM134.148 13.3641C132.787 13.385 131.626 13.7692 130.689 14.6773C130.205 15.1488 130.091 15.629 130.573 16.0621C131.764 17.1343 131.808 18.4755 131.889 19.8271C131.964 21.06 132.875 21.7218 134.276 21.5105C134.908 21.3984 135.525 21.2193 136.119 20.9762C138.273 20.1484 139.286 18.5768 138.829 16.8305C138.322 14.8851 136.259 13.3571 134.148 13.3641ZM144.788 19.2089C144.627 18.685 144.422 18.1961 143.653 18.2048C143.523 18.1965 143.393 18.2145 143.27 18.2576C143.147 18.3007 143.034 18.368 142.938 18.4556C142.842 18.5431 142.765 18.6491 142.711 18.7671C142.657 18.8852 142.628 19.0129 142.624 19.1426C142.582 19.6944 143.059 19.979 143.675 20.0297C144.353 20.0821 144.676 19.7503 144.788 19.2089ZM127.007 18.1419C127.56 18.0476 127.784 17.7385 127.72 17.295C127.655 16.8514 127.294 16.6157 126.777 16.6541C126.332 16.6873 126.001 16.9056 126.042 17.3194C126.091 17.8014 126.469 18.0633 127.007 18.1332V18.1419Z" fill="#47F066"/>
<path d="M42.7174 27.6418C42.6859 26.1242 43.9348 24.9734 45.6409 24.9472C47.347 24.921 48.7045 26.0422 48.7501 27.5125C48.7939 28.9515 47.4398 30.1913 45.788 30.2263C44.0977 30.2612 42.7489 29.1261 42.7174 27.6418ZM44.9945 26.3146C44.3797 26.4036 44.0854 26.7686 44.0802 27.296C44.0757 27.3778 44.0895 27.4596 44.1206 27.5355C44.1517 27.6114 44.1993 27.6794 44.2599 27.7347C44.3206 27.79 44.3928 27.8312 44.4714 27.8553C44.55 27.8794 44.6329 27.8858 44.7143 27.874C44.9722 27.875 45.221 27.7793 45.4115 27.6059C45.6019 27.4325 45.7201 27.1941 45.7425 26.938C45.8073 26.5241 45.5008 26.3163 44.9998 26.3146H44.9945Z" fill="#032203"/>
<path d="M61.586 15.299C61.586 16.104 60.472 17.1256 59.6732 17.1309C59.0812 17.1309 58.7466 16.8794 58.7256 16.3538C58.7046 15.8281 60.0638 14.5289 60.6349 14.5551C61.2059 14.5813 61.5124 14.8851 61.586 15.299Z" fill="#CCFFD7"/>
<path d="M81.5129 20.4451C81.5462 21.2135 81.1135 21.5156 80.5232 21.5191C79.721 21.5191 79.2182 21.0703 79.1867 20.3875C79.1639 19.8828 79.4775 19.4602 80.1729 19.4724C81.0102 19.4881 81.3658 19.9649 81.5129 20.4451Z" fill="#CCFFD7"/>
<path d="M134.991 45.1484C133.742 45.2776 132.49 45.1309 131.476 44.1006C130.425 43.0284 129.983 41.7501 130.775 40.498C131.567 39.2459 131.173 38.2872 130.307 37.2813C129.568 36.4222 129.745 35.2731 130.722 34.6148C133.31 32.8685 136.363 32.4197 139.206 33.5041C142.963 34.9361 144.89 38.5684 142.154 42.1675C140.483 44.373 138.116 45.2968 134.991 45.1484ZM135.137 43.6588C136.067 43.6029 137.179 43.4842 138.167 43.0633C141.334 41.7309 143.247 37.6778 139.297 35.081C137.393 33.8307 134.9 33.9843 132.304 35.3936C131.502 35.8302 131.406 36.1742 131.97 36.8151C132.959 37.9414 133.115 39.197 132.504 40.5155C131.561 42.5464 132.409 43.6309 135.137 43.6571V43.6588Z" fill="#47F066"/>
<path d="M134.148 13.3643C136.25 13.3643 138.322 14.8853 138.828 16.8306C139.286 18.5769 138.273 20.1486 136.119 20.9764C135.525 21.2195 134.907 21.3986 134.276 21.5107C132.875 21.722 131.964 21.0602 131.888 19.8273C131.808 18.4757 131.764 17.1345 130.573 16.0623C130.091 15.6292 130.205 15.149 130.688 14.6775C131.626 13.7694 132.787 13.3852 134.148 13.3643Z" fill="#00160A"/>
<path d="M144.788 19.2092C144.676 19.7593 144.354 20.0823 143.677 20.03C143.059 19.9793 142.583 19.6947 142.626 19.1428C142.63 19.0132 142.659 18.8855 142.713 18.7674C142.767 18.6494 142.844 18.5434 142.94 18.4558C143.036 18.3683 143.149 18.3009 143.272 18.2579C143.395 18.2148 143.525 18.1968 143.655 18.2051C144.422 18.1876 144.627 18.6853 144.788 19.2092Z" fill="#CCFFD7"/>
<path d="M127.007 18.1332C126.469 18.0634 126.09 17.8014 126.041 17.3107C126.001 16.8968 126.332 16.6786 126.777 16.6454C127.303 16.607 127.653 16.8287 127.72 17.2863C127.786 17.7438 127.56 18.0389 127.007 18.1332Z" fill="#CCFFD7"/>
<path d="M44.9999 26.3145C45.5009 26.3145 45.8074 26.524 45.7479 26.9379C45.7255 27.194 45.6073 27.4324 45.4169 27.6058C45.2264 27.7792 44.9776 27.8749 44.7196 27.8739C44.6383 27.8856 44.5553 27.8792 44.4768 27.8551C44.3982 27.8311 44.326 27.7899 44.2653 27.7346C44.2046 27.6793 44.157 27.6112 44.1259 27.5354C44.0949 27.4595 44.0811 27.3777 44.0855 27.2959C44.0908 26.7685 44.3851 26.4035 44.9999 26.3145Z" fill="#FEFEFD"/>
<path d="M135.136 43.6571C132.409 43.6291 131.561 42.5447 132.509 40.5138C133.12 39.1953 132.964 37.9397 131.975 36.8134C131.411 36.1725 131.507 35.8285 132.309 35.3919C134.905 33.9826 137.398 33.8202 139.302 35.0793C143.25 37.676 141.339 41.7292 138.172 43.0616C137.179 43.4825 136.066 43.603 135.136 43.6571Z" fill="#00160A"/>
<path d="M21.2701 50.7522C23.0656 52.7866 26.8299 55.0079 30.0091 53.7855C30.4265 53.6201 30.8809 53.5699 31.3245 53.6403C31.7681 53.7107 32.1845 53.899 32.5297 54.1854C34.4881 55.9178 36.3641 59.0366 39.1282 57.5209C42.8067 54.8578 45.3168 53.1708 46.5149 50.5916C47.3539 49.0199 48.8429 47.4046 47.5519 45.6303C45.294 43.6081 46.2171 37.5886 41.9571 38.4566C38.629 39.1883 37.1839 42.0749 33.1743 41.5265C28.9126 41.2506 25.164 43.8805 21.3857 45.2846C17.9577 46.1577 18.9719 46.8248 20.2121 49.322" fill="#00BC55"/>
<path d="M94.3736 34.2271C94.3736 34.2271 84.0284 50.1987 70.2499 37.8349C56.4714 25.4712 58.1827 43.7234 58.1827 43.7234L75.4751 49.3517L83.396 47.1916L87.8767 44.7049L89.7528 44.2805L94.5243 39.6633L95.3581 34.0385L94.3736 34.2271Z" fill="#00BC55"/>
</g>
<defs>
<clipPath id="clip0">
<rect width="246" height="67" fill="white"/>
</clipPath>
</defs>
</svg>
