<svg width="1349" height="571" viewBox="0 0 1349 571" fill="none" xmlns="http://www.w3.org/2000/svg">
<path fill-rule="evenodd" clip-rule="evenodd" d="M110.029 318.049C103.422 318.362 100.444 322.093 99.195 326.539C96.0345 328.527 92.723 327.478 89.4521 326.442C85.2053 325.097 81.0271 323.773 77.3372 329.146C77.1802 329.373 76.2429 329.061 75.3149 328.752C74.8999 328.613 74.4867 328.476 74.146 328.387C68.3254 326.859 61.1524 329.462 58.8748 334.937C57.7213 337.72 57.6662 341.056 57.6131 344.278C57.6046 344.796 57.5961 345.311 57.583 345.82C57.5229 347.971 57.4275 350.127 57.3319 352.285C57.0387 358.908 56.7448 365.547 57.4695 372.081C58.5692 381.913 59.5015 391.577 57.9226 401.325C57.8851 402.663 58.0103 404.005 58.2956 405.321C58.796 410.88 62.333 414.5 65.8706 418.12C68.5879 420.902 71.3055 423.683 72.6479 427.344C72.8252 427.837 73.1027 428.359 73.3781 428.876C73.9143 429.884 74.4423 430.877 74.2059 431.611C72.4877 436.878 74.508 440.449 78.5578 443.748C79.7056 444.68 80.3968 446.251 81.054 447.746L81.0542 447.746L81.0543 447.747L81.0544 447.747L81.0546 447.747C81.1908 448.057 81.3256 448.364 81.4627 448.66C82.6329 451.138 84.5232 453.217 86.8804 454.62C89.2376 456.024 91.9492 456.684 94.6521 456.513C100.373 456.032 100.953 456.841 98.7659 462.259C97.0276 466.592 98.089 476.009 101.335 477.216C104.958 478.559 106.85 481.085 108.826 483.725C109.369 484.449 109.918 485.182 110.511 485.902C114.506 490.725 118.761 495.336 123.017 499.95L123.018 499.951L123.018 499.951L123.018 499.951L123.019 499.952C125.388 502.519 127.757 505.088 130.083 507.693C130.674 508.617 130.989 509.686 130.99 510.771C131.126 512.203 131.216 513.642 131.305 515.08C131.447 517.355 131.588 519.627 131.915 521.864C132.449 525.515 134.979 526.919 138.664 526.834C143.573 526.63 148.499 526.736 153.41 527.153C154.702 527.292 155.969 527.873 157.232 528.453C158.598 529.08 159.96 529.705 161.344 529.766C167.297 530.039 172.565 530.329 171.462 538.546C171.489 538.838 171.585 539.121 171.74 539.372C171.895 539.624 172.106 539.837 172.357 539.995C173.639 540.764 174.916 541.545 176.194 542.325L176.196 542.326L176.202 542.329L176.209 542.334C180.659 545.052 185.11 547.769 189.764 550.041C190.771 550.528 192.215 550.013 193.697 549.485C194.541 549.184 195.397 548.879 196.193 548.751C196.529 548.695 196.874 548.629 197.223 548.562C198.747 548.271 200.348 547.965 201.651 548.432C208.607 550.692 215.427 553.375 222.074 556.467C224.506 557.681 226.547 560.011 228.465 562.202C229.039 562.857 229.602 563.5 230.162 564.098C231.033 565.027 231.808 566.132 232.577 567.227C233.557 568.625 234.528 570.009 235.678 571H416.847C417.735 569.334 418.673 567.695 419.66 566.085C421.214 563.468 422.897 560.924 424.58 558.38L424.581 558.379L424.581 558.378L424.582 558.377L424.583 558.376C426.448 555.556 428.315 552.736 430.006 549.813C430.966 548.153 431.714 546.356 432.46 544.565C433.481 542.114 434.497 539.675 436.042 537.617C437.277 535.964 442.885 535.06 443.332 535.768C446.821 541.295 450.797 539.803 454.645 538.36C455.54 538.024 456.428 537.69 457.302 537.449C464.491 535.449 468.275 537.323 470.078 544.61C471.228 549.269 473.387 552.734 478.447 554.252C481.637 555.207 484.628 556.762 487.257 558.835C493.544 563.964 499.691 565.769 506.989 561.333C510.056 559.471 513.574 559.234 516.047 563.34C518.47 567.384 521.64 569.651 525.171 571H772.247C773.47 570.107 774.692 569.215 775.914 568.323L775.921 568.319L775.927 568.314L775.933 568.31L775.939 568.306L775.957 568.292C781.809 564.022 787.658 559.754 793.462 555.417C793.689 555.247 793.919 555.076 794.152 554.903L794.158 554.899C796.073 553.479 798.136 551.949 799.113 550.018C800.985 546.231 804.153 545.738 807.542 545.212C807.915 545.154 808.291 545.096 808.668 545.032C809.248 544.935 809.87 544.853 810.507 544.769C813.096 544.426 815.924 544.052 817.099 542.528C821.164 537.224 826.75 534.651 832.563 532.303C834.182 531.735 835.768 531.082 837.315 530.347C838.244 529.845 839.162 529.287 840.08 528.73C844.736 525.904 849.372 523.09 855.352 527.543C855.859 527.863 856.457 528 857.043 527.928C857.442 527.876 857.841 527.826 858.24 527.778C858.572 527.737 858.903 527.697 859.235 527.657L859.248 527.655C866.686 526.754 873.992 525.869 879.528 519.403C880.628 518.126 881.857 517.026 883.098 515.916L883.099 515.916L883.099 515.915L883.099 515.915L883.1 515.914C885.139 514.089 887.209 512.237 888.783 509.53C889.025 509.11 889.263 508.711 889.493 508.327C891.292 505.32 892.511 503.281 890.31 499.632C889.788 498.832 890.634 496.48 891.574 495.723C892.515 494.966 894.741 494.548 895.674 495.155C901.778 499.043 908.5 499.231 915.133 499.417C917.88 499.494 920.612 499.571 923.278 499.91C931.452 500.914 939.438 503.264 946.91 506.861C952.979 509.797 956.199 508.855 960.016 504.887C963.213 501.556 966.815 498.891 971.767 500.317C977.664 502.036 982.132 499.845 985.834 495.909C989.536 491.973 993.329 491.996 997.634 495.174C1003.37 499.429 1009.32 500.173 1015.52 496.467C1016.93 495.833 1018.38 495.324 1019.88 494.944C1027.13 492.259 1036.42 497.368 1037.51 504.985C1038.44 511.921 1040.76 517.314 1048.27 519.335C1049.51 519.667 1050.61 520.993 1051.56 522.133L1051.67 522.259L1051.76 522.37C1054.74 525.953 1058.11 526.294 1062.24 524.792C1064.28 524.117 1066.48 524.053 1068.59 524.608C1070.91 525.244 1073.2 526.078 1075.48 526.911C1079.02 528.2 1082.54 529.486 1086.17 530.029C1096.36 531.538 1104.33 538.771 1105.35 548.932C1105.37 549.706 1105.43 550.479 1105.54 551.248C1107.07 558.275 1118.9 566.366 1126.04 565.688L1126.08 565.684C1129.04 565.4 1133.04 565.015 1134.93 566.619C1136.63 568.017 1138.27 569.479 1139.85 571H1197.05C1199.04 569.02 1200.43 567.348 1200.64 566.452C1201.53 562.579 1203.38 561.545 1207.52 561.357C1211.07 561.204 1217.21 558.72 1217.4 556.681C1217.43 556.363 1217.47 556.044 1217.5 555.724L1217.54 555.271L1217.54 555.266C1218.29 547.711 1219.07 539.834 1214.27 532.611C1211.32 528.173 1208.68 523.523 1206.04 518.876L1206.04 518.87L1206.02 518.838C1205.1 517.214 1204.18 515.59 1203.24 513.976C1202.91 513.277 1202.75 512.513 1202.78 511.747C1202.7 505.863 1211.9 495.897 1217.43 494.48C1220.07 493.803 1222.44 492.102 1224.78 490.428C1225.46 489.94 1226.14 489.454 1226.82 488.996C1228.34 487.87 1229.72 486.577 1230.94 485.139C1231.73 484.293 1232.57 483.469 1233.4 482.645C1235.57 480.5 1237.74 478.348 1239.2 475.782C1241.85 470.905 1246.08 467.091 1251.21 464.943C1255.27 463.144 1259.84 460.408 1261.94 456.757C1262.08 456.51 1262.22 456.269 1262.35 456.036L1262.68 455.453L1262.71 455.399C1266.71 448.392 1266.77 448.292 1276.61 448.58C1278.37 448.627 1281.64 446.19 1281.65 444.81C1281.59 442.183 1282.11 439.59 1283.17 437.211C1284.22 434.832 1285.79 432.725 1287.76 431.037C1288.27 430.462 1288.65 429.786 1288.89 429.051C1289.13 428.315 1289.21 427.535 1289.14 426.757C1288.7 422.496 1291.08 420.03 1293.77 417.42C1301.67 409.777 1307.36 401.023 1307.62 389.317C1307.66 387.542 1308.43 385.822 1309.21 384.085C1309.76 382.87 1310.31 381.646 1310.62 380.388C1311.44 377.027 1313.88 375.185 1316.26 373.396C1317.73 372.288 1319.17 371.2 1320.19 369.783C1323.72 364.846 1326.31 359.21 1328.89 353.582L1328.89 353.576C1329.79 351.617 1330.69 349.659 1331.62 347.732C1332.12 346.67 1332.2 345.454 1331.86 344.313C1330.24 339.963 1332.14 337.21 1335.06 334.28C1340.03 329.178 1339.19 323.862 1333.36 319.111C1332.38 318.314 1331.12 316.918 1331.19 315.91C1331.41 312.854 1330.71 309.718 1330.02 306.58C1328.66 300.453 1327.3 294.319 1332.76 288.759C1333.01 288.514 1332.99 288.039 1332.98 287.54C1332.97 287.176 1332.96 286.799 1333.05 286.49C1333.33 285.554 1333.57 284.602 1333.82 283.649L1333.82 283.647L1333.82 283.646L1333.82 283.645L1333.82 283.643L1333.82 283.642C1334.45 281.204 1335.09 278.762 1336.18 276.555C1338.02 272.807 1340.03 269.14 1342.05 265.475C1343.73 262.418 1345.42 259.363 1346.99 256.264C1349.7 250.828 1348.85 243.793 1345.37 240.493C1342.99 238.231 1340.43 236.162 1337.76 234.003L1337.75 234.002L1337.75 234C1336.53 233.01 1335.28 232 1334.01 230.945C1334.08 230.689 1334.17 230.398 1334.27 230.078C1334.48 229.347 1334.74 228.472 1334.97 227.56C1336.84 219.477 1330.36 204.314 1323.06 202.139C1316.63 200.231 1315.31 196.148 1316.37 189.526L1316.42 189.223C1317.36 183.384 1318.38 177.019 1316.92 171.485C1314.58 162.555 1307.51 155.948 1300.87 149.755L1300.82 149.704C1295.83 144.996 1292.27 135.349 1294.77 128.968C1298.03 120.671 1294.76 112.109 1286.83 108.315C1279.77 104.953 1277.08 99.9606 1277.99 92.3529C1278.39 88.9113 1278.54 85.4387 1278.43 81.9627C1278.26 76.9774 1275.38 73.6684 1270.9 71.7358C1267.91 70.4529 1264.92 69.1945 1261.93 67.936C1256.78 65.7698 1251.63 63.6034 1246.51 61.3118C1244.96 60.4773 1243.66 59.244 1242.74 57.7437C1240.9 55.0115 1239.12 52.2432 1237.35 49.4735C1234.75 45.4332 1232.16 41.3899 1229.35 37.4517C1226.06 32.8275 1224.36 27.622 1222.67 22.4184C1221.93 20.1524 1221.19 17.8866 1220.32 15.6695C1220.17 14.9131 1220.17 14.1383 1220.33 13.3908C1220.48 12.6433 1220.79 11.9383 1221.22 11.3176C1222 10.1556 1222.94 9.10393 1223.88 8.05289L1223.88 8.05252L1223.88 8.05192L1223.88 8.05102L1223.88 8.05013L1223.88 8.04958L1223.88 8.04922C1224.85 6.96675 1225.81 5.88484 1226.6 4.68376C1227.01 4.05294 1227.48 3.43097 1227.95 2.80577C1228.63 1.89009 1229.32 0.967478 1229.87 0H1182.69C1182.1 4.88228 1179.15 7.20368 1174.69 8.81911C1171.72 9.97359 1169.04 11.7377 1166.81 14C1163.88 16.9708 1155.64 20.238 1152.35 18.9733C1146.45 16.717 1140.64 8.48687 1141.14 3.09695C1141.24 2.0338 1141.3 1.00159 1141.34 0H356.179C352.293 2.9366 348.238 5.22962 342.409 0.563733C342.001 0.238288 341.212 0.330316 340.519 0.41104C340.389 0.426127 340.263 0.440819 340.144 0.452317C335.997 0.850873 331.957 0.794425 328.009 0H311.824C311.782 0.590076 311.8 1.22965 311.883 1.91235C311.918 2.2427 311.965 2.59003 312.014 2.94352C312.207 4.3432 312.413 5.83965 311.837 6.76262C307.813 13.2648 302.055 15.357 294.274 13.68C292.006 13.1387 289.706 12.7644 287.392 12.5599C279.13 12.0007 274.936 16.9307 277.053 24.2214C275.699 25.7847 274.345 27.3351 272.995 28.88L272.988 28.8884L272.983 28.8946L272.979 28.8988L272.978 28.8996C269.26 33.1562 265.579 37.3713 262.036 41.6991C261.3 42.6025 260.948 43.8253 260.595 45.0536C260.417 45.6715 260.239 46.2907 260.011 46.8714C259.632 47.8525 259.33 48.9169 259.027 49.9822C258.337 52.4081 257.646 54.8386 256.056 56.2999C253.545 58.6247 250.318 60.1983 247.102 61.7666C245.998 62.3046 244.896 62.842 243.825 63.4089C242.2 64.2636 240.399 64.9765 238.601 65.6886C234.847 67.1748 231.101 68.6575 228.985 71.4186C223.962 77.9825 221.871 86.4512 221.991 95.2867C222.128 106.081 221.636 116.818 211.45 123.655C210.63 124.205 209.98 124.97 209.569 125.871C207.651 130.334 204.205 132.306 199.485 133.478C190.827 135.624 189.943 137.596 191.424 146.895C191.436 146.981 191.469 147.067 191.501 147.153C191.54 147.257 191.579 147.359 191.58 147.459C191.557 148.802 191.634 150.174 191.711 151.546V151.546V151.546V151.546V151.547C192.029 157.224 192.347 162.879 185.554 166.274C184.207 166.902 183.371 169.411 183.245 171.211C183.114 172.679 183.224 174.241 183.332 175.795C183.518 178.444 183.701 181.066 182.686 183.137C179.825 188.927 180.868 192.94 185.154 196.019C183.05 206.057 179.876 214.488 171.104 220.012C167.415 222.329 167.111 227.052 170.973 231.192C176.821 237.356 180.19 245.438 180.408 253.83C180.475 255.748 180.527 257.662 180.579 259.575C180.646 262.067 180.713 264.556 180.815 267.049C181.147 275.623 178.176 277.924 170.118 275.219C169.156 274.911 168.212 274.51 167.274 274.111L167.274 274.111L167.273 274.111L167.273 274.111L167.273 274.111L167.273 274.111C165.663 273.426 164.067 272.747 162.415 272.559C160.04 272.29 156.463 272.368 155.3 273.816C150.387 280.001 143.933 282.655 136.394 283.733C132.112 284.348 129.861 286.7 128.994 291.283C128.246 294.135 126.397 296.549 123.848 298.003C121.569 299.213 119.02 299.91 116.459 300.611C114.768 301.073 113.073 301.537 111.447 302.151C110.823 302.463 110.281 302.913 109.861 303.469C109.442 304.024 109.156 304.671 109.025 305.36C109.093 305.982 109.325 306.579 109.697 307.089C110.07 307.6 110.569 308.005 111.144 308.262C114.109 308.779 116.498 310.107 115.354 313.092C114.53 315.222 111.978 317.958 110.029 318.049ZM45.4973 320.711C39.5171 326.155 33.4167 331.234 24.5491 331.849C20.9411 332.24 17.36 332.816 13.8197 333.573C13.4064 333.646 12.9767 333.803 12.5525 333.959C11.8089 334.232 11.0822 334.498 10.4902 334.291C8.04261 333.447 5.6566 332.403 3.26989 331.359L3.26311 331.356L3.2571 331.353C2.44307 330.997 1.62894 330.641 0.812256 330.292C1.47807 329.47 2.09266 328.55 2.70762 327.629C4.0616 325.602 5.41737 323.573 7.3255 322.574C12.8177 319.71 18.7971 316.811 24.8716 316.21C29.4474 315.763 34.1826 316.57 38.9174 317.377C40.9978 317.732 43.0782 318.086 45.1449 318.334L45.4973 320.711Z" fill="#47F066"/>
</svg>
